<?xml version="1.0" encoding="utf-8"?>
<!-- Generator: Adobe Illustrator 24.2.1, SVG Export Plug-In . SVG Version: 6.00 Build 0)  -->
<svg version="1.1" id="图层_1" xmlns="http://www.w3.org/2000/svg" xmlns:xlink="http://www.w3.org/1999/xlink" x="0px" y="0px"
	 viewBox="0 0 841.89 1190.55" style="enable-background:new 0 0 841.89 1190.55;" xml:space="preserve">
<style type="text/css">
	.st0{font-family:'HYSWLongFangSong';}
	.st1{font-size:12.4033px;}
	.st2{font-size:12.4046px;}
	.st3{font-size:12.4045px;}
	.st4{font-size:12.4016px;}
	.st5{font-size:12.4022px;}
	.st6{font-size:12.4034px;}
	.st7{font-size:12.4036px;}
	.st8{font-size:12.4027px;}
	.st9{font-size:12.4024px;}
	.st10{font-size:12.4035px;}
	.st11{fill:none;stroke:#000000;stroke-width:0.709;stroke-miterlimit:10;}
	.st12{fill:none;stroke:#000000;stroke-width:0.51;stroke-miterlimit:10;}
	.st13{fill:none;stroke:#000000;stroke-width:0.709;stroke-linecap:round;stroke-linejoin:round;stroke-miterlimit:10;}
	
		.st14{fill:none;stroke:#000000;stroke-width:0.51;stroke-linecap:round;stroke-linejoin:round;stroke-miterlimit:10;stroke-dasharray:86.4,3.6,3.6,3.6;}
	.st15{fill:none;stroke:#000000;stroke-width:0.51;stroke-linecap:round;stroke-linejoin:round;stroke-miterlimit:10;}
	
		.st16{fill:none;stroke:#000000;stroke-width:0.51;stroke-linecap:round;stroke-linejoin:round;stroke-miterlimit:10;stroke-dasharray:86.4,3.6,3.6,3.6;stroke-dashoffset:43;}
	
		.st17{fill:none;stroke:#000000;stroke-width:0.51;stroke-linecap:round;stroke-linejoin:round;stroke-miterlimit:10;stroke-dasharray:86.4,3.6,3.6,3.6;stroke-dashoffset:36;}
	.st18{font-size:12.4038px;}
	
		.st19{fill:none;stroke:#000000;stroke-width:0.51;stroke-linecap:round;stroke-linejoin:round;stroke-miterlimit:10;stroke-dasharray:86.4,3.6,3.6,3.6;stroke-dashoffset:79;}
	.st20{fill-rule:evenodd;clip-rule:evenodd;}
	.st21{font-size:12.4009px;}
	.st22{font-size:12.4012px;}
	.st23{font-size:12.3977px;}
	
		.st24{fill:none;stroke:#000000;stroke-width:0.51;stroke-linecap:round;stroke-linejoin:round;stroke-miterlimit:10;stroke-dasharray:86.4,3.6,3.6,3.6;stroke-dashoffset:47;}
</style>
<text transform="matrix(0 -1 1.0001 0 74.5589 469.2888)" class="st0 st1"> 50.90 </text>
<text transform="matrix(0 -1.0002 1 0 62.1669 438.8606)" class="st0 st2">+</text>
<text transform="matrix(0 -1.0004 1 0 74.5093 438.8728)" class="st0 st2">-</text>
<text transform="matrix(0 -1 1 0 62.167 432.7571)" class="st0 st3">0.30</text>
<text transform="matrix(0 -1 1 0 74.5096 432.7576)" class="st0 st3">0.10</text>
<text transform="matrix(0 -1 1.0002 0 74.5466 415.3542)" class="st0 st4"> </text>
<text transform="matrix(1 0 0 1.0002 582.0001 326.7977)"><tspan x="0" y="0" class="st0 st5"> 4-M4 螺纹深5.5mm</tspan><tspan x="0" y="14.88" class="st0 st5">（设备两侧对称分布） </tspan></text>
<text transform="matrix(1 0 0 1.0001 758.6003 538.1555)" class="st0 st1"> 11.80±0.05 </text>
<text transform="matrix(1 0 0 1.0001 622.7334 538.1555)" class="st0 st6"> 51 ±0.10 </text>
<text transform="matrix(0 -1 1.0001 0 775.5547 365.2727)" class="st0 st1"> 13.80 ±0.10 </text>
<text transform="matrix(1 0 0 1 511.96 439.2791)" class="st0 st2">A</text>
<text transform="matrix(1 0 0 1.0001 268.3164 854.9202)" class="st0 st7"> 130 ±0.10 </text>
<text transform="matrix(0 -1 1.0001 0 533.7714 750.7004)" class="st0 st8"> 68.80 ±0.10 </text>
<text transform="matrix(1 0 0 1.0002 113.7999 608.9583)" class="st0 st5"> 1/4-20 螺钉孔 螺纹深7mm </text>
<text transform="matrix(0 -1 1.0002 0 550.7794 750.6926)" class="st0 st9"> 76.97 ±0.50 </text>
<text transform="matrix(0.5 0.866 -0.866 0.5 88.7874 598.0059)" class="st0 st2"> 4-R3 </text>
<text transform="matrix(0 -1 1.0001 0 516.7637 817.2434)" class="st0 st10"> 40.20 ±0.05 </text>
<polyline class="st11" points="529.9,445.25 511.9,448.05 511.9,442.35 529.9,445.25 "/>
<polyline class="st12" points="109.6,638.85 105,628.15 102.6,629.55 109.6,638.85 "/>
<polyline class="st12" points="287.1,709.65 285.5,698.05 282.7,698.85 287.1,709.65 "/>
<path class="st12" d="M105.3,857.45l11.6-1.4v2.8L105.3,857.45 M473.8,857.45l-11.5,1.4v-2.8L473.8,857.45"/>
<path class="st12" d="M519.2,718.75l1.4,11.6h-2.9L519.2,718.75 M519.2,832.75l-1.5-11.6h2.9L519.2,832.75 M553.2,614.55l1.4,11.6
	h-2.8L553.2,614.55 M553.2,832.75l-1.4-11.6h2.8L553.2,832.75 M536.2,637.75l1.4,11.5h-2.8L536.2,637.75 M536.2,832.75l-1.4-11.6
	h2.8L536.2,832.75"/>
<path class="st12" d="M577.3,540.65l11.6-1.4v2.9L577.3,540.65 M721.9,540.65l-11.6,1.5v-2.9L721.9,540.65 M721.9,540.65l11.5-1.4
	v2.9L721.9,540.65 M755.3,540.65l-11.6,1.5v-2.9L755.3,540.65"/>
<polyline class="st12" points="576.1,402.65 574.5,391.15 571.7,391.85 576.1,402.65 "/>
<path class="st12" d="M778,368.05l1.4,11.6h-2.9L778,368.05 M778,407.15l-1.5-11.5h2.9L778,407.15 M77,368.05l1.4,11.6h-2.9
	L77,368.05 M77,512.35l-1.5-11.6h2.9L77,512.35"/>
<line class="st13" x1="529.9" y1="445.25" x2="493.9" y2="445.25"/>
<line class="st13" x1="493.9" y1="445.25" x2="493.9" y2="445.25"/>
<line class="st14" x1="577.35" y1="400.04" x2="577.35" y2="395.36"/>
<line class="st14" x1="570.26" y1="407.12" x2="565.58" y2="407.12"/>
<line class="st14" x1="577.35" y1="414.21" x2="577.35" y2="418.89"/>
<line class="st14" x1="584.43" y1="407.12" x2="589.11" y2="407.12"/>
<line class="st14" x1="721.91" y1="400.04" x2="721.91" y2="395.36"/>
<line class="st14" x1="714.83" y1="407.12" x2="710.15" y2="407.12"/>
<line class="st14" x1="721.91" y1="414.21" x2="721.91" y2="418.89"/>
<line class="st14" x1="729" y1="407.12" x2="733.68" y2="407.12"/>
<path class="st15" d="M721.9,407.15h7.1 M721.9,407.15v7.1 M721.9,407.15h-7.1 M721.9,407.15v-7.1 M577.3,407.15h7.1 M577.3,407.15
	v7.1 M577.3,407.15h-7.1 M577.3,407.15v-7.1"/>
<path class="st15" d="M109.6,638.85l4.2,7.4 M109.6,638.85l-22.9-39.6"/>
<path class="st15" d="M260.8,611.45H120.3 M292,727.95l-4.9-18.3 M287.1,709.65l-26.3-98.2"/>
<path class="st15" d="M473.8,857.45H105.3 M105.3,824.25v38.9 M473.8,824.25v38.9"/>
<path class="st15" d="M519.2,832.75v-114 M306.2,718.75h218.7 M465.3,832.75h59.6 M553.2,832.75v-218.2 M383.9,614.55h175
	 M465.3,832.75h93.6 M536.2,832.75v-195 M465.3,637.75h76.6 M465.3,832.75h76.6"/>
<line class="st16" x1="289.63" y1="704.58" x2="289.63" y2="616.69"/>
<line class="st14" x1="275.46" y1="718.75" x2="273.04" y2="718.75"/>
<line class="st17" x1="289.63" y1="732.92" x2="289.63" y2="843.97"/>
<line class="st14" x1="303.8" y1="718.75" x2="306.22" y2="718.75"/>
<path class="st15" d="M289.6,718.75h7.1 M289.6,718.75v7.1 M289.6,718.75h-7.1 M289.6,718.75v-7"/>
<path class="st15" d="M721.9,540.65H577.3 M577.3,418.95v127.4 M721.9,418.95v127.4 M755.3,540.65h-33.4 M755.3,540.65h76.66
	 M721.9,418.95v127.4 M755.3,449.95v96.4"/>
<path class="st15" d="M559.9,342.45h172.3 M578.5,411.65l-2.4-9 M576.1,402.65l-16.2-60.2"/>
<path class="st15" d="M778,368.05v-63.6 M778,407.15v-39.1 M746.8,368.05h36.8 M733.6,407.15h50 M77,512.35v-144.3 M105.3,368.05
	h-34 M113.8,512.35H71.3"/>
<path class="st15" d="M841.8,769.65 M841.8,769.65 M841.8,1190.55"/>
<path class="st15" d="M841.8,1190.55 M-0.9,1190.55 M-0.9,1190.55"/>
<path class="st13" d="M15,1176.45 M15,1176.45"/>
<polyline points="529.9,445.25 511.9,448.05 511.9,442.35 "/>
<polyline points="109.6,638.85 105,628.15 102.6,629.55 "/>
<polyline points="287.1,709.65 285.5,698.05 282.7,698.85 "/>
<path d="M105.3,857.45l11.6-1.4v2.8 M473.8,857.45l-11.5,1.4v-2.8"/>
<path d="M519.2,718.75l1.4,11.6h-2.9 M519.2,832.75l-1.5-11.6h2.9 M553.2,614.55l1.4,11.6h-2.8 M553.2,832.75l-1.4-11.6h2.8
	 M536.2,637.75l1.4,11.5h-2.8 M536.2,832.75l-1.4-11.6h2.8"/>
<path d="M577.3,540.65l11.6-1.4v2.9 M721.9,540.65l-11.6,1.5v-2.9 M721.9,540.65l11.5-1.4v2.9 M755.3,540.65l-11.6,1.5v-2.9"/>
<polyline points="576.1,402.65 574.5,391.15 571.7,391.85 "/>
<path d="M778,368.05l1.4,11.6h-2.9 M778,407.15l-1.5-11.5h2.9 M77,368.05l1.4,11.6h-2.9 M77,512.35l-1.5-11.6h2.9"/>
<text transform="matrix(1 0 0 1.0001 386.3403 959.8333)" class="st0 st7"> 15 </text>
<text transform="matrix(0 -1 1.0001 0 499.7559 1014.9172)" class="st0 st18"> 13.40 </text>
<text transform="matrix(1 0 0 1 444.1963 959.8333)" class="st0 st2"> 2 - M2 </text>
<text transform="matrix(0 -1 1.0001 0 520.0335 1078.4172)" class="st0 st1"> 50.90 </text>
<text transform="matrix(0 -1.0002 1 0 507.6411 1047.9895)" class="st0 st2">+</text>
<text transform="matrix(0 -1.0004 1 0 519.9839 1048.0002)" class="st0 st2">-</text>
<text transform="matrix(0 -1 1 0 507.6406 1041.886)" class="st0 st3">0.30</text>
<text transform="matrix(0 -1 1 0 519.9832 1041.885)" class="st0 st3">0.10</text>
<text transform="matrix(0 -1 1.0002 0 520.0208 1024.4827)" class="st0 st4"> </text>
<text transform="matrix(1 0 0 1.0001 140.3242 943.7122)" class="st0 st7"> 35 </text>
<text transform="matrix(0 -1 1.0001 0 74.559 1014.9167)" class="st0 st18"> 13.40 </text>
<text transform="matrix(1 0 0 1.0001 181.6245 927.5393)" class="st0 st1"> 61.50 </text>
<text transform="matrix(0 -1 1.0001 0 57.5514 1003.2429)" class="st0 st7"> 14 </text>
<path class="st12" d="M376,962.35l11.6-1.4v2.8L376,962.35 M418.6,962.35l-11.6,1.4v-2.8L418.6,962.35"/>
<path class="st12" d="M105.3,946.25l11.6-1.5v2.9L105.3,946.25 M204.5,946.25l-11.5,1.4v-2.9L204.5,946.25"/>
<path class="st12" d="M279.7,930.05l-11.6,1.5v-2.9L279.7,930.05 M105.3,930.05l11.6-1.4v2.9L105.3,930.05 M420,1010.25l7-9.3
	l-2.5-1.4L420,1010.25"/>
<path class="st12" d="M60,974.75l1.4,11.6h-2.9L60,974.75 M60,1014.45l-1.5-11.6h2.9L60,1014.45 M77,974.75l1.4,11.6h-2.9L77,974.75
	 M77,1012.75l-1.5-11.6h2.9L77,1012.75 M502.2,974.75l1.4,11.6h-2.9L502.2,974.75 M502.2,1012.75l-1.5-11.6h2.9L502.2,1012.75"/>
<path class="st12" d="M522.5,1119.05l-1.5-11.6h2.9L522.5,1119.05 M522.5,974.75l1.4,11.6H521L522.5,974.75"/>
<line class="st14" x1="376.09" y1="1019.78" x2="376.09" y2="1023.75"/>
<line class="st14" x1="383.17" y1="1012.69" x2="387.14" y2="1012.69"/>
<line class="st14" x1="376.09" y1="1005.6" x2="376.09" y2="1001.63"/>
<line class="st14" x1="369" y1="1012.69" x2="365.03" y2="1012.69"/>
<line class="st14" x1="418.61" y1="1019.78" x2="418.61" y2="1023.75"/>
<line class="st14" x1="425.69" y1="1012.69" x2="429.66" y2="1012.69"/>
<line class="st14" x1="418.61" y1="1005.6" x2="418.61" y2="1001.63"/>
<line class="st19" x1="411.52" y1="1012.69" x2="386.23" y2="1012.69"/>
<line class="st14" x1="204.59" y1="1026.86" x2="204.59" y2="1032.67"/>
<line class="st14" x1="218.76" y1="1012.69" x2="224.58" y2="1012.69"/>
<line class="st14" x1="204.59" y1="998.52" x2="204.59" y2="992.71"/>
<line class="st14" x1="190.42" y1="1012.69" x2="184.61" y2="1012.69"/>
<line class="st14" x1="279.71" y1="1021.48" x2="279.71" y2="1026.44"/>
<line class="st14" x1="286.8" y1="1014.39" x2="291.76" y2="1014.39"/>
<line class="st14" x1="279.71" y1="1007.3" x2="279.71" y2="1002.34"/>
<line class="st14" x1="272.62" y1="1014.39" x2="267.66" y2="1014.39"/>
<path class="st15" d="M279.7,1014.45h-7.1 M279.7,1014.45v-7.1 M279.7,1014.45h7 M279.7,1014.45v7.1 M204.5,1012.75h-7
	 M204.5,1012.75v-7.1 M204.5,1012.75h7.1 M204.5,1012.75v7.1 M418.6,1012.75h-7.1 M418.6,1012.75v-7.1 M418.6,1012.75h7
	 M418.6,1012.75v7.1 M376,1012.75h-7 M376,1012.75v-7.1 M376,1012.75h7.1 M376,1012.75v7.1"/>
<path class="st15" d="M418.6,962.35H376 M376,1001.65v-45 M418.6,1001.65v-45"/>
<path class="st15" d="M204.5,946.25h-99.2 M105.3,974.75v-34.2 M204.5,992.75v-52.2"/>
<path class="st15" d="M105.3,930.05h174.4 M279.7,1002.35v-78 M105.3,974.75v-50.4 M447.6,962.35H489 M417.1,1015.15l2.9-4.9
	 M420,1010.25l27.6-47.9"/>
<path class="st15" d="M60,1014.45v-39.7 M105.3,974.75h-51 M267.6,1014.45H54.3 M77,1012.75v-38 M105.3,974.75h-34 M184.6,1012.75
	H71.3 M502.2,1012.75v-38 M473.8,974.75h34 M429.6,1012.75h78.2"/>
<path class="st15" d="M522.5,974.75v144.3 M465.3,1119.05h62.8 M473.8,974.75h54.3"/>
<path d="M376,962.35l11.6-1.4v2.8 M418.6,962.35l-11.6,1.4v-2.8"/>
<path d="M105.3,946.25l11.6-1.5v2.9 M204.5,946.25l-11.5,1.4v-2.9"/>
<path d="M279.7,930.05l-11.6,1.5v-2.9 M105.3,930.05l11.6-1.4v2.9 M420,1010.25l7-9.3l-2.5-1.4"/>
<path d="M60,974.75l1.4,11.6h-2.9 M60,1014.45l-1.5-11.6h2.9 M77,974.75l1.4,11.6h-2.9 M77,1012.75l-1.5-11.6h2.9 M502.2,974.75
	l1.4,11.6h-2.9 M502.2,1012.75l-1.5-11.6h2.9"/>
<path d="M522.5,1119.05l-1.5-11.6h2.9 M522.5,974.75l1.4,11.6H521"/>
<path class="st20" d="M217.4,1030.75h0.1h0.1h0.1v0.1h0.1h0.1h0.1l0.1,0.1h0.1l0.1,0.1v0.1h0.1v0.1h0.1v0.1v0.1l0.1,0.1v0.1v0.1v0.1
	v0.1v0.1h-0.1v0.1v0.1l-0.1,0.1v0.1h-0.1v0.1h-0.1l-0.1,0.1H218h-0.1l-0.1,0.1h-0.1h-0.1h-1v-2H217.4z M218.2,1033.25h0.1h0.1
	l0.1-0.1h0.1l0.1-0.1l0.1-0.1h0.1v-0.1h0.1v-0.1l0.1-0.1l0.1-0.1v-0.1v-0.1h0.1v-0.1v-0.1v-0.1v-0.1v-0.1v-0.1v-0.1v-0.1v-0.1v-0.2
	v-0.1h-0.1v-0.1v-0.1l-0.1-0.1v-0.1l-0.1-0.1h-0.1v-0.1l-0.1-0.1h-0.1l-0.1-0.1h-0.1l-0.1-0.1h-0.1h-0.1l-0.1-0.1h-0.2h-0.1h-0.1
	h-0.2h-1.6v5.7h0.7v-2.5h0.9l1.2,2.5h0.8L218.2,1033.25z M211.7,1030.15v5.7h3.4v-0.7h-2.6v-2h2.2v-0.6h-2.2v-1.8h2.4v-0.6H211.7z
	 M207.2,1033.15v0.2l0.1,0.2v0.2v0.2v0.2l0.1,0.2v0.1l0.1,0.2v0.1l0.1,0.2l0.1,0.1v0.1l0.1,0.1l0.1,0.1l0.1,0.1l0.1,0.1l0.1,0.1h0.1
	l0.1,0.1h0.1l0.1,0.1h0.1h0.1h0.1h0.1h0.1h0.1h0.1h0.1h0.1v-0.1h0.1h0.1l0.1-0.1h0.1v-0.1h0.1v-0.1h0.1l0.1,0.4h0.5v-2.9H209v0.6
	h1.1v0.4v0.1v0.1v0.1H210v0.1v0.1v0.1v0.1l-0.1,0.1v0.1l-0.1,0.1l-0.1,0.1l-0.1,0.1h-0.1v0.1h-0.1h-0.1h-0.1h-0.1H209h-0.1l-0.1-0.1
	h-0.1v-0.1h-0.1l-0.1-0.1l-0.1-0.1v-0.1l-0.1-0.1v-0.1h-0.1v-0.1v-0.2l-0.1-0.1v-0.1v-0.1v-0.1v-0.2v-0.2l-0.1-0.2v-0.2v-0.2v-0.2
	l0.1-0.2v-0.2v-0.1v-0.2v-0.1l0.1-0.2v-0.1v-0.1v-0.1h0.1v-0.1l0.1-0.1v-0.1h0.1v-0.1l0.1-0.1l0.1-0.1h0.1h0.1h0.1h0.1h0.1h0.1h0.1
	h0.1v0.1h0.1v0.1h0.1v0.1h0.1v0.1l0.1,0.1v0.1v0.1l0.1,0.1v0.1v0.1v0.1v0.1v0.2h0.7v-0.2v-0.1v-0.1v-0.2v-0.1l-0.1-0.1v-0.1
	l-0.1-0.2v-0.1l-0.1-0.1v-0.1l-0.1-0.1l-0.1-0.1v-0.1h-0.1l-0.1-0.1h-0.1l-0.1-0.1l-0.1-0.1h-0.1h-0.1h-0.1l-0.1-0.1h-0.1h-0.1H209
	h-0.1l-0.2,0.1h-0.1h-0.1l-0.1,0.1l-0.1,0.1h-0.1l-0.2,0.1l-0.1,0.1v0.1l-0.1,0.2l-0.1,0.1l-0.1,0.1v0.1l-0.1,0.2l-0.1,0.2v0.2
	l-0.1,0.2v0.1v0.2v0.3v0.3L207.2,1033.15z M203,1033.15v0.2v0.2v0.2v0.2v0.2l0.1,0.2v0.1l0.1,0.2v0.1l0.1,0.2l0.1,0.1v0.1l0.1,0.1
	l0.1,0.1l0.1,0.1l0.1,0.1l0.1,0.1h0.1l0.1,0.1h0.1l0.1,0.1h0.1h0.1h0.1h0.2h0.1h0.1h0.1h0.1l0.1-0.1h0.1l0.1-0.1h0.1v-0.1h0.1v-0.1
	h0.1l0.1,0.4h0.5v-2.9h-1.6v0.6h1v0.4v0.1v0.1v0.1l-0.1,0.1v0.1v0.1v0.1l-0.1,0.1v0.1l-0.1,0.1v0.1h-0.1l-0.1,0.1h-0.1v0.1h-0.1H205
	h-0.1h-0.1h-0.1h-0.1v-0.1h-0.1h-0.1v-0.1h-0.1v-0.1h-0.1l-0.1-0.1v-0.1l-0.1-0.1v-0.1h-0.1v-0.1v-0.2l-0.1-0.1v-0.1v-0.1v-0.1v-0.2
	v-0.2v-0.2v-0.2v-0.2v-0.2v-0.2v-0.2v-0.1v-0.2l0.1-0.1v-0.2v-0.1v-0.1l0.1-0.1v-0.1l0.1-0.1v-0.1h0.1v-0.1l0.1-0.1h0.1v-0.1h0.1
	h0.1h0.1h0.1h0.1h0.1h0.1h0.1l0.1,0.1l0.1,0.1l0.1,0.1v0.1h0.1v0.1v0.1v0.1l0.1,0.1v0.1v0.1v0.1v0.1v0.2h0.7v-0.2v-0.1v-0.1v-0.2
	v-0.1l-0.1-0.1v-0.1v-0.2l-0.1-0.1v-0.1l-0.1-0.1l-0.1-0.1v-0.1l-0.1-0.1h-0.1l-0.1-0.1h-0.1v-0.1h-0.1l-0.1-0.1h-0.1h-0.1h-0.1
	l-0.1-0.1h-0.1h-0.1h-0.1h-0.1l-0.2,0.1h-0.1h-0.1l-0.1,0.1l-0.1,0.1h-0.1l-0.1,0.1l-0.1,0.1l-0.1,0.1l-0.1,0.2l-0.1,0.1l-0.1,0.1
	v0.1l-0.1,0.2v0.2l-0.1,0.2v0.2l-0.1,0.1v0.2v0.3v0.3V1033.15z M200.1,1030.15v5.7h0.7v-5.7H200.1z M195.9,1030.75h0.1h0.1h0.1
	l0.1,0.1h0.1h0.1h0.1l0.1,0.1h0.1v0.1h0.1v0.1h0.1v0.1l0.1,0.1v0.1v0.1v0.1v0.1v0.1v0.1v0.1v0.1v0.1H197v0.1l-0.1,0.1l-0.1,0.1h-0.1
	v0.1h-0.1h-0.1h-0.1v0.1h-0.1h-0.1h-0.1h-0.9v-2H195.9z M196.8,1033.25h0.1h0.1v-0.1h0.1h0.1v-0.1h0.1l0.1-0.1l0.1-0.1h0.1v-0.1
	l0.1-0.1v-0.1l0.1-0.1v-0.1l0.1-0.1v-0.1v-0.1v-0.1v-0.1v-0.1v-0.1v-0.1v-0.1v-0.2l-0.1-0.1v-0.1l-0.1-0.1v-0.1l-0.1-0.1v-0.1h-0.1
	l-0.1-0.1v-0.1h-0.1l-0.1-0.1h-0.1l-0.1-0.1h-0.1h-0.1l-0.2-0.1h-0.1h-0.1h-0.2h-0.1h-1.6v5.7h0.7v-2.5h0.9l1.2,2.5h0.8
	L196.8,1033.25z M192.3,1035.85v-5.1h1.3v-0.6h-3.4v0.6h1.3v5.1H192.3z M391.2,1037.65v0.1v0.2v0.1v0.1l0.1,0.1v0.1v0.1l0.1,0.1v0.1
	l0.1,0.1v0.1h0.1v0.1l0.1,0.1h0.1v0.1h0.1l0.1,0.1h0.1l0.1,0.1h0.1h0.1h0.1h0.2h0.1l0.1,0.1l0.1-0.1h0.1h0.2h0.1h0.1h0.1l0.1-0.1
	h0.1h0.1l0.1-0.1l0.1-0.1l0.1-0.1h0.1v-0.1l0.1-0.1v-0.1l0.1-0.1v-0.1l0.1-0.1v-0.1v-0.1v-0.2v-0.1v-0.1v-0.1v-4h-0.7v4v0.1v0.1v0.1
	v0.1l-0.1,0.1v0.1l-0.1,0.1v0.1h-0.1v0.1l-0.1,0.1h-0.1l-0.1,0.1h-0.1h-0.1H393h-0.1h-0.1h-0.1h-0.1h-0.1v-0.1h-0.1l-0.1-0.1h-0.1
	v-0.1l-0.1-0.1v-0.1H392v-0.1v-0.1v-0.1v-0.1v-0.1v-0.1v-4h-0.8V1037.65z M395.4,1037.75v0.1v0.1v0.1v0.1l0.1,0.1v0.1v0.1l0.1,0.1
	v0.1l0.1,0.1v0.1h0.1l0.1,0.1v0.1h0.1l0.1,0.1h0.1l0.1,0.1h0.1l0.1,0.1h0.1h0.1h0.2h0.1l0.1,0.1l0.2-0.1h0.1h0.1h0.1h0.1l0.2-0.1
	h0.1h0.1l0.1-0.1l0.1-0.1h0.1l0.1-0.1v-0.1l0.1-0.1l0.1-0.1v-0.1l0.1-0.1v-0.1l0.1-0.1v-0.1v-0.1v-0.1v-0.1v-0.1v-0.1v-0.1v-0.1
	v-0.1l-0.1-0.1v-0.1l-0.1-0.1v-0.1l-0.1-0.1h-0.1v-0.1l-0.1-0.1h-0.1l-0.1-0.1l-0.1-0.1l-0.2-0.1l-0.1-0.1h-0.1l-0.2-0.1l-0.1-0.1
	h-0.1l-0.1-0.1H397l-0.1-0.1h-0.1l-0.1-0.1h-0.1v-0.1h-0.1v-0.1h-0.1v-0.1l-0.1-0.1v-0.1v-0.1v-0.1v-0.1v-0.1v-0.1v-0.1h0.1v-0.1
	h0.1v-0.1h0.1v-0.1h0.1h0.1l0.1-0.1h0.1h0.1h0.1h0.1h0.1v0.1h0.1h0.1l0.1,0.1l0.1,0.1v0.1h0.1v0.1v0.1h0.1v0.1v0.1v0.1v0.1h0.8v-0.1
	l-0.1-0.1v-0.1v-0.1v-0.1v-0.1l-0.1-0.1v-0.1l-0.1-0.1v-0.1h-0.1v-0.1l-0.1-0.1v-0.1h-0.1l-0.1-0.1l-0.1-0.1h-0.1h-0.1l-0.1-0.1
	h-0.1h-0.1h-0.1h-0.1h-0.1l-0.1-0.1l-0.1,0.1h-0.1h-0.1h-0.1h-0.1l-0.1,0.1h-0.1l-0.1,0.1h-0.1l-0.1,0.1H396v0.1l-0.1,0.1l-0.1,0.1
	v0.1h-0.1v0.1l-0.1,0.1v0.1v0.1l-0.1,0.1v0.1v0.1v0.1v0.1v0.1v0.1l0.1,0.1v0.1l0.1,0.1v0.1l0.1,0.1l0.1,0.1l0.1,0.1l0.1,0.1l0.1,0.1
	h0.1l0.2,0.1l0.1,0.1h0.1l0.2,0.1h0.1l0.1,0.1h0.1l0.2,0.1l0.1,0.1h0.1v0.1h0.1l0.1,0.1l0.1,0.1h0.1v0.1l0.1,0.1v0.1v0.1h0.1v0.1
	v0.1v0.1l-0.1,0.1v0.1v0.1l-0.1,0.1v0.1h-0.1v0.1h-0.1v0.1h-0.1h-0.1v0.1h-0.1h-0.1h-0.1h-0.1h-0.1H397h-0.1h-0.1v-0.1h-0.1h-0.1
	v-0.1h-0.1l-0.1-0.1h-0.1v-0.1v-0.1h-0.1v-0.1v-0.1v-0.1l-0.1-0.1v-0.1v-0.2h-0.7V1037.75z M401.4,1034.25h0.1h0.1v0.1h0.1h0.1h0.1
	v0.1h0.1l0.1,0.1l0.1,0.1v0.1h0.1v0.1v0.1v0.1v0.1v0.1v0.1v0.1v0.1h-0.1v0.1v0.1h-0.1v0.1H402l-0.1,0.1h-0.1l-0.1,0.1h-0.1h-0.1
	h-0.1h-0.9v-1.8H401.4z M401.3,1036.65h0.1h0.1l0.1,0.1h0.1h0.1h0.1v0.1h0.1h0.1v0.1h0.1v0.1h0.1v0.1l0.1,0.1v0.1v0.1v0.1v0.1v0.1
	v0.1v0.1v0.1v0.1l-0.1,0.1v0.1h-0.1v0.1h-0.1v0.1H402h-0.1l-0.1,0.1h-0.1h-0.1h-0.1h-0.1l-0.1,0.1h-0.1h-0.7v-2.1H401.3z
	 M399.7,1039.35h1.6h0.2h0.1h0.1l0.2-0.1h0.1h0.1l0.1-0.1h0.1h0.1l0.1-0.1h0.1h0.1v-0.1l0.1-0.1h0.1v-0.1l0.1-0.1l0.1-0.1v-0.1v-0.1
	l0.1-0.1v-0.2v-0.1v-0.2v-0.1v-0.1v-0.1v-0.1v-0.1v-0.1h-0.1v-0.1v-0.1H403v-0.1h-0.1v-0.1l-0.1-0.1h-0.1v-0.1h-0.1h-0.1l-0.1-0.1
	h-0.1l-0.1-0.1h0.1l0.1-0.1h0.1l0.1-0.1h0.1v-0.1h0.1v-0.1h0.1v-0.1l0.1-0.1v-0.1v-0.1v-0.1l0.1-0.1v-0.1v-0.1v-0.1v-0.1l-0.1-0.1
	v-0.1v-0.1v-0.1l-0.1-0.1v-0.1l-0.1-0.1l-0.1-0.1l-0.1-0.1l-0.1-0.1l-0.1-0.1h-0.1h-0.1l-0.1-0.1H402h-0.1l-0.1-0.1h-0.1h-0.2h-0.1
	h-1.7V1039.35z"/>
<text transform="matrix(1 0 0 1.0002 277.2847 900.4114)" class="st0 st5">视图 A</text>
<text transform="matrix(1 0 0 1.0003 310.231 962.261)" class="st0 st21">状态灯</text>
<text transform="matrix(1 0 0 1.0002 335.4458 49.2952)" class="st0 st5"> 1/4-20 螺钉孔 螺纹深7mm </text>
<text transform="matrix(0 -1 1.0001 0 499.756 172.634)" class="st0 st10"> 34.10 ±0.05 </text>
<text transform="matrix(1 0 0 1.0003 723.8809 1069.4475)" class="st0 st22">单位：毫米</text>
<text transform="matrix(1 0 0 1.0003 748.2926 1107.4497)" class="st0 st22">：</text>
<text transform="matrix(1 0 0 1.0006 718.8809 1088.6262)" class="st0 st23"> UNIT：mm</text>
<text transform="matrix(1.0001 0 0 1 760.2115 1107.4501)" class="st0 st2">1:1</text>
<text transform="matrix(1 0 0 1.0002 723.8809 1107.4501)" class="st0 st4">比例</text>
<path class="st12" d="M292.9,170.65l5.5-10.3l-2.7-1L292.9,170.65 M281.8,1011.45l4.6-10.7l2.5,1.5L281.8,1011.45"/>
<path class="st12" d="M502.2,82.95l1.4,11.5h-2.9L502.2,82.95 M502.2,179.55l-1.5-11.5h2.9L502.2,179.55"/>
<line class="st24" x1="289.63" y1="165.36" x2="289.63" y2="76.23"/>
<line class="st14" x1="275.46" y1="179.53" x2="273.04" y2="179.53"/>
<line class="st16" x1="289.63" y1="193.71" x2="289.63" y2="290.65"/>
<line class="st14" x1="303.8" y1="179.53" x2="306.22" y2="179.53"/>
<path class="st15" d="M289.6,179.55h7.1 M289.6,179.55v7.1 M289.6,179.55h-7.1 M289.6,179.55v-7.1"/>
<path class="st15" d="M337.9,51.85H492 M286.2,188.45l6.7-17.8 M292.9,170.65l45-118.8 M308.9,964.85l-27.1,46.6 M334.7,964.85
	h-25.8"/>
<path class="st15" d="M502.2,179.55v-96.6 M465.3,82.95h42.5 M306.2,179.55h201.6"/>
<path d="M292.9,170.65l5.5-10.3l-2.7-1 M281.8,1011.45l4.6-10.7l2.5,1.5"/>
<path d="M502.2,82.95l1.4,11.5h-2.9 M502.2,179.55l-1.5-11.5h2.9"/>
<path class="st13" d="M465.3,392.15l-0.1,1.1l-0.3,1.1l-0.5,0.9l-0.7,0.9l-0.9,0.7l-0.3,0.2 M116.7,397.05l-0.3-0.2l-0.9-0.7
	l-0.7-0.9l-0.5-0.9l-0.4-1.1l-0.1-1.1 M462.5,397.85v-15.4 M116.7,382.45v15.4 M465.3,397.85h-0.2h-0.7h-1H462h-1.5h-1.6h-1.6h-0.5
	 M462.5,416.55h0.6h0.6h0.5h0.4h0.3h0.2h0.2 M462.5,416.55v20.7 M122.3,397.85h-0.4h-1.6h-1.6h-1.6h-1.3h-1.1h-0.6h-0.3
	 M116.7,416.55h-0.6h-0.6H115h-0.4h-0.3H114h-0.1h-0.1 M116.7,437.25v-20.7 M473.8,441.45h-0.1h-0.5h-0.8h-1.1h-1.2h-1.5H467h-1.7
	 M465.3,368.05h1.7h1.6h1.5h1.2h1.1h0.8h0.5h0.1 M465.3,433.25v-46.8 M473.8,368.05v73.4 M113.8,386.45v46.8 M105.3,368.05h0.2h0.5
	h0.8h1h1.3h1.5h1.6h1.6 M105.3,441.45v-73.4 M113.8,441.45h-1.6h-1.6h-1.5h-1.3h-1H106h-0.5h-0.2 M113.8,433.25l0.2,1.3l0.6,1.2
	l1,0.9l1.2,0.6l1.3,0.3l1.3-0.3l1.2-0.6l0.9-0.9l0.6-1.2l0.2-1.3 M442.8,381.25l1.8,0.2l1.8,0.5l1.7,0.9l1.4,1.2l1.2,1.4l0.9,1.6
	l0.5,1.8l0.2,1.9 M126.9,390.75v38.5 M442.8,381.25H136.4 M452.3,429.25v-38.5 M136.4,438.75h306.4 M136.4,438.75l-1.9-0.2l-1.8-0.5
	l-1.6-0.9l-1.4-1.2l-1.2-1.4l-0.9-1.6l-0.5-1.8l-0.2-1.9 M126.9,390.75l0.2-1.9l0.5-1.8l0.9-1.6l1.2-1.4l1.4-1.2l1.6-0.9l1.8-0.5
	l1.9-0.2 M452.3,429.25l-0.2,1.9l-0.5,1.8l-0.9,1.6l-1.2,1.4l-1.4,1.2l-1.7,0.9l-1.8,0.5l-1.8,0.2 M122.3,386.45l-0.2-1.3l-0.6-1.2
	l-0.9-0.9l-1.2-0.6l-1.3-0.2l-1.3,0.2l-1.2,0.6l-1,0.9l-0.6,1.2l-0.2,1.3 M122.3,433.25v-46.8 M465.3,441.45H113.8 M456.8,433.25
	l0.2,1.3l0.6,1.2l1,0.9l1.2,0.6l1.3,0.3l1.3-0.3l1.2-0.6l0.9-0.9l0.6-1.2l0.2-1.3 M456.8,386.45v46.8 M465.3,386.45l-0.2-1.3
	l-0.6-1.2l-0.9-0.9l-1.2-0.6l-1.3-0.2l-1.3,0.2l-1.2,0.6l-1,0.9l-0.6,1.2l-0.2,1.3 M113.8,368.05h351.5 M109,441.45v0.3
	 M470.1,441.45v0.3 M442.8,438.35l1.8-0.2l1.7-0.5l1.5-0.8l1.4-1.2l1.1-1.3l0.9-1.6l0.5-1.7l0.2-1.8 M451.9,429.25v-38.5
	 M451.9,390.75l-0.2-1.8l-0.5-1.7l-0.9-1.6l-1.1-1.3l-1.4-1.2l-1.5-0.8l-1.7-0.5l-1.8-0.2 M442.8,381.65H136.4 M136.4,381.65
	l-1.8,0.2l-1.7,0.5l-1.6,0.8l-1.3,1.2l-1.2,1.3l-0.8,1.6l-0.5,1.7l-0.2,1.8 M127.3,390.75v38.5 M127.3,429.25l0.2,1.8l0.5,1.7
	l0.8,1.6l1.2,1.3l1.3,1.2l1.6,0.8l1.7,0.5l1.8,0.2 M136.4,438.35h306.4 M181.9,446.15l-3.4,0.2l-3.4,0.6l-3.2,1l-3.1,1.4l-2.9,1.8
	l-2.6,2.1l-2.4,2.4l-2.1,2.6l-1.8,2.9l-1.4,3.1l-1,3.2l-0.6,3.4l-0.2,3.4l0.2,3.3l0.6,3.4l1,3.2l1.4,3.1l1.8,2.9l2.1,2.7l2.4,2.4
	l2.6,2.1l2.9,1.7l3.1,1.4l3.2,1l3.4,0.6l3.4,0.2 M181.9,502.25h215.4 M397.3,502.25l3.4-0.2l3.3-0.6l3.2-1l3.1-1.4l2.9-1.7l2.7-2.1
	l2.4-2.4l2.1-2.7l1.7-2.9l1.4-3.1l1-3.2l0.7-3.4l0.2-3.3l-0.2-3.4l-0.7-3.4l-1-3.2l-1.4-3.1l-1.7-2.9l-2.1-2.6l-2.4-2.4l-2.7-2.1
	l-2.9-1.8l-3.1-1.4l-3.2-1l-3.3-0.6l-3.4-0.2 M397.3,446.15H181.9 M472.4,512.35h-0.1h-0.4h-0.7h-0.9h-1H468h-1.3h-1.4
	 M473.5,511.25l-1.1,1.1 M465.3,512.35H113.8 M105.6,511.25l1.1,1.1 M113.8,512.35h-1.3h-1.4h-1.2h-1.1h-0.9h-0.6h-0.4h-0.2
	 M473.5,441.75h-0.1h-0.5h-0.7h-1.1h-1.2h-1.4h-1.6h-1.6 M465.3,511.25h1.6h1.6h1.4h1.2h1.1h0.7h0.5h0.1 M473.5,511.25v-69.5
	 M113.8,441.75h-1.6h-1.5h-1.4H108h-1h-0.8h-0.4h-0.2 M105.6,511.25v-69.5 M105.6,511.25h0.2h0.4h0.8h1h1.3h1.4h1.5h1.6
	 M465.3,441.75H113.8 M181.9,502.55h215.4 M181.9,445.85l-3.5,0.2l-3.3,0.6l-3.3,1.1l-3.1,1.4l-2.9,1.7l-2.7,2.1l-2.5,2.5l-2.1,2.7
	l-1.7,2.9l-1.4,3.1l-1.1,3.3l-0.6,3.3l-0.2,3.5l0.2,3.4l0.6,3.3l1.1,3.3l1.4,3.1l1.7,3l2.1,2.7l2.5,2.4l2.7,2.1l2.9,1.8l3.1,1.4
	l3.3,1l3.3,0.6l3.5,0.2 M397.3,445.85H181.9 M397.3,502.55l3.4-0.2l3.4-0.6l3.2-1l3.2-1.4l2.9-1.8l2.7-2.1l2.4-2.4l2.1-2.7l1.8-3
	l1.4-3.1l1-3.3l0.6-3.3l0.2-3.4l-0.2-3.5l-0.6-3.3l-1-3.3l-1.4-3.1l-1.8-2.9l-2.1-2.7l-2.4-2.5l-2.7-2.1l-2.9-1.7l-3.2-1.4l-3.2-1.1
	l-3.4-0.6l-3.4-0.2 M113.8,511.25h351.5"/>
<path class="st13" d="M557.7,420.25L557.7,420.25h0.9 M558.6,391.85h-0.9 M556.9,393.15L556.9,393.15v0.3v0.7v1.1v1.5v1.7v2v2.2v2.2
	v2.3v2.3v2.2v2v1.7v1.5v1v0.8v0.3 M558.6,420.25l-0.9-4.7l-0.1-4.9l1-4.6 M558.6,420.25h1.7 M560.3,391.85h-1.7 M558.6,406.05
	l-0.6-2.3l-0.4-2.3l-0.1-2.5l0.1-2.4l0.4-2.3l0.6-2.4 M558.6,406.05h1.7 M545.7,396.85v0.1v0.2v0.3v0.6 M536.9,397.05v0.6v0.9v1.1
	v1.5v1.6v3.3v3.3v1.6v1.4v1.2v0.8v0.7 M545.7,410.45v2.4v1.9v1.2v0.4 M545.7,399.45v-1.4 M542.6,396.85L542.6,396.85v0.4v0.8v1.1
	v1.5v1.6v1.9v1.9v1.9v1.8v1.7v1.4v1.2v0.7v0.4v0.1 M541.9,396.25v0.2v0.6v1v1.2v1.6v1.8v1.9v2v1.9v1.9v1.7v1.4v1.1v0.8v0.4v0.1
	 M540.4,396.25L540.4,396.25v0.3v0.7v1.1v1.3v1.6v1.9v1.9v2v1.9v1.8v1.7v1.3v1.1v0.7v0.3 M550.6,401.55h-0.3 M550.7,410.45h0.3
	 M553.5,401.55h-0.4 M553.5,410.45h0.4 M554,416.75l-0.1-0.3l-0.1-1.3l-0.2-2l-0.1-2.7 M553.5,410.45l-0.7-4.4l0.3-4.5
	 M553.1,401.55l-0.2-3.3l-0.1-2.2l-0.2-0.9v0.1 M551.7,396.75L551.7,396.75 M556.8,416.85l-0.1-0.4l-0.1-1.3l-0.1-2l-0.2-2.7
	 M555.9,401.55l-0.1-2.6l-0.1-2l-0.1-1.3l-0.2-0.5v0.1 M555.9,401.55h0.4 M556.3,410.45l-0.7-4.4l0.3-4.5 M556.3,410.45h0.4
	 M550.2,395.45l0.1,0.6l0.2,2.2l0.1,3.3 M550.1,395.25v-0.1 M550.6,401.55l0.8,4.5l-0.4,4.4 M551,410.45l0.2,2.7l0.1,2l0.1,1.3
	l0.1,0.5 M551.5,416.95l0.1-0.2 M553.5,401.55l-0.2-2.6l-0.1-2l-0.1-1.3l-0.1-0.5 M553.9,410.45l0.3-4.4l-0.7-4.5 M554.4,416.95
	l-0.2-0.5l-0.1-1.3l-0.1-2l-0.1-2.7 M554.4,416.75v0.2 M556.3,401.55l-0.1-2.6l-0.1-2l-0.2-1.3l-0.1-0.5 M556.9,405.05l-0.6-3.5
	 M556.7,410.45l0.2-2.4 M551.1,396.85H551 M547.8,401.55h-0.4 M547.8,410.45h0.4 M548.3,416.75l-0.1-0.3l-0.1-1.3l-0.1-2l-0.2-2.7
	 M547.8,410.45l-0.7-4.4l0.3-4.5 M547.4,401.55l-0.1-2.6l-0.1-2l-0.1-1.3l-0.2-0.5v0.1 M551.1,416.85l-0.1-0.4l-0.1-1.3l-0.1-2
	l-0.1-2.7 M550.7,410.45l-0.8-4.4l0.4-4.5 M550.3,401.55l-0.2-2.6l-0.1-2l-0.1-1.3l-0.1-0.5l-0.1,0.1 M545.7,399.45v2.8v3.4
	 M545.7,405.65v2.3 M545.7,407.95v2.5 M545.7,410.45l0.1,2.5l0.1,1.9v1.3l0.1,0.5 M546,416.65v-0.1 M547.8,401.55l-0.1-2.6l-0.2-2
	l-0.1-1.3l-0.1-0.5 M548.2,410.45l0.3-4.4l-0.7-4.5 M548.7,416.95l-0.1-0.5l-0.2-1.3l-0.1-2l-0.1-2.7 M548.7,416.75v0.2
	 M549.6,415.15v0.1 M719.2,373.75v24.1 M730.6,438.95v-22.4 M638.3,397.85v-24.1 M601.1,416.55l1.1,0.1l1.1,0.3l1,0.5l0.8,0.7
	l0.7,0.9l0.5,1l0.4,1l0.1,1.1 M606.8,433.25l-0.1,1.1l-0.4,1.1l-0.5,0.9l-0.7,0.9l-0.8,0.7l-1,0.5l-1.1,0.4l-1.1,0.1 M606.8,422.15
	v11.1 M625.2,438.95l-1.1-0.1l-1.1-0.4l-0.9-0.5l-0.9-0.7l-0.7-0.9l-0.5-0.9l-0.4-1.1l-0.1-1.1 M619.5,433.25v-11.1 M619.5,422.15
	l0.1-1.1l0.4-1l0.5-1l0.7-0.9l0.9-0.7l0.9-0.5l1.1-0.3l1.1-0.1 M755.3,441.45h-0.2h-0.4h-0.8h-1.1h-1.3h-1.4h-1.6h-1.7
	 M746.8,368.05h1.7h1.6h1.4h1.3h1.1h0.8h0.4h0.2 M755.3,433.25v8.2 M755.3,386.45v46.8 M755.3,368.05v18.4 M746.8,441.45h-178
	 M568.8,368.05h178 M738.3,397.85H580.1 M580.1,397.85l-1.1-0.1l-1-0.4l-1-0.5l-0.9-0.7l-0.7-0.9l-0.5-0.9l-0.3-1.1l-0.1-1.1
	 M574.5,392.15v-9.9 M574.5,382.25l0.1-1.7l0.5-1.6l0.8-1.4l1.1-1.3l1.2-1.1l1.5-0.8l1.6-0.5l1.7-0.1 M583,373.75h152.5
	 M735.5,373.75l1.6,0.1l1.6,0.5l1.5,0.8l1.3,1.1l1,1.3l0.8,1.4l0.5,1.6l0.2,1.7 M744,382.25v9.9 M744,392.15l-0.1,1.1l-0.4,1.1
	l-0.5,0.9l-0.7,0.9l-0.8,0.7l-1,0.5l-1.1,0.4l-1.1,0.1 M721.9,402.45l-1.4,0.3l-1.3,0.6l-1,0.9l-0.7,1.2l-0.3,1.4l0.1,1.4l0.5,1.3
	l0.9,1.1l1.1,0.7l1.4,0.4h1.4l1.3-0.4l1.1-0.7l0.9-1.1l0.5-1.3l0.1-1.4l-0.3-1.4l-0.7-1.2l-1-0.9l-1.3-0.6L721.9,402.45
	 M577.3,402.45l-1.4,0.3l-1.2,0.6l-1.1,0.9l-0.7,1.2l-0.3,1.4l0.1,1.4l0.5,1.3l0.9,1.1l1.2,0.7l1.3,0.4h1.4l1.3-0.4l1.2-0.7l0.8-1.1
	l0.6-1.3l0.1-1.4l-0.3-1.4l-0.7-1.2l-1.1-0.9l-1.2-0.6L577.3,402.45 M580.1,416.55h158.2 M738.3,416.55l1.1,0.1l1.1,0.3l1,0.5
	l0.8,0.7l0.7,0.9l0.5,1l0.4,1l0.1,1.1 M744,422.15v8.3 M744,430.45l-0.2,1.6l-0.5,1.6l-0.8,1.5l-1,1.3l-1.3,1l-1.5,0.8l-1.6,0.5
	l-1.6,0.2 M735.5,438.95H583 M583,438.95l-1.7-0.2l-1.6-0.5l-1.5-0.8l-1.2-1l-1.1-1.3l-0.8-1.5l-0.5-1.6l-0.1-1.6 M574.5,430.45
	v-8.3 M574.5,422.15l0.1-1.1l0.3-1l0.5-1l0.7-0.9l0.9-0.7l1-0.5l1-0.3l1.1-0.1 M568.8,441.45h-1.7h-1.6h-1.4h-1.3h-1.1h-0.8h-0.4
	h-0.2 M560.3,368.05h0.2h0.4h0.8h1.1h1.3h1.4h1.6h1.7 M560.3,379.35v-11.3 M560.3,431.55v-52.2 M560.3,441.45v-9.9 M753,441.45v0.3
	 M564.1,441.75v-0.3 M755,441.75h-0.1h-0.5h-0.8h-1h-1.2H750h-1.6h-1.6 M755,511.25v-69.5 M753.9,512.35h-0.1h-0.4h-0.7h-0.9h-1.1
	h-1.2h-1.3h-1.4 M755,511.25l-1.1,1.1 M746.8,511.25h1.6h1.6h1.4h1.2h1h0.8h0.5h0.1 M746.8,441.75h-178 M568.8,511.25h178
	 M746.8,512.35h-178 M561.7,512.35l-1.1-1.1 M568.8,512.35h-1.4h-1.3h-1.2h-1.1h-0.9h-0.7h-0.4h-0.1 M560.6,511.25v-69.5
	 M560.6,511.25h0.1h0.5h0.8h1h1.2h1.4h1.6h1.6 M568.8,441.75h-1.6h-1.6h-1.4H563h-1h-0.8h-0.5h-0.1 M556.9,416.95L556.9,416.95
	 M556.9,418.95l0.6,1.3 M557.5,391.85l-0.6,1.3 M542.6,415.25h3.1 M545.7,396.85h-3.1 M536.9,415.05L536.9,415.05v0.1h0.1v0.1h0.1
	 M537.1,396.75L537.1,396.75l-0.1,0.1l-0.1,0.1v0.1 M545.7,416.35l0.3,0.3 M548.8,396.75l-0.1,0.1h-0.2h-0.2l-0.1-0.1 M546,396.75
	l-0.1,0.1h-0.2 M546.8,415.35l0.1-0.1l0.2-0.1l0.2,0.1l0.1,0.1 M549.6,415.35l0.2-0.1l0.1-0.1l0.2,0.1l0.2,0.1 M537.1,415.25
	l3.3,0.6 M540.4,396.25l-3.3,0.5 M542.6,396.85l-0.7-0.6 M541.9,415.85l0.7-0.6 M540.4,415.85h1.5 M541.9,396.25h-1.5 M556.9,396.85
	h-0.1l-0.1-0.1 M554.5,396.75l-0.1,0.1l-0.2,0.1l-0.2-0.1l-0.1-0.1 M551.7,396.75l-0.2,0.1h-0.1h-0.2l-0.2-0.1 M552.5,415.35
	l0.1-0.1l0.2-0.1l0.2,0.1l0.1,0.1 M555.3,415.35l0.1-0.1l0.2-0.1l0.2,0.1l0.1,0.1 M550.1,395.15h-0.3 M551.2,416.95h0.3 M553,395.15
	h-0.4 M554,416.95h0.4 M555.9,415.35l0.5,0.8l0.4,0.7 M553.1,415.35l0.4,0.8l0.5,0.7 M552.6,395.15l-0.4,0.8l-0.5,0.8 M555.4,395.15
	l-0.4,0.8l-0.5,0.8 M555.8,395.15h-0.4 M554.4,416.85l0.5-0.7l0.4-0.8 M551.6,416.85l0.4-0.7l0.5-0.8 M551.1,396.75l-0.5-0.7
	l-0.4-0.8 M553.9,396.75l-0.5-0.8l-0.4-0.8 M556.7,396.75l-0.4-0.8l-0.5-0.8 M547.3,395.15h-0.4 M548.3,416.95h0.4 M550.3,415.35
	l0.4,0.8l0.5,0.7 M547.4,415.35l0.5,0.8l0.4,0.7 M546.9,395.15l-0.4,0.8l-0.5,0.8 M549.7,395.15l-0.4,0.8l-0.5,0.8 M548.7,416.85
	l0.5-0.7l0.4-0.8 M546.1,416.65l0.2-0.5l0.5-0.8 M548.2,396.75l-0.4-0.8l-0.5-0.8"/>
<path class="st13" d="M387.5,634.35h-0.2h-0.6h-1h-1.4h-1.6h-2h-2.1h-2.2H374h-2.2h-2.2h-2.1h-1.8h-1.5H363h-0.8h-0.4h-0.1
	 M390.9,636.05v1.7 M382.7,636.05l2.7-1h2.8l2.7,1 M358.3,636.05l1.3-0.6l1.4-0.4l1.4-0.1l1.4,0.1l1.4,0.4l1.3,0.6 M358.3,636.05
	v1.7 M382.7,637.75v-1.7 M366.5,636.05l5.4-0.9h5.6l5.2,0.9 M366.5,637.75v-1.7 M368.4,623.15h0.1h1.6 M379.1,623.15h-1H377h-1.2
	h-1.2h-1.2h-1.1h-1.1h-1.1 M379.1,623.15h1.7h0.2 M374.6,614.35h-3.3h-1.6h-1.4h-1.2h-0.8h-0.7 M383.6,614.35H383h-0.9H381h-1.4
	h-1.7h-3.3 M383.8,620.05h-0.2H383h-0.9h-1.3h-1.6h-1.7h-1.9h-1.9h-1.9H370h-1.5h-1.3h-1h-0.6h-0.2 M384.4,619.35h-0.1h-0.5h-0.9
	h-1.2h-1.5h-1.7h-1.9h-2 M374.6,619.35h-1.9h-1.9H369h-1.5h-1.2h-0.9H365h-0.2 M384.4,617.85h-0.2h-0.6h-1h-1.2h-1.6H378h-1.9h-2
	h-1.9h-1.9h-1.7h-1.4h-1.1h-0.8h-0.4h-0.1 M384.5,632.75v-0.4 M364.7,633.35v0.4 M364.7,630.95v-0.4 M384.5,629.85v-0.3
	 M364.7,628.05v0.8v-0.1 M384.5,630.15v-0.3 M364.7,630.95l1.7-0.2l2.3-0.1l2.8-0.1l3.1-0.2l3.1-0.1l2.8-0.1l2.4-0.1l1.6-0.2
	 M364.7,631.55v0.1v-0.7 M384.5,633.05v-0.3 M364.7,633.75l1.7-0.1l2.3-0.2l2.8-0.1l3.1-0.1l3.1-0.1l2.8-0.2l2.4-0.1l1.6-0.1
	 M364.7,634.45L364.7,634.45v-0.7 M364.7,633.05v0.3 M364.7,633.35l1.7-0.1l2.3-0.1l2.8-0.2l3.1-0.1l3.1-0.1l2.8-0.1l2.4-0.2
	l1.6-0.1 M384.5,632.35v-0.7 M364.7,630.25v0.3 M364.7,630.55l2.3-0.2l3.3-0.1l4-0.2l3.9-0.2 M384.5,627.05v-0.4 M364.7,628.05v-0.3
	 M378.2,627.45l-3.9,0.1l-4,0.2l-3.3,0.2l-2.3,0.1 M364.7,625.25v-0.4 M384.5,624.25v-0.4 M368,623.15h-2.2h-1.1 M384.5,624.55v-0.3
	 M364.7,625.25l1.7-0.1l2.3-0.2l2.8-0.1l3.1-0.1l3.1-0.2l2.8-0.1l2.4-0.1l1.6-0.1 M364.7,625.95L364.7,625.95v-0.7 M384.5,627.35
	v-0.3 M378.2,627.45l2-0.1l1.8-0.1l1.4-0.1l1.1-0.1 M364.7,624.85l1.7-0.1l2.3-0.1l2.8-0.2l3.1-0.1l3.1-0.1l2.8-0.1l2.4-0.2l1.6-0.1
	 M384.5,623.85v-0.7 M384.5,623.15h-1h-2.3 M384.5,629.55l-1.1,0.1H382l-1.8,0.1l-2,0.1 M384.5,629.55v-0.8v0.1 M364.7,627.75
	l1.7-0.2l2.3-0.1l2.8-0.1l3.1-0.2l3.1-0.1l2.8-0.1l2.4-0.1l1.6-0.2 M384.5,626.65v-0.7v0.1 M465.3,812.95l-0.2-1.6l-0.7-1.5l-1-1.2
	l-1.4-0.9l-1.5-0.5h-1.6l-1.6,0.5l-1.4,0.9l-1,1.2l-0.7,1.5l-0.2,1.6 M125.2,812.95l-0.3-1.6l-0.6-1.5l-1.1-1.2l-1.3-0.9l-1.6-0.5
	h-1.6l-1.6,0.5l-1.3,0.9l-1.1,1.2l-0.6,1.5l-0.3,1.6 M193.2,694.95l-0.2-1.6l-0.7-1.4l-1.1-1.2l-1.3-0.9l-1.6-0.5h-1.6l-1.5,0.5
	l-1.4,0.9l-1,1.2l-0.7,1.4l-0.2,1.6 M159.2,694.95l-0.2-1.6l-0.7-1.4l-1.1-1.2l-1.3-0.9l-1.6-0.5h-1.6l-1.5,0.5l-1.4,0.9l-1.1,1.2
	l-0.6,1.4l-0.3,1.6 M210.2,694.95l-0.2-1.6l-0.7-1.4l-1-1.2l-1.4-0.9l-1.6-0.5h-1.6l-1.5,0.5l-1.4,0.9l-1,1.2l-0.7,1.4l-0.2,1.6
	 M176.2,694.95l-0.2-1.6l-0.7-1.4l-1.1-1.2l-1.3-0.9l-1.6-0.5h-1.6l-1.5,0.5l-1.4,0.9l-1,1.2l-0.7,1.4l-0.2,1.6 M227.2,694.95
	l-0.2-1.6l-0.7-1.4l-1-1.2l-1.4-0.9l-1.5-0.5h-1.7l-1.5,0.5l-1.4,0.9l-1,1.2l-0.7,1.4l-0.2,1.6 M296.8,718.75l-0.2-1.7l-0.6-1.6
	l-1-1.4l-1.3-1.2l-1.6-0.8l-1.6-0.4h-1.8l-1.7,0.4l-1.5,0.8l-1.3,1.2l-1,1.4l-0.6,1.6l-0.3,1.7l0.3,1.8l0.6,1.6l1,1.4l1.3,1.2
	l1.5,0.8l1.7,0.4h1.8l1.6-0.4l1.6-0.8l1.3-1.2l1-1.4l0.6-1.6L296.8,718.75 M113.8,832.75h351.5 M465.3,832.75l1.7-0.2l1.6-0.4
	l1.5-0.8l1.2-1.1l1.1-1.3l0.8-1.4l0.5-1.6l0.1-1.7 M473.8,824.25v-178 M473.8,646.25l-0.1-1.7l-0.5-1.6l-0.8-1.4l-1.1-1.3l-1.2-1.1
	l-1.5-0.8l-1.6-0.5l-1.7-0.1 M113.8,637.75h351.5 M113.8,637.75l-1.6,0.1l-1.6,0.5l-1.5,0.8l-1.3,1.1l-1,1.3l-0.8,1.4l-0.5,1.6
	l-0.2,1.7 M105.3,646.25v178 M105.3,824.25l0.2,1.7l0.5,1.6l0.8,1.4l1,1.3l1.3,1.1l1.5,0.8l1.6,0.4l1.6,0.2 M142.2,651.95l-0.3-1.6
	l-0.6-1.5l-1.1-1.2l-1.3-0.9l-1.6-0.5h-1.6l-1.5,0.5l-1.4,0.9l-1.1,1.2l-0.6,1.5l-0.3,1.6 M142.2,710.85v-58.9 M130.8,710.85
	l0.3,1.6l0.6,1.5l1.1,1.2l1.4,0.9l1.5,0.4h1.6l1.6-0.4l1.3-0.9l1.1-1.2l0.6-1.5l0.3-1.6 M130.8,651.95v58.9 M159.2,651.95l-0.2-1.6
	l-0.7-1.5l-1.1-1.2l-1.3-0.9l-1.6-0.5h-1.6l-1.5,0.5l-1.4,0.9l-1.1,1.2l-0.6,1.5l-0.3,1.6 M159.2,710.85v-58.9 M147.8,710.85
	l0.3,1.6l0.6,1.5l1.1,1.2l1.4,0.9l1.5,0.4h1.6l1.6-0.4l1.3-0.9l1.1-1.2l0.7-1.5l0.2-1.6 M147.8,651.95v58.9 M176.2,651.95l-0.2-1.6
	l-0.7-1.5l-1.1-1.2l-1.3-0.9l-1.6-0.5h-1.6l-1.5,0.5l-1.4,0.9l-1,1.2l-0.7,1.5l-0.2,1.6 M176.2,710.85v-58.9 M164.9,710.85l0.2,1.6
	l0.7,1.5l1,1.2l1.4,0.9l1.5,0.4h1.6l1.6-0.4l1.3-0.9l1.1-1.2l0.7-1.5l0.2-1.6 M164.9,651.95v58.9 M193.2,651.95l-0.2-1.6l-0.7-1.5
	l-1.1-1.2l-1.3-0.9l-1.6-0.5h-1.6l-1.5,0.5l-1.4,0.9l-1,1.2l-0.7,1.5l-0.2,1.6 M193.2,710.85v-58.9 M181.9,710.85l0.2,1.6l0.7,1.5
	l1,1.2l1.4,0.9l1.5,0.4h1.6l1.6-0.4l1.3-0.9l1.1-1.2l0.7-1.5l0.2-1.6 M181.9,651.95v58.9 M210.2,651.95l-0.2-1.6l-0.7-1.5l-1-1.2
	l-1.4-0.9l-1.6-0.5h-1.6l-1.5,0.5l-1.4,0.9l-1,1.2l-0.7,1.5l-0.2,1.6 M210.2,710.85v-58.9 M198.9,710.85l0.2,1.6l0.7,1.5l1,1.2
	l1.4,0.9l1.5,0.4h1.6l1.6-0.4l1.4-0.9l1-1.2l0.7-1.5l0.2-1.6 M198.9,651.95v58.9 M227.2,651.95l-0.2-1.6l-0.7-1.5l-1-1.2l-1.4-0.9
	l-1.5-0.5h-1.7l-1.5,0.5l-1.4,0.9l-1,1.2l-0.7,1.5l-0.2,1.6 M227.2,710.85v-58.9 M215.9,710.85l0.2,1.6l0.7,1.5l1,1.2l1.4,0.9
	l1.5,0.4h1.7l1.5-0.4l1.4-0.9l1-1.2l0.7-1.5l0.2-1.6 M215.9,651.95v58.9 M244.2,651.95l-0.2-1.6l-0.7-1.5l-1-1.2l-1.4-0.9l-1.5-0.5
	h-1.6l-1.6,0.5l-1.4,0.9l-1,1.2l-0.7,1.5l-0.2,1.6 M244.2,710.85v-58.9 M232.9,710.85l0.2,1.6l0.7,1.5l1,1.2l1.4,0.9l1.6,0.4h1.6
	l1.5-0.4l1.4-0.9l1-1.2l0.7-1.5l0.2-1.6 M232.9,651.95v58.9 M261.2,651.95l-0.2-1.6l-0.7-1.5l-1-1.2l-1.4-0.9l-1.5-0.5h-1.6
	l-1.6,0.5l-1.3,0.9l-1.1,1.2l-0.7,1.5l-0.2,1.6 M261.2,710.85v-58.9 M249.9,710.85l0.2,1.6l0.7,1.5l1.1,1.2l1.3,0.9l1.6,0.4h1.6
	l1.5-0.4l1.4-0.9l1-1.2l0.7-1.5l0.2-1.6 M249.9,651.95v58.9 M278.2,651.95l-0.2-1.6l-0.7-1.5l-1-1.2l-1.4-0.9l-1.5-0.5h-1.6
	l-1.6,0.5l-1.3,0.9l-1.1,1.2l-0.7,1.5l-0.2,1.6 M278.2,710.85v-58.9 M266.9,710.85l0.2,1.6l0.7,1.5l1.1,1.2l1.3,0.9l1.6,0.4h1.6
	l1.5-0.4l1.4-0.9l1-1.2l0.7-1.5l0.2-1.6 M266.9,651.95v58.9 M295.3,651.95l-0.3-1.6l-0.6-1.5l-1.1-1.2l-1.4-0.9l-1.5-0.5h-1.6
	l-1.6,0.5l-1.3,0.9l-1.1,1.2l-0.7,1.5l-0.2,1.6 M295.3,700.95v-49 M283.9,700.95l0.2,1.6l0.7,1.5l1.1,1.2l1.3,0.8l1.6,0.5h1.6
	l1.5-0.5l1.4-0.8l1.1-1.2l0.6-1.5l0.3-1.6 M283.9,651.95v49 M312.3,651.95l-0.3-1.6l-0.6-1.5l-1.1-1.2l-1.4-0.9l-1.5-0.5h-1.6
	l-1.6,0.5l-1.3,0.9l-1.1,1.2l-0.7,1.5l-0.2,1.6 M312.3,710.85v-58.9 M300.9,710.85l0.2,1.6l0.7,1.5l1.1,1.2l1.3,0.9l1.6,0.4h1.6
	l1.5-0.4l1.4-0.9l1.1-1.2l0.6-1.5l0.3-1.6 M300.9,651.95v58.9 M329.3,651.95l-0.3-1.6l-0.6-1.5l-1.1-1.2l-1.3-0.9l-1.6-0.5h-1.6
	l-1.6,0.5l-1.3,0.9l-1.1,1.2l-0.6,1.5l-0.3,1.6 M329.3,710.85v-58.9 M317.9,710.85l0.3,1.6l0.6,1.5l1.1,1.2l1.3,0.9l1.6,0.4h1.6
	l1.6-0.4l1.3-0.9l1.1-1.2l0.6-1.5l0.3-1.6 M317.9,651.95v58.9 M346.3,651.95l-0.3-1.6l-0.6-1.5l-1.1-1.2l-1.3-0.9l-1.6-0.5h-1.6
	l-1.6,0.5l-1.3,0.9l-1.1,1.2l-0.6,1.5l-0.3,1.6 M346.3,710.85v-58.9 M334.9,710.85l0.3,1.6l0.6,1.5l1.1,1.2l1.3,0.9l1.6,0.4h1.6
	l1.6-0.4l1.3-0.9l1.1-1.2l0.6-1.5l0.3-1.6 M334.9,651.95v58.9 M363.3,651.95l-0.2-1.6l-0.7-1.5l-1.1-1.2l-1.3-0.9l-1.6-0.5h-1.6
	l-1.5,0.5l-1.4,0.9l-1.1,1.2l-0.6,1.5l-0.3,1.6 M363.3,710.85v-58.9 M351.9,710.85l0.3,1.6l0.6,1.5l1.1,1.2l1.4,0.9l1.5,0.4h1.6
	l1.6-0.4l1.3-0.9l1.1-1.2l0.7-1.5l0.2-1.6 M351.9,651.95v58.9 M380.3,651.95l-0.2-1.6l-0.7-1.5l-1.1-1.2l-1.3-0.9l-1.6-0.5h-1.6
	l-1.5,0.5l-1.4,0.9l-1,1.2l-0.7,1.5l-0.2,1.6 M380.3,710.85v-58.9 M369,710.85l0.2,1.6l0.7,1.5l1,1.2l1.4,0.9l1.5,0.4h1.6l1.6-0.4
	l1.3-0.9l1.1-1.2l0.7-1.5l0.2-1.6 M369,651.95v58.9 M397.3,651.95l-0.2-1.6l-0.7-1.5l-1.1-1.2l-1.3-0.9l-1.6-0.5h-1.6l-1.5,0.5
	l-1.4,0.9l-1,1.2l-0.7,1.5l-0.2,1.6 M397.3,710.85v-58.9 M386,710.85l0.2,1.6l0.7,1.5l1,1.2l1.4,0.9l1.5,0.4h1.6l1.6-0.4l1.3-0.9
	l1.1-1.2l0.7-1.5l0.2-1.6 M386,651.95v58.9 M414.3,651.95l-0.2-1.6l-0.7-1.5l-1.1-1.2l-1.3-0.9l-1.6-0.5h-1.6l-1.5,0.5l-1.4,0.9
	l-1,1.2l-0.7,1.5l-0.2,1.6 M414.3,710.85v-58.9 M403,710.85l0.2,1.6l0.7,1.5l1,1.2l1.4,0.9l1.5,0.4h1.6l1.6-0.4l1.3-0.9l1.1-1.2
	l0.7-1.5l0.2-1.6 M403,651.95v58.9 M431.3,651.95l-0.2-1.6l-0.7-1.5l-1-1.2l-1.4-0.9l-1.5-0.5h-1.7l-1.5,0.5l-1.4,0.9l-1,1.2
	l-0.7,1.5l-0.2,1.6 M431.3,710.85v-58.9 M420,710.85l0.2,1.6l0.7,1.5l1,1.2l1.4,0.9l1.5,0.4h1.7l1.5-0.4l1.4-0.9l1-1.2l0.7-1.5
	l0.2-1.6 M420,651.95v58.9 M448.3,651.95l-0.2-1.6l-0.7-1.5l-1-1.2l-1.4-0.9l-1.5-0.5h-1.7l-1.5,0.5l-1.4,0.9l-1,1.2l-0.7,1.5
	l-0.2,1.6 M448.3,710.85v-58.9 M437,710.85l0.2,1.6l0.7,1.5l1,1.2l1.4,0.9l1.5,0.4h1.7l1.5-0.4l1.4-0.9l1-1.2l0.7-1.5l0.2-1.6
	 M437,651.95v58.9 M142.2,801.55l-0.3-1.6l-0.6-1.4l-1.1-1.3l-1.3-0.8l-1.6-0.5h-1.6l-1.5,0.5l-1.4,0.8l-1.1,1.3l-0.6,1.4l-0.3,1.6
	 M142.2,818.55v-17 M130.8,818.55l0.3,1.6l0.6,1.5l1.1,1.2l1.4,0.9l1.5,0.4h1.6l1.6-0.4l1.3-0.9l1.1-1.2l0.6-1.5l0.3-1.6
	 M130.8,801.55v17 M159.2,801.55l-0.2-1.6l-0.7-1.4l-1.1-1.3l-1.3-0.8l-1.6-0.5h-1.6l-1.5,0.5l-1.4,0.8l-1.1,1.3l-0.6,1.4l-0.3,1.6
	 M159.2,818.55v-17 M147.8,818.55l0.3,1.6l0.6,1.5l1.1,1.2l1.4,0.9l1.5,0.4h1.6l1.6-0.4l1.3-0.9l1.1-1.2l0.7-1.5l0.2-1.6
	 M147.8,801.55v17 M176.2,801.55l-0.2-1.6l-0.7-1.4l-1.1-1.3l-1.3-0.8l-1.6-0.5h-1.6l-1.5,0.5l-1.4,0.8l-1,1.3l-0.7,1.4l-0.2,1.6
	 M176.2,818.55v-17 M164.9,818.55l0.2,1.6l0.7,1.5l1,1.2l1.4,0.9l1.5,0.4h1.6l1.6-0.4l1.3-0.9l1.1-1.2l0.7-1.5l0.2-1.6
	 M164.9,801.55v17 M193.2,801.55l-0.2-1.6l-0.7-1.4l-1.1-1.3l-1.3-0.8l-1.6-0.5h-1.6l-1.5,0.5l-1.4,0.8l-1,1.3l-0.7,1.4l-0.2,1.6
	 M193.2,818.55v-17 M181.9,818.55l0.2,1.6l0.7,1.5l1,1.2l1.4,0.9l1.5,0.4h1.6l1.6-0.4l1.3-0.9l1.1-1.2l0.7-1.5l0.2-1.6
	 M181.9,801.55v17 M210.2,801.55l-0.2-1.6l-0.7-1.4l-1-1.3l-1.4-0.8l-1.6-0.5h-1.6l-1.5,0.5l-1.4,0.8l-1,1.3l-0.7,1.4l-0.2,1.6
	 M210.2,818.55v-17 M198.9,818.55l0.2,1.6l0.7,1.5l1,1.2l1.4,0.9l1.5,0.4h1.6l1.6-0.4l1.4-0.9l1-1.2l0.7-1.5l0.2-1.6 M198.9,801.55
	v17 M227.2,801.55l-0.2-1.6l-0.7-1.4l-1-1.3l-1.4-0.8l-1.5-0.5h-1.7l-1.5,0.5l-1.4,0.8l-1,1.3l-0.7,1.4l-0.2,1.6 M227.2,818.55v-17
	 M215.9,818.55l0.2,1.6l0.7,1.5l1,1.2l1.4,0.9l1.5,0.4h1.7l1.5-0.4l1.4-0.9l1-1.2l0.7-1.5l0.2-1.6 M215.9,801.55v17 M244.2,801.55
	l-0.2-1.6l-0.7-1.4l-1-1.3l-1.4-0.8l-1.5-0.5h-1.6l-1.6,0.5l-1.4,0.8l-1,1.3l-0.7,1.4l-0.2,1.6 M244.2,818.55v-17 M232.9,818.55
	l0.2,1.6l0.7,1.5l1,1.2l1.4,0.9l1.6,0.4h1.6l1.5-0.4l1.4-0.9l1-1.2l0.7-1.5l0.2-1.6 M232.9,801.55v17 M261.2,801.55l-0.2-1.6
	l-0.7-1.4l-1-1.3l-1.4-0.8l-1.5-0.5h-1.6l-1.6,0.5l-1.3,0.8l-1.1,1.3l-0.7,1.4l-0.2,1.6 M261.2,818.55v-17 M249.9,818.55l0.2,1.6
	l0.7,1.5l1.1,1.2l1.3,0.9l1.6,0.4h1.6l1.5-0.4l1.4-0.9l1-1.2l0.7-1.5l0.2-1.6 M249.9,801.55v17 M278.2,801.55l-0.2-1.6l-0.7-1.4
	l-1-1.3l-1.4-0.8l-1.5-0.5h-1.6l-1.6,0.5l-1.3,0.8l-1.1,1.3l-0.7,1.4l-0.2,1.6 M278.2,818.55v-17 M266.9,818.55l0.2,1.6l0.7,1.5
	l1.1,1.2l1.3,0.9l1.6,0.4h1.6l1.5-0.4l1.4-0.9l1-1.2l0.7-1.5l0.2-1.6 M266.9,801.55v17 M295.3,801.55l-0.3-1.6l-0.6-1.4l-1.1-1.3
	l-1.4-0.8l-1.5-0.5h-1.6l-1.6,0.5l-1.3,0.8l-1.1,1.3l-0.7,1.4l-0.2,1.6 M295.3,818.55v-17 M283.9,818.55l0.2,1.6l0.7,1.5l1.1,1.2
	l1.3,0.9l1.6,0.4h1.6l1.5-0.4l1.4-0.9l1.1-1.2l0.6-1.5l0.3-1.6 M283.9,801.55v17 M312.3,801.55l-0.3-1.6l-0.6-1.4l-1.1-1.3l-1.4-0.8
	l-1.5-0.5h-1.6l-1.6,0.5l-1.3,0.8l-1.1,1.3l-0.7,1.4l-0.2,1.6 M312.3,818.55v-17 M300.9,818.55l0.2,1.6l0.7,1.5l1.1,1.2l1.3,0.9
	l1.6,0.4h1.6l1.5-0.4l1.4-0.9l1.1-1.2l0.6-1.5l0.3-1.6 M300.9,801.55v17 M329.3,801.55l-0.3-1.6l-0.6-1.4l-1.1-1.3l-1.3-0.8
	l-1.6-0.5h-1.6l-1.6,0.5l-1.3,0.8l-1.1,1.3l-0.6,1.4l-0.3,1.6 M329.3,818.55v-17 M317.9,818.55l0.3,1.6l0.6,1.5l1.1,1.2l1.3,0.9
	l1.6,0.4h1.6l1.6-0.4l1.3-0.9l1.1-1.2l0.6-1.5l0.3-1.6 M317.9,801.55v17 M346.3,801.55l-0.3-1.6l-0.6-1.4l-1.1-1.3l-1.3-0.8
	l-1.6-0.5h-1.6l-1.6,0.5l-1.3,0.8l-1.1,1.3l-0.6,1.4l-0.3,1.6 M346.3,818.55v-17 M334.9,818.55l0.3,1.6l0.6,1.5l1.1,1.2l1.3,0.9
	l1.6,0.4h1.6l1.6-0.4l1.3-0.9l1.1-1.2l0.6-1.5l0.3-1.6 M334.9,801.55v17 M363.3,801.55l-0.2-1.6l-0.7-1.4l-1.1-1.3l-1.3-0.8
	l-1.6-0.5h-1.6l-1.5,0.5l-1.4,0.8l-1.1,1.3l-0.6,1.4l-0.3,1.6 M363.3,818.55v-17 M351.9,818.55l0.3,1.6l0.6,1.5l1.1,1.2l1.4,0.9
	l1.5,0.4h1.6l1.6-0.4l1.3-0.9l1.1-1.2l0.7-1.5l0.2-1.6 M351.9,801.55v17 M380.3,801.55l-0.2-1.6l-0.7-1.4l-1.1-1.3l-1.3-0.8
	l-1.6-0.5h-1.6l-1.5,0.5l-1.4,0.8l-1,1.3l-0.7,1.4l-0.2,1.6 M380.3,818.55v-17 M369,818.55l0.2,1.6l0.7,1.5l1,1.2l1.4,0.9l1.5,0.4
	h1.6l1.6-0.4l1.3-0.9l1.1-1.2l0.7-1.5l0.2-1.6 M369,801.55v17 M397.3,801.55l-0.2-1.6l-0.7-1.4l-1.1-1.3l-1.3-0.8l-1.6-0.5h-1.6
	l-1.5,0.5l-1.4,0.8l-1,1.3l-0.7,1.4l-0.2,1.6 M397.3,818.55v-17 M386,818.55l0.2,1.6l0.7,1.5l1,1.2l1.4,0.9l1.5,0.4h1.6l1.6-0.4
	l1.3-0.9l1.1-1.2l0.7-1.5l0.2-1.6 M386,801.55v17 M414.3,801.55l-0.2-1.6l-0.7-1.4l-1.1-1.3l-1.3-0.8l-1.6-0.5h-1.6l-1.5,0.5
	l-1.4,0.8l-1,1.3l-0.7,1.4l-0.2,1.6 M414.3,818.55v-17 M403,818.55l0.2,1.6l0.7,1.5l1,1.2l1.4,0.9l1.5,0.4h1.6l1.6-0.4l1.3-0.9
	l1.1-1.2l0.7-1.5l0.2-1.6 M403,801.55v17 M431.3,801.55l-0.2-1.6l-0.7-1.4l-1-1.3l-1.4-0.8l-1.5-0.5h-1.7l-1.5,0.5l-1.4,0.8l-1,1.3
	l-0.7,1.4l-0.2,1.6 M431.3,818.55v-17 M420,818.55l0.2,1.6l0.7,1.5l1,1.2l1.4,0.9l1.5,0.4h1.7l1.5-0.4l1.4-0.9l1-1.2l0.7-1.5
	l0.2-1.6 M420,801.55v17 M448.3,801.55l-0.2-1.6l-0.7-1.4l-1-1.3l-1.4-0.8l-1.5-0.5h-1.7l-1.5,0.5l-1.4,0.8l-1,1.3l-0.7,1.4
	l-0.2,1.6 M448.3,818.55v-17 M437,818.55l0.2,1.6l0.7,1.5l1,1.2l1.4,0.9l1.5,0.4h1.7l1.5-0.4l1.4-0.9l1-1.2l0.7-1.5l0.2-1.6
	 M437,801.55v17 M113.8,710.85l0.3,1.6l0.6,1.5l1.1,1.2l1.3,0.9l1.6,0.4h1.6l1.6-0.4l1.3-0.9l1.1-1.2l0.6-1.5l0.3-1.6 M113.8,651.95
	v58.9 M125.2,651.95l-0.3-1.6l-0.6-1.5l-1.1-1.2l-1.3-0.9l-1.6-0.5h-1.6l-1.6,0.5l-1.3,0.9l-1.1,1.2l-0.6,1.5l-0.3,1.6
	 M125.2,710.85v-58.9 M125.2,801.55l-0.3-1.6l-0.6-1.4l-1.1-1.3l-1.3-0.8l-1.6-0.5h-1.6l-1.6,0.5l-1.3,0.8l-1.1,1.3l-0.6,1.4
	l-0.3,1.6 M125.2,818.55v-17 M113.8,818.55l0.3,1.6l0.6,1.5l1.1,1.2l1.3,0.9l1.6,0.4h1.6l1.6-0.4l1.3-0.9l1.1-1.2l0.6-1.5l0.3-1.6
	 M113.8,801.55v17 M465.3,801.55l-0.2-1.6l-0.7-1.4l-1-1.3l-1.4-0.8l-1.5-0.5h-1.6l-1.6,0.5l-1.4,0.8l-1,1.3l-0.7,1.4l-0.2,1.6
	 M465.3,818.55v-17 M454,818.55l0.2,1.6l0.7,1.5l1,1.2l1.4,0.9l1.6,0.4h1.6l1.5-0.4l1.4-0.9l1-1.2l0.7-1.5l0.2-1.6 M454,801.55v17
	 M454,710.85l0.2,1.6l0.7,1.5l1,1.2l1.4,0.9l1.6,0.4h1.6l1.5-0.4l1.4-0.9l1-1.2l0.7-1.5l0.2-1.6 M454,651.95v58.9 M465.3,651.95
	l-0.2-1.6l-0.7-1.5l-1-1.2l-1.4-0.9l-1.5-0.5h-1.6l-1.6,0.5l-1.4,0.9l-1,1.2l-0.7,1.5l-0.2,1.6 M465.3,710.85v-58.9 M299.1,718.75
	l-0.2,2l-0.6,1.9l-1,1.7l-1.4,1.5l-1.6,1.2l-1.8,0.8l-1.9,0.4h-2l-2-0.4l-1.8-0.8l-1.6-1.2l-1.3-1.5l-1-1.7l-0.6-1.9l-0.2-2l0.2-1.9
	l0.6-1.9l1-1.7l1.3-1.5l1.6-1.2l1.8-0.8l2-0.4h2l1.9,0.4l1.8,0.8l1.6,1.2l1.4,1.5l1,1.7l0.6,1.9L299.1,718.75 M288.8,768.75
	 M291.5,768.75 M288.8,757.35 M288.8,768.75 M288.8,757.35 M291.5,768.75 M361.7,634.35l-3.4,1.7 M390.9,636.05l-3.4-1.7
	 M365.4,620.05v3.1 M383.8,623.15v-3.1 M365.6,614.35L365.6,614.35h-0.1v0.1h-0.1v0.1 M383.9,614.55L383.9,614.55l-0.1-0.1l-0.1-0.1
	h-0.1 M383.9,628.45l-0.1-0.2v-0.2v-0.1l0.1-0.2 M383.9,625.55l-0.1-0.1v-0.2v-0.2l0.1-0.1 M365.3,623.55h0.1 M365.4,623.55v0.1
	l0.1,0.2l-0.1,0.2l-0.1,0.1 M365.3,626.35l0.1,0.1l0.1,0.2l-0.1,0.2l-0.1,0.1 M365.4,614.55l-0.6,3.3 M384.4,617.85l-0.5-3.3
	 M383.8,620.05l0.6-0.7 M364.8,619.35l0.6,0.7 M364.8,617.85v1.5 M384.4,619.35v-1.5 M383.9,634.05l-0.1-0.1v-0.2v-0.2l0.1-0.1
	 M383.9,631.25l-0.1-0.1v-0.2v-0.2l0.1-0.1 M365.3,629.15l0.1,0.2l0.1,0.2l-0.1,0.1l-0.1,0.2 M365.3,632.05l0.1,0.1l0.1,0.2
	l-0.1,0.2l-0.1,0.1 M364.7,631.65l0.6,0.4 M364.7,628.85l0.6,0.3 M383.9,630.65l0.7-0.4 M383.9,633.45l0.7-0.4 M365.3,632.65
	l-0.6,0.4 M365.3,629.85l-0.6,0.3 M384.6,631.65l-0.7-0.4 M384.4,634.35l-0.5-0.3 M364.7,625.95l0.6,0.4 M364.7,623.15l0.6,0.4
	 M383.9,624.95l0.7-0.4 M383.9,627.75l0.7-0.4 M365.3,626.95l-0.6,0.4 M365.3,624.15l-0.6,0.4 M384.6,625.95l-0.7-0.4 M384.6,628.75
	l-0.7-0.3"/>
<line class="st13" x1="364.7" y1="623.15" x2="364.7" y2="623.15"/>
<path class="st13" d="M279.7,1019.15l-1.4-0.2l-1.3-0.6l-1-1l-0.7-1.2l-0.3-1.4l0.1-1.4l0.5-1.2l0.9-1.1l1.1-0.8l1.4-0.4h1.4
	l1.3,0.4l1.1,0.8l0.9,1.1l0.5,1.2l0.1,1.4l-0.3,1.4l-0.7,1.2l-1,1l-1.3,0.6L279.7,1019.15 M279.7,1018.95l-1.4-0.2l-1.2-0.6l-1-0.9
	l-0.6-1.2l-0.3-1.3l0.1-1.3l0.5-1.3l0.8-1l1.1-0.8l1.3-0.4h1.3l1.3,0.4l1.1,0.8l0.9,1l0.4,1.3l0.1,1.3l-0.3,1.3l-0.6,1.2l-1,0.9
	l-1.2,0.6L279.7,1018.95 M279.7,1018.05l-1.3-0.2l-1.1-0.6l-0.8-1l-0.4-1.2v-1.2l0.4-1.2l0.8-1l1.1-0.6l1.3-0.3l1.2,0.3l1.1,0.6
	l0.8,1l0.5,1.2v1.2l-0.5,1.2l-0.8,1l-1.1,0.6L279.7,1018.05 M421.4,1012.75l-0.2-1.1l-0.6-0.9l-1-0.6l-1-0.2l-1.1,0.2l-0.9,0.6
	l-0.7,0.9l-0.2,1.1l0.2,1.1l0.7,0.9l0.9,0.6l1.1,0.2l1-0.2l1-0.6l0.6-0.9L421.4,1012.75 M378.9,1012.75l-0.2-1.1l-0.7-0.9l-0.9-0.6
	l-1.1-0.2l-1,0.2l-1,0.6l-0.6,0.9l-0.2,1.1l0.2,1.1l0.6,0.9l1,0.6l1,0.2l1.1-0.2l0.9-0.6l0.7-0.9L378.9,1012.75 M384,1018.65v0.7
	l0.2,0.5l0.3,0.6l0.4,0.4l0.5,0.4l0.5,0.3l0.6,0.2l0.6,0.1 M384,1006.75v11.9 M387.1,1003.65l-0.6,0.1l-0.6,0.2l-0.5,0.2l-0.5,0.4
	l-0.4,0.5l-0.3,0.5l-0.2,0.6v0.6 M407.5,1003.65h-20.4 M410.6,1006.75v-0.6l-0.2-0.6l-0.3-0.5l-0.4-0.5l-0.5-0.4l-0.5-0.2l-0.6-0.2
	l-0.6-0.1 M410.6,1018.65v-11.9 M407.5,1021.85l0.6-0.1l0.6-0.2l0.5-0.3l0.5-0.4l0.4-0.4l0.3-0.6l0.2-0.5v-0.7 M387.1,1021.85h20.4
	 M389.2,1013.45h1.5 M389.2,1008.05v5.4 M405.4,1008.05h-16.2 M405.4,1013.45v-5.4 M403.8,1013.45h1.6 M402,1016.85l1.8-3.4
	 M392.6,1016.85h9.4 M390.7,1013.45l1.9,3.4 M387.1,1021.55h20.4 M407.5,1021.55l0.6-0.1l0.5-0.1l0.5-0.3l0.4-0.4l0.4-0.4l0.2-0.5
	l0.2-0.5v-0.6 M410.3,1018.65v-11.9 M410.3,1006.75v-0.5l-0.2-0.5l-0.2-0.5l-0.4-0.5l-0.4-0.3l-0.5-0.3l-0.5-0.1l-0.6-0.1
	 M407.5,1003.95h-20.4 M387.1,1003.95l-0.6,0.1l-0.5,0.1l-0.5,0.3l-0.4,0.3l-0.4,0.5l-0.2,0.5l-0.2,0.5v0.5 M384.3,1006.75v11.9
	 M384.3,1018.65v0.6l0.2,0.5l0.2,0.5l0.4,0.4l0.4,0.4l0.5,0.3l0.5,0.1l0.6,0.1 M196.4,998.55l-2.7,4.7l-2.8,4.8l-2.7,4.7
	 M188.2,1012.75l2.7,4.6l2.8,4.9l2.7,4.7 M196.4,1026.95h5.4h5.6h5.3 M212.7,1026.95l2.6-4.7l2.8-4.8l2.7-4.7 M220.8,1012.75
	l-1.3-2.3l-1.3-2.3l-1.4-2.5l-1.4-2.4l-1.4-2.3l-1.3-2.4 M212.7,998.55h-5.4h-5.6h-5.3 M212.9,1019.65l0.7-1 M208.9,1023.25l2.7-1.9
	l1.1-1.5 M200.2,1023.25l2.1,0.6l2.2,0.2l2.2-0.2l2.2-0.6 M200.2,1023.15v0.1 M194.6,1016.55l0.3,0.9l1.2,2.3l1.8,2l2.3,1.4
	 M191.6,1012.75l0.3-2.3l0.6-2.2l1-2.1l1.3-1.9l1.7-1.6l1.9-1.3l2.2-0.9l2.2-0.5l2.3-0.1l2.3,0.3l2.2,0.7l2,1.1l1.9,1.5l1.5,1.7
	l1.2,2l0.8,2.2l0.4,2.2v2.3l-0.4,2.3l-0.8,2.2l-1.2,2l-1.5,1.7l-1.9,1.5l-2,1l-2.2,0.8l-2.3,0.3l-2.3-0.1l-2.2-0.5l-2.2-1l-1.9-1.2
	l-1.7-1.6l-1.3-1.9l-1-2.1l-0.6-2.2L191.6,1012.75 M194.6,1014.65v1.3 M213.9,1017.15l-1.6,2.5l-2.2,1.9l-2.6,1.3l-3,0.5
	 M204.5,1023.35l-2.2-0.2l-2.2-0.6l-2-1.1l-1.8-1.6 M194.6,1015.95l0.5,1l0.1,0.2 M194.6,1015.95v1.2 M194.6,1017.15l0.2,0.4
	l0.2,0.4l0.2,0.3l0.2,0.3l0.2,0.4l0.2,0.3l0.3,0.3l0.2,0.3 M214.5,1012.35v2.3 M214.5,1014.65l-0.6,2.5 M194.6,1012.35v2.3
	 M195.2,1017.15l-0.6-2.5 M204.5,1023.05l-1.4-0.1l-1.4-0.3l-1.4-0.5l-1.3-0.7l-1.1-0.9l-1.1-1l-0.9-1.1l-0.7-1.3 M213.9,1017.15
	l-1.6,2.4l-2.3,1.9l-2.6,1.2l-2.9,0.4 M204.5,1023.65l3.1-0.5l2.9-1.3l2.3-2l1.7-2.7 M214.5,1011.95v-3.7 M214.5,1017.15v-2.1
	 M214.5,1008.25l-1.7-2.6l-2.3-2l-2.9-1.3l-3.1-0.5l-3,0.5l-2.9,1.3l-2.3,2l-1.7,2.6 M194.6,1008.25v4.1 M202.6,1023.35l1.9,0.3
	 M194.6,1016.25v0.9 M198.2,1021.45l0.4,0.4l2.9,1.3l3,0.5 M207.8,1015.25l0.1-0.4l0.3-0.4l0.3-0.2l0.5-0.1l0.4,0.1l0.4,0.2l0.2,0.4
	l0.1,0.4l-0.1,0.5l-0.2,0.3l-0.4,0.3l-0.4,0.1l-0.5-0.1l-0.3-0.3l-0.3-0.3L207.8,1015.25 M207.8,1010.15l0.1-0.4l0.3-0.4l0.3-0.2
	l0.5-0.1l0.4,0.1l0.4,0.2l0.2,0.4l0.1,0.4l-0.1,0.5l-0.2,0.3l-0.4,0.3l-0.4,0.1l-0.5-0.1l-0.3-0.3l-0.3-0.3L207.8,1010.15
	 M203.4,1007.65l0.1-0.4l0.2-0.4l0.4-0.3h0.4h0.5l0.3,0.3l0.3,0.4l0.1,0.4l-0.1,0.4l-0.3,0.4l-0.3,0.2l-0.5,0.1l-0.4-0.1l-0.4-0.2
	l-0.2-0.4L203.4,1007.65 M199,1010.15l0.1-0.4l0.2-0.4l0.4-0.2l0.4-0.1l0.5,0.1l0.3,0.2l0.3,0.4l0.1,0.4l-0.1,0.5l-0.3,0.3l-0.3,0.3
	l-0.5,0.1l-0.4-0.1l-0.4-0.3l-0.2-0.3L199,1010.15 M199,1015.25l0.1-0.4l0.2-0.4l0.4-0.2l0.4-0.1l0.5,0.1l0.3,0.2l0.3,0.4l0.1,0.4
	l-0.1,0.5l-0.3,0.3l-0.3,0.3l-0.5,0.1l-0.4-0.1l-0.4-0.3l-0.2-0.3L199,1015.25 M201.2,1020.05h-0.1 M203.6,1017.45l-2.5,2.6
	 M205.5,1017.45l-0.2-0.1l-0.3-0.1l-0.2-0.1h-0.3h-0.2l-0.3,0.1l-0.2,0.1l-0.2,0.1 M208,1020.05h-0.1 M208,1020.05l-2.5-2.6
	 M207.3,1020.35l-0.6,0.2l-0.7,0.1l-0.7,0.1l-0.8,0.1l-0.7-0.1l-0.7-0.1l-0.7-0.1l-0.7-0.2 M207.9,1020.05L207.9,1020.05l-0.1,0.1
	h-0.1l-0.2,0.1l-0.2,0.1 M207.9,1020.05l-2.5-2.5 M203.7,1017.55l-2.5,2.5 M201.7,1020.35l-0.2-0.1l-0.1-0.1h-0.2v-0.1
	 M194.8,1012.75l0.2-2l0.6-1.9l0.9-1.7l1.3-1.5l1.6-1.2l1.7-0.9l2-0.5l1.9-0.1l2,0.3l1.8,0.7l1.7,1.1l1.5,1.3l1.1,1.6l0.8,1.9
	l0.4,1.9v2l-0.4,1.9l-0.8,1.8l-1.1,1.7l-1.5,1.3l-1.7,1.1l-1.8,0.7l-2,0.3l-1.9-0.1l-2-0.5l-1.7-0.9l-1.6-1.2l-1.3-1.5l-0.9-1.8
	l-0.6-1.8L194.8,1012.75 M204.5,1020.95l1.9-0.2l1.7-0.6l1.6-1l1.3-1.3l0.9-1.5l0.7-1.8l0.2-1.8l-0.2-1.8l-0.7-1.8l-0.9-1.5
	l-1.3-1.3l-1.6-1l-1.7-0.6l-1.9-0.2 M204.5,1004.55l-1.8,0.2l-1.7,0.6l-1.6,1l-1.3,1.3l-1,1.5l-0.6,1.8l-0.2,1.8l0.2,1.8l0.6,1.8
	l1,1.5l1.3,1.3l1.6,1l1.7,0.6l1.8,0.2 M204.5,1004.25l-1.6,0.1l-1.6,0.5l-1.5,0.8l-1.3,1.1l-1,1.3l-0.8,1.4l-0.5,1.6l-0.2,1.7
	 M204.5,1021.25l1.9-0.2l1.8-0.6l1.6-1.1l1.4-1.3l1-1.6l0.6-1.8l0.2-1.9l-0.2-1.9l-0.6-1.8l-1-1.6l-1.4-1.4l-1.6-1l-1.8-0.6
	l-1.9-0.2 M196,1012.75l0.2,1.6l0.5,1.6l0.8,1.5l1,1.3l1.3,1.1l1.5,0.7l1.6,0.5l1.6,0.2 M465.3,993.15v-0.3v-0.3l-0.1-0.3l-0.1-0.3
	l-0.1-0.3l-0.1-0.3l-0.2-0.3l-0.1-0.3 M113.8,993.15v-0.3l0.1-0.3v-0.3l0.1-0.3l0.1-0.3l0.2-0.3l0.1-0.3l0.2-0.3 M462.5,989.15
	l0.4,0.2l0.6,0.4l0.6,0.4l0.2,0.3l0.3,0.3 M464.6,988.95v1.8 M114.6,988.95v1.8 M114.6,990.75l0.2-0.3l0.3-0.3l0.3-0.2l0.3-0.3
	l0.3-0.2l0.3-0.1l0.3-0.1l0.1-0.1 M464.6,988.95v-1.4l0.2-1.5l0.2-1.1l0.1-0.2 M114.1,984.65v0.2l0.1,0.6l0.1,0.5l0.1,0.7l0.1,0.6
	v0.5l0.1,0.5v0.7 M462.5,1003.75v-22.6 M116.7,981.15v22.6 M383.5,1006.75v-0.7l0.2-0.7l0.4-0.6l0.4-0.5l0.6-0.5l0.6-0.3l0.6-0.2
	l0.7-0.1 M387,1003.15h20.6 M407.6,1003.15l0.7,0.1l0.6,0.2l0.6,0.3l0.6,0.5l0.4,0.5l0.3,0.6l0.2,0.7l0.1,0.7 M411.1,1006.75v12
	 M411.1,1018.75l-0.1,0.7l-0.2,0.7l-0.3,0.6l-0.4,0.5l-0.6,0.5l-0.6,0.3l-0.6,0.2l-0.7,0.1 M407.6,1022.35H387 M387,1022.35
	l-0.7-0.1l-0.6-0.2l-0.6-0.3l-0.6-0.5l-0.4-0.5l-0.4-0.6l-0.2-0.7v-0.7 M383.5,1018.75v-12 M376,1008.75l1.3,0.2l1.2,0.7l0.9,0.9
	l0.5,1.2l0.1,1.3l-0.3,1.3l-0.7,1.1l-1.1,0.8l-1.2,0.4h-1.3l-1.3-0.4l-1-0.8l-0.7-1.1l-0.3-1.3l0.1-1.3l0.5-1.2l0.9-0.9l1.1-0.7
	L376,1008.75 M418.6,1008.75l1.2,0.2l1.2,0.7l0.9,0.9l0.5,1.2l0.1,1.3l-0.3,1.3l-0.7,1.1l-1.1,0.8l-1.2,0.4h-1.3l-1.2-0.4l-1.1-0.8
	l-0.7-1.1l-0.3-1.3l0.1-1.3l0.5-1.2l0.9-0.9l1.2-0.7L418.6,1008.75 M194.5,1016.05v-1.7 M402.3,1035.15l-0.1-0.4l-0.2-0.3l-0.3-0.1
	l-0.3-0.1 M401.4,1036.05l0.4-0.1l0.3-0.2l0.2-0.3v-0.3 M401.4,1034.25h-0.9 M400.5,1034.25v1.8 M400.5,1036.05h0.9 M401.2,1038.75
	l0.5-0.1l0.5-0.2l0.2-0.4v-0.4 M402.4,1037.65v-0.3l-0.1-0.3l-0.3-0.2l-0.7-0.2 M401.3,1036.65h-0.8 M400.5,1036.65v2.1
	 M400.5,1038.75h0.7 M218.6,1031.75l-0.1-0.5l-0.4-0.3l-0.7-0.2 M217.6,1032.75l0.4-0.1l0.4-0.2l0.1-0.3l0.1-0.4 M217.4,1030.75
	h-0.8 M216.6,1030.75v2 M216.6,1032.75h1 M197.1,1031.75l-0.1-0.5l-0.3-0.3l-0.8-0.2 M196.1,1032.75l0.5-0.1l0.3-0.2l0.2-0.3v-0.4
	 M195.9,1030.75h-0.7 M195.2,1030.75v2 M195.2,1032.75h0.9 M125.2,986.05l-0.1-1.1l-0.4-1l-0.5-1l-0.7-0.9l-0.8-0.7l-1-0.5l-1.1-0.3
	l-1.1-0.1 M459.7,980.45l-1.1,0.1l-1.1,0.3l-1,0.5l-0.8,0.7l-0.8,0.9l-0.5,1l-0.3,1l-0.1,1.1 M397.4,1036.05l1.1,0.7l0.3,0.5
	l0.1,0.5 M398.9,1037.75l-0.1,0.7l-0.5,0.6l-0.6,0.3l-0.6,0.1 M397.1,1039.45l-0.7-0.2l-0.6-0.4l-0.3-0.5l-0.1-0.6 M395.4,1037.75
	v-0.2 M395.4,1037.55h0.7 M396.1,1037.55v0.2 M396.1,1037.75l0.1,0.4l0.3,0.4l0.3,0.2h0.3 M397.1,1038.75h0.5l0.3-0.3l0.2-0.3
	l0.1-0.3 M398.2,1037.85l-0.2-0.5l-0.3-0.3l-0.7-0.4 M397,1036.65l-1.1-0.6l-0.3-0.4l-0.1-0.5 M395.5,1035.15l0.2-0.7l0.4-0.5
	l0.5-0.3l0.5-0.1 M397.1,1033.55l0.7,0.2l0.6,0.4l0.3,0.5l0.1,0.6 M398.8,1035.25H398 M398,1035.25l-0.1-0.4l-0.2-0.4l-0.2-0.1
	l-0.4-0.1 M397.1,1034.25l-0.3,0.1l-0.3,0.2l-0.2,0.2v0.3 M396.3,1035.05l0.1,0.4l0.3,0.3l0.7,0.3 M218.2,1033.25l1.3,2.6
	 M219.5,1035.85h-0.8 M218.7,1035.85l-1.2-2.5 M217.5,1033.35h-0.9 M216.6,1033.35v2.5 M216.6,1035.85h-0.7 M215.9,1035.85v-5.7
	 M215.9,1030.15h1.6 M217.5,1030.15l0.8,0.1l0.7,0.4l0.3,0.5v0.6 M219.3,1031.75v0.6l-0.3,0.5l-0.4,0.2l-0.4,0.2 M210.7,1032.95v2.9
	 M210.7,1035.85h-0.5 M210.2,1035.85l-0.1-0.4 M210.1,1035.45l-0.3,0.2l-0.3,0.1l-0.5,0.1 M209,1035.85h-0.4l-0.4-0.2l-0.6-0.7
	l-0.4-1.8 M207.2,1033.15l0.4-2l0.6-0.8l0.4-0.2l0.5-0.1 M209.1,1030.05l0.8,0.2l0.5,0.6l0.3,1.3 M210.7,1032.15H210 M210,1032.15
	l-0.2-1l-0.1-0.2l-0.2-0.1l-0.2-0.1h-0.2 M209.1,1030.75h-0.3l-0.3,0.3l-0.3,0.6l-0.2,1.4 M208,1033.05l0.2,1.4l0.3,0.5l0.3,0.2
	l0.3,0.1 M209.1,1035.25l0.5-0.1l0.1-0.1l0.2-0.2l0.2-0.9 M210.1,1033.95v-0.4 M210.1,1033.55H209 M209,1033.55v-0.6 M209,1032.95
	h1.7 M200.8,1030.15v5.7 M200.8,1035.85h-0.7 M200.1,1035.85v-5.7 M200.1,1030.15h0.7 M193.6,1030.15v0.6 M193.6,1030.75h-1.3
	 M192.3,1030.75v5.1 M192.3,1035.85h-0.8 M191.5,1035.85v-5.1 M191.5,1030.75h-1.3 M190.2,1030.75v-0.6 M190.2,1030.15h3.4
	 M279.7,1009.45l-1.4,0.2l-1.3,0.6l-1.1,0.9l-0.8,1.2l-0.4,1.4v1.4l0.4,1.4l0.8,1.1l1.1,1l1.3,0.6l1.4,0.2l1.4-0.2l1.2-0.6l1.1-1
	l0.8-1.1l0.4-1.4v-1.4l-0.4-1.4l-0.8-1.2l-1.1-0.9l-1.2-0.6L279.7,1009.45 M426.5,996.45h-58.4 M426.5,996.45l1.2,0.1l1.2,0.4
	l1.1,0.5l0.9,0.8l0.8,1l0.6,1l0.3,1.2l0.1,1.2 M432.7,1022.85v-20.2 M432.7,1022.85l-0.1,1.2l-0.3,1.1l-0.6,1.1l-0.8,1l-0.9,0.7
	l-1.1,0.6l-1.2,0.4l-1.2,0.1 M368.1,1029.05h58.4 M368.1,1029.05l-1.2-0.1l-1.2-0.4l-1.1-0.6l-0.9-0.7l-0.8-1l-0.6-1.1l-0.3-1.1
	l-0.1-1.2 M361.9,1002.65v20.2 M361.9,1002.65l0.1-1.2l0.3-1.2l0.6-1l0.8-1l0.9-0.8l1.1-0.5l1.2-0.4l1.2-0.1 M119.5,1014.15v22.7
	 M123.5,1010.15l-0.8,0.1l-0.7,0.2l-0.7,0.4l-0.6,0.5l-0.5,0.6l-0.4,0.7l-0.2,0.7l-0.1,0.8 M174.5,1010.15h-51 M178.5,1014.15
	l-0.1-0.8l-0.2-0.7l-0.4-0.7l-0.5-0.6l-0.6-0.5l-0.7-0.4l-0.7-0.2l-0.8-0.1 M178.5,1036.85v-22.7 M174.5,1040.85l0.8-0.1l0.7-0.2
	l0.7-0.4l0.6-0.5l0.5-0.6l0.4-0.7l0.2-0.7l0.1-0.8 M123.5,1040.85h51 M119.5,1036.85l0.1,0.8l0.2,0.7l0.4,0.7l0.5,0.6l0.6,0.5
	l0.7,0.4l0.7,0.2l0.8,0.1 M431.3,987.75v-1.7 M420,987.75l0.2,1.6l0.7,1.5l1,1.2l1.4,0.9l1.5,0.5h1.7l1.5-0.5l1.4-0.9l1-1.2l0.7-1.5
	l0.2-1.6 M420,986.05v1.7 M425.6,980.45l-1.1,0.1l-1,0.3l-1,0.5l-0.9,0.7l-0.7,0.9l-0.5,1l-0.3,1l-0.1,1.1 M414.3,986.05l-0.1-1.1
	l-0.3-1l-0.5-1l-0.8-0.9l-0.8-0.7l-1-0.5l-1.1-0.3l-1.1-0.1 M414.3,987.75v-1.7 M403,987.75l0.2,1.6l0.7,1.5l1,1.2l1.4,0.9l1.5,0.5
	h1.6l1.6-0.5l1.3-0.9l1.1-1.2l0.7-1.5l0.2-1.6 M403,986.05v1.7 M408.6,980.45l-1.1,0.1l-1,0.3l-1,0.5l-0.9,0.7l-0.7,0.9l-0.5,1
	l-0.3,1l-0.1,1.1 M397.3,986.05l-0.1-1.1l-0.3-1l-0.6-1l-0.7-0.9l-0.8-0.7l-1-0.5l-1.1-0.3l-1.1-0.1 M397.3,987.75v-1.7 M386,987.75
	l0.2,1.6l0.7,1.5l1,1.2l1.4,0.9l1.5,0.5h1.6l1.6-0.5l1.3-0.9l1.1-1.2l0.7-1.5l0.2-1.6 M386,986.05v1.7 M391.6,980.45l-1.1,0.1
	l-1,0.3l-1,0.5l-0.9,0.7l-0.7,0.9l-0.5,1l-0.3,1l-0.1,1.1 M380.3,986.05l-0.1-1.1l-0.3-1l-0.6-1l-0.7-0.9l-0.8-0.7l-1-0.5l-1.1-0.3
	l-1.1-0.1 M380.3,987.75v-1.7 M369,987.75l0.2,1.6l0.7,1.5l1,1.2l1.4,0.9l1.5,0.5h1.6l1.6-0.5l1.3-0.9l1.1-1.2l0.7-1.5l0.2-1.6
	 M369,986.05v1.7 M374.6,980.45l-1.1,0.1l-1,0.3l-1,0.5l-0.9,0.7l-0.7,0.9l-0.5,1l-0.3,1l-0.1,1.1 M363.3,986.05l-0.1-1.1l-0.3-1
	l-0.6-1l-0.7-0.9l-0.8-0.7l-1-0.5l-1.1-0.3l-1.1-0.1 M363.3,987.75v-1.7 M351.9,987.75l0.3,1.6l0.6,1.5l1.1,1.2l1.4,0.9l1.5,0.5h1.6
	l1.6-0.5l1.3-0.9l1.1-1.2l0.7-1.5l0.2-1.6 M351.9,986.05v1.7 M357.6,980.45l-1.1,0.1l-1.1,0.3l-0.9,0.5l-0.9,0.7l-0.7,0.9l-0.5,1
	l-0.3,1l-0.2,1.1 M346.3,986.05l-0.1-1.1l-0.4-1l-0.5-1l-0.7-0.9l-0.8-0.7l-1-0.5l-1.1-0.3l-1.1-0.1 M346.3,987.75v-1.7
	 M334.9,987.75l0.3,1.6l0.6,1.5l1.1,1.2l1.3,0.9l1.6,0.5h1.6l1.6-0.5l1.3-0.9l1.1-1.2l0.6-1.5l0.3-1.6 M334.9,986.05v1.7
	 M340.6,980.45l-1.1,0.1l-1.1,0.3l-0.9,0.5l-0.9,0.7l-0.7,0.9l-0.5,1l-0.4,1l-0.1,1.1 M329.3,986.05l-0.1-1.1l-0.4-1l-0.5-1
	l-0.7-0.9l-0.9-0.7l-0.9-0.5l-1.1-0.3l-1.1-0.1 M329.3,987.75v-1.7 M317.9,987.75l0.3,1.6l0.6,1.5l1.1,1.2l1.3,0.9l1.6,0.5h1.6
	l1.6-0.5l1.3-0.9l1.1-1.2l0.6-1.5l0.3-1.6 M317.9,986.05v1.7 M323.6,980.45l-1.1,0.1l-1.1,0.3l-1,0.5l-0.8,0.7l-0.7,0.9l-0.5,1
	l-0.4,1l-0.1,1.1 M312.3,986.05l-0.2-1.1l-0.3-1l-0.5-1l-0.7-0.9l-0.9-0.7l-0.9-0.5l-1.1-0.3l-1.1-0.1 M312.3,998.85v-12.8
	 M300.9,998.85l0.2,1.6l0.7,1.5l1.1,1.2l1.3,0.9l1.6,0.4h1.6l1.5-0.4l1.4-0.9l1.1-1.2l0.6-1.5l0.3-1.6 M300.9,986.05v12.8
	 M306.6,980.45l-1.1,0.1l-1.1,0.3l-1,0.5l-0.8,0.7l-0.7,0.9l-0.5,1l-0.4,1l-0.1,1.1 M295.3,986.05l-0.2-1.1l-0.3-1l-0.5-1l-0.7-0.9
	l-0.9-0.7l-0.9-0.5l-1.1-0.3l-1.1-0.1 M295.3,998.85v-12.8 M283.9,998.85l0.2,1.6l0.7,1.5l1.1,1.2l1.3,0.9l1.6,0.4h1.6l1.5-0.4
	l1.4-0.9l1.1-1.2l0.6-1.5l0.3-1.6 M283.9,986.05v12.8 M289.6,980.45l-1.1,0.1l-1.1,0.3l-1,0.5l-0.8,0.7l-0.7,0.9l-0.6,1l-0.3,1
	l-0.1,1.1 M278.2,986.05l-0.1-1.1l-0.3-1l-0.5-1l-0.7-0.9l-0.9-0.7l-1-0.5l-1-0.3l-1.1-0.1 M278.2,998.85v-12.8 M266.9,998.85
	l0.2,1.6l0.7,1.5l1.1,1.2l1.3,0.9l1.6,0.4h1.6l1.5-0.4l1.4-0.9l1-1.2l0.7-1.5l0.2-1.6 M266.9,986.05v12.8 M272.6,980.45l-1.1,0.1
	l-1.1,0.3l-1,0.5l-0.8,0.7l-0.7,0.9l-0.6,1l-0.3,1l-0.1,1.1 M261.2,986.05l-0.1-1.1l-0.3-1l-0.5-1l-0.7-0.9l-0.9-0.7l-1-0.5l-1-0.3
	l-1.1-0.1 M261.2,998.85v-12.8 M249.9,998.85l0.2,1.6l0.7,1.5l1.1,1.2l1.3,0.9l1.6,0.4h1.6l1.5-0.4l1.4-0.9l1-1.2l0.7-1.5l0.2-1.6
	 M249.9,986.05v12.8 M255.6,980.45l-1.1,0.1l-1.1,0.3l-1,0.5l-0.8,0.7l-0.7,0.9l-0.6,1l-0.3,1l-0.1,1.1 M244.2,986.05l-0.1-1.1
	l-0.3-1l-0.5-1l-0.7-0.9l-0.9-0.7l-1-0.5l-1-0.3l-1.1-0.1 M244.2,998.85v-12.8 M232.9,998.85l0.2,1.6l0.7,1.5l1,1.2l1.4,0.9l1.6,0.4
	h1.6l1.5-0.4l1.4-0.9l1-1.2l0.7-1.5l0.2-1.6 M232.9,986.05v12.8 M238.6,980.45l-1.1,0.1l-1.1,0.3l-1,0.5l-0.9,0.7l-0.7,0.9l-0.5,1
	l-0.3,1l-0.1,1.1 M227.2,986.05l-0.1-1.1l-0.3-1l-0.5-1l-0.7-0.9l-0.9-0.7l-1-0.5l-1-0.3l-1.2-0.1 M227.2,987.75v-1.7 M215.9,987.75
	l0.2,1.6l0.7,1.5l1,1.2l1.4,0.9l1.5,0.5h1.7l1.5-0.5l1.4-0.9l1-1.2l0.7-1.5l0.2-1.6 M215.9,986.05v1.7 M221.5,980.45l-1.1,0.1
	l-1,0.3l-1,0.5l-0.9,0.7l-0.7,0.9l-0.5,1l-0.3,1l-0.1,1.1 M210.2,986.05l-0.1-1.1l-0.3-1l-0.5-1l-0.7-0.9l-0.9-0.7l-1-0.5l-1.1-0.3
	l-1.1-0.1 M210.2,987.75v-1.7 M198.9,987.75l0.2,1.6l0.7,1.5l1,1.2l1.4,0.9l1.5,0.5h1.6l1.6-0.5l1.4-0.9l1-1.2l0.7-1.5l0.2-1.6
	 M198.9,986.05v1.7 M204.5,980.45l-1.1,0.1l-1,0.3l-1,0.5l-0.9,0.7l-0.7,0.9l-0.5,1l-0.3,1l-0.1,1.1 M193.2,986.05l-0.1-1.1l-0.3-1
	l-0.6-1l-0.7-0.9l-0.8-0.7l-1-0.5l-1.1-0.3l-1.1-0.1 M193.2,987.75v-1.7 M181.9,987.75l0.2,1.6l0.7,1.5l1,1.2l1.4,0.9l1.5,0.5h1.6
	l1.6-0.5l1.3-0.9l1.1-1.2l0.7-1.5l0.2-1.6 M181.9,986.05v1.7 M187.5,980.45l-1.1,0.1l-1,0.3l-1,0.5l-0.9,0.7l-0.7,0.9l-0.5,1l-0.3,1
	l-0.1,1.1 M176.2,986.05l-0.1-1.1l-0.3-1l-0.6-1l-0.7-0.9l-0.8-0.7l-1-0.5l-1.1-0.3l-1.1-0.1 M176.2,998.85v-12.8 M164.9,998.85
	l0.2,1.6l0.7,1.5l1,1.2l1.4,0.9l1.5,0.4h1.6l1.6-0.4l1.3-0.9l1.1-1.2l0.7-1.5l0.2-1.6 M164.9,986.05v12.8 M170.5,980.45l-1.1,0.1
	l-1,0.3l-1,0.5l-0.9,0.7l-0.7,0.9l-0.5,1l-0.3,1l-0.1,1.1 M159.2,986.05l-0.1-1.1l-0.3-1l-0.6-1l-0.7-0.9l-0.8-0.7l-1-0.5l-1.1-0.3
	l-1.1-0.1 M159.2,998.85v-12.8 M147.8,998.85l0.3,1.6l0.6,1.5l1.1,1.2l1.4,0.9l1.5,0.4h1.6l1.6-0.4l1.3-0.9l1.1-1.2l0.7-1.5l0.2-1.6
	 M147.8,986.05v12.8 M153.5,980.45l-1.1,0.1l-1.1,0.3l-0.9,0.5l-0.9,0.7l-0.7,0.9l-0.5,1l-0.3,1l-0.2,1.1 M142.2,986.05l-0.1-1.1
	l-0.4-1l-0.5-1l-0.7-0.9l-0.8-0.7l-1-0.5l-1.1-0.3l-1.1-0.1 M142.2,998.85v-12.8 M130.8,998.85l0.3,1.6l0.6,1.5l1.1,1.2l1.4,0.9
	l1.5,0.4h1.6l1.6-0.4l1.3-0.9l1.1-1.2l0.6-1.5l0.3-1.6 M130.8,986.05v12.8 M136.5,980.45l-1.1,0.1l-1.1,0.3l-0.9,0.5l-0.9,0.7
	l-0.7,0.9l-0.5,1l-0.4,1l-0.1,1.1 M125.2,998.85v-12.8 M113.8,998.85l0.3,1.6l0.6,1.5l1.1,1.2l1.3,0.9l1.6,0.4h1.6l1.6-0.4l1.3-0.9
	l1.1-1.2l0.6-1.5l0.3-1.6 M454,998.85l0.2,1.6l0.7,1.5l1,1.2l1.4,0.9l1.6,0.4h1.6l1.5-0.4l1.4-0.9l1-1.2l0.7-1.5l0.2-1.6
	 M454,986.05v12.8 M448.3,986.05l-0.1-1.1l-0.3-1l-0.5-1l-0.7-0.9l-0.9-0.7l-1-0.5l-1-0.3l-1.1-0.1 M448.3,998.85v-12.8 M437,998.85
	l0.2,1.6l0.7,1.5l1,1.2l1.4,0.9l1.5,0.4h1.7l1.5-0.4l1.4-0.9l1-1.2l0.7-1.5l0.2-1.6 M437,986.05v12.8 M442.7,980.45l-1.2,0.1l-1,0.3
	l-1,0.5l-0.9,0.7l-0.7,0.9l-0.5,1l-0.3,1l-0.1,1.1 M431.3,986.05l-0.1-1.1l-0.3-1l-0.5-1l-0.7-0.9l-0.9-0.7l-1-0.5l-1-0.3l-1.2-0.1
	 M196.8,1033.25l1.3,2.6 M198.1,1035.85h-0.8 M197.3,1035.85l-1.2-2.5 M196.1,1033.35h-0.9 M195.2,1033.35v2.5 M195.2,1035.85h-0.7
	 M194.5,1035.85v-5.7 M194.5,1030.15h1.6 M196.1,1030.15l0.8,0.1l0.6,0.4l0.3,0.5l0.1,0.6 M197.9,1031.75l-0.1,0.6l-0.2,0.5
	l-0.4,0.2l-0.4,0.2 M206.4,1032.95v2.9 M206.4,1035.85h-0.5 M205.9,1035.85l-0.1-0.4 M205.8,1035.45l-0.3,0.2l-0.2,0.1l-0.5,0.1
	 M204.8,1035.85h-0.5l-0.4-0.2l-0.6-0.7l-0.3-1.8 M203,1033.15l0.3-2l0.6-0.8l0.4-0.2l0.5-0.1 M204.8,1030.05l0.8,0.2l0.6,0.6
	l0.2,1.3 M206.4,1032.15h-0.7 M205.7,1032.15l-0.1-1l-0.2-0.2l-0.1-0.1l-0.3-0.1h-0.2 M204.8,1030.75h-0.3l-0.3,0.3l-0.3,0.6
	l-0.1,1.4 M203.8,1033.05l0.1,1.4l0.4,0.5l0.2,0.2l0.3,0.1 M204.8,1035.25l0.5-0.1l0.2-0.1l0.1-0.2l0.2-0.9 M205.8,1033.95v-0.4
	 M205.8,1033.55h-1 M204.8,1033.55v-0.6 M204.8,1032.95h1.6 M215.1,1035.15v0.7 M215.1,1035.85h-3.4 M211.7,1035.85v-5.7
	 M211.7,1030.15h3.2 M214.9,1030.15v0.6 M214.9,1030.75h-2.4 M212.5,1030.75v1.8 M212.5,1032.55h2.2 M214.7,1032.55v0.6
	 M214.7,1033.15h-2.2 M212.5,1033.15v2 M212.5,1035.15h2.6 M394.6,1033.65v4 M394.6,1037.65l-0.1,0.8l-0.4,0.6l-0.6,0.3l-0.6,0.1
	 M392.9,1039.45l-0.7-0.2l-0.7-0.4l-0.2-0.6l-0.1-0.6 M391.2,1037.65v-4 M391.2,1033.65h0.8 M392,1033.65v4 M392,1037.65v0.5
	l0.3,0.4l0.3,0.2h0.3 M392.9,1038.75l0.5-0.1l0.3-0.3l0.2-0.3v-0.4 M393.9,1037.65v-4 M393.9,1033.65h0.7 M402.2,1036.35l0.5,0.2
	l0.3,0.4l0.2,0.3v0.4 M403.2,1037.65l-0.1,0.8l-0.5,0.6l-1.3,0.3 M401.3,1039.35h-1.6 M399.7,1039.35v-5.7 M399.7,1033.65h1.7
	 M401.4,1033.65l0.7,0.1l0.6,0.4l0.3,0.4l0.1,0.6 M403.1,1035.15l-0.1,0.4l-0.2,0.4l-0.6,0.4 M465.3,974.75h1.7h1.6h1.5h1.2h1.1h0.8
	h0.5h0.1 M473.8,974.75v73.4 M465.3,1038.25v-52.2 M113.8,1048.15h351.5 M459.7,1043.95l1.1-0.1l1-0.4l1-0.5l0.9-0.7l0.7-0.8l0.5-1
	l0.3-1.1l0.1-1.1 M119.5,1043.95h340.2 M113.8,1038.25l0.1,1.1l0.4,1.1l0.5,1l0.7,0.8l0.9,0.7l0.9,0.5l1.1,0.4l1.1,0.1
	 M465.3,974.75H113.8 M459.7,980.45H119.5 M465.3,986.05l-0.1-1.1l-0.3-1l-0.5-1l-0.7-0.9l-0.9-0.7l-1-0.5l-1-0.3l-1.1-0.1
	 M119.5,980.45l-1.1,0.1l-1.1,0.3l-0.9,0.5l-0.9,0.7l-0.7,0.9l-0.5,1l-0.4,1l-0.1,1.1 M105.3,974.75h0.2h0.5h0.8h1h1.3h1.5h1.6h1.6
	 M105.3,1048.15v-73.4 M113.8,1048.15h-1.6h-1.6h-1.5h-1.3h-1H106h-0.5h-0.2 M113.8,986.05v52.2 M470.1,1048.45v-0.3 M109,1048.45
	v-0.3 M473.5,1048.45h-0.1h-0.5h-0.7h-1.1h-1.2h-1.4h-1.6h-1.6 M473.5,1117.95v-69.5 M472.4,1119.05l1.1-1.1 M465.3,1117.95h1.6h1.6
	h1.4h1.2h1.1h0.7h0.5h0.1 M472.4,1119.05h-0.1h-0.4h-0.7h-0.9h-1H468h-1.3h-1.4 M465.3,1119.05H113.8 M113.8,1117.95h351.5
	 M105.6,1117.95v-69.5 M105.6,1117.95h0.2h0.4h0.8h1h1.3h1.4h1.5h1.6 M106.7,1119.05l-1.1-1.1 M113.8,1119.05h-1.3h-1.4h-1.2h-1.1
	h-0.9h-0.6h-0.4h-0.2"/>
<path class="st13" d="M361.7,281.35h0.1h0.4h0.8h1.2h1.5h1.8h2.1h2.2h2.2h2.4h2.2h2.1h2h1.6h1.4h1h0.6h0.2 M390.9,279.65l-2.7,0.9
	h-2.8l-2.7-1 M390.9,279.65v-1.7 M358.3,279.65v-1.7 M366.5,279.55l-2.7,1H361l-2.7-0.9 M366.5,279.55v-1.6 M382.7,279.55l-5.3,1
	h-5.6l-5.3-1 M382.7,279.55v-1.6 M383.9,292.55h0.6 M384.5,292.55v-0.1 M384.5,291.95v-0.1 M365.6,301.35h0.7h0.8h1.2h1.4h1.6h3.3
	 M374.6,301.35h3.3h1.6h1.5h1.1h0.9h0.6 M365.4,295.65h0.2h0.6h1h1.3h1.5h1.8h1.9h1.9h1.9h1.7h1.6h1.3h0.9h0.6h0.2 M364.8,296.35
	h0.1h0.3h0.6h1.1h1.4h1.6h1.8h1.9h2h1.9h1.9h1.6h1.4h1h0.7h0.3 M364.8,297.75h0.1h0.4h0.8h1.1h1.4h1.7h1.9h1.9h2h1.9h1.8h1.6h1.2h1
	h0.6h0.2 M364.7,281.95v-0.4 M384.5,286.15v-0.7 M364.7,284.35v-0.3 M384.5,283.35v-0.7 M384.5,283.75v-0.4 M384.5,283.35l-1.6,0.1
	l-2.4,0.1l-2.8,0.2l-3.1,0.1 M374.6,283.85l-3.1,0.1l-2.8,0.2l-2.3,0.1l-1.7,0.1 M364.7,284.75v-0.4 M384.5,286.55v-0.4
	 M374.6,286.65l3.1-0.1l2.8-0.1l2.4-0.1l1.6-0.2 M364.7,287.25l1.7-0.2l2.3-0.1l2.8-0.1l3.1-0.2 M364.7,287.55v-0.3 M384.5,289.35
	v-0.3 M364.7,290.45v-0.4 M384.5,292.45l-0.5,0.1h-0.1 M384.5,292.45v-0.5 M384.5,291.95h-0.1h-0.2H384h-0.2h-0.2h-0.3h-0.2h-0.3
	 M365.3,292.55h1.6h2.2h2.7h2.8 M374.6,292.55h1.5h1.4h1.3h1.3h1.2h1h0.9h0.7 M375.6,281.35h-1 M374.6,281.35l-3.1,0.2l-2.8,0.1
	l-2.3,0.1l-1.7,0.2 M364.7,281.95v0.7v-0.1 M384.5,283.95v-0.2 M384.5,283.75l-1.6,0.1l-2.4,0.1l-2.8,0.1l-3.1,0.2 M374.6,284.25
	l-3.1,0.1l-2.8,0.1l-2.3,0.2l-1.7,0.1 M364.7,284.75v0.7 M364.7,292.55h0.6 M365.3,292.55l1.5-0.1l2.2-0.1h2.7l2.9-0.1
	 M374.6,292.25l2.3-0.1l2.2-0.1h2l1.7-0.1 M382.8,291.95l1.7-0.1 M384.5,291.85v-0.7 M374.6,289.55l-3.1,0.1l-2.8,0.1l-2.3,0.2
	l-1.7,0.1 M384.5,289.05l-1.6,0.1l-2.4,0.1l-2.8,0.1l-3.1,0.2 M384.5,289.05v-0.8v0.1 M374.6,289.85l-3.1,0.2l-2.8,0.1l-2.3,0.1
	l-1.7,0.2 M364.7,290.45v0.7v-0.1 M384.5,286.85v-0.3 M384.5,286.55l-1.6,0.1l-2.4,0.1l-2.8,0.2l-3.1,0.1 M374.6,287.05l-3.1,0.1
	l-2.8,0.2l-2.3,0.1l-1.7,0.1 M364.7,287.55v0.8v-0.1 M384.5,289.65v-0.3 M384.5,289.35l-1.6,0.2l-2.4,0.1l-2.8,0.1l-3.1,0.1
	 M473.8,269.45v-178 M473.8,91.45l-0.1-1.7l-0.5-1.6l-0.8-1.4l-1.1-1.3l-1.2-1.1l-1.5-0.8l-1.6-0.5l-1.7-0.1 M465.3,82.95H113.8
	 M113.8,82.95l-1.6,0.1l-1.6,0.5l-1.5,0.8l-1.3,1.1l-1,1.3l-0.8,1.4l-0.5,1.6l-0.2,1.7 M105.3,91.45v178 M105.3,269.45l0.2,1.6
	l0.5,1.6l0.8,1.5l1,1.3l1.3,1.1l1.5,0.7l1.6,0.5l1.6,0.2 M465.3,277.95H113.8 M465.3,277.95l1.7-0.2l1.6-0.5l1.5-0.7l1.2-1.1
	l1.1-1.3l0.8-1.5l0.5-1.6l0.1-1.6 M442.2,111.25l0.2-1.8l0.6-1.7l1-1.6l1.3-1.3l1.6-1l1.7-0.6l1.8-0.2l1.9,0.2l1.7,0.6l1.6,1
	l1.3,1.3l1,1.6l0.6,1.7l0.2,1.8l-0.2,1.8l-0.6,1.8l-1,1.5l-1.3,1.3l-1.6,1l-1.7,0.6l-1.9,0.2l-1.8-0.2l-1.7-0.6l-1.6-1l-1.3-1.3
	l-1-1.5l-0.6-1.8L442.2,111.25 M465.3,277.65H113.8 M473.5,269.45l-0.1,1.6l-0.5,1.5l-0.7,1.5l-1.1,1.2l-1.2,1l-1.4,0.8l-1.6,0.5
	l-1.6,0.1 M113.8,277.65l-1.6-0.1l-1.5-0.5l-1.4-0.8l-1.3-1l-1-1.2l-0.8-1.5l-0.4-1.5l-0.2-1.6 M117.7,262.35l0.2,1.4l0.6,1.2
	l0.9,1.1l1.2,0.7l1.4,0.3l1.4-0.1l1.3-0.5l1.1-0.9l0.8-1.2l0.4-1.3v-1.4l-0.4-1.3l-0.8-1.2l-1.1-0.8l-1.3-0.6l-1.4-0.1l-1.4,0.4
	l-1.2,0.6l-0.9,1.1l-0.6,1.2L117.7,262.35 M452.1,262.35l0.3,1.4l0.6,1.2l0.9,1.1l1.2,0.7l1.4,0.3l1.4-0.1l1.3-0.5l1.1-0.9l0.7-1.2
	l0.5-1.3v-1.4l-0.5-1.3l-0.7-1.2l-1.1-0.8l-1.3-0.6l-1.4-0.1l-1.4,0.4l-1.2,0.6l-0.9,1.1l-0.6,1.2L452.1,262.35 M282.3,179.55
	l0.3,1.8l0.6,1.6l1,1.4l1.3,1.2l1.5,0.8l1.7,0.4h1.8l1.6-0.4l1.6-0.8l1.3-1.2l1-1.4l0.6-1.6l0.2-1.8l-0.2-1.7l-0.6-1.6l-1-1.5
	l-1.3-1.1l-1.6-0.8l-1.6-0.5h-1.8l-1.7,0.5l-1.5,0.8l-1.3,1.1l-1,1.5l-0.6,1.6L282.3,179.55 M117.7,134.75l0.2,1.4l0.6,1.3l0.9,1
	l1.2,0.7l1.4,0.3l1.4-0.1l1.3-0.5l1.1-0.9l0.8-1.1l0.4-1.4v-1.4l-0.4-1.3l-0.8-1.1l-1.1-0.9l-1.3-0.5l-1.4-0.1l-1.4,0.3l-1.2,0.7
	l-0.9,1l-0.6,1.3L117.7,134.75 M452.1,134.75l0.3,1.4l0.6,1.3l0.9,1l1.2,0.7l1.4,0.3l1.4-0.1l1.3-0.5l1.1-0.9l0.7-1.1l0.5-1.4v-1.4
	l-0.5-1.3l-0.7-1.1l-1.1-0.9l-1.3-0.5l-1.4-0.1l-1.4,0.3l-1.2,0.7l-0.9,1l-0.6,1.3L452.1,134.75 M105.6,269.45v-178 M473.5,91.45
	v178 M113.8,83.25h351.5 M465.3,83.25l1.6,0.1l1.6,0.5l1.4,0.7l1.2,1.1l1.1,1.2l0.7,1.4l0.5,1.6l0.1,1.6 M105.6,91.45l0.2-1.6
	l0.4-1.6l0.8-1.4l1-1.2l1.3-1.1l1.4-0.7l1.5-0.5l1.6-0.1 M465.3,276.55l1.4-0.2l1.3-0.4l1.3-0.6l1-0.9l0.9-1.1l0.7-1.2l0.4-1.3
	l0.1-1.4 M472.4,269.45v-178 M472.4,91.45l-0.1-1.4l-0.4-1.3l-0.7-1.3l-0.9-1l-1-0.9l-1.3-0.7l-1.3-0.4l-1.4-0.1 M465.3,84.35H113.8
	 M113.8,84.35l-1.3,0.1l-1.4,0.4l-1.2,0.7l-1.1,0.9l-0.9,1l-0.6,1.3l-0.4,1.3l-0.2,1.4 M106.7,91.45v178 M106.7,269.45l0.2,1.4
	l0.4,1.3l0.6,1.2l0.9,1.1l1.1,0.9l1.2,0.6l1.4,0.4l1.3,0.2 M113.8,276.55h351.5 M125.2,246.95v-2.9 M113.8,246.95l0.3,1.6l0.6,1.4
	l1.1,1.3l1.3,0.8l1.6,0.5h1.6l1.6-0.5l1.3-0.8l1.1-1.3l0.6-1.4l0.3-1.6 M113.8,244.05v2.9 M125.2,244.05l-0.3-1.6l-0.6-1.4l-1.1-1.2
	l-1.3-0.9l-1.6-0.5h-1.6l-1.6,0.5l-1.3,0.9l-1.1,1.2l-0.6,1.4l-0.3,1.6 M465.3,246.95v-2.9 M454,246.95l0.2,1.6l0.7,1.4l1,1.3
	l1.4,0.8l1.6,0.5h1.6l1.5-0.5l1.4-0.8l1-1.3l0.7-1.4l0.2-1.6 M454,244.05v2.9 M465.3,244.05l-0.2-1.6l-0.7-1.4l-1-1.2l-1.4-0.9
	l-1.5-0.5h-1.6l-1.6,0.5l-1.4,0.9l-1,1.2l-0.7,1.4l-0.2,1.6 M437,251.85v15.9 M448.3,251.85l-0.2-1.6l-0.7-1.5l-1-1.2l-1.4-0.8
	l-1.5-0.5h-1.7l-1.5,0.5l-1.4,0.8l-1,1.2l-0.7,1.5l-0.2,1.6 M448.3,267.75v-15.9 M437,267.75l0.2,1.6l0.7,1.5l1,1.2l1.4,0.8l1.5,0.5
	h1.7l1.5-0.5l1.4-0.8l1-1.2l0.7-1.5l0.2-1.6 M130.8,251.85v15.9 M142.2,251.85l-0.3-1.6l-0.6-1.5l-1.1-1.2l-1.3-0.8l-1.6-0.5h-1.6
	l-1.5,0.5l-1.4,0.8l-1.1,1.2l-0.6,1.5l-0.3,1.6 M142.2,267.75v-15.9 M130.8,267.75l0.3,1.6l0.6,1.5l1.1,1.2l1.4,0.8l1.5,0.5h1.6
	l1.6-0.5l1.3-0.8l1.1-1.2l0.6-1.5l0.3-1.6 M113.8,176.15v29.9 M125.2,176.15l-0.3-1.6l-0.6-1.4l-1.1-1.3l-1.3-0.8l-1.6-0.5h-1.6
	l-1.6,0.5l-1.3,0.8l-1.1,1.3l-0.6,1.4l-0.3,1.6 M125.2,206.05v-29.9 M113.8,206.05l0.3,1.6l0.6,1.5l1.1,1.2l1.3,0.9l1.6,0.4h1.6
	l1.6-0.4l1.3-0.9l1.1-1.2l0.6-1.5l0.3-1.6 M181.9,251.65v16.1 M193.2,251.65l-0.2-1.6l-0.7-1.4l-1.1-1.3l-1.3-0.8l-1.6-0.5h-1.6
	l-1.5,0.5l-1.4,0.8l-1,1.3l-0.7,1.4l-0.2,1.6 M193.2,267.75v-16.1 M181.9,267.75l0.2,1.6l0.7,1.5l1,1.2l1.4,0.8l1.5,0.5h1.6l1.6-0.5
	l1.3-0.8l1.1-1.2l0.7-1.5l0.2-1.6 M181.9,208.85v23.4 M193.2,208.85l-0.2-1.6l-0.7-1.5l-1.1-1.2l-1.3-0.8l-1.6-0.5h-1.6l-1.5,0.5
	l-1.4,0.8l-1,1.2l-0.7,1.5l-0.2,1.6 M193.2,232.25v-23.4 M181.9,232.25l0.2,1.6l0.7,1.4l1,1.3l1.4,0.8l1.5,0.5h1.6l1.6-0.5l1.3-0.8
	l1.1-1.3l0.7-1.4l0.2-1.6 M181.9,176.15v13.3 M193.2,176.15l-0.2-1.6l-0.7-1.4l-1.1-1.3l-1.3-0.8l-1.6-0.5h-1.6l-1.5,0.5l-1.4,0.8
	l-1,1.3l-0.7,1.4l-0.2,1.6 M193.2,189.45v-13.3 M181.9,189.45l0.2,1.6l0.7,1.4l1,1.3l1.4,0.8l1.5,0.5h1.6l1.6-0.5l1.3-0.8l1.1-1.3
	l0.7-1.4l0.2-1.6 M386,251.65v16.1 M397.3,251.65l-0.2-1.6l-0.7-1.4l-1.1-1.3l-1.3-0.8l-1.6-0.5h-1.6l-1.5,0.5l-1.4,0.8l-1,1.3
	l-0.7,1.4l-0.2,1.6 M397.3,267.75v-16.1 M386,267.75l0.2,1.6l0.7,1.5l1,1.2l1.4,0.8l1.5,0.5h1.6l1.6-0.5l1.3-0.8l1.1-1.2l0.7-1.5
	l0.2-1.6 M386,208.85v23.4 M397.3,208.85l-0.2-1.6l-0.7-1.5l-1.1-1.2l-1.3-0.8l-1.6-0.5h-1.6l-1.5,0.5l-1.4,0.8l-1,1.2l-0.7,1.5
	l-0.2,1.6 M397.3,232.25v-23.4 M386,232.25l0.2,1.6l0.7,1.4l1,1.3l1.4,0.8l1.5,0.5h1.6l1.6-0.5l1.3-0.8l1.1-1.3l0.7-1.4l0.2-1.6
	 M386,176.15v13.3 M397.3,176.15l-0.2-1.6l-0.7-1.4l-1.1-1.3l-1.3-0.8l-1.6-0.5h-1.6l-1.5,0.5l-1.4,0.8l-1,1.3l-0.7,1.4l-0.2,1.6
	 M397.3,189.45v-13.3 M386,189.45l0.2,1.6l0.7,1.4l1,1.3l1.4,0.8l1.5,0.5h1.6l1.6-0.5l1.3-0.8l1.1-1.3l0.7-1.4l0.2-1.6 M454,176.15
	v29.9 M465.3,176.15l-0.2-1.6l-0.7-1.4l-1-1.3l-1.4-0.8l-1.5-0.5h-1.6l-1.6,0.5l-1.4,0.8l-1,1.3l-0.7,1.4l-0.2,1.6 M465.3,206.05
	v-29.9 M454,206.05l0.2,1.6l0.7,1.5l1,1.2l1.4,0.9l1.6,0.4h1.6l1.5-0.4l1.4-0.9l1-1.2l0.7-1.5l0.2-1.6 M159.2,267.75v-91.6
	 M147.8,267.75l0.3,1.6l0.6,1.5l1.1,1.2l1.4,0.8l1.5,0.5h1.6l1.6-0.5l1.3-0.8l1.1-1.2l0.7-1.5l0.2-1.6 M147.8,176.15v91.6
	 M159.2,176.15l-0.2-1.6l-0.7-1.4l-1.1-1.3l-1.3-0.8l-1.6-0.5h-1.6l-1.5,0.5l-1.4,0.8l-1.1,1.3l-0.6,1.4l-0.3,1.6 M142.2,232.05
	v-55.9 M130.8,232.05l0.3,1.6l0.6,1.4l1.1,1.3l1.4,0.8l1.5,0.5h1.6l1.6-0.5l1.3-0.8l1.1-1.3l0.6-1.4l0.3-1.6 M130.8,176.15v55.9
	 M142.2,176.15l-0.3-1.6l-0.6-1.4l-1.1-1.3l-1.3-0.8l-1.6-0.5h-1.6l-1.5,0.5l-1.4,0.8l-1.1,1.3l-0.6,1.4l-0.3,1.6 M448.3,232.05
	v-55.9 M437,232.05l0.2,1.6l0.7,1.4l1,1.3l1.4,0.8l1.5,0.5h1.7l1.5-0.5l1.4-0.8l1-1.3l0.7-1.4l0.2-1.6 M437,176.15v55.9
	 M448.3,176.15l-0.2-1.6l-0.7-1.4l-1-1.3l-1.4-0.8l-1.5-0.5h-1.7l-1.5,0.5l-1.4,0.8l-1,1.3l-0.7,1.4l-0.2,1.6 M431.3,267.75v-91.6
	 M420,267.75l0.2,1.6l0.7,1.5l1,1.2l1.4,0.8l1.5,0.5h1.7l1.5-0.5l1.4-0.8l1-1.2l0.7-1.5l0.2-1.6 M420,176.15v91.6 M431.3,176.15
	l-0.2-1.6l-0.7-1.4l-1-1.3l-1.4-0.8l-1.5-0.5h-1.7l-1.5,0.5l-1.4,0.8l-1,1.3l-0.7,1.4l-0.2,1.6 M176.2,267.75v-91.6 M164.9,267.75
	l0.2,1.6l0.7,1.5l1,1.2l1.4,0.8l1.5,0.5h1.6l1.6-0.5l1.3-0.8l1.1-1.2l0.7-1.5l0.2-1.6 M164.9,176.15v91.6 M176.2,176.15l-0.2-1.6
	l-0.7-1.4l-1.1-1.3l-1.3-0.8l-1.6-0.5h-1.6l-1.5,0.5l-1.4,0.8l-1,1.3l-0.7,1.4l-0.2,1.6 M414.3,267.75v-91.6 M403,267.75l0.2,1.6
	l0.7,1.5l1,1.2l1.4,0.8l1.5,0.5h1.6l1.6-0.5l1.3-0.8l1.1-1.2l0.7-1.5l0.2-1.6 M403,176.15v91.6 M414.3,176.15l-0.2-1.6l-0.7-1.4
	l-1.1-1.3l-1.3-0.8l-1.6-0.5h-1.6l-1.5,0.5l-1.4,0.8l-1,1.3l-0.7,1.4l-0.2,1.6 M210.2,267.75v-91.6 M198.9,267.75l0.2,1.6l0.7,1.5
	l1,1.2l1.4,0.8l1.5,0.5h1.6l1.6-0.5l1.4-0.8l1-1.2l0.7-1.5l0.2-1.6 M198.9,176.15v91.6 M210.2,176.15l-0.2-1.6l-0.7-1.4l-1-1.3
	l-1.4-0.8l-1.6-0.5h-1.6l-1.5,0.5l-1.4,0.8l-1,1.3l-0.7,1.4l-0.2,1.6 M227.2,252.25v-76.1 M215.9,252.25l0.2,1.6l0.7,1.5l1,1.2
	l1.4,0.9l1.5,0.4h1.7l1.5-0.4l1.4-0.9l1-1.2l0.7-1.5l0.2-1.6 M215.9,176.15v76.1 M227.2,176.15l-0.2-1.6l-0.7-1.4l-1-1.3l-1.4-0.8
	l-1.5-0.5h-1.7l-1.5,0.5l-1.4,0.8l-1,1.3l-0.7,1.4l-0.2,1.6 M244.2,249.45v-73.3 M232.9,249.45l0.2,1.6l0.7,1.5l1,1.2l1.4,0.9
	l1.6,0.4h1.6l1.5-0.4l1.4-0.9l1-1.2l0.7-1.5l0.2-1.6 M232.9,176.15v73.3 M244.2,176.15l-0.2-1.6l-0.7-1.4l-1-1.3l-1.4-0.8l-1.5-0.5
	h-1.6l-1.6,0.5l-1.4,0.8l-1,1.3l-0.7,1.4l-0.2,1.6 M249.9,176.15v91.6 M261.2,176.15l-0.2-1.6l-0.7-1.4l-1-1.3l-1.4-0.8l-1.5-0.5
	h-1.6l-1.6,0.5l-1.3,0.8l-1.1,1.3l-0.7,1.4l-0.2,1.6 M261.2,267.75v-91.6 M249.9,267.75l0.2,1.6l0.7,1.5l1.1,1.2l1.3,0.8l1.6,0.5
	h1.6l1.5-0.5l1.4-0.8l1-1.2l0.7-1.5l0.2-1.6 M278.2,267.75v-78.8 M266.9,267.75l0.2,1.6l0.7,1.5l1.1,1.2l1.3,0.8l1.6,0.5h1.6
	l1.5-0.5l1.4-0.8l1-1.2l0.7-1.5l0.2-1.6 M266.9,188.95v78.8 M278.2,188.95l-0.2-1.6l-0.7-1.4l-1-1.3l-1.4-0.8l-1.5-0.5h-1.6
	l-1.6,0.5l-1.3,0.8l-1.1,1.3l-0.7,1.4l-0.2,1.6 M380.3,267.75v-91.6 M369,267.75l0.2,1.6l0.7,1.5l1,1.2l1.4,0.8l1.5,0.5h1.6l1.6-0.5
	l1.3-0.8l1.1-1.2l0.7-1.5l0.2-1.6 M369,176.15v91.6 M380.3,176.15l-0.2-1.6l-0.7-1.4l-1.1-1.3l-1.3-0.8l-1.6-0.5h-1.6l-1.5,0.5
	l-1.4,0.8l-1,1.3l-0.7,1.4l-0.2,1.6 M363.3,252.25v-76.1 M351.9,252.25l0.3,1.6l0.6,1.5l1.1,1.2l1.4,0.9l1.5,0.4h1.6l1.6-0.4
	l1.3-0.9l1.1-1.2l0.7-1.5l0.2-1.6 M351.9,176.15v76.1 M363.3,176.15l-0.2-1.6l-0.7-1.4l-1.1-1.3l-1.3-0.8l-1.6-0.5h-1.6l-1.5,0.5
	l-1.4,0.8l-1.1,1.3l-0.6,1.4l-0.3,1.6 M346.3,249.45v-73.3 M334.9,249.45l0.3,1.6l0.6,1.5l1.1,1.2l1.3,0.9l1.6,0.4h1.6l1.6-0.4
	l1.3-0.9l1.1-1.2l0.6-1.5l0.3-1.6 M334.9,176.15v73.3 M346.3,176.15l-0.3-1.6l-0.6-1.4l-1.1-1.3l-1.3-0.8l-1.6-0.5h-1.6l-1.6,0.5
	l-1.3,0.8l-1.1,1.3l-0.6,1.4l-0.3,1.6 M317.9,176.15v91.6 M329.3,176.15l-0.3-1.6l-0.6-1.4l-1.1-1.3l-1.3-0.8l-1.6-0.5h-1.6
	l-1.6,0.5l-1.3,0.8l-1.1,1.3l-0.6,1.4l-0.3,1.6 M329.3,267.75v-91.6 M317.9,267.75l0.3,1.6l0.6,1.5l1.1,1.2l1.3,0.8l1.6,0.5h1.6
	l1.6-0.5l1.3-0.8l1.1-1.2l0.6-1.5l0.3-1.6 M312.3,267.75v-78.8 M300.9,267.75l0.2,1.6l0.7,1.5l1.1,1.2l1.3,0.8l1.6,0.5h1.6l1.5-0.5
	l1.4-0.8l1.1-1.2l0.6-1.5l0.3-1.6 M300.9,188.95v78.8 M312.3,188.95l-0.3-1.6l-0.6-1.4l-1.1-1.3l-1.4-0.8l-1.5-0.5h-1.6l-1.6,0.5
	l-1.3,0.8l-1.1,1.3l-0.7,1.4l-0.2,1.6 M283.9,199.05v68.7 M295.3,199.05l-0.3-1.6l-0.6-1.5l-1.1-1.2l-1.4-0.9l-1.5-0.5h-1.6
	l-1.6,0.5l-1.3,0.9l-1.1,1.2l-0.7,1.5l-0.2,1.6 M295.3,267.75v-68.7 M283.9,267.75l0.2,1.6l0.7,1.5l1.1,1.2l1.3,0.8l1.6,0.5h1.6
	l1.5-0.5l1.4-0.8l1.1-1.2l0.6-1.5l0.3-1.6 M116.2,134.75l0.3-1.5l0.6-1.5l0.9-1.3l1.3-0.9l1.5-0.6l1.5-0.2l1.6,0.2l1.5,0.6l1.2,0.9
	l1,1.3l0.6,1.5l0.2,1.5l-0.2,1.6l-0.6,1.5l-1,1.3l-1.2,0.9l-1.5,0.6l-1.6,0.2l-1.5-0.2l-1.5-0.6l-1.3-0.9l-0.9-1.3l-0.6-1.5
	L116.2,134.75 M116.2,262.35l0.3-1.6l0.6-1.4l0.9-1.3l1.3-1l1.5-0.6l1.5-0.2l1.6,0.2l1.5,0.6l1.2,1l1,1.3l0.6,1.4l0.2,1.6l-0.2,1.6
	l-0.6,1.5l-1,1.2l-1.2,1l-1.5,0.6l-1.6,0.2l-1.5-0.2l-1.5-0.6l-1.3-1l-0.9-1.2l-0.6-1.5L116.2,262.35 M450.7,134.75l0.2-1.5l0.6-1.5
	l1-1.3l1.3-0.9l1.4-0.6l1.6-0.2l1.6,0.2l1.5,0.6l1.2,0.9l1,1.3l0.6,1.5l0.2,1.5l-0.2,1.6l-0.6,1.5l-1,1.3l-1.2,0.9l-1.5,0.6
	l-1.6,0.2l-1.6-0.2l-1.4-0.6l-1.3-0.9l-1-1.3l-0.6-1.5L450.7,134.75 M450.7,262.35l0.2-1.6l0.6-1.4l1-1.3l1.3-1l1.4-0.6l1.6-0.2
	l1.6,0.2l1.5,0.6l1.2,1l1,1.3l0.6,1.4l0.2,1.6l-0.2,1.6l-0.6,1.5l-1,1.2l-1.2,1l-1.5,0.6l-1.6,0.2l-1.6-0.2l-1.4-0.6l-1.3-1l-1-1.2
	l-0.6-1.5L450.7,262.35 M280.1,179.55l0.2-1.9l0.6-1.9l1-1.8l1.3-1.4l1.6-1.2l1.8-0.8l2-0.4h2l1.9,0.4l1.8,0.8l1.6,1.2l1.4,1.4
	l1,1.8l0.6,1.9l0.2,1.9l-0.2,2l-0.6,1.9l-1,1.7l-1.4,1.5l-1.6,1.2l-1.8,0.8l-1.9,0.4h-2l-2-0.4l-1.8-0.8l-1.6-1.2l-1.3-1.5l-1-1.7
	l-0.6-1.9L280.1,179.55 M438.4,111.25l0.2,2.2l0.6,2.2l1,2l1.3,1.7l1.7,1.5l1.9,1.2l2.1,0.8l2.1,0.4h2.3l2.1-0.4l2.1-0.8l1.9-1.2
	l1.7-1.5l1.3-1.7l1-2l0.6-2.2l0.2-2.2l-0.2-2.2l-0.6-2.1l-1-2l-1.3-1.8l-1.7-1.5l-1.9-1.2l-2.1-0.8l-2.1-0.4h-2.3l-2.1,0.4l-2.1,0.8
	l-1.9,1.2l-1.7,1.5l-1.3,1.8l-1,2l-0.6,2.1L438.4,111.25 M281.4,97.05l0.2,1.9l0.6,1.7l1,1.6l1.3,1.3l1.5,1l1.8,0.6l1.8,0.2l1.8-0.2
	l1.7-0.6l1.6-1l1.3-1.3l1-1.6l0.6-1.7l0.2-1.9l-0.2-1.8l-0.6-1.7l-1-1.6l-1.3-1.3l-1.6-1l-1.7-0.6l-1.8-0.2l-1.8,0.2l-1.8,0.6
	l-1.5,1l-1.3,1.3l-1,1.6l-0.6,1.7L281.4,97.05 M455.4,225.05l0.2,1.9l0.6,1.7l1,1.5l1.3,1.4l1.6,0.9l1.7,0.6l1.8,0.2l1.9-0.2
	l1.7-0.6l1.6-0.9l1.3-1.4l0.9-1.5l0.6-1.7l0.2-1.9l-0.2-1.8l-0.6-1.7l-0.9-1.6l-1.3-1.3l-1.6-1l-1.7-0.6l-1.9-0.2l-1.8,0.2l-1.7,0.6
	l-1.6,1l-1.3,1.3l-1,1.6l-0.6,1.7L455.4,225.05 M338.1,268.05l0.2,1.8l0.6,1.7l0.9,1.6l1.3,1.3l1.6,1l1.7,0.6l1.9,0.2l1.8-0.2
	l1.7-0.6l1.6-1l1.3-1.3l1-1.6l0.6-1.7l0.2-1.8l-0.2-1.9l-0.6-1.7l-1-1.6l-1.3-1.3l-1.6-0.9l-1.7-0.6l-1.8-0.2l-1.9,0.2l-1.7,0.6
	l-1.6,0.9l-1.3,1.3l-0.9,1.6l-0.6,1.7L338.1,268.05 M224.7,268.05l0.2,1.8l0.6,1.7l1,1.6l1.3,1.3l1.5,1l1.8,0.6l1.8,0.2l1.8-0.2
	l1.8-0.6l1.5-1l1.3-1.3l1-1.6l0.6-1.7l0.2-1.8l-0.2-1.9l-0.6-1.7l-1-1.6l-1.3-1.3l-1.5-0.9l-1.8-0.6l-1.8-0.2l-1.8,0.2l-1.8,0.6
	l-1.5,0.9l-1.3,1.3l-1,1.6l-0.6,1.7L224.7,268.05 M107.3,225.05l0.2,1.9l0.6,1.7l1,1.5l1.3,1.4l1.6,0.9l1.7,0.6l1.8,0.2l1.9-0.2
	l1.7-0.6l1.6-0.9l1.3-1.4l0.9-1.5l0.6-1.7l0.3-1.9l-0.3-1.8l-0.6-1.7l-0.9-1.6l-1.3-1.3l-1.6-1l-1.7-0.6l-1.9-0.2l-1.8,0.2l-1.7,0.6
	l-1.6,1l-1.3,1.3l-1,1.6l-0.6,1.7L107.3,225.05 M120.5,111.25l0.2,1.8l0.6,1.8l1,1.5l1.3,1.3l1.5,1l1.8,0.6l1.8,0.2l1.8-0.2l1.8-0.6
	l1.5-1l1.3-1.3l1-1.5l0.6-1.8l0.2-1.8l-0.2-1.8l-0.6-1.7l-1-1.6l-1.3-1.3l-1.5-1l-1.8-0.6l-1.8-0.2l-1.8,0.2l-1.8,0.6l-1.5,1
	l-1.3,1.3l-1,1.6l-0.6,1.7L120.5,111.25 M387.5,281.35l3.4-1.7 M358.3,279.65l3.4,1.7 M383.8,295.65v-3.1 M365.4,292.55v3.1
	 M383.6,301.35L383.6,301.35h0.1v-0.1h0.1v-0.1h0.1v-0.1 M365.4,301.05v0.1v0.1h0.1v0.1h0.1 M365.3,288.65l0.1,0.2l0.1,0.1l-0.1,0.2
	l-0.1,0.2 M365.3,291.55l0.1,0.1l0.1,0.2l-0.1,0.2 M365.4,292.05l-0.1,0.1 M383.9,290.75l-0.1-0.1v-0.2v-0.2l0.1-0.2 M383.9,287.95
	l-0.1-0.2v-0.2v-0.2l0.1-0.1 M383.9,301.05l0.5-3.3 M364.8,297.75l0.6,3.3 M365.4,295.65l-0.6,0.7 M384.4,296.35l-0.6-0.7
	 M384.4,297.75v-1.4 M364.8,296.35v1.4 M365.3,283.05l0.1,0.1l0.1,0.2l-0.1,0.2l-0.1,0.1 M365.3,285.85l0.1,0.1l0.1,0.2l-0.1,0.2
	l-0.1,0.1 M383.9,285.05l-0.1-0.1v-0.2v-0.2l0.1-0.1 M383.9,282.25l-0.1-0.1v-0.2v-0.2l0.1-0.2 M384.6,282.65l-0.7-0.4
	 M384.6,285.45l-0.7-0.4 M365.3,286.45l-0.6,0.4 M365.3,283.65l-0.6,0.4 M383.9,281.65l0.5-0.3 M383.9,284.45l0.7-0.4 M364.7,285.45
	l0.6,0.4 M364.7,282.65l0.6,0.4 M384.6,288.25l-0.7-0.4 M384.6,291.15l-0.7-0.4 M365.3,292.15l-0.6,0.4 M365.3,289.35l-0.6,0.3
	 M383.9,287.25l0.7-0.4 M383.9,290.15l0.7-0.4 M364.7,291.15l0.6,0.4 M364.7,288.35l0.6,0.3"/>
<line class="st13" x1="364.7" y1="292.55" x2="364.7" y2="292.55"/>
</svg>
