<?xml version="1.0" encoding="utf-8"?>
<!-- Generator: Adobe Illustrator 24.2.1, SVG Export Plug-In . SVG Version: 6.00 Build 0)  -->
<svg version="1.1" id="图层_1" xmlns="http://www.w3.org/2000/svg" xmlns:xlink="http://www.w3.org/1999/xlink" x="0px" y="0px"
	 viewBox="0 0 498.5 593.1" style="enable-background:new 0 0 498.5 593.1;" xml:space="preserve">
<style type="text/css">
	.st0{fill:#8C8C8C;}
	.st1{font-family:'ArialMT';}
	.st2{font-size:6.93px;}
	.st3{font-size:6.94px;}
	.st4{enable-background:new    ;}
	.st5{font-family:'AdobeSongStd-Light-GBpc-EUC-H';}
	.st6{fill:none;stroke:#8C8C8C;stroke-width:0.51;stroke-miterlimit:10;}
	.st7{fill:none;stroke:#8C8C8C;stroke-width:0.51;stroke-linecap:round;stroke-linejoin:round;}
	
		.st8{fill:none;stroke:#8C8C8C;stroke-width:0.51;stroke-linecap:round;stroke-linejoin:round;stroke-dasharray:86.4,3.6,3.6,3.6;stroke-dashoffset:83;}
	.st9{fill:none;stroke:#8C8C8C;stroke-width:0.51;stroke-linecap:round;stroke-linejoin:round;stroke-dasharray:86.4,3.6,3.6,3.6;}
	.st10{fill:none;stroke:#000000;stroke-width:0.71;stroke-linecap:round;stroke-linejoin:round;}
</style>
<text transform="matrix(1 0 0 1 235.5861 55.5135)" class="st0 st1 st2"> 130 ±0.20 </text>
<text transform="matrix(6.123234e-17 -1 1 6.123234e-17 148.0061 110.4333)" class="st0 st1 st2"> 28.90 </text>
<text transform="matrix(6.123234e-17 -1 1 6.123234e-17 140.2061 89.2839)" class="st0 st1 st3">+</text>
<text transform="matrix(6.123234e-17 -1 1 6.123234e-17 148.0061 89.2839)" class="st0 st1 st3">-</text>
<text transform="matrix(6.123234e-17 -1 1 6.123234e-17 140.2061 85.2536)" class="st0 st1 st2">0.50</text>
<text transform="matrix(6.123234e-17 -1 1 6.123234e-17 148.0061 85.2536)" class="st0 st1 st2">0.10</text>
<text transform="matrix(1 0 0 1 169.4461 235.1835)" class="st4"><tspan x="0" y="0" class="st0 st1 st3"> 1/4-20 </tspan><tspan x="23.5" y="0" class="st0 st5 st3">螺纹深</tspan><tspan x="44.4" y="0" class="st0 st1 st3">6mm </tspan></text>
<text transform="matrix(6.123234e-17 -1 1 6.123234e-17 391.2361 312.5437)" class="st0 st1 st2"> 77.05 </text>
<text transform="matrix(6.123234e-17 -1 1 6.123234e-17 374.0761 323.7038)" class="st0 st1 st2"> 68.80 ±0.20 </text>
<text transform="matrix(6.123234e-17 -1 1 6.123234e-17 358.0861 352.5837)" class="st0 st1 st2"> 40.20 ±0.10 </text>
<text transform="matrix(1 0 0 1 476.2361 55.5135)" class="st0 st1 st2"> 11.80 </text>
<text transform="matrix(1 0 0 1 436.1761 55.5135)" class="st0 st1 st2"> 51 </text>
<text transform="matrix(1 0 0 1 385.4961 44.8635)" class="st4"><tspan x="0" y="0" class="st0 st1 st3"> 4xM4 </tspan><tspan x="20.8" y="0" class="st0 st5 st3">螺纹深</tspan><tspan x="41.6" y="0" class="st0 st1 st3">5.5mm </tspan></text>
<text transform="matrix(1 0 0 1 31.1961 30.0134)" class="st0 st1 st2"> 68.80 ±0.20 </text>
<text transform="matrix(1 0 0 1 39.8561 55.5135)" class="st0 st1 st3"> 51 ±0.10 </text>
<text transform="matrix(1 0 0 1 27.6461 42.7635)" class="st0 st1 st2"> 11.80 ±0.10 </text>
<text transform="matrix(1 0 0 1 273.4761 485.2135)" class="st4"><tspan x="0" y="0" class="st0 st1 st3"> </tspan><tspan x="1.9" y="0" class="st0 st5 st3">状态指示灯</tspan><tspan x="36.6" y="0" class="st0 st1 st3"> </tspan></text>
<text transform="matrix(1 0 0 1 194.5561 500.4235)" class="st0 st1 st2"> 15 </text>
<text transform="matrix(1 0 0 1 165.5161 569.3434)" class="st0 st1 st3"> 27 ±0.20 </text>
<text transform="matrix(1 0 0 1 243.0061 569.3434)" class="st0 st1 st2"> 68 </text>
<text transform="matrix(1 0 0 1 304.6961 569.3434)" class="st0 st1 st3"> 35 ±0.20 </text>
<text transform="matrix(1 0 0 1 233.7761 485.1635)" class="st0 st1 st3">USB2.0</text>
<text transform="matrix(1 0 0 1 321.0561 485.1635)" class="st0 st1 st3">M8 5PIN DC/TRIGGER</text>
<text transform="matrix(1 0 0 1 113.5361 485.1635)" class="st4"><tspan x="0" y="0" class="st0 st1 st3">2xM2 </tspan><tspan x="18.9" y="0" class="st0 st5 st3">螺纹深</tspan><tspan x="39.7" y="0" class="st0 st1 st3">5mm</tspan></text>
<polyline class="st6" points="188.3,537.8 185.6,532.8 187.2,532.2 188.3,537.8 "/>
<path class="st6" d="M301.1,536.9l1.2-5.6l1.6,0.6L301.1,536.9 M200.8,538.3l2.2-5.3l1.5,0.9L200.8,538.3"/>
<path class="st6" d="M200.6,570.7l5.7-0.8v1.7L200.6,570.7 M297,570.7l-5.7,0.8v-1.7L297,570.7 M254.5,570.7l0.3-0.7l0.2-0.7
	l0.2-0.7l0.1-0.7l0.1-0.7v-0.7l-0.1-0.7l-0.1-0.7l-0.2-0.7l-0.2-0.7l-0.3-0.7 M243,562.9l-0.3,0.7l-0.2,0.7l-0.2,0.7l-0.1,0.7
	l-0.1,0.7v0.7l0.1,0.7l0.1,0.7l0.2,0.7l0.2,0.7l0.3,0.7 M162.3,570.7l5.7-0.8v1.7L162.3,570.7 M200.6,570.7l-5.7,0.8v-1.7
	L200.6,570.7 M405.8,56.9l5.7-0.9v1.7L405.8,56.9 M478.1,56.9l-5.7,0.9v-1.7L478.1,56.9"/>
<path class="st6" d="M346.6,570.7l-5.7,0.8v-1.7L346.6,570.7 M297,570.7l5.7-0.8v1.7L297,570.7 M211.2,501.8l-5.7,0.8V501
	L211.2,501.8 M190,501.8l5.7-0.8v1.7L190,501.8 M259.7,536.3l1.9-5.4l-1.7-0.3L259.7,536.3 M93.2,56.9l-5.7,0.9v-1.7L93.2,56.9
	 M20.9,56.9l5.7-0.9v1.7L20.9,56.9 M101.7,31.4L96,32.3v-1.7L101.7,31.4 M4.2,31.4l5.7-0.9v1.7L4.2,31.4 M404.7,87.2l2.1,5.3
	l1.5-0.9L404.7,87.2 M407,91.2l-2.1-5.3l-1.5,0.9L407,91.2 M253.5,297.3l0.6,5.7l1.6-0.4L253.5,297.3 M255.4,304.3l-0.6-5.7
	l-1.6,0.4L255.4,304.3 M346.6,56.9l-5.7,0.9v-1.7L346.6,56.9 M162.3,56.9l5.7-0.9v1.7L162.3,56.9"/>
<path class="st6" d="M20.9,44.2L15.2,45v-1.7L20.9,44.2 M4.2,44.2l5.7-0.9V45L4.2,44.2"/>
<path class="st6" d="M359.5,357.8l-0.9-5.7h1.7L359.5,357.8 M359.5,300.8l0.9,5.7h-1.7L359.5,300.8 M375.5,357.8l-0.9-5.7h1.7
	L375.5,357.8 M375.5,260.3l0.9,5.7h-1.7L375.5,260.3 M392.6,357.8l-0.9-5.7h1.7L392.6,357.8 M392.6,248.6l0.9,5.7h-1.7L392.6,248.6
	 M392.6,291.4l-0.7-0.3l-0.7-0.2l-0.7-0.2l-0.7-0.1l-0.7-0.1h-0.7l-0.7,0.1l-0.7,0.1l-0.7,0.2l-0.7,0.2l-0.7,0.3 M384.8,312.5
	l0.7,0.3l0.7,0.3l0.7,0.2l0.7,0.1l0.7,0.1h0.7l0.7-0.1l0.7-0.1l0.7-0.2l0.7-0.3l0.7-0.3 M149.4,110.6l-0.9-5.7h1.7L149.4,110.6
	 M149.4,69.6l0.9,5.7h-1.7L149.4,69.6"/>
<path class="st6" d="M494.8,56.9l-5.7,0.9v-1.7L494.8,56.9 M478.1,56.9l5.7-0.9v1.7L478.1,56.9"/>
<path class="st7" d="M170,486.6l18.4,51.3 M114.9,486.6H170"/>
<line class="st8" x1="200.6" y1="530.3" x2="200.6" y2="547.7"/>
<line class="st9" x1="190" y1="535.4" x2="190" y2="533.5"/>
<line class="st9" x1="186.4" y1="539" x2="184.4" y2="539"/>
<line class="st9" x1="190" y1="542.5" x2="190" y2="544.5"/>
<line class="st9" x1="193.5" y1="539" x2="195.5" y2="539"/>
<line class="st9" x1="211.2" y1="535.4" x2="211.2" y2="534"/>
<line class="st9" x1="207.7" y1="539" x2="206.3" y2="539"/>
<line class="st9" x1="211.2" y1="542.5" x2="211.2" y2="543.9"/>
<line class="st9" x1="214.8" y1="539" x2="216.2" y2="539"/>
<line class="st9" x1="297" y1="531.9" x2="297" y2="529"/>
<line class="st9" x1="289.9" y1="539" x2="287" y2="539"/>
<line class="st9" x1="297" y1="546.1" x2="297" y2="549"/>
<line class="st9" x1="304" y1="539" x2="307" y2="539"/>
<path class="st7" d="M319.7,486.6l-18.6,50.3 M391.8,486.6h-72.1 M232.4,486.6l-31.6,51.8 M256.1,486.6h-23.7 M297,539h3.5 M297,539
	v3.5 M297,539h-3.5 M297,539v-3.6 M211.2,539h3.5 M211.2,539v3.5 M211.2,539h-3.5 M211.2,539v-3.6 M190,538.9h3.5 M190,538.9v3.5
	 M190,538.9h-3.5 M190,538.9v-3.5"/>
<line class="st9" x1="405.8" y1="85.7" x2="405.8" y2="83.3"/>
<line class="st9" x1="402.3" y1="89.2" x2="399.9" y2="89.2"/>
<line class="st9" x1="405.8" y1="92.8" x2="405.8" y2="95.1"/>
<line class="st9" x1="409.3" y1="89.2" x2="411.7" y2="89.2"/>
<line class="st9" x1="478.1" y1="85.7" x2="478.1" y2="83.3"/>
<line class="st9" x1="474.5" y1="89.2" x2="472.2" y2="89.2"/>
<line class="st9" x1="478.1" y1="92.8" x2="478.1" y2="95.1"/>
<line class="st9" x1="481.6" y1="89.2" x2="484" y2="89.2"/>
<line class="st9" x1="93.2" y1="85.7" x2="93.2" y2="83.3"/>
<line class="st9" x1="89.6" y1="89.2" x2="87.3" y2="89.2"/>
<line class="st9" x1="93.2" y1="92.8" x2="93.2" y2="95.1"/>
<line class="st9" x1="96.7" y1="89.2" x2="99.1" y2="89.2"/>
<line class="st9" x1="20.9" y1="85.7" x2="20.9" y2="83.3"/>
<line class="st9" x1="17.4" y1="89.2" x2="15" y2="89.2"/>
<line class="st9" x1="20.9" y1="92.8" x2="20.9" y2="95.1"/>
<line class="st9" x1="24.4" y1="89.2" x2="26.8" y2="89.2"/>
<line class="st9" x1="254.4" y1="293.7" x2="254.4" y2="292.5"/>
<line class="st9" x1="247.4" y1="300.8" x2="246.1" y2="300.8"/>
<line class="st9" x1="254.4" y1="307.9" x2="254.4" y2="309.1"/>
<line class="st9" x1="261.5" y1="300.8" x2="262.7" y2="300.8"/>
<path class="st7" d="M478.1,89.2h3.5 M478.1,89.2v3.6 M478.1,89.2h-3.5 M478.1,89.2v-3.5 M405.8,89.2h3.5 M405.8,89.2v3.6
	 M405.8,89.2h-3.5 M405.8,89.2v-3.5"/>
<path class="st7" d="M20.9,89.2h3.5 M20.9,89.2v3.6 M20.9,89.2h-3.5 M20.9,89.2v-3.5 M93.2,89.2h3.6 M93.2,89.2v3.6 M93.2,89.2h-3.5
	 M93.2,89.2v-3.5"/>
<path class="st7" d="M254.4,300.8h3.5 M254.4,300.8v3.6 M254.4,300.9h-3.5 M254.4,300.9v-3.5"/>
<path class="st7" d="M297,570.7h-96.4 M200.6,547.7v28.7 M297,549v27.4 M200.6,570.7h-38.3 M162.3,558v18.4 M200.6,547.7v28.7
	 M478.1,56.9h-72.3 M405.8,83.3V51.2 M478.1,83.3V51.2"/>
<path class="st7" d="M297,570.7h49.6 M346.6,558v18.4 M297,541.3v35.1 M190,501.8h21.3 M211.2,534v-37.9 M190,533.5v-37.3
	 M269,486.6H312 M259,539.9l0.7-3.6 M259.7,536.3l9.3-49.7 M20.9,56.9h72.3 M93.2,83.3V51.2 M20.9,83.3V51.2 M4.2,31.4h97.5
	 M101.7,69.7V25.7 M4.2,69.7V25.7 M381,46.3h69.1 M407,91.3l-2.3-4 M404.7,87.3l-23.6-41 M237.2,236.6h-67.8 M255.4,304.3l-1.9-7
	 M253.5,297.3l-16.3-60.8 M162.3,56.9h184.3 M346.6,69.7V51.2 M162.3,69.7V51.2"/>
<path class="st7" d="M20.9,44.2h50.2 M4.2,44.2h16.7 M20.9,83.3V38.5 M4.2,69.7V38.5"/>
<path class="st7" d="M359.5,300.8v57 M342.3,357.8h22.8 M262.7,300.8h102.4 M375.5,260.3v97.5 M342.3,357.8h38.8 M342.3,260.3h38.8
	 M392.6,248.6v109.2 M342.3,357.8h56 M301.5,248.6h96.8 M149.4,69.7v41 M162.3,110.7h-18.6 M162.3,69.7h-18.6"/>
<path class="st7" d="M478.1,56.9h16.7 M494.8,69.7V51.2 M478.1,83.3V51.2"/>
<polyline class="st0" points="188.3,537.8 185.6,532.8 187.2,532.2 "/>
<path class="st0" d="M301.1,536.9l1.2-5.6l1.6,0.6 M200.8,538.3l2.2-5.3l1.5,0.9"/>
<path class="st0" d="M200.6,570.7l5.7-0.8v1.7 M297,570.7l-5.7,0.8v-1.7 M162.3,570.7l5.7-0.8v1.7 M200.6,570.7l-5.7,0.8v-1.7
	 M405.8,56.9l5.7-0.9v1.7 M478.1,56.9l-5.7,0.9V56"/>
<path class="st0" d="M346.6,570.7l-5.7,0.8v-1.7 M297,570.7l5.7-0.8v1.7 M211.2,501.8l-5.7,0.8V501 M190,501.8l5.7-0.8v1.7
	 M259.7,536.3l1.9-5.4l-1.7-0.3 M93.2,56.9l-5.7,0.9v-1.7 M20.9,56.9l5.7-0.9v1.7 M101.7,31.4L96,32.3v-1.7 M4.2,31.4l5.7-0.9v1.7
	 M404.7,87.3l2.1,5.3l1.5-0.9 M407,91.3l-2.1-5.3l-1.5,0.9 M253.5,297.3l0.6,5.7l1.6-0.4 M255.4,304.3l-0.6-5.7l-1.6,0.4
	 M346.6,56.9l-5.7,0.9v-1.7 M162.3,56.9l5.7-0.9v1.7"/>
<path class="st0" d="M20.9,44.2L15.2,45v-1.7 M4.2,44.2l5.7-0.9V45"/>
<path class="st0" d="M359.5,357.8l-0.9-5.7h1.7 M359.5,300.8l0.9,5.7h-1.7 M375.5,357.8l-0.9-5.7h1.7 M375.5,260.3l0.9,5.7h-1.7
	 M392.6,357.8l-0.9-5.7h1.7 M392.6,248.6l0.9,5.7h-1.7 M149.4,110.6l-0.9-5.7h1.7 M149.4,69.7l0.9,5.7h-1.7"/>
<path class="st0" d="M494.8,56.9l-5.7,0.9v-1.7 M478.1,56.9l5.7-0.9v1.7"/>
<path class="st10" d="M342.3,106.4H166.6 M166.6,110.7h175.8 M342.3,106.4h4.3 M346.6,110.7h-4.3 M346.6,106.4v4.3 M162.3,106.4h4.3
	 M162.3,110.7v-4.3 M166.6,110.7h-4.3 M338.1,78.9v23.4 M342.3,78.9l-0.1-0.7l-0.3-0.6l-0.5-0.5l-0.6-0.3l-0.6-0.1l-0.7,0.1
	l-0.6,0.3l-0.5,0.5l-0.3,0.6l-0.1,0.7 M338.1,102.3l0.1,0.7l0.3,0.6l0.5,0.5l0.6,0.3l0.7,0.1l0.6-0.1l0.6-0.3l0.5-0.5l0.3-0.6
	l0.1-0.7 M170.8,102.3V78.9 M170.8,78.9l-0.1-0.7l-0.3-0.6l-0.5-0.5l-0.6-0.3l-0.7-0.1l-0.7,0.1l-0.6,0.3l-0.5,0.5l-0.3,0.6
	l-0.1,0.7 M173.1,81v19.3 M331.1,76.3H177.8 M335.8,100.3V81 M331.1,76.3l0.9,0.1l0.9,0.3l0.8,0.4l0.7,0.6l0.6,0.7l0.4,0.8l0.3,0.9
	l0.1,0.9 M335.8,100.3l-0.1,0.9l-0.3,0.9l-0.4,0.8l-0.6,0.7l-0.7,0.6l-0.8,0.4l-0.9,0.3l-0.9,0.1 M177.9,105l-0.9-0.1l-0.9-0.3
	l-0.8-0.4l-0.7-0.6l-0.6-0.7l-0.4-0.8l-0.3-0.9l-0.1-0.9 M177.9,105H331 M166.6,102.3l0.1,0.7l0.3,0.6l0.5,0.5l0.6,0.3l0.7,0.1
	l0.7-0.1l0.6-0.3l0.5-0.5l0.3-0.6l0.1-0.7 M342.3,106.4H166.6 M173.1,81l0.1-0.9l0.3-0.9l0.4-0.8l0.6-0.7l0.7-0.6l0.8-0.4l0.9-0.3
	l0.9-0.1 M166.6,69.7h175.8 M342.3,102.3V78.9 M342.3,69.7h4.3 M346.6,106.4h-4.3 M346.6,69.7v36.7 M162.3,69.7h4.3 M162.3,106.4
	V69.7 M166.6,106.4h-4.3 M166.6,78.9v23.4 M331,104.8l0.9-0.1l0.9-0.3l0.8-0.4l0.7-0.6l0.6-0.7l0.4-0.8l0.3-0.9l0.1-0.9
	 M335.6,100.3V81 M335.6,81l-0.1-0.9l-0.3-0.9l-0.4-0.8l-0.6-0.7l-0.7-0.6l-0.8-0.4l-0.9-0.3l-0.9-0.1 M331,76.5H177.8 M177.8,76.5
	l-0.9,0.1l-0.9,0.3l-0.8,0.4l-0.7,0.6l-0.6,0.7l-0.4,0.8l-0.3,0.9l-0.1,0.9 M173.3,81v19.3 M173.3,100.3l0.1,0.9l0.3,0.9l0.4,0.8
	l0.6,0.7l0.7,0.6l0.8,0.4l0.9,0.3l0.9,0.1 M177.8,104.8H331"/>
<path class="st10" d="M303.4,258.6h-12.9 M305.1,259.5v0.8 M301,259.5l0.7-0.3l0.8-0.2l0.4,0h0.4l0.5,0.1l0.5,0.1l0.4,0.2l0.4,0.2
	 M288.8,259.5l0.7-0.3l0.7-0.2l0.3,0h0.4h0.4l0.4,0l0.7,0.2l0.7,0.3 M288.8,259.5v0.8 M301,260.3v-0.8 M292.9,259.5l1.3-0.3l1.4-0.2
	l1.4-0.1h0.7l0.7,0l0.7,0.1l1.3,0.2l0.7,0.2 M292.9,260.3v-0.8 M299.2,253h-4.5 M297,248.6h-4.5 M301.5,248.6H297 M301.6,251.4h-9.2
	 M301.9,251.1H297 M297,251.1h-4.9 M301.9,250.4h-9.8 M301.9,257.8v-0.2 M292,258.1v0.2 M292,256.9v-0.2 M301.9,256.4v-0.2 M292,258
	v0.1 M292,258.1l0.8-0.1l1.2-0.1l1.4-0.1l1.5-0.1l1.5-0.1l1.4-0.1l1.2-0.1l0.8-0.1 M301.9,257.6v-0.3 M292,256.5v0.1 M292,256.7h0.5
	l0.6,0h0.8h0.9h1h1l1,0h1 M292.1,255.7v0.3 M302,256.7v-0.3 M292.1,256.9l0.8-0.1l1.2-0.1l1.4-0.1l1.5-0.1l1.5-0.1l1.4-0.1l1.2-0.1
	l0.8-0.1 M292.1,257.3v-0.3 M302,257.9v-0.1 M292.1,258.3l0.8-0.1l1.2-0.1l1.4-0.1l1.5-0.1l1.5-0.1l1.4-0.1l1.2-0.1l0.8-0.1
	 M292.1,258.6v-0.3 M302,254.9v-0.2 M292.1,255.5v-0.2 M298.8,255.1h-1h-1h-1h-1l-0.9,0h-0.8h-0.6H292 M292,253.8v-0.2 M301.9,253.2
	v-0.2 M293.7,252.7H292 M301.9,253.4v-0.1 M292,253.8l0.8-0.1l1.2-0.1l1.4-0.1l1.5-0.1l1.5-0.1l1.4-0.1l1.2-0.1l0.8-0.1 M292,254.1
	v-0.3 M301.9,254.8v-0.1 M298.8,254.8l1,0l0.9,0h0.7h0.5 M292,253.7l0.8-0.1l1.2-0.1l1.4-0.1l1.5-0.1l1.5-0.1l1.4-0.1l1.2-0.1
	l0.8-0.1 M301.9,253.1v-0.4 M301.9,252.8h-1.7 M301.9,256h-0.5l-0.7,0l-0.9,0h-1 M301.9,255.9v-0.3 M292,255l0.8-0.1l1.2-0.1
	l1.4-0.1l1.5-0.1l1.5-0.1l1.4-0.1l1.2-0.1l0.8-0.1 M301.9,254.5L301.9,254.5 M342.3,347.9l-0.1-0.7l-0.3-0.7l-0.5-0.6l-0.6-0.5
	l-0.7-0.3l-0.7-0.1l-0.7,0.1l-0.7,0.3l-0.6,0.5l-0.5,0.6l-0.3,0.7l-0.1,0.7 M172.3,347.9l-0.1-0.7l-0.3-0.7l-0.4-0.6l-0.6-0.5
	l-0.7-0.3l-0.7-0.1l-0.7,0.1l-0.7,0.3l-0.6,0.5l-0.4,0.6l-0.3,0.7l-0.1,0.7 M189.3,288.9l-0.1-0.7l-0.3-0.7l-0.4-0.6l-0.6-0.5
	l-0.7-0.3l-0.7-0.1l-0.7,0.1l-0.7,0.3l-0.6,0.5l-0.4,0.6l-0.3,0.7l-0.1,0.7 M206.3,288.9l-0.1-0.7l-0.3-0.7l-0.5-0.6l-0.6-0.5
	l-0.7-0.3l-0.7-0.1l-0.7,0.1l-0.7,0.3l-0.6,0.5l-0.4,0.6l-0.3,0.7l-0.1,0.7 M223.3,288.9l-0.1-0.7l-0.3-0.7l-0.5-0.6l-0.6-0.5
	l-0.7-0.3l-0.7-0.1l-0.7,0.1l-0.7,0.3l-0.6,0.5l-0.5,0.6l-0.3,0.7l-0.1,0.7 M214.8,288.9l-0.1-0.7l-0.3-0.7l-0.5-0.6l-0.6-0.5
	l-0.7-0.3l-0.7-0.1l-0.7,0.1l-0.7,0.3l-0.6,0.5l-0.5,0.6l-0.3,0.7l-0.1,0.7 M197.8,288.9l-0.1-0.7l-0.3-0.7l-0.4-0.6l-0.6-0.5
	l-0.7-0.3l-0.7-0.1l-0.7,0.1l-0.7,0.3l-0.6,0.5l-0.4,0.6l-0.3,0.7l-0.1,0.7 M258.1,300.8L258,300l-0.3-0.8l-0.4-0.7l-0.6-0.6
	l-0.7-0.4l-0.8-0.3l-0.8-0.1l-0.8,0.1l-0.8,0.3l-0.7,0.4l-0.6,0.6l-0.4,0.7L251,300l-0.1,0.8l0.1,0.8l0.3,0.8l0.4,0.7l0.6,0.6
	l0.7,0.4l0.8,0.3l0.8,0.1l0.8-0.1l0.8-0.3l0.7-0.4l0.6-0.6l0.4-0.7l0.3-0.8L258.1,300.8 M166.6,267.4v29.5 M166.6,357.8h175.8
	 M342.3,357.8l0.8-0.1l0.8-0.2l0.7-0.4l0.6-0.5l0.5-0.6l0.4-0.7l0.2-0.8l0.1-0.8 M346.6,353.6v-89 M346.6,264.6l-0.1-0.8l-0.2-0.8
	l-0.4-0.7l-0.5-0.6l-0.6-0.5l-0.7-0.4l-0.8-0.2l-0.8-0.1 M166.6,260.3h175.8 M166.6,260.3l-0.8,0.1l-0.8,0.2l-0.7,0.4l-0.6,0.5
	l-0.5,0.6l-0.4,0.7l-0.3,0.8l-0.1,0.8 M162.3,264.6v89 M162.3,353.6l0.1,0.8l0.3,0.8l0.4,0.7l0.5,0.6l0.6,0.5l0.7,0.4l0.8,0.2
	l0.8,0.1 M180.7,267.4l-0.1-0.7l-0.3-0.7l-0.4-0.6l-0.6-0.5l-0.7-0.3l-0.7-0.1l-0.7,0.1l-0.7,0.3l-0.6,0.5l-0.4,0.6l-0.3,0.7
	l-0.1,0.7 M180.7,296.9v-29.5 M175.1,296.9l0.1,0.7l0.3,0.7l0.4,0.6l0.6,0.5l0.7,0.3l0.7,0.1l0.7-0.1l0.7-0.3l0.6-0.5l0.4-0.6
	l0.3-0.7l0.1-0.7 M175.1,267.4v29.5 M189.2,267.4l-0.1-0.7l-0.3-0.7l-0.4-0.6l-0.6-0.5l-0.7-0.3l-0.7-0.1l-0.7,0.1L185,265l-0.6,0.5
	l-0.4,0.6l-0.3,0.7l-0.1,0.7 M189.2,296.9v-29.5 M183.5,296.9l0.1,0.7l0.3,0.7l0.4,0.6l0.6,0.5l0.7,0.3l0.7,0.1l0.7-0.1l0.7-0.3
	l0.6-0.5l0.4-0.6l0.3-0.7l0.1-0.7 M183.6,267.4v29.5 M197.7,267.4l-0.1-0.7l-0.3-0.7l-0.4-0.6l-0.6-0.5l-0.7-0.3l-0.7-0.1l-0.7,0.1
	l-0.7,0.3l-0.6,0.5l-0.4,0.6l-0.3,0.7l-0.1,0.7 M197.7,296.9v-29.5 M192.1,296.9l0.1,0.7l0.3,0.7l0.4,0.6l0.6,0.5l0.7,0.3l0.7,0.1
	l0.7-0.1l0.7-0.3l0.6-0.5l0.4-0.6l0.3-0.7l0.1-0.7 M192.1,267.4v29.5 M206.2,267.4l-0.1-0.7l-0.3-0.7l-0.5-0.6l-0.6-0.5l-0.7-0.3
	l-0.7-0.1l-0.7,0.1L202,265l-0.6,0.5l-0.4,0.6l-0.3,0.7l-0.1,0.7 M206.2,296.9v-29.5 M200.5,296.9l0.1,0.7l0.3,0.7l0.4,0.6l0.6,0.5
	l0.7,0.3l0.7,0.1l0.7-0.1l0.7-0.3l0.6-0.5l0.5-0.6l0.3-0.7l0.1-0.7 M200.6,267.4v29.5 M214.8,267.4l-0.1-0.7l-0.3-0.7l-0.5-0.6
	l-0.6-0.5l-0.7-0.3l-0.7-0.1l-0.7,0.1l-0.7,0.3l-0.6,0.5l-0.5,0.6l-0.3,0.7l-0.1,0.7 M214.8,296.9v-29.5 M209.1,296.9l0.1,0.7
	l0.3,0.7l0.5,0.6l0.6,0.5l0.7,0.3l0.7,0.1l0.7-0.1l0.7-0.3l0.6-0.5l0.5-0.6l0.3-0.7l0.1-0.7 M209.1,267.4v29.5 M223.3,267.4
	l-0.1-0.7l-0.3-0.7l-0.5-0.6l-0.6-0.5l-0.7-0.3l-0.7-0.1l-0.7,0.1L219,265l-0.6,0.5L218,266l-0.3,0.7l-0.1,0.7 M223.3,296.9v-29.5
	 M217.6,296.9l0.1,0.7l0.3,0.7l0.5,0.6l0.6,0.5l0.7,0.3l0.7,0.1l0.7-0.1l0.7-0.3l0.6-0.5l0.5-0.6l0.3-0.7l0.1-0.7 M217.6,267.4v29.5
	 M231.8,267.4l-0.1-0.7l-0.3-0.7l-0.5-0.6l-0.6-0.5l-0.7-0.3l-0.7-0.1l-0.7,0.1l-0.7,0.3l-0.6,0.5l-0.5,0.6l-0.3,0.7l-0.1,0.7
	 M231.8,296.9v-29.5 M226.1,296.9l0.1,0.7l0.3,0.7l0.5,0.6l0.6,0.5l0.7,0.3l0.7,0.1l0.7-0.1l0.7-0.3l0.6-0.5l0.5-0.6l0.3-0.7
	l0.1-0.7 M226.1,267.4v29.5 M240.3,267.4l-0.1-0.7l-0.3-0.7l-0.5-0.6l-0.6-0.5l-0.7-0.3l-0.7-0.1l-0.7,0.1L236,265l-0.6,0.5L235,266
	l-0.3,0.7l-0.1,0.7 M240.3,296.9v-29.5 M234.6,296.9l0.1,0.7l0.3,0.7l0.5,0.6l0.6,0.5l0.7,0.3l0.7,0.1l0.7-0.1l0.7-0.3l0.6-0.5
	l0.5-0.6l0.3-0.7l0.1-0.7 M234.6,267.4v29.5 M248.8,267.4l-0.1-0.7l-0.3-0.7l-0.5-0.6l-0.6-0.5l-0.7-0.3l-0.7-0.1l-0.7,0.1l-0.7,0.3
	l-0.6,0.5l-0.5,0.6l-0.3,0.7l-0.1,0.7 M248.8,296.9v-29.5 M243.1,296.9l0.1,0.7l0.3,0.7l0.5,0.6l0.6,0.5l0.7,0.3l0.7,0.1l0.7-0.1
	l0.7-0.3l0.6-0.5l0.5-0.6l0.3-0.7l0.1-0.7 M243.1,267.4v29.5 M257.3,267.4l-0.1-0.7l-0.3-0.7l-0.5-0.6l-0.6-0.5l-0.7-0.3l-0.7-0.1
	l-0.7,0.1L253,265l-0.6,0.5L252,266l-0.3,0.7l-0.1,0.7 M257.3,291.9v-24.5 M251.6,291.9l0.1,0.7l0.3,0.7l0.5,0.6l0.6,0.5l0.7,0.3
	l0.7,0.1l0.7-0.1l0.7-0.3l0.6-0.5l0.5-0.6l0.3-0.7l0.1-0.7 M251.6,267.4v24.5 M265.8,267.4l-0.1-0.7l-0.3-0.7l-0.5-0.6l-0.6-0.5
	l-0.7-0.3l-0.7-0.1l-0.7,0.1l-0.7,0.3l-0.6,0.5l-0.5,0.6l-0.3,0.7l-0.1,0.7 M265.8,296.9v-29.5 M260.1,296.9l0.1,0.7l0.3,0.7
	l0.5,0.6l0.6,0.5l0.7,0.3l0.7,0.1l0.7-0.1l0.7-0.3l0.6-0.5l0.5-0.6l0.3-0.7l0.1-0.7 M260.1,267.4v29.5 M274.3,267.4l-0.1-0.7
	l-0.3-0.7l-0.5-0.6l-0.6-0.5l-0.7-0.3l-0.7-0.1l-0.7,0.1L270,265l-0.6,0.5L269,266l-0.3,0.7l-0.1,0.7 M274.3,296.9v-29.5
	 M268.6,296.9l0.1,0.7l0.3,0.7l0.5,0.6l0.6,0.5l0.7,0.3l0.7,0.1l0.7-0.1l0.7-0.3l0.6-0.5l0.5-0.6l0.3-0.7l0.1-0.7 M268.6,267.4v29.5
	 M282.8,267.4l-0.1-0.7l-0.3-0.7l-0.5-0.6l-0.6-0.5l-0.7-0.3l-0.7-0.1l-0.7,0.1l-0.7,0.3l-0.6,0.5l-0.5,0.6l-0.3,0.7l-0.1,0.7
	 M282.8,296.9v-29.5 M277.1,296.9l0.1,0.7l0.3,0.7l0.5,0.6l0.6,0.5l0.7,0.3l0.7,0.1l0.7-0.1l0.7-0.3l0.6-0.5l0.5-0.6l0.3-0.7
	l0.1-0.7 M277.1,267.4v29.5 M291.3,267.4l-0.1-0.7l-0.3-0.7l-0.5-0.6l-0.6-0.5l-0.7-0.3l-0.7-0.1l-0.7,0.1L287,265l-0.6,0.5L286,266
	l-0.3,0.7l-0.1,0.7 M291.3,296.9v-29.5 M285.6,296.9l0.1,0.7l0.3,0.7l0.5,0.6l0.6,0.5l0.7,0.3l0.7,0.1l0.7-0.1l0.7-0.3l0.6-0.5
	l0.5-0.6l0.3-0.7l0.1-0.7 M285.6,267.4v29.5 M299.8,267.4l-0.1-0.7l-0.3-0.7l-0.5-0.6l-0.6-0.5l-0.7-0.3l-0.7-0.1l-0.7,0.1l-0.7,0.3
	l-0.6,0.5l-0.5,0.6l-0.3,0.7l-0.1,0.7 M299.8,296.9v-29.5 M294.1,296.9l0.1,0.7l0.3,0.7l0.5,0.6l0.6,0.5l0.7,0.3l0.7,0.1l0.7-0.1
	l0.7-0.3l0.6-0.5l0.5-0.6l0.3-0.7l0.1-0.7 M294.1,267.4v29.5 M308.3,267.4l-0.1-0.7l-0.3-0.7l-0.5-0.6l-0.6-0.5l-0.7-0.3l-0.7-0.1
	l-0.7,0.1L304,265l-0.6,0.5L303,266l-0.3,0.7l-0.1,0.7 M308.3,296.9v-29.5 M302.6,296.9l0.1,0.7l0.3,0.7l0.5,0.6l0.6,0.5l0.7,0.3
	l0.7,0.1l0.7-0.1l0.7-0.3l0.6-0.5l0.5-0.6l0.3-0.7l0.1-0.7 M302.6,267.4v29.5 M316.8,267.4l-0.1-0.7l-0.3-0.7l-0.5-0.6l-0.6-0.5
	l-0.7-0.3l-0.7-0.1l-0.7,0.1l-0.7,0.3l-0.6,0.5l-0.5,0.6l-0.3,0.7l-0.1,0.7 M316.8,296.9v-29.5 M311.1,296.9l0.1,0.7l0.3,0.7
	l0.5,0.6l0.6,0.5l0.7,0.3l0.7,0.1l0.7-0.1l0.7-0.3l0.6-0.5l0.5-0.6l0.3-0.7l0.1-0.7 M311.1,267.4v29.5 M325.3,267.4l-0.1-0.7
	l-0.3-0.7l-0.5-0.6l-0.6-0.5l-0.7-0.3l-0.7-0.1l-0.7,0.1l-0.7,0.3l-0.6,0.5L320,266l-0.3,0.7l-0.1,0.7 M325.3,296.9v-29.5
	 M319.6,296.9l0.1,0.7l0.3,0.7l0.5,0.6l0.6,0.5l0.7,0.3l0.7,0.1l0.7-0.1l0.7-0.3l0.6-0.5l0.5-0.6l0.3-0.7l0.1-0.7 M319.6,267.4v29.5
	 M333.8,267.4l-0.1-0.7l-0.3-0.7l-0.5-0.6l-0.6-0.5l-0.7-0.3l-0.7-0.1l-0.7,0.1l-0.7,0.3l-0.6,0.5l-0.5,0.6l-0.3,0.7l-0.1,0.7
	 M333.8,296.9v-29.5 M328.1,296.9l0.1,0.7l0.3,0.7l0.5,0.6l0.6,0.5l0.7,0.3l0.7,0.1l0.7-0.1l0.7-0.3l0.6-0.5l0.5-0.6l0.3-0.7
	l0.1-0.7 M328.1,267.4v29.5 M180.7,342.2l-0.1-0.7l-0.3-0.7l-0.4-0.6l-0.6-0.5l-0.7-0.3l-0.7-0.1l-0.7,0.1l-0.7,0.3l-0.6,0.5
	l-0.4,0.6l-0.3,0.7l-0.1,0.7 M180.7,350.7v-8.5 M175.1,350.7l0.1,0.7l0.3,0.7l0.4,0.6l0.6,0.5l0.7,0.3l0.7,0.1l0.7-0.1l0.7-0.3
	l0.6-0.5l0.4-0.6l0.3-0.7l0.1-0.7 M175.1,342.2v8.5 M189.2,342.2l-0.1-0.7l-0.3-0.7l-0.4-0.6l-0.6-0.5l-0.7-0.3l-0.7-0.1l-0.7,0.1
	l-0.7,0.3l-0.6,0.5l-0.4,0.6l-0.3,0.7l-0.1,0.7 M189.2,350.7v-8.5 M183.6,350.7l0.1,0.7l0.3,0.7l0.4,0.6l0.6,0.5l0.7,0.3l0.7,0.1
	l0.7-0.1l0.7-0.3l0.6-0.5l0.4-0.6l0.3-0.7l0.1-0.7 M183.6,342.2v8.5 M197.7,342.2l-0.1-0.7l-0.3-0.7l-0.4-0.6l-0.6-0.5l-0.7-0.3
	l-0.7-0.1l-0.7,0.1l-0.7,0.3l-0.6,0.5l-0.4,0.6l-0.3,0.7l-0.1,0.7 M197.7,350.7v-8.5 M192.1,350.7l0.1,0.7l0.3,0.7l0.4,0.6l0.6,0.5
	l0.7,0.3l0.7,0.1l0.7-0.1l0.7-0.3l0.6-0.5l0.4-0.6l0.3-0.7l0.1-0.7 M192.1,342.2v8.5 M206.3,342.2l-0.1-0.7l-0.3-0.7l-0.5-0.6
	l-0.6-0.5l-0.7-0.3l-0.7-0.1l-0.7,0.1l-0.7,0.3l-0.6,0.5l-0.4,0.6l-0.3,0.7l-0.1,0.7 M206.3,350.7v-8.5 M200.6,350.7l0.1,0.7
	l0.3,0.7l0.4,0.6l0.6,0.5l0.7,0.3l0.7,0.1l0.7-0.1l0.7-0.3l0.6-0.5l0.5-0.6l0.3-0.7l0.1-0.7 M200.6,342.2v8.5 M214.8,342.2l-0.1-0.7
	l-0.3-0.7l-0.5-0.6l-0.6-0.5l-0.7-0.3l-0.7-0.1l-0.7,0.1l-0.7,0.3l-0.6,0.5l-0.5,0.6l-0.3,0.7l-0.1,0.7 M214.8,350.7v-8.5
	 M209.1,350.7l0.1,0.7l0.3,0.7l0.5,0.6l0.6,0.5l0.7,0.3l0.7,0.1l0.7-0.1l0.7-0.3l0.6-0.5l0.5-0.6l0.3-0.7l0.1-0.7 M209.1,342.2v8.5
	 M223.3,342.2l-0.1-0.7l-0.3-0.7l-0.5-0.6l-0.6-0.5l-0.7-0.3l-0.7-0.1l-0.7,0.1l-0.7,0.3l-0.6,0.5l-0.5,0.6l-0.3,0.7l-0.1,0.7
	 M223.3,350.7v-8.5 M217.6,350.7l0.1,0.7l0.3,0.7l0.5,0.6l0.6,0.5l0.7,0.3l0.7,0.1l0.7-0.1l0.7-0.3l0.6-0.5l0.5-0.6l0.3-0.8l0.1-0.7
	 M217.6,342.2v8.5 M231.8,342.2l-0.1-0.7l-0.3-0.7l-0.5-0.6l-0.6-0.5l-0.7-0.3l-0.7-0.1l-0.7,0.1l-0.7,0.3l-0.6,0.5l-0.5,0.6
	l-0.3,0.7l-0.1,0.7 M231.8,350.7v-8.5 M226.1,350.7l0.1,0.7l0.3,0.7l0.5,0.6l0.6,0.5l0.7,0.3l0.7,0.1l0.7-0.1l0.7-0.3l0.6-0.5
	l0.5-0.6l0.3-0.7l0.1-0.7 M226.1,342.2v8.5 M240.3,342.2l-0.1-0.7l-0.3-0.7l-0.5-0.6l-0.6-0.5l-0.7-0.3l-0.7-0.1l-0.7,0.1l-0.7,0.3
	l-0.6,0.5l-0.5,0.6l-0.3,0.7l-0.1,0.7 M240.3,350.7v-8.5 M234.6,350.7l0.1,0.7l0.3,0.7l0.5,0.6l0.6,0.5l0.7,0.3l0.7,0.1l0.7-0.1
	l0.7-0.3l0.6-0.5l0.5-0.6l0.3-0.7l0.1-0.7 M234.6,342.2v8.5 M248.8,342.2l-0.1-0.7l-0.3-0.7l-0.5-0.6l-0.6-0.5l-0.7-0.3l-0.7-0.1
	l-0.7,0.1l-0.7,0.3l-0.6,0.5l-0.5,0.6l-0.3,0.7l-0.1,0.7 M248.8,350.7v-8.5 M243.1,350.7l0.1,0.7l0.3,0.7l0.5,0.6l0.6,0.5l0.7,0.3
	l0.7,0.1l0.7-0.1l0.7-0.3l0.6-0.5l0.5-0.6l0.3-0.7l0.1-0.7 M243.1,342.2v8.5 M257.3,342.2l-0.1-0.7l-0.3-0.7l-0.5-0.6l-0.6-0.5
	l-0.7-0.3l-0.7-0.1l-0.7,0.1l-0.7,0.3l-0.6,0.5l-0.5,0.6l-0.3,0.7l-0.1,0.7 M257.3,350.7v-8.5 M251.6,350.7l0.1,0.7l0.3,0.7l0.5,0.6
	l0.6,0.5l0.7,0.3l0.7,0.1l0.7-0.1l0.7-0.3l0.6-0.5l0.5-0.6l0.3-0.7l0.1-0.7 M251.6,342.2v8.5 M265.8,342.2l-0.1-0.7l-0.3-0.7
	l-0.5-0.6l-0.6-0.5l-0.7-0.3l-0.7-0.1l-0.7,0.1l-0.7,0.3l-0.6,0.5l-0.5,0.6l-0.3,0.7l-0.1,0.7 M265.8,350.7v-8.5 M260.1,350.7
	l0.1,0.7l0.3,0.7l0.5,0.6l0.6,0.5l0.7,0.3l0.7,0.1l0.7-0.1l0.7-0.3l0.6-0.5l0.5-0.6l0.3-0.7l0.1-0.7 M260.1,342.2v8.5 M274.3,342.2
	l-0.1-0.7l-0.3-0.7l-0.5-0.6l-0.6-0.5l-0.7-0.3l-0.7-0.1l-0.7,0.1l-0.7,0.3l-0.6,0.5l-0.5,0.6l-0.3,0.7l-0.1,0.7 M274.3,350.7v-8.5
	 M268.6,350.7l0.1,0.7l0.3,0.7l0.5,0.6l0.6,0.5l0.7,0.3l0.7,0.1l0.7-0.1l0.7-0.3l0.6-0.5l0.5-0.6l0.3-0.7l0.1-0.7 M268.6,342.2v8.5
	 M282.8,342.2l-0.1-0.7l-0.3-0.7l-0.5-0.6l-0.6-0.5l-0.7-0.3l-0.7-0.1l-0.7,0.1l-0.7,0.3l-0.6,0.5l-0.5,0.6l-0.3,0.7l-0.1,0.7
	 M282.8,350.7v-8.5 M277.1,350.7l0.1,0.7l0.3,0.7l0.5,0.6l0.6,0.5l0.7,0.3l0.7,0.1l0.7-0.1l0.7-0.3l0.6-0.5l0.5-0.6l0.3-0.7l0.1-0.7
	 M277.1,342.2v8.5 M291.3,342.2l-0.1-0.7l-0.3-0.7l-0.5-0.6l-0.6-0.5l-0.7-0.3l-0.7-0.1l-0.7,0.1l-0.7,0.3l-0.6,0.5l-0.5,0.6
	l-0.3,0.7l-0.1,0.7 M291.3,350.7v-8.5 M285.7,350.7l0.1,0.7l0.3,0.7l0.5,0.6l0.6,0.5l0.7,0.3l0.7,0.1l0.7-0.1l0.7-0.3l0.6-0.5
	l0.5-0.6l0.3-0.7l0.1-0.7 M285.6,342.2v8.5 M299.8,342.2l-0.1-0.7l-0.3-0.7l-0.5-0.6l-0.6-0.5l-0.7-0.3l-0.7-0.1l-0.7,0.1l-0.7,0.3
	l-0.6,0.5l-0.5,0.6l-0.3,0.7l-0.1,0.7 M299.8,350.7v-8.5 M294.1,350.7l0.1,0.7l0.3,0.7l0.5,0.6l0.6,0.5l0.7,0.3l0.7,0.1l0.7-0.1
	l0.7-0.3l0.6-0.5l0.5-0.6l0.3-0.7l0.1-0.7 M294.1,342.2v8.5 M308.3,342.2l-0.1-0.7l-0.3-0.7l-0.5-0.6l-0.6-0.5l-0.7-0.3l-0.7-0.1
	l-0.7,0.1l-0.7,0.3l-0.6,0.5l-0.5,0.6l-0.3,0.7l-0.1,0.7 M308.3,350.7v-8.5 M302.7,350.7l0.1,0.7l0.3,0.7l0.5,0.6l0.6,0.5l0.7,0.3
	l0.7,0.1l0.7-0.1l0.7-0.3l0.6-0.5l0.5-0.6l0.3-0.7l0.1-0.7 M302.6,342.2v8.5 M316.8,342.2l-0.1-0.7l-0.3-0.7l-0.5-0.6l-0.6-0.5
	l-0.7-0.3l-0.7-0.1l-0.7,0.1l-0.7,0.3l-0.6,0.5l-0.5,0.6l-0.3,0.7l-0.1,0.7 M316.8,350.7v-8.5 M311.1,350.7l0.1,0.7l0.3,0.7l0.5,0.6
	l0.6,0.5l0.7,0.3l0.7,0.1l0.7-0.1l0.7-0.3l0.6-0.5l0.5-0.6l0.3-0.7l0.1-0.7 M311.1,342.2v8.5 M325.3,342.2l-0.1-0.7l-0.3-0.7
	l-0.5-0.6l-0.6-0.5l-0.7-0.3l-0.7-0.1l-0.7,0.1l-0.7,0.3l-0.6,0.5l-0.5,0.6l-0.3,0.7l-0.1,0.7 M325.3,350.7v-8.5 M319.6,350.7
	l0.1,0.7l0.3,0.7l0.5,0.6l0.6,0.5l0.7,0.3l0.7,0.1l0.7-0.1l0.7-0.3l0.6-0.5l0.5-0.6l0.3-0.7l0.1-0.7 M319.6,342.2v8.5 M333.8,342.2
	l-0.1-0.7l-0.3-0.7l-0.5-0.6l-0.6-0.5l-0.7-0.3l-0.7-0.1l-0.7,0.1l-0.7,0.3l-0.6,0.5l-0.5,0.6l-0.3,0.7l-0.1,0.7 M333.8,350.7v-8.5
	 M328.1,350.7l0.1,0.7l0.3,0.7l0.5,0.6l0.6,0.5l0.7,0.3l0.7,0.1l0.7-0.1l0.7-0.3l0.6-0.5l0.5-0.6l0.3-0.7l0.1-0.7 M328.1,342.2v8.5
	 M166.6,296.9l0.1,0.7l0.3,0.7l0.4,0.6l0.6,0.5l0.7,0.3l0.7,0.1l0.7-0.1l0.7-0.3l0.6-0.5l0.4-0.6l0.3-0.7l0.1-0.7 M172.2,267.4
	l-0.1-0.7l-0.3-0.7l-0.4-0.6l-0.6-0.5l-0.7-0.3l-0.7-0.1l-0.7,0.1L168,265l-0.6,0.5l-0.4,0.6l-0.3,0.7l-0.1,0.7 M172.2,296.9v-29.5
	 M172.2,342.2l-0.1-0.7l-0.3-0.7l-0.4-0.6l-0.6-0.5l-0.7-0.3l-0.7-0.1l-0.7,0.1l-0.7,0.3l-0.6,0.5l-0.4,0.6l-0.3,0.7l-0.1,0.7
	 M172.2,350.7v-8.5 M166.5,350.7l0.1,0.7l0.3,0.7l0.4,0.6l0.6,0.5l0.7,0.3l0.7,0.1l0.7-0.1l0.7-0.3l0.6-0.5l0.4-0.6l0.3-0.7l0.1-0.7
	 M166.5,342.2v8.5 M342.3,342.2l-0.1-0.7l-0.3-0.7l-0.5-0.6l-0.6-0.5l-0.7-0.3l-0.7-0.1l-0.7,0.1l-0.7,0.3l-0.6,0.5l-0.5,0.6
	l-0.3,0.7l-0.1,0.7 M342.3,350.7v-8.5 M336.6,350.7l0.1,0.7l0.3,0.7l0.5,0.6l0.6,0.5l0.7,0.3l0.7,0.1l0.7-0.1l0.7-0.3l0.6-0.5
	l0.5-0.6l0.3-0.8l0.1-0.7 M336.6,342.2v8.5 M336.6,296.8l0.1,0.7l0.3,0.7l0.5,0.6l0.6,0.5l0.7,0.3l0.7,0.1l0.7-0.1l0.7-0.3l0.6-0.5
	l0.5-0.6l0.3-0.7l0.1-0.7 M336.6,267.4v29.5 M342.3,267.4l-0.1-0.7l-0.3-0.7l-0.5-0.6l-0.6-0.5l-0.7-0.3l-0.7-0.1l-0.7,0.1l-0.7,0.3
	l-0.6,0.5L337,266l-0.3,0.7l-0.1,0.7 M342.3,296.9v-29.5 M259.2,300.8l-0.1,0.9l-0.3,0.9l-0.4,0.8l-0.6,0.7l-0.7,0.6l-0.8,0.4
	l-0.9,0.3l-0.9,0.1l-0.9-0.1l-0.9-0.3l-0.8-0.4l-0.7-0.6l-0.6-0.7l-0.4-0.8l-0.3-0.9l-0.1-0.9l0.1-0.9l0.3-0.9l0.4-0.8l0.6-0.7
	l0.7-0.6l0.8-0.4l0.9-0.3l0.9-0.1l0.9,0.1l0.9,0.3l0.8,0.4l0.7,0.6l0.6,0.7l0.4,0.8l0.3,0.9L259.2,300.8 M290.5,258.6l-1.7,0.9
	 M305.1,259.5l-1.7-0.9 M292.4,251.4v1.6 M301.6,253v-1.6 M292.5,248.6L292.5,248.6L292.5,248.6L292.5,248.6L292.5,248.6
	 M301.7,248.6L301.7,248.6L301.7,248.6L301.7,248.6L301.7,248.6L301.7,248.6 M301.8,255.6L301.8,255.6l-0.1-0.1v-0.1l0.1-0.1
	 M301.8,254.2L301.8,254.2l-0.1-0.2v-0.1l0.1-0.1 M292.4,253.1L292.4,253.1 M292.4,253.1L292.4,253.1L292.4,253.1v0.2l-0.1,0.1
	 M292.4,254.5L292.4,254.5l0.1,0.2v0.1l-0.1,0.1 M292.4,248.6l-0.3,1.6 M301.9,250.3l-0.3-1.6 M301.6,251.3l0.3-0.4 M292.2,251
	l0.3,0.4 M292.2,250.3v0.7 M301.9,251v-0.6 M301.7,258.5L301.7,258.5l-0.1-0.2v-0.1l0.1-0.1 M301.7,257.1L301.7,257.1l-0.1-0.2v-0.1
	l0.1-0.1 M292.4,256.1L292.4,256.1l0.1,0.1v0.1l-0.1,0.1 M292.4,257.5L292.4,257.5l0.1,0.2v0.1l-0.1,0.1 M292.4,257.8l-0.3,0.2
	 M292.4,256.4l-0.3,0.2 M302.1,257.3l-0.3-0.2 M301.9,258.6l-0.2-0.1 M292.1,257.3l0.3,0.2 M292.1,255.9l0.3,0.2 M301.7,256.8
	l0.3-0.2 M301.7,258.2l0.3-0.2 M292,254.5l0.3,0.2 M292.1,253l0.3,0.2 M301.7,253.9l0.3-0.2 M301.7,255.4l0.3-0.2 M292.4,255
	l-0.3,0.2 M292.4,253.5l-0.3,0.2 M302,254.4l-0.3-0.2 M302,255.9l-0.3-0.2"/>
<line class="st10" x1="292" y1="253" x2="292" y2="253"/>
<path class="st10" d="M395.9,95.7h0.5 M396.5,81.6h-0.5 M395.6,82.2v12.9 M396.5,95.7l-0.3-1.2l-0.2-1.3l0-0.7v-0.7L396,91l0.1-0.9
	l0.2-0.7l0.2-0.7 M396.5,95.7h0.8 M397.3,81.6h-0.8 M396.5,88.7l-0.3-1.1l-0.2-1.2l-0.1-0.6v-1.2l0.1-0.6l0.2-1.2l0.3-1.2
	 M396.5,88.7h0.8 M390,84.1v0.6 M385.6,84.2v9 M390,90.9v2.9 M387.4,83.8v9.8 M388.5,84.1v9.2 M388.1,83.8v9.8 M392.5,86.5h-0.2
	 M392.5,91h0.2 M393.5,83.3L393.5,83.3 M393.7,86.5v-0.9v-0.8v-0.6v-0.5v-0.3v-0.1 M393.3,84.1L393.3,84.1L393.3,84.1 M394.4,94.1
	l0-0.2l-0.1-0.6l-0.1-1l-0.1-1.3 M394.1,86.5H394 M394.2,91l-0.4-2.2l0.2-2.2 M394.2,91h0.2 M395.8,94.1l0-0.2l-0.1-0.6l-0.1-1
	l-0.1-1.3 M395.6,91l-0.4-2.2l0.2-2.2 M395.6,91h0.2 M395.4,86.5l-0.1-1.3l-0.1-1l-0.1-0.6l-0.1-0.2v0.1 M395.4,86.6h0.2
	 M392.2,83.3L392.2,83.3v0.4l0,0.5v0.6v0.8v0.9 M392,83.2L392,83.2 M392.3,86.4l0.4,2.2l-0.2,2.2 M392.4,90.9l0.1,1.3l0.1,1l0.1,0.6
	l0.1,0.2 M392.7,94.1L392.7,94.1 M393.7,86.4l-0.1-1.3l-0.1-1l-0.1-0.6l-0.1-0.2 M393.8,90.9l0.2-2.2l-0.4-2.2 M394.1,94.1l-0.1-0.2
	l-0.1-0.6l-0.1-1l-0.1-1.3 M394.1,94.1L394.1,94.1 M395.1,86.5l-0.1-1.3l-0.1-1l-0.1-0.6l-0.1-0.2 M395.4,88.2l-0.1-1.8 M395.5,90.9
	l0.1-1.2 M392.7,84L392.7,84 M391.1,86.4h-0.2 M391.1,90.9h0.1 M391.3,94l0-0.2l-0.1-0.6l-0.1-1l-0.1-1.3 M391,90.9l-0.4-2.2
	l0.2-2.2 M390.8,86.4l-0.1-1.3l-0.1-1l-0.1-0.6l-0.1-0.2v0.1 M392.7,94.1v-0.2l-0.1-0.6l-0.1-1l-0.1-1.3 M392.5,90.9l-0.4-2.2
	l0.2-2.2 M392.3,86.5l-0.1-1.3l-0.1-1l-0.1-0.6l-0.1-0.2v0.1 M390.1,85.4v3.1 M390.1,88.6v1.1 M390.1,89.7V91 M390.1,91v1.2v1v0.6
	v0.3 M390.1,94.1L390.1,94.1 M390.9,86.6l-0.1-1.3l-0.1-1l-0.1-0.6l-0.1-0.2 M391.1,91.1l0.2-2.2l-0.4-2.2 M391.4,94.3l-0.1-0.2
	l-0.1-0.6l-0.1-1l-0.1-1.3 M391.4,94.2L391.4,94.2 M490.6,106.4h4.3 M494.8,110.7h-4.3 M494.8,106.4v4.3 M490.6,106.4h-89
	 M401.6,110.7h89 M397.3,106.4h4.3 M401.6,110.7h-4.3 M397.3,110.7v-4.3 M490.6,69.7h4.3 M494.8,106.4h-4.3 M494.8,102.3v4.1
	 M494.8,78.9v23.4 M494.8,69.7v9.2 M401.6,69.7h89 M490.6,106.4h-89 M405.8,86.9l-0.7,0.1l-0.6,0.3l-0.5,0.4l-0.4,0.6l-0.2,0.6v0.7
	l0.2,0.6l0.4,0.6l0.5,0.4l0.6,0.3l0.7,0.1l0.7-0.1l0.6-0.3l0.5-0.4l0.4-0.6l0.2-0.6v-0.7l-0.2-0.6l-0.4-0.6l-0.5-0.4l-0.6-0.3
	L405.8,86.9 M486.3,84.6h-79.1 M407.2,84.6h-0.6l-0.5-0.2l-0.5-0.3l-0.4-0.4l-0.4-0.4l-0.3-0.5l-0.2-0.5l-0.1-0.6 M404.4,81.8v-5
	 M404.4,76.8l0.1-0.8l0.3-0.8l0.4-0.7l0.5-0.6l0.6-0.5l0.7-0.4l0.8-0.2l0.8-0.1 M408.6,72.5h76.3 M484.9,72.5l0.8,0.1l0.8,0.2
	l0.7,0.4l0.6,0.5l0.5,0.6l0.4,0.7l0.3,0.8l0.1,0.8 M489.1,76.8v5 M489.1,81.8l-0.1,0.6l-0.2,0.5l-0.3,0.5l-0.3,0.4l-0.4,0.4
	l-0.5,0.3l-0.5,0.2h-0.6 M478.1,86.9l-0.7,0.1l-0.6,0.3l-0.5,0.4l-0.4,0.6l-0.2,0.6v0.7l0.2,0.6l0.4,0.6l0.5,0.4l0.6,0.3l0.7,0.1
	l0.7-0.1l0.6-0.3l0.5-0.4l0.4-0.6l0.2-0.6v-0.7l-0.2-0.6l-0.4-0.6l-0.5-0.4l-0.6-0.3L478.1,86.9 M407.2,93.9h79.1 M486.3,93.9
	l0.6,0.1l0.5,0.2l0.5,0.3l0.4,0.4l0.3,0.4l0.3,0.5l0.2,0.5l0.1,0.6 M489.1,96.7v4.1 M489.1,100.9l-0.1,0.8l-0.3,0.8l-0.4,0.7
	l-0.5,0.6l-0.7,0.5l-0.7,0.4l-0.8,0.2l-0.8,0.1 M484.9,105.1h-76.2 M408.6,105.1l-0.8-0.1l-0.8-0.2l-0.7-0.4l-0.6-0.5l-0.5-0.6
	l-0.4-0.7l-0.3-0.8l-0.1-0.8 M404.4,100.9v-4.1 M404.4,96.8l0.1-0.6l0.2-0.5l0.3-0.5l0.4-0.4l0.4-0.4l0.5-0.3l0.5-0.2l0.6-0.1
	 M397.3,69.7h4.3 M401.6,106.4h-4.3 M397.3,75.4v-5.7 M397.3,101.5V75.3 M397.3,106.3v-5 M395.6,94L395.6,94 M395.6,95l0.3,0.6
	 M395.9,81.5l-0.3,0.6 M388.4,93.2h1.6 M390,84h-1.6 M385.6,93.1L385.6,93.1L385.6,93.1L385.6,93.1L385.6,93.1L385.6,93.1
	 M385.6,83.9L385.6,83.9L385.6,83.9L385.6,83.9L385.6,83.9L385.6,83.9 M390,93.6l0.2,0.2 M391.6,83.7L391.6,83.7l-0.2,0.1h-0.1l0,0
	 M391.3,83.8L391.3,83.8 M390.2,83.8L390.2,83.8l-0.2,0.1 M390.6,93.1L390.6,93.1l0.2-0.1h0.1l0.1,0.1 M392,93.1L392,93.1 M392,93.1
	L392,93.1L392,93.1h0.2l0.1,0.1 M385.7,93.1l1.6,0.3 M387.4,83.6l-1.6,0.3 M387.4,93.4h0.7 M388.1,83.6h-0.7 M388.4,83.9l-0.4-0.3
	 M388.1,93.4l0.4-0.3 M395.6,83.9L395.6,83.9L395.6,83.9 M394.4,83.9L394.4,83.9l-0.2,0.1h-0.1l-0.1-0.1 M393,83.9L393,83.9
	l-0.2,0.1h-0.1l-0.1-0.1 M393.4,93.2L393.4,93.2l0.2-0.1h0.1l0.1,0.1 M394.8,93.2L394.8,93.2l0.2-0.1h0.1l0.1,0.1 M392.2,83.2H392
	 M392.7,94.1h0.2 M393.6,83.2h-0.2 M395.1,93.3l0.2,0.4l0.2,0.4 M393.7,93.3l0.2,0.4l0.2,0.4 M393.5,83.2l-0.2,0.4L393,84
	 M394.9,83.2l-0.2,0.4l-0.2,0.4 M394.2,94.1h0.2 M395.1,83.2h-0.2 M394.4,94.1l0.2-0.4l0.2-0.4 M393,94.1l0.2-0.4l0.2-0.4 M392.7,84
	l-0.2-0.4l-0.2-0.4 M394.1,84l-0.2-0.4l-0.2-0.4 M395.6,84l-0.2-0.4l-0.2-0.4 M390.9,83.2h-0.2 M391.4,94.1h0.2 M392.3,93.3l0.2,0.4
	l0.2,0.4 M390.9,93.3l0.2,0.4l0.2,0.4 M390.7,83.2l-0.2,0.4l-0.2,0.4 M392.1,83.2l-0.2,0.4l-0.2,0.4 M391.6,94.1l0.2-0.4l0.2-0.4
	 M390.2,94l0.1-0.3l0.2-0.4 M391.3,84l-0.2-0.4l-0.2-0.4"/>
<path class="st10" d="M102.5,95.7h0.6 M103.1,81.6h-0.6 M103.4,95.1L103.4,95.1v-6.4 M103.4,88.7v-6.4l0,0 M102.5,95.7h-0.8
	 M102.5,88.7l0.3,1.1L103,91l0.1,1.2v0.6v0.6L103,94l-0.3,1.2l-0.2,0.6 M102.6,88.7h-0.8 M102.6,81.6l0.3,1.2l0.2,1.3v0.7v0.7
	l-0.1,0.8l-0.1,0.9l-0.2,0.7l-0.2,0.7 M101.7,81.6h0.8 M109,84.6v-0.6 M113.4,93.1v-9 M110.6,93.2v-4.6 M110.6,88.6V84 M110.9,93.5
	v-9.8 M111.6,93.5v-4.9 M111.6,88.6v-4.9 M109,90.8v-1.2 M104.2,86.4h0.2 M104.6,90.9h-0.2 M104.4,90.9l0.1,1.3l0.1,1l0.1,0.6
	l0.1,0.2 M104.4,90.8l-0.4-2.2l0.2-2.2 M103.9,83.3L103.9,83.3l0.1,0.2l0.1,0.6l0.1,1l0.1,1.3 M106.8,83.2L106.8,83.2 M106.9,83.5
	v-0.3l0,0 M107.2,86.5L107.2,86.5 M107.4,90.9h-0.2 M106,94.1v-0.2l-0.1-0.6l-0.1-1l-0.1-1.3 M105.4,83.3L105.4,83.3l0.1,0.2
	l0.1,0.6l0.1,1l0.1,1.3 M105.6,86.5h0.2 M105.8,90.9l-0.4-2.2l0.2-2.2 M106,90.9h-0.2 M103.3,88.6L103.3,88.6v0.2 M104.1,83.2
	l0.1,0.2l0.1,0.6l0.1,1l0.1,1.3 M104.4,86.4l0.4,2.2l-0.2,2.2 M104.6,90.9l0.1,1.3l0.1,1l0.1,0.6l0.1,0.2 M104.8,94.1L104.8,94.1
	 M105.5,83.2L105.5,83.2v0.3 M105.4,83.2L105.4,83.2 M105.9,84L105.9,84L105.9,84 M108.9,90.2l0.1,0.5v0.1 M108.7,90.8v1.3
	 M109,93.7v-2.9 M109,89.5l-0.1,0.7 M109,88.4v1.1 M108.4,86.3h0.2 M108.7,90.8L108.7,90.8 M108.9,90.2l-0.2,0.6 M107.7,94L107.7,94
	 M108.4,83.1l0.1,0.2l0.1,0.6l0.1,1l0.1,1.3 M108.6,86.3l0.4,2 M109,88.3v-2.9 M105.8,86.5v-0.9v-0.8v-0.7v-0.5 M106,86.5l0.4,2.2
	l-0.2,2.2 M106.2,90.9l0.1,1.3l0.1,1l0.1,0.6l0.1,0.2 M106.4,94.1L106.4,94.1 M107.1,83.2l0.1,0.2l0.1,0.6l0.1,1l-0.1,1.3
	 M107.2,86.4l0.4,2.2l-0.2,2.2 M107.4,90.9l0.1,1.3l0.1,1l0.1,0.6l0.1,0.2 M108.8,93.9L108.8,93.9v-0.4v-0.6v-0.8 M108.8,92.2
	l-0.1-1.3 M108.8,90.8l-0.4-2.2l0.2-2.2 M108.3,83.2L108.3,83.2l0.1,0.2l0.1,0.6l0.1,1l0.1,1.3 M107.2,90.9l0.1,1.3l0.1,1l0.1,0.6
	l0.1,0.2 M107.2,90.9l-0.4-2.2l0.2-2.2 M106.8,83.5V84v0.7v0.8v0.9 M4.2,106.4h4.3 M8.5,110.7H4.2 M4.2,110.7v-4.3 M97.5,106.4h4.3
	 M101.7,110.7h-4.3 M101.7,106.4v4.3 M97.4,106.4h-89 M8.4,110.7h89 M8.4,106.4H4.2 M4.2,69.7h4.3 M4.2,78.9v-9.2 M4.2,102.3V78.9
	 M4.2,106.4v-4.1 M97.4,106.4h-89 M9.9,96.8v4.1 M9.9,96.8l0.1-0.6l0.2-0.5l0.3-0.5l0.3-0.4l0.4-0.4l0.5-0.3l0.5-0.2l0.6-0.1
	 M91.8,93.9H12.7 M91.8,93.9l0.6,0.1l0.5,0.2l0.5,0.3l0.4,0.4l0.4,0.4l0.3,0.5l0.2,0.5v0.6 M94.6,100.9v-4.1 M94.6,100.9l-0.1,0.8
	l-0.2,0.8l-0.4,0.7l-0.5,0.6l-0.6,0.5l-0.7,0.4l-0.8,0.2l-0.8,0.1 M14.1,105.1h76.3 M14.1,105.1l-0.8-0.1l-0.8-0.2l-0.7-0.4
	l-0.6-0.5l-0.5-0.6l-0.4-0.7l-0.2-0.8l-0.1-0.8 M90.3,72.5H14.1 M90.4,72.5l0.8,0.1l0.8,0.2l0.7,0.4l0.6,0.5l0.5,0.6l0.4,0.7
	l0.2,0.8l0.1,0.8 M94.6,81.8v-5 M94.6,81.8v0.6l-0.2,0.5l-0.3,0.5l-0.4,0.4l-0.4,0.4l-0.5,0.3l-0.5,0.2l-0.6,0.1 M12.7,84.6h79.1
	 M12.7,84.6l-0.6-0.1l-0.5-0.2l-0.5-0.3l-0.4-0.4l-0.3-0.4l-0.3-0.5L10,82.3l-0.1-0.6 M9.9,76.8v5 M9.9,76.8L10,76l0.2-0.8l0.4-0.7
	l0.5-0.6l0.6-0.5l0.7-0.4l0.8-0.2l0.8-0.1 M93.2,91.6l0.7-0.1l0.6-0.3l0.5-0.4l0.4-0.6l0.2-0.6v-0.7l-0.2-0.6L95,87.7l-0.5-0.4
	L93.9,87l-0.7-0.1L92.6,87L92,87.3l-0.5,0.4l-0.4,0.6l-0.2,0.6v0.7l0.2,0.6l0.4,0.6l0.5,0.4l0.6,0.3L93.2,91.6 M20.9,91.6l0.7-0.1
	l0.6-0.3l0.5-0.4l0.4-0.6l0.2-0.6v-0.7l-0.2-0.6l-0.4-0.6l-0.5-0.4L21.6,87l-0.7-0.1L20.3,87l-0.6,0.3l-0.5,0.4l-0.4,0.6l-0.2,0.6
	v0.7l0.2,0.6l0.4,0.6l0.5,0.4l0.6,0.3L20.9,91.6 M8.5,69.7h89 M101.7,106.4h-4.3 M97.4,69.7h4.3 M101.7,101.4v5 M101.7,75.4v26
	 M101.7,69.7v5.7 M103.4,94.1L103.4,94.1 M103.4,82.2l-0.3-0.6 M103.1,95.7l0.3-0.6 M110.6,84.1H109 M109,93.3h1.6 M113.4,84.2
	L113.4,84.2L113.4,84.2L113.4,84.2L113.4,84.2 M113.4,93.4L113.4,93.4L113.4,93.4L113.4,93.4v-0.1 M106.7,93.4L106.7,93.4l0.2-0.1
	h0.1l0,0 M107,93.4L107,93.4 M108.1,93.4L108.1,93.4l0.2-0.1h0.1l0.1,0.1 M108.9,84.2h-0.1l-0.1-0.1 M107.7,84.1L107.7,84.1
	 M107.7,84.1L107.7,84.1L107.7,84.1h-0.2l-0.1-0.1 M113.3,84l-1.6-0.3 M111.6,93.6l1.6-0.3 M110.6,93.3l0.4,0.3 M110.9,83.8
	l-0.4,0.3 M111.6,83.8h-0.7 M110.9,93.6h0.7 M104.1,83.3h-0.2 M104.6,94.1h0.2 M103.9,83.3l-0.2,0.4l-0.2,0.4 M105.3,83.3l-0.2,0.4
	l-0.2,0.4 M106.7,83.3l-0.2,0.4l-0.2,0.4 M105.6,93.3l0.2,0.4l0.2,0.4 M104.2,93.3l0.2,0.4l0.2,0.4 M107.5,94.1h0.2 M107,83.2h-0.2
	 M106.1,94.1h0.1 M105.5,83.2h-0.2 M103.8,93.3L103.8,93.3l0.2-0.1h0.1l0.1,0.1 M105.3,93.3L105.3,93.3l0.2-0.1h0.1l0.1,0.1
	 M106.3,84L106.3,84l-0.2,0.1H106L106,84 M104.9,84L104.9,84l-0.2,0.1h-0.1l-0.1-0.1 M103.5,84L103.5,84 M108.3,83.2h-0.1 M104.6,84
	l-0.2-0.4l-0.2-0.4 M105.5,83.3L105.5,83.3 M106,84l-0.2-0.4l-0.2-0.3 M104.9,94.1l0.2-0.4l0.2-0.4 M103.4,94.1l0.2-0.4l0.2-0.4
	 M108.9,94l0.2-0.2 M107.5,84l-0.2-0.4l-0.2-0.4 M108.9,84l-0.2-0.4l-0.2-0.4 M107.7,94.1l0.2-0.4l0.2-0.4 M106.3,94.1l0.2-0.4
	l0.2-0.4 M108.2,83.2l-0.2,0.4l-0.2,0.4 M108.5,93.3l0.2,0.4l0.1,0.3 M107,93.3l0.2,0.4l0.2,0.4"/>
<path class="st10" d="M196.2,541.3h8.7 M205.9,543.4h-10.7 M195.2,543.4H195l-0.2-0.1l-0.2-0.1l-0.2-0.1l-0.1-0.2l-0.1-0.2l-0.1-0.2
	v-0.2 M207.1,542.3v0.2l-0.1,0.2l-0.1,0.2l-0.1,0.2l-0.2,0.1l-0.2,0.1l-0.2,0.1H206 M205.4,540.8v-2.3 M195.8,540.8L195.8,540.8v0.2
	v0.1l0.1,0.1l0.1,0.1h0.1h0.1h0.1 M204.9,541.2L204.9,541.2h0.2h0.1l0.1-0.1l0.1-0.1V541v-0.1v-0.1 M195.7,538.6v2.3 M196.8,536.7
	h-0.1h-0.1h-0.1h-0.1l0,0l0,0v0.1 M194.1,542.1v-6.5 M204.3,536.6h-7.4 M205.4,538.4v-0.2 M196.6,536.8l-0.7,1.3 M195.9,538.2v0.2
	 M207.2,535.6v6.5 M204.8,536.8L204.8,536.8L204.8,536.8L204.8,536.8L204.8,536.8l-0.1-0.1h-0.1h-0.1 M205.6,538.4l-0.7-1.3
	 M206.2,534.6h0.2l0.2,0.1l0.2,0.1l0.2,0.1l0.1,0.2l0.1,0.2l0.1,0.2v0.2 M195.2,534.6H206 M194.1,535.7v-0.2l0.1-0.2l0.1-0.2
	l0.1-0.2l0.2-0.1l0.2-0.1l0.2-0.1h0.2 M201.5,539.5L201.5,539.5L201.5,539.5 M201.9,539.5L201.9,539.5L201.9,539.5 M199.2,539.5
	L199.2,539.5L199.2,539.5 M204,539.7L204,539.7L204,539.7L204,539.7L204,539.7L204,539.7 M200.5,539.4h0.3 M200.8,539.4L200.8,539.4
	L200.8,539.4 M198.1,539.5h0.3 M203.9,539.8h-6.5 M199.3,539.5h0.3 M201.6,539.5h0.3 M199.6,539.5L199.6,539.5L199.6,539.5
	 M198.4,539.6L198.4,539.6L198.4,539.6 M198,539.6L198,539.6L198,539.6 M202.7,539.5L202.7,539.5L202.7,539.5 M197.3,539.8
	L197.3,539.8L197.3,539.8L197.3,539.8L197.3,539.8L197.3,539.8 M203.2,539.6L203.2,539.6L203.2,539.6 M202.8,539.6h0.3 M200.4,539.6
	L200.4,539.6L200.4,539.6 M203.2,538.4L203.2,538.4L203.2,538.4L203.2,538.4 M199.7,539.5v-1 M200.5,538.4L200.5,538.4L200.5,538.4
	L200.5,538.4 M203.2,538.4h-0.3 M203.6,538l0.4,0.8 M198.1,538.4L198.1,538.4L198.1,538.4L198.1,538.4 M204,538.7v0.9 M197.8,537.8
	h5.7 M202.1,539.4v-1 M198.5,538.4L198.5,538.4L198.5,538.4L198.5,538.4 M202,538.4h-0.3 M199.2,538.4v1 M203.5,537.8h0.1l0,0l0,0
	 M202,538.3L202,538.3L202,538.3L202,538.3 M198,538.4v1 M201.6,538.4v1 M200.4,538.4v1 M200.8,538.2h-0.3 M202.7,538.3v1
	 M201.6,538.2L201.6,538.2L201.6,538.2L201.6,538.2 M200.9,538.2L200.9,538.2L200.9,538.2L200.9,538.2 M197.2,539.7v-0.9
	 M203.2,539.5v-1 M197.6,538L197.6,538L197.6,538h0.1 M198.5,539.6v-1 M204,538.9L204,538.9 M199.6,538.4h-0.4 M199.6,538.5
	L199.6,538.5L199.6,538.5L199.6,538.5 M198.4,538.5H198 M197.2,538.9l0.4-0.8 M202.8,538.5L202.8,538.5L202.8,538.5L202.8,538.5
	 M199.2,538.4L199.2,538.4L199.2,538.4L199.2,538.4 M197.2,538.8L197.2,538.8 M200.8,539.5v-1 M200.7,540.3h0.9 M198.4,540.3h0.9
	 M199.5,540.3h0.9 M201.9,540.3h0.9 M198.4,540.3h-0.2 M203.1,540.3h-0.2 M199.6,540.3h-0.2 M200.8,540.3h-0.2 M201.9,540.3h-0.2
	 M198.1,540.2L198.1,540.2V540 M198.2,540.3L198.2,540.3L198.2,540.3 M203.2,540v0.2l0,0 M203.1,540.3L203.1,540.3L203.1,540.3
	 M202.8,540.3L202.8,540.3v-0.2 M202.9,540.4L202.9,540.4L202.9,540.4 M200.8,540.2v0.2l0,0 M200.7,540.5L200.7,540.5L200.7,540.5
	 M200.4,540.5L200.4,540.5v-0.2 M200.5,540.5L200.5,540.5L200.5,540.5 M199.3,540.5L199.3,540.5v-0.2 M199.3,540.6h-0.1l0,0
	 M198.4,540.4v0.2l0,0 M198.3,540.7L198.3,540.7L198.3,540.7 M201.6,540.7L201.6,540.7v-0.2 M201.6,540.8L201.6,540.8L201.6,540.8
	 M202,540.5v0.2l0,0 M201.9,540.8L201.9,540.8L201.9,540.8 M199.6,540.6v0.2l0,0 M199.5,540.9L199.5,540.9L199.5,540.9 M200.4,540.4
	v-0.5 M198,540.4v-0.5 M198.4,539.8v0.5 M201.6,540.4v-0.5 M199.2,540.4v-0.5 M202.8,540.4v-0.5 M202,539.8v0.5 M199.6,539.8v0.5
	 M200.8,539.8v0.5 M203.1,539.8v0.5 M199.3,539.4L199.3,539.4L199.3,539.4L199.3,539.4 M199.3,539.5L199.3,539.5L199.3,539.5
	 M202.9,539.4L202.9,539.4L202.9,539.4L202.9,539.4 M202.8,539.5L202.8,539.5L202.8,539.5 M202.9,539.4h0.2 M200.9,539.5
	L200.9,539.5L200.9,539.5 M200.8,539.4L200.8,539.4L200.8,539.4L200.8,539.4 M203.2,539.4L203.2,539.4L203.2,539.4 M203.1,539.2
	L203.1,539.2L203.1,539.2L203.1,539.2 M198,539.5L198,539.5 M199.2,539.5v-0.2 M198.4,539.5L198.4,539.5 M199.2,539.5L199.2,539.5
	 M201.6,539.6L201.6,539.6 M203.1,539.6L203.1,539.6 M198,539.5v-0.2 M200.5,539.2h0.2 M202.7,539.6L202.7,539.6 M201.9,539.3
	L201.9,539.3L201.9,539.3 M201.8,539.2L201.8,539.2L201.8,539.2L201.8,539.2 M203.1,539.2v0.2 M202.7,539.4v-0.2 M200.3,539.5
	L200.3,539.5 M201.6,539.1h0.2 M200.4,539.1L200.4,539.1L200.4,539.1L200.4,539.1 M200.3,539.2L200.3,539.2L200.3,539.2
	 M199.2,539.1h0.2 M198.1,539.1L198.1,539.1L198.1,539.1L198.1,539.1 M198.1,539.2L198.1,539.2L198.1,539.2 M200.4,539.5v-0.2
	 M201.7,539.2L201.7,539.2L201.7,539.2L201.7,539.2 M201.6,539.2L201.6,539.2L201.6,539.2 M199.6,539.5L199.6,539.5 M199.6,539.3
	v0.2 M202,539.3v0.2 M202,539.5L202,539.5 M198.4,539.2v0.2 M200.8,539.2v0.2 M198.4,539.1L198.4,539.1L198.4,539.1 M198.4,539
	L198.4,539L198.4,539L198.4,539 M201.6,539.3v-0.2 M200.8,539.3L200.8,539.3 M198.1,538.9h0.2 M199.6,538.9L199.6,538.9L199.6,538.9
	 M199.5,538.8L199.5,538.8L199.5,538.8L199.5,538.8 M188.5,539.1l0.1,0.5l0.3,0.4l0.4,0.3l0.5,0.1h0.5l0.5-0.2l0.4-0.4l0.2-0.5v-0.5
	l-0.2-0.5l-0.4-0.4l-0.5-0.2l-0.5,0l-0.5,0.1l-0.4,0.3l-0.3,0.5L188.5,539.1 M209.8,539.2l0.1,0.5l0.3,0.4l0.4,0.3l0.5,0.1h0.5
	l0.5-0.2l0.4-0.4l0.2-0.5V539l-0.2-0.5l-0.4-0.4l-0.5-0.2l-0.5,0l-0.5,0.1l-0.4,0.3l-0.3,0.5L209.8,539.2 M207.2,536.2v-0.3
	l-0.1-0.3l-0.1-0.3l-0.2-0.2l-0.2-0.2l-0.3-0.2l-0.3-0.1h-0.3 M207.3,542.2V536 M205.7,543.5h0.3l0.3-0.1l0.3-0.2l0.2-0.2l0.2-0.2
	l0.1-0.3l0.1-0.3V542 M195.5,543.5h10.2 M193.9,542v0.3l0.1,0.3l0.1,0.3l0.2,0.2l0.2,0.2l0.3,0.2l0.3,0.1h0.3 M193.9,536v6
	 M195.4,534.4h-0.3l-0.3,0.1l-0.3,0.2l-0.2,0.2l-0.2,0.2l-0.1,0.3l-0.1,0.3v0.3 M205.7,534.4h-10.2 M301,546l0.7-1.2l0.8-1.3
	l0.4-0.7l0.4-0.7l0.5-0.8l0.5-0.9l0.4-0.7l0.4-0.7 M305.1,538.9l-0.7-1.2l-0.7-1.2l-0.7-1.2l-0.4-0.6l-0.4-0.6l-0.3-0.6l-0.7-1.2
	l-0.3-0.6 M301,531.9h-8.1 M292.9,531.9l-0.7,1.2l-0.7,1.3l-0.4,0.7l-0.4,0.7l-0.5,0.8l-0.5,0.9l-0.4,0.7l-0.4,0.7 M288.8,538.9
	l0.7,1.2l0.7,1.2l0.3,0.6l0.4,0.6l0.4,0.6l0.4,0.6l0.7,1.2l0.7,1.2 M292.9,546h8.1 M292.8,535.5l-0.4,0.5 M294.8,533.7l-1.4,1
	l-0.5,0.7 M299.1,533.7l-1.1-0.3l-1.1-0.1l-1.1,0.1l-1.1,0.3 M299.2,533.7L299.2,533.7 M301.9,537l-0.1-0.5l-0.6-1.2l-0.9-1
	l-1.1-0.7 M303.4,538.9l-0.1,1.1l-0.3,1.1l-0.5,1L302,543l-0.8,0.8l-0.9,0.7l-1,0.5l-1,0.3l-1.2,0.2h-1.1l-1.1-0.2l-1-0.4l-0.9-0.6
	l-0.8-0.7l-0.7-0.8l-0.5-1l-0.4-1l-0.2-1.1v-1.2l0.2-1.1l0.4-1l0.5-1l0.7-0.8l0.8-0.7l0.9-0.6l1-0.4l1.1-0.2h1.1l1.1,0.1l1,0.3
	l1,0.5l0.9,0.7l0.8,0.8l0.6,0.9l0.5,1l0.3,1.1l0.1,1.1 M301.9,538v-0.6 M292.3,536.8l0.8-1.2l1.1-1l1.3-0.7l1.5-0.2 M296.9,533.7
	l1.1,0.1l1.1,0.3l1,0.6l0.9,0.8 M301.9,537.4l-0.3-0.5l0-0.1 M301.9,537.4v-0.6 M301.9,536.8l-0.1-0.2l-0.1-0.2l-0.1-0.2l-0.1-0.2
	l-0.1-0.2l-0.1-0.2l-0.1-0.2l-0.1-0.2 M292,539.2V538 M292,538l0.3-1.2 M301.9,539.2V538 M301.6,536.8l0.3,1.2 M296.9,533.9l0.7,0
	l0.7,0.2l0.7,0.3l0.6,0.3l0.6,0.4l0.5,0.5l0.5,0.6l0.4,0.6 M292.2,536.8l0.8-1.2l1.1-0.9l1.3-0.6l1.4-0.2 M296.9,533.6l-1.5,0.2
	l-1.4,0.7l-1.2,1l-0.8,1.3 M291.9,539.4v1.8 M291.9,536.8v1.1 M291.9,541.2l0.8,1.3l1.2,1l1.4,0.7l1.5,0.2l1.5-0.2l1.4-0.7l1.2-1
	l0.8-1.3 M301.8,541.2v-2 M301.8,537.3v-0.5 M300.1,534.7l-0.2-0.2l-1.4-0.7l-1.5-0.2 M297.4,541.6v0.2l-0.1,0.2l-0.2,0.1l-0.2,0
	l-0.2,0l-0.2-0.1l-0.1-0.2v-0.2v-0.2l0.1-0.2l0.2-0.1l0.2,0l0.2,0l0.2,0.1l0.1,0.2V541.6 M299.7,540.3v0.2l-0.1,0.2l-0.2,0.1h-0.2
	h-0.2l-0.2-0.1l-0.1-0.2v-0.2v-0.2l0.1-0.2l0.2-0.1h0.2h0.2l0.2,0.1l0.1,0.2V540.3 M295.2,540.3v0.2l-0.1,0.2l-0.2,0.1h-0.2h-0.2
	l-0.2-0.1l-0.1-0.2v-0.2v-0.2l0.1-0.2l0.2-0.1h0.2h0.2l0.2,0.1l0.1,0.2V540.3 M299.7,537.8v0.2l-0.1,0.2l-0.2,0.1h-0.2h-0.2
	l-0.2-0.1l-0.1-0.2v-0.2v-0.2l0.1-0.2l0.2-0.1h0.2h0.2l0.2,0.1l0.1,0.2V537.8 M295.2,537.8v0.2l-0.1,0.2l-0.2,0.1h-0.2h-0.2
	l-0.2-0.1l-0.1-0.2v-0.2v-0.2l0.1-0.2l0.2-0.1h0.2h0.2l0.2,0.1l0.1,0.2V537.8 M298.6,535.4L298.6,535.4 M297.3,536.6l1.3-1.3
	 M296.4,536.6L296.4,536.6l0.2,0.2h0.1h0.1h0.1h0.1l0.1-0.1l0.1-0.1 M295.1,535.4L295.1,535.4 M295.1,535.4l1.3,1.3 M295.5,535.2
	l0.3-0.1l0.4-0.1l0.4,0h0.7l0.4,0l0.4,0.1l0.3,0.1 M295.2,535.3L295.2,535.3L295.2,535.3L295.2,535.3L295.2,535.3L295.2,535.3
	L295.2,535.3 M295,535.5l1.3,1.3 M297.1,536.7l1.3-1.3 M298.1,535.3h0.1h0.1h0.1l0,0 M301.5,539l-0.1,1l-0.3,0.9l-0.5,0.8l-0.6,0.7
	l-0.7,0.6l-0.8,0.5l-0.9,0.3l-1,0.1l-1-0.1l-0.9-0.3l-0.9-0.5l-0.7-0.6l-0.6-0.7l-0.5-0.8l-0.3-0.9l-0.1-1l0.1-1l0.3-0.9l0.5-0.8
	l0.6-0.7l0.7-0.6l0.9-0.5l0.9-0.3l1-0.1l1,0.1l0.9,0.3l0.8,0.5l0.7,0.6l0.6,0.7l0.5,0.8l0.3,0.9L301.5,539 M296.6,543.1l0.9-0.1
	l0.8-0.3l0.7-0.4l0.6-0.6l0.5-0.7l0.4-0.8l0.2-0.8v-0.9l-0.2-0.8l-0.4-0.8l-0.5-0.7l-0.6-0.6l-0.7-0.4l-0.8-0.3l-0.9-0.1
	 M296.6,534.9l-0.9,0.1l-0.8,0.3l-0.8,0.4l-0.6,0.6l-0.5,0.7l-0.4,0.8l-0.2,0.8v0.8l0.2,0.8l0.4,0.8l0.5,0.7l0.6,0.6l0.8,0.4
	l0.8,0.3l0.9,0.1 M296.6,543.2l0.8-0.1l0.8-0.2l0.7-0.4l0.6-0.5l0.5-0.7l0.4-0.7l0.2-0.8l0.1-0.8 M296.6,534.7l-0.9,0.1l-0.8,0.3
	l-0.8,0.5l-0.7,0.6l-0.5,0.7l-0.4,0.8l-0.2,0.9v0.9l0.2,0.9l0.4,0.8l0.5,0.7l0.7,0.6l0.8,0.4l0.8,0.3l0.9,0.1 M300.9,539l-0.1-0.8
	l-0.2-0.8l-0.4-0.7l-0.5-0.7l-0.6-0.5l-0.7-0.4l-0.8-0.2l-0.8-0.1 M259.1,535.8l0.7,0.1l0.6,0.3l0.5,0.4l0.4,0.6l0.2,0.6v0.7
	l-0.2,0.6l-0.4,0.6l-0.5,0.4l-0.6,0.3l-0.7,0.1l-0.7-0.1l-0.6-0.3l-0.5-0.4l-0.4-0.6l-0.2-0.6v-0.7l0.2-0.6l0.4-0.6l0.5-0.4l0.6-0.3
	L259.1,535.8 M259.1,535.9l0.6,0.1l0.6,0.3l0.5,0.4l0.3,0.5l0.2,0.6v0.6l-0.2,0.6l-0.3,0.5l-0.5,0.4l-0.6,0.3l-0.6,0.1l-0.6-0.1
	l-0.6-0.3l-0.5-0.4L257,539l-0.2-0.6v-0.6l0.2-0.6l0.4-0.5l0.5-0.4l0.6-0.3L259.1,535.9 M259.1,536.3l0.6,0.1l0.5,0.3l0.4,0.4
	l0.3,0.5l0.1,0.6l-0.1,0.6l-0.3,0.5l-0.4,0.4l-0.5,0.3l-0.6,0.1l-0.6-0.1l-0.5-0.3l-0.4-0.4l-0.3-0.5l-0.1-0.6l0.1-0.6l0.3-0.5
	l0.4-0.4l0.5-0.3L259.1,536.3 M196.9,539.3h-1.4 M197.7,539.3L197.7,539.3 M198.2,539.3L198.2,539.3 M198.9,539.3h0.3 M199.7,539.3
	L199.7,539.3 M200.4,539.3L200.4,539.3 M200.9,539.3L200.9,539.3 M201.6,539.3L201.6,539.3 M202.1,539.3L202.1,539.3 M202.9,539.3
	L202.9,539.3 M203.3,539.3L203.3,539.3 M205.6,539.3h-1.4 M162.3,517h4.3 M166.6,521.3h-4.3 M162.3,521.3V517 M346.6,521.3h-4.3
	 M346.6,517v4.3 M342.3,517h4.3 M342.3,517H166.6 M166.6,521.3h175.8 M342.3,548.8v0.2v0.2v0.2l-0.1,0.2l0,0.2l-0.1,0.1l-0.1,0.1
	l-0.1,0.1 M166.6,548.8v0.2v0.2v0.2v0.2l0.1,0.2l0.1,0.1l0.1,0.1l0.1,0.1 M167.8,550.8L167.8,550.8l-0.2,0l-0.2-0.1l-0.1-0.1
	l-0.1-0.1l-0.1-0.1l-0.1-0.1l-0.1-0.2 M166.8,550.9V550 M341.8,550.9V550 M341.8,550l-0.1,0.2l-0.1,0.1l-0.1,0.1l-0.2,0.1l-0.1,0.1
	l-0.1,0.1l-0.2,0.1h0 M342.2,553L342.2,553v-0.4l-0.1-0.3V552v-0.3v-0.4v-0.4 M167.2,550.9v0.7l-0.1,0.7l-0.1,0.6v0.1 M168.2,543.5
	v11.3 M341.2,554.8v-11.3 M207.8,542v0.3l-0.1,0.3l-0.2,0.3l-0.2,0.3l-0.3,0.2l-0.3,0.2l-0.3,0.1H206 M206,543.7h-10.6 M195.4,543.7
	h-0.3l-0.3-0.1l-0.3-0.2l-0.3-0.2L194,543l-0.2-0.3l-0.1-0.3V542 M193.7,542v-6 M193.7,536v-0.3l0.1-0.3l0.2-0.3l0.2-0.3l0.3-0.2
	l0.3-0.2l0.3-0.1h0.3 M195.4,534.3h10.3 M205.7,534.3h0.3l0.3,0.1l0.3,0.2l0.3,0.2l0.2,0.3l0.2,0.3l0.1,0.3v0.3 M207.5,536v6
	 M211.2,541l-0.6-0.1l-0.6-0.3l-0.4-0.4l-0.3-0.5l-0.1-0.6l0.1-0.6l0.3-0.6l0.4-0.4l0.6-0.3l0.6-0.1l0.6,0.1l0.6,0.3l0.4,0.4
	l0.3,0.6l0.1,0.6l-0.1,0.6l-0.3,0.5l-0.4,0.4l-0.6,0.3L211.2,541 M189.9,541l-0.6-0.1l-0.6-0.3l-0.4-0.4l-0.3-0.5l-0.1-0.6l0.1-0.6
	l0.3-0.6l0.4-0.4l0.6-0.3l0.6-0.1l0.6,0.1l0.6,0.3l0.4,0.4l0.3,0.6l0.1,0.6l-0.1,0.6l-0.3,0.5l-0.4,0.4l-0.6,0.3L189.9,541
	 M252,531.4h-0.5 M251.5,531.4L251.5,531.4l0.1,0.2h0.1h0.1 M251.7,531.6L251.7,531.6l0.2-0.1l0.1-0.1 M255.2,531.4h-0.5
	 M254.7,531.4L254.7,531.4l0.1,0.2h0.1h0.1 M254.9,531.5h0.1l0.1-0.1l0.2-0.1 M198.6,527.3h-0.2l-0.2,0.1l-0.1,0.2v0.2 M198.1,527.8
	v0.2l0.1,0.2l0.1,0.1h0.1 M198.5,528.2h0.5 M199,528.2v-0.9 M199,527.3h-0.5 M258.1,527.2v0.3 M258.1,527.5h0.6 M258.7,527.5v-0.3
	 M258.7,527.2h-0.6 M258.5,527.4L258.5,527.4 M258.4,527.5l-0.1-0.1l-0.1-0.1 M258.3,527.3L258.3,527.3h0.1 M258.4,527.3l0.1,0.1
	v0.1 M258.5,527L258.5,527l-0.1,0 M258.3,527l-0.1-0.1l-0.1-0.1 M258.6,527.1v-0.2v-0.2 M258,526.7v0.4 M258,527.1h0.6 M258.6,526.7
	h-0.7 M258.1,526.8L258.1,526.8h0.1 M258.3,526.8l0.1,0.1l0.1,0.1 M290.3,529h-0.2l-0.2,0.1l-0.1,0.2v0.2 M289.8,529.5v0.2l0.2,0.2
	l0.4,0.1 M290.4,530h0.4 M290.8,530v-1 M290.8,529h-0.5 M248.6,526.8l-0.2,0.3l-0.1,0.2 M248.8,527.3l-0.1-0.3l-0.1-0.2
	 M248.3,527.3h0.5 M301.2,529H301l-0.2,0.1l-0.1,0.2v0.2 M300.7,529.4l0,0.2l0.2,0.2l0.4,0.1 M301.3,529.9h0.4 M301.7,529.9v-1
	 M301.7,528.9h-0.5 M255.8,526.7L255.8,526.7v0.1 M255.8,526.9l-0.3-0.1l-0.2-0.1 M255.3,526.7L255.3,526.7l0-0.1 M255.3,526.5
	l0.3,0.1l0.2,0.1 M256.2,526.5h-1.4 M254.8,526.5v1.5 M254.8,528h1.4 M256.2,528v-1.5 M255.7,527.9h-0.1h-0.1 M255.5,527.9
	L255.5,527.9l0.1-0.1 M255.6,527.8H255 M255,527.8l0.1-0.2l0.1-0.1l0.1-0.1l0.1-0.1 M255.4,527.4l-0.3-0.1l-0.2,0 M254.9,527.2
	L254.9,527.2l0.1-0.2 M254.9,527.1l0.3,0.1l0.2,0.1 M255.4,527.3l0.3-0.2l0.2-0.1 M256,527.1L256,527.1v0.1 M256,527.2l-0.3,0.1
	l-0.2,0.1 M255.5,527.4l0.1,0.1l0.1,0.1 M255.6,527.6L255.6,527.6l0.1-0.2 M255.8,527.4L255.8,527.4l0.1,0.1 M255.9,527.5l-0.2,0.2
	l-0.1,0.1l-0.1,0.1l-0.1,0.1 M255.5,527L255.5,527l0,0.1 M255.5,527.2l-0.2-0.1l-0.2-0.1 M255.1,527L255.1,527l0-0.2 M255.2,526.9
	l0.2,0.1l0.2,0.1 M197.9,526.5v0.2l0.1,0.1l0.1,0.1l0.4,0.1 M198.5,526h-0.3l-0.2,0.1l-0.1,0.2v0.2 M198.4,527h0.4 M198.9,527v-1
	 M198.9,526h-0.4 M255.5,527.6L255.5,527.6 M255.5,527.6l-0.1-0.1l-0.1-0.1 M255.3,527.5l-0.1,0.1l-0.1,0.1 M255.1,527.7h0.4
	 M336.5,552.3l0.1,0.5l0.2,0.5l0.3,0.5l0.4,0.4l0.4,0.3l0.5,0.3l0.5,0.2l0.6,0.1 M169.2,555.1l0.6-0.1l0.5-0.2l0.5-0.3l0.4-0.3
	l0.4-0.4l0.3-0.5l0.2-0.5l0.1-0.5 M256.4,531.6v-0.1 M256.4,531.5h0.9 M257.4,531.5v0.1 M257.4,531.6h-0.9 M254.5,531.1h-0.2
	 M254.3,531.1l0-0.2l0.1-0.1l0.1,0h0.1 M254.7,530.8h0.2l0.2,0.1l0.1,0.2v0.2 M255.2,531.2v0.2l-0.1,0.2l-0.1,0.1h-0.2 M254.8,531.7
	h-0.2l-0.1-0.1l-0.1-0.3 M254.4,531.3h0.9 M255.2,531.3v-0.1l-0.1-0.1l-0.1-0.1H255 M255,530.9L255,530.9h-0.2v0.1v0.1 M252.8,531.7
	v-0.9 M252.8,530.8h0.2 M253,530.8v0.9 M253,531.7h-0.2 M251.6,531.1h-0.2 M251.4,531.1l0-0.2l0.1-0.1l0.1,0h0.1 M251.8,530.8h0.2
	l0.2,0.1l0.1,0.2v0.2 M252.2,531.2v0.2l-0.1,0.2l-0.1,0.1h-0.2 M251.8,531.7h-0.2l-0.1-0.1l-0.1-0.3 M251.4,531.2h0.7 M252.1,531.2
	v-0.1L252,531l-0.1-0.1h-0.1 M251.8,530.9L251.8,530.9h-0.2v0.1v0.1 M261.1,528.1h-0.2 M260.9,528.1v-0.3 M260.9,527.8v-0.3
	 M260.9,527.5h-0.5 M260.4,527.5h-0.3 M260.1,527.5L260.1,527.5 M260.1,527.4h0.3 M260.4,527.4h0.5 M260.9,527.4v-0.8 M260.9,526.6
	h-0.7 M260.2,526.6h-0.3 M259.9,526.6v-0.2 M259.9,526.4h0.3 M260.2,526.4h1.3 M261.5,526.4h0.3 M261.8,526.4v0.2 M261.8,526.6h-0.3
	 M261.5,526.6h-0.5 M261.1,526.6v1.3 M261.1,527.9v0.3 M259.3,527.4L259.3,527.4l0.1-0.1 M259.3,527.3l0.2,0.2l0.2,0.1 M259.7,527.5
	L259.7,527.5v0.1 M259.7,527.7l-0.2-0.1l-0.2-0.1 M258.1,527.1v-0.2v-0.2 M258.1,526.7h-0.2 M257.9,526.7v-0.2 M257.9,526.6h0.2
	 M258.1,526.6v-0.1l0.1-0.1h0.2 M258.4,526.3L258.4,526.3v0.2 M258.4,526.5h-0.1l0,0l0,0v0.1 M258.2,526.6h0.8 M259,526.6v0.3v0.2
	 M259,527.1h0.2 M259.2,527.1v0.2 M259.2,527.2H259 M259,527.2v0.3v0.2 M259,527.7l0.1-0.1l0.1-0.1 M259.2,527.5L259.2,527.5
	l0.1,0.1 M259.3,527.5l-0.3,0.4l-0.1,0.3 M258.9,528.2L258.9,528.2l-0.2,0 M258.7,528.2L258.7,528.2l0-0.2 M258.8,528h-0.6
	 M258.2,528h-0.3 M257.9,528v-0.2 M257.9,527.8h0.3 M258.2,527.8h0.6 M258.9,527.8l0.1-0.1l0-0.1 M259,527.6h-0.9 M258.1,527.6v-0.5
	 M258.1,527.2h-0.2 M257.9,527.2V527 M257.9,527h0.2 M254.4,527.4L254.4,527.4v0.1 M254.4,527.6l-0.2-0.1l-0.1-0.1 M254.1,527.4
	L254.1,527.4l0-0.1 M254.2,527.2l0.2,0.1l0.1,0.1 M254.2,527.1L254.2,527.1L254,527 M254,527l0.1-0.2l0.1-0.2l0.1-0.2l0.1-0.2
	 M254.3,526.3L254.3,526.3l0.2,0.1 M254.5,526.4l-0.2,0.4l-0.1,0.3 M253.5,527.1h-0.3 M253.2,527.1v-0.2l-0.1-0.1 M253.1,526.8
	l-0.2,0.1l-0.1,0.1 M252.8,527.1L252.8,527.1l-0.1-0.1 M252.7,527l0.2-0.1l0.1-0.1 M253,526.7l-0.2-0.2l-0.2-0.1 M252.5,526.5
	L252.5,526.5l0.1-0.1 M252.6,526.4l0.3,0.2l0.2,0.2 M253.1,526.8v-0.3 M253.1,526.4L253.1,526.4L253.1,526.4L253.1,526.4
	L253.1,526.4h0.2 M253.4,526.4L253.4,526.4v0.2 M253.4,526.6h-0.2l0,0l0,0 M253.2,526.6v0.5 M253.2,527.1h0.1 M253.4,527.1h0.3
	 M253.6,527.1v0.2 M253.6,527.2h-0.3 M251.6,527.4L251.6,527.4l-0.1,0.1 M251.5,527.5l-0.1-0.2l-0.1-0.1 M251.3,527.2L251.3,527.2
	l0.1-0.1 M251.4,527.2l0.1,0.2l0.1,0.1 M251.2,527.4L251.2,527.4L251.2,527.4 M251.2,527.5l-0.2-0.2l-0.1-0.2 M250.8,527.1
	L250.8,527.1l0.1-0.1 M251,527.1l0.2,0.2l0.1,0.1 M251.3,527.6v-0.2 M251.3,527.4h0.2 M251.6,527.4L251.6,527.4 M251.6,527.4v-0.9
	 M251.6,526.5v-0.3 M251.6,526.3h0.2 M251.8,526.3v0.3 M251.8,526.5v0.5 M251.8,527.1l0.1-0.3l0.1-0.2 M252.1,526.6L252.1,526.6
	l0.1,0.1 M252.2,526.7l-0.3,0.4l-0.1,0.3 M251.8,527.4L251.8,527.4 M251.9,527.4h0.3 M252.2,527.4v0.2 M252.2,527.6h-0.3
	 M251.9,527.6L251.9,527.6 M251.8,527.6v0.3 M251.8,527.9h0.2h0.1 M252.1,527.9L252.1,527.9v0.1 M252.1,528.1h-0.3h-0.2h-0.1
	l-0.1,0.1 M251.4,528.1L251.4,528.1l-0.1-0.2 M251.3,528h0.2h0.1 M251.6,528v-0.4 M251.6,527.6h-0.1 M251.5,527.6h-0.2 M249.2,527.3
	v0.1 M249.2,527.4h-0.4 M248.8,527.4v0.3 M248.8,527.7h0.2 M249,527.7h0.3 M249.3,527.7v0.2 M249.3,527.9h-0.2 M249.1,527.9h-0.2
	 M248.8,527.9v0.3 M248.8,528.2h-0.2 M248.7,528.2v-0.3 M248.7,527.9h-0.3 M248.4,527.9h-0.2 M248.2,527.9v-0.2 M248.2,527.7h0.2
	 M248.4,527.7h0.3 M248.7,527.7v-0.3 M248.7,527.4h-0.4 M248.3,527.4l0.2-0.4l0.2-0.3 M248.7,526.7l-0.3-0.2l-0.3-0.1 M248.1,526.4
	L248.1,526.4l0.1-0.1 M248.2,526.3l0.3,0.2l0.2,0.2 M248.8,526.6l0.3-0.2l0.3-0.1 M249.3,526.3L249.3,526.3l0.1,0.2 M249.5,526.5
	l-0.3,0.1l-0.3,0.1 M248.9,526.7l0.2,0.3l0.1,0.3 M249.2,527.3h0.1 M200.5,527.3L200,527l-0.1-0.2l-0.1-0.3 M199.8,526.5l0.1-0.4
	l0.2-0.3l0.3-0.1h0.3 M200.7,525.7l0.4,0.1l0.3,0.2l0.1,0.3l0.1,0.3 M201.6,526.5v0.1 M201.6,526.6h-0.3 M201.2,526.6L201.2,526.6
	 M201.2,526.5v-0.2l-0.1-0.2l-0.2-0.1h-0.2 M200.8,526h-0.2l-0.2,0.1l-0.1,0.2v0.2 M200.3,526.5l0.1,0.2l0.2,0.2l0.3,0.2
	 M200.8,527.1l0.6,0.3l0.1,0.2v0.2 M201.5,527.8l-0.1,0.3l-0.3,0.2l-0.3,0.1h-0.3 M200.7,528.5l-0.4-0.1l-0.3-0.2l-0.1-0.3v-0.3
	 M199.9,527.7h0.3 M200.2,527.7v0.2l0.1,0.2l0.1,0.1h0.2 M200.6,528.2h0.2l0.2-0.1l0.1-0.1v-0.1 M201,527.8l-0.1-0.2l-0.2-0.1
	l-0.3-0.2 M290,528.7l-0.6-1.3 M289.4,527.4h0.4 M289.8,527.4l0.6,1.2 M290.4,528.7h0.4 M290.8,528.7v-1.2 M290.8,527.4h0.4
	 M291.2,527.4v2.8 M291.2,530.2h-0.8 M290.4,530.2l-0.4-0.1l-0.3-0.2l-0.1-0.3v-0.3 M289.5,529.4v-0.3l0.1-0.3l0.2-0.1l0.2-0.1
	 M293.8,528.8v-1.4 M293.8,527.4h0.3 M294.1,527.4l0,0.2 M294.1,527.6l0.1-0.1l0.1-0.1h0.3 M294.6,527.4h0.2l0.2,0.1l0.3,0.3
	l0.1,0.4v0.5 M295.5,528.8v0.5l-0.1,0.5l-0.3,0.4l-0.2,0.1h-0.3 M294.6,530.3l-0.4-0.1l-0.3-0.3l-0.1-0.6 M293.8,529.3h0.4
	 M294.2,529.3l0.1,0.5l0.1,0.1l0.1,0.1l0.1,0h0.1 M294.7,529.9h0.2l0.1-0.1l0.1-0.3l0.1-0.7 M295.2,528.8l-0.1-0.7l-0.2-0.3
	l-0.1-0.1h-0.2 M294.6,527.7h-0.2l-0.1,0.1l-0.1,0.1l-0.1,0.5 M294.2,528.4v0.2 M294.2,528.6h0.5 M294.7,528.6v0.3 M294.7,528.9
	h-0.9 M298.9,530.3v-2.9 M298.9,527.4h0.3 M299.2,527.4v2.8 M299.2,530.2h-0.4 M302.5,530.2v-0.3 M302.5,529.9h0.7 M303.1,529.9
	v-2.5 M303.1,527.4h0.4 M303.5,527.4v2.5 M303.5,529.9h0.7 M304.2,529.9v0.3 M304.2,530.2h-1.7 M259.5,540.6l0.7-0.1l0.6-0.3
	l0.5-0.4l0.4-0.5l0.2-0.6v-0.7l-0.1-0.7l-0.3-0.6l-0.5-0.5l-0.6-0.3l-0.6-0.2h-0.7l-0.6,0.2l-0.6,0.3l-0.5,0.5l-0.3,0.6l-0.1,0.7
	l0,0.7l0.2,0.6l0.4,0.5l0.5,0.4l0.6,0.3L259.5,540.6 M186,547.1h29.2 M186,547.1l-0.6-0.1l-0.6-0.2l-0.5-0.3l-0.5-0.4l-0.4-0.5
	l-0.3-0.5l-0.2-0.6l-0.1-0.6 M182.9,533.9V544 M182.9,533.9l0.1-0.6l0.2-0.6l0.3-0.5l0.4-0.5l0.4-0.3l0.5-0.3l0.6-0.2l0.6-0.1
	 M215.1,530.9h-29.2 M215.1,530.9l0.6,0.1l0.6,0.2l0.5,0.3l0.5,0.4l0.4,0.5l0.3,0.5l0.2,0.6l0.1,0.6 M218.3,544.1V534 M218.3,544
	l-0.1,0.6l-0.2,0.6l-0.3,0.5l-0.4,0.5l-0.5,0.4l-0.5,0.3l-0.6,0.2l-0.6,0.1 M339.4,538.3v-11.3 M337.4,540.3h0.4l0.4-0.1l0.3-0.2
	l0.3-0.3l0.2-0.3l0.2-0.3l0.1-0.4v-0.4 M311.9,540.3h25.5 M309.9,538.3v0.4l0.1,0.4l0.2,0.3l0.3,0.3l0.3,0.3l0.3,0.2l0.4,0.1h0.4
	 M309.9,526.9v11.3 M311.9,525h-0.4l-0.4,0.1l-0.3,0.2l-0.3,0.3l-0.3,0.3l-0.2,0.3l-0.1,0.4v0.4 M337.4,524.9H312 M339.5,526.9v-0.4
	l-0.1-0.4l-0.2-0.3l-0.2-0.3l-0.3-0.3l-0.3-0.2l-0.4-0.1h-0.4 M183.6,551.5v0.8 M189.3,551.5l-0.1-0.7l-0.3-0.7l-0.4-0.6l-0.6-0.5
	l-0.7-0.3l-0.7-0.1l-0.7,0.1L185,549l-0.6,0.5L184,550l-0.3,0.7l-0.1,0.7 M189.3,552.3v-0.8 M186.5,555.1l0.6-0.1l0.5-0.2l0.5-0.3
	l0.4-0.3l0.4-0.4l0.3-0.5l0.2-0.5l0.1-0.5 M192.1,552.3v0.5l0.2,0.5l0.3,0.5l0.4,0.4l0.4,0.3l0.5,0.3l0.5,0.2l0.6,0.1 M192.1,551.5
	v0.8 M197.7,551.5l-0.1-0.7l-0.3-0.7l-0.4-0.6l-0.6-0.5l-0.7-0.3l-0.7-0.1l-0.7,0.1l-0.7,0.3l-0.6,0.5l-0.4,0.6l-0.3,0.7l-0.1,0.7
	 M197.7,552.3v-0.8 M194.9,555.1l0.6-0.1l0.5-0.2l0.5-0.3l0.4-0.3l0.4-0.4l0.3-0.5l0.2-0.5l0.1-0.5 M200.6,552.3v0.5l0.2,0.5
	l0.3,0.5l0.4,0.4l0.4,0.3l0.5,0.3l0.5,0.2l0.6,0.1 M200.5,551.5v0.8 M206.2,551.5l-0.1-0.7l-0.3-0.7l-0.5-0.6l-0.6-0.5l-0.7-0.3
	l-0.7-0.1l-0.7,0.1l-0.7,0.3l-0.6,0.5l-0.4,0.6l-0.3,0.7l-0.1,0.7 M206.2,552.3v-0.8 M203.4,555.1l0.6-0.1l0.5-0.2l0.5-0.3l0.4-0.3
	l0.4-0.4l0.3-0.5l0.2-0.5l0.1-0.5 M209,552.3l0.1,0.5l0.2,0.5l0.3,0.5l0.4,0.4l0.4,0.3l0.5,0.3l0.5,0.2l0.6,0.1 M209,551.5v0.8
	 M214.7,551.5l-0.1-0.7l-0.3-0.7l-0.5-0.6l-0.6-0.5l-0.7-0.3l-0.7-0.1l-0.7,0.1l-0.7,0.3l-0.6,0.5l-0.5,0.6l-0.3,0.7l-0.1,0.7
	 M214.7,552.3v-0.8 M211.9,555.1l0.5-0.1l0.5-0.2l0.5-0.3l0.4-0.3l0.4-0.4l0.3-0.5l0.2-0.5l0-0.5 M217.5,552.3l0,0.5l0.2,0.5
	l0.3,0.5l0.4,0.4l0.4,0.3l0.5,0.3l0.5,0.2l0.5,0.1 M217.5,551.5v0.8 M223.2,551.5l-0.1-0.7l-0.3-0.7l-0.5-0.6l-0.6-0.5l-0.7-0.3
	l-0.7-0.1l-0.7,0.1l-0.7,0.3l-0.6,0.5l-0.5,0.6l-0.3,0.7l-0.1,0.7 M223.2,552.3v-0.8 M220.4,555.1l0.5-0.1l0.5-0.2l0.5-0.3l0.4-0.3
	l0.4-0.4l0.3-0.5l0.2-0.5l0.1-0.5 M226,552.3l0.1,0.5l0.2,0.5l0.3,0.5l0.4,0.4l0.4,0.3l0.5,0.3l0.5,0.2l0.6,0.1 M226,551.5v0.8
	 M231.7,551.5l-0.1-0.7l-0.3-0.7l-0.5-0.6l-0.6-0.5l-0.7-0.3l-0.7-0.1l-0.7,0.1l-0.7,0.3l-0.6,0.5l-0.5,0.6l-0.3,0.7l-0.1,0.7
	 M231.7,552.3v-0.8 M228.9,555.1l0.5-0.1l0.5-0.2l0.5-0.3l0.4-0.3l0.4-0.4l0.3-0.5l0.2-0.5l0-0.5 M234.5,552.3l0.1,0.5l0.2,0.5
	l0.3,0.5l0.4,0.4l0.4,0.3l0.5,0.3l0.5,0.2l0.5,0.1 M234.5,551.5v0.8 M240.2,551.5l-0.1-0.7l-0.3-0.7l-0.5-0.6l-0.6-0.5l-0.7-0.3
	l-0.7-0.1l-0.7,0.1L236,549l-0.6,0.5l-0.5,0.6l-0.3,0.7l-0.1,0.7 M240.2,552.3v-0.8 M237.4,555.1l0.5-0.1l0.5-0.2l0.5-0.3l0.4-0.3
	l0.4-0.4l0.3-0.5l0.2-0.5l0-0.5 M243,552.3l0,0.5l0.2,0.5l0.3,0.5l0.4,0.4l0.4,0.3l0.5,0.3l0.5,0.2l0.5,0.1 M243,545.9v6.4
	 M248.7,545.9l-0.1-0.7l-0.3-0.7l-0.5-0.6l-0.6-0.5l-0.7-0.3l-0.7-0.1l-0.7,0.1l-0.7,0.3l-0.6,0.5l-0.5,0.6l-0.3,0.7l-0.1,0.7
	 M248.7,552.3v-6.4 M245.9,555.1l0.6-0.1l0.5-0.2l0.5-0.3l0.4-0.3l0.4-0.4l0.3-0.5l0.2-0.5l0.1-0.5 M251.5,552.3l0.1,0.5l0.2,0.5
	l0.3,0.5l0.4,0.4l0.4,0.3l0.5,0.3l0.5,0.2l0.6,0.1 M251.5,545.9v6.4 M257.2,545.9l-0.1-0.7l-0.3-0.7l-0.5-0.6l-0.6-0.5l-0.7-0.3
	l-0.7-0.1l-0.7,0.1l-0.7,0.3l-0.6,0.5l-0.5,0.6l-0.3,0.7l-0.1,0.7 M257.2,552.3v-6.4 M254.4,555.1l0.5-0.1l0.5-0.2l0.5-0.3l0.4-0.3
	l0.4-0.4l0.3-0.5l0.2-0.5l0-0.5 M260.1,552.3l0,0.5l0.2,0.5l0.3,0.5l0.4,0.4l0.4,0.3l0.5,0.3l0.5,0.2l0.5,0.1 M260.1,545.9v6.4
	 M265.7,545.9l-0.1-0.7l-0.3-0.7l-0.5-0.6l-0.6-0.5l-0.7-0.3l-0.7-0.1l-0.7,0.1l-0.7,0.3l-0.6,0.5l-0.5,0.6l-0.3,0.7l-0.1,0.7
	 M265.7,552.3v-6.4 M262.9,555.1l0.5-0.1l0.5-0.2l0.5-0.3l0.4-0.3l0.4-0.4l0.3-0.5l0.2-0.5l0.1-0.5 M268.6,552.3l0.1,0.5l0.2,0.5
	l0.3,0.5l0.4,0.4l0.4,0.3l0.5,0.3l0.5,0.2l0.6,0.1 M268.6,545.9v6.4 M274.2,545.9l-0.1-0.7l-0.3-0.7l-0.5-0.6l-0.6-0.5l-0.7-0.3
	l-0.7-0.1l-0.7,0.1l-0.7,0.3l-0.6,0.5l-0.5,0.6l-0.3,0.7l-0.1,0.7 M274.2,552.3v-6.4 M271.4,555.1l0.5-0.1l0.5-0.2l0.5-0.3l0.4-0.3
	l0.4-0.4l0.3-0.5l0.2-0.5l0-0.5 M277.1,552.3l0.1,0.5l0.2,0.5l0.3,0.5l0.4,0.4l0.4,0.3l0.5,0.3l0.5,0.2l0.5,0.1 M277.1,545.9v6.4
	 M282.7,545.9l-0.1-0.7l-0.3-0.7l-0.5-0.6l-0.6-0.5l-0.7-0.3l-0.7-0.1l-0.7,0.1l-0.7,0.3l-0.6,0.5l-0.5,0.6l-0.3,0.7l-0.1,0.7
	 M282.7,552.3v-6.4 M279.9,555.1l0.5-0.1l0.5-0.2l0.5-0.3l0.4-0.3l0.4-0.4l0.3-0.5l0.2-0.5l0-0.5 M285.6,552.3v0.5l0.2,0.5l0.3,0.5
	l0.4,0.4l0.4,0.3l0.5,0.3l0.5,0.2l0.5,0.1 M285.5,551.5v0.8 M291.2,551.5l-0.1-0.7l-0.3-0.7l-0.5-0.6l-0.6-0.5l-0.7-0.3l-0.7-0.1
	l-0.7,0.1l-0.7,0.3l-0.6,0.5l-0.5,0.6l-0.3,0.7l-0.1,0.7 M291.2,552.3v-0.8 M288.3,555.1l0.6-0.1l0.5-0.2l0.5-0.3l0.4-0.3l0.4-0.4
	l0.3-0.5l0.2-0.5l0.1-0.5 M294,552.3l0.1,0.5l0.2,0.5l0.3,0.5l0.4,0.4l0.4,0.3l0.5,0.3l0.5,0.2l0.6,0.1 M294,551.5v0.8 M299.7,551.5
	l-0.1-0.7l-0.3-0.7l-0.5-0.6l-0.6-0.5l-0.7-0.3l-0.7-0.1l-0.7,0.1l-0.7,0.3l-0.6,0.5l-0.5,0.6l-0.3,0.7l-0.1,0.7 M299.7,552.3v-0.8
	 M296.9,555.1l0.5-0.1l0.5-0.2l0.5-0.3l0.4-0.3l0.4-0.4l0.3-0.5l0.2-0.5l0-0.5 M302.5,552.3l0,0.5l0.2,0.5l0.3,0.5l0.4,0.4l0.4,0.3
	l0.5,0.3l0.5,0.2l0.5,0.1 M302.5,551.5v0.8 M308.2,551.5l-0.1-0.7l-0.3-0.7l-0.5-0.6l-0.6-0.5l-0.7-0.3l-0.7-0.1l-0.7,0.1l-0.7,0.3
	l-0.6,0.5l-0.5,0.6l-0.3,0.7l-0.1,0.7 M308.2,552.3v-0.8 M305.4,555.1l0.5-0.1l0.5-0.2l0.5-0.3l0.4-0.3l0.4-0.4l0.3-0.5l0.2-0.5
	l0.1-0.5 M311,552.3l0,0.5l0.2,0.5l0.3,0.5l0.4,0.4l0.4,0.3l0.5,0.3l0.5,0.2l0.6,0.1 M311,545.9v6.4 M316.7,545.9l-0.1-0.7l-0.3-0.7
	l-0.5-0.6l-0.6-0.5l-0.7-0.3l-0.7-0.1l-0.7,0.1l-0.7,0.3l-0.6,0.5l-0.5,0.6l-0.3,0.7l-0.1,0.7 M316.7,552.3v-6.4 M313.9,555.1
	l0.5-0.1l0.5-0.2l0.5-0.3l0.4-0.3l0.4-0.4l0.3-0.5l0.2-0.5v-0.5 M319.5,552.3l0.1,0.5l0.2,0.5l0.3,0.5l0.4,0.4l0.4,0.3l0.5,0.3
	l0.5,0.2l0.5,0.1 M319.5,545.9v6.4 M325.1,545.9l-0.1-0.7l-0.3-0.7l-0.5-0.6l-0.6-0.5l-0.7-0.3l-0.7-0.1l-0.7,0.1l-0.7,0.3l-0.6,0.5
	l-0.5,0.6l-0.3,0.7l-0.1,0.7 M325.1,552.3v-6.4 M322.3,555.1l0.5-0.1l0.5-0.2l0.5-0.3l0.4-0.3l0.4-0.4l0.3-0.5l0.2-0.5v-0.5
	 M327.9,552.3l0,0.5l0.2,0.5l0.3,0.5l0.4,0.4l0.4,0.3l0.5,0.3l0.5,0.2l0.5,0.1 M327.9,545.9v6.4 M333.6,545.9l-0.1-0.7l-0.3-0.7
	l-0.5-0.6l-0.6-0.5l-0.7-0.3l-0.7-0.1l-0.7,0.1l-0.7,0.3l-0.6,0.5l-0.5,0.6l-0.3,0.7l-0.1,0.7 M333.6,552.3v-6.4 M330.8,555.1
	l0.6-0.1l0.5-0.2l0.5-0.3l0.4-0.3l0.4-0.4l0.3-0.5l0.2-0.5l0.1-0.5 M336.4,545.9v6.4 M342.1,545.9l-0.1-0.7l-0.3-0.7l-0.5-0.6
	l-0.6-0.5l-0.7-0.3l-0.7-0.1l-0.7,0.1l-0.7,0.3l-0.6,0.5l-0.5,0.6l-0.3,0.7l-0.1,0.7 M172,545.9l-0.1-0.7l-0.3-0.7l-0.4-0.6
	l-0.6-0.5l-0.7-0.3l-0.7-0.1l-0.7,0.1l-0.7,0.3l-0.6,0.5l-0.4,0.6l-0.3,0.7l-0.1,0.7 M172.2,552.3v-6.4 M175.1,552.3v0.5l0.2,0.5
	l0.3,0.5l0.4,0.4l0.4,0.3l0.5,0.3l0.5,0.2l0.6,0.1 M175,545.9v6.4 M180.7,545.9l-0.1-0.7l-0.3-0.7l-0.4-0.6l-0.6-0.5l-0.7-0.3
	l-0.7-0.1l-0.7,0.1l-0.7,0.3l-0.6,0.5l-0.4,0.6l-0.3,0.7l-0.1,0.7 M180.7,552.3v-6.4 M177.8,555.1l0.6-0.1l0.5-0.2l0.5-0.3l0.4-0.3
	l0.4-0.4l0.3-0.5l0.2-0.5l0.1-0.5 M183.5,552.3l0.1,0.5l0.2,0.5l0.3,0.5l0.4,0.4l0.4,0.3l0.5,0.3l0.5,0.2l0.6,0.1 M300.8,528.7
	l-0.5-1.3 M300.2,527.4h0.4 M300.6,527.4l0.6,1.2 M301.2,528.6h0.4 M301.6,528.6v-1.2 M301.6,527.4h0.4 M302,527.4v2.8 M302,530.2
	h-0.8 M301.2,530.2l-0.4-0.1l-0.3-0.2l-0.1-0.3v-0.3 M300.4,529.4v-0.3l0.1-0.3l0.2-0.1l0.2-0.1 M296.1,528.8v-1.4 M296.1,527.4h0.3
	 M296.3,527.4l0,0.2 M296.4,527.6l0.1-0.1l0.1-0.1h0.3 M296.9,527.4h0.2l0.2,0.1l0.3,0.3l0.1,0.4v0.5 M297.8,528.8v0.5l-0.1,0.5
	l-0.3,0.4l-0.2,0.1h-0.3 M296.9,530.3l-0.4-0.1l-0.3-0.3l-0.1-0.6 M296.1,529.3h0.4 M296.4,529.3l0.1,0.5l0.1,0.1l0.1,0.1l0.1,0h0.1
	 M296.9,529.9h0.2l0.1-0.1l0.1-0.3l0.1-0.7 M297.4,528.8l-0.1-0.7l-0.2-0.3l-0.1-0.1h-0.2 M296.8,527.7h-0.2l-0.1,0.1l-0.1,0.1
	l-0.1,0.4 M296.4,528.3v0.2 M296.4,528.5h0.5 M296.9,528.5v0.3 M296.9,528.8h-0.8 M291.7,527.7v-0.3 M291.7,527.4h1.7 M293.4,527.4
	v2.8 M293.4,530.2h-1.6 M291.8,530.2v-0.3 M291.8,529.9h1.2 M293,529.9V529 M293,529h-1.1 M291.9,529v-0.3 M291.9,528.7h1.1
	 M293,528.7v-1 M293,527.7h-1.3 M201.9,528.5v-2 M201.9,526.5l0.1-0.4l0.2-0.3l0.3-0.1h0.3 M202.8,525.7h0.4l0.3,0.2l0.1,0.3v0.3
	 M203.6,526.5v2 M203.6,528.5h-0.4 M203.2,528.5v-2 M203.2,526.5v-0.2l-0.1-0.2l-0.1-0.1h-0.2 M202.8,526l-0.2,0l-0.2,0.2l-0.1,0.2
	v0.2 M202.3,526.5v2 M202.3,528.5h-0.4 M198.1,527.1l-0.2-0.1l-0.2-0.2l-0.1-0.2v-0.2 M197.6,526.5l0.1-0.4l0.3-0.3l0.6-0.1
	 M198.6,525.7h0.8 M199.4,525.7v2.8 M199.4,528.5h-0.9 M198.6,528.5h-0.3l-0.3-0.2l-0.1-0.2l-0.1-0.3 M197.7,527.8v-0.2l0.1-0.2
	l0.3-0.2 M249.6,527.3l-0.1,0.1l-0.1,0.1 M249.4,527.5v-0.2 M249.4,527.3l0.1-0.1h0.1 M249.6,527.2v-0.6 M249.6,526.6L249.6,526.6
	L249.6,526.6L249.6,526.6L249.6,526.6l0.3-0.1 M249.9,526.5v0.1v0.1 M249.9,526.7h-0.2l0,0l0,0l0,0 M249.7,526.7v0.5 M249.7,527.2
	l0.1-0.1l0.1-0.1 M249.9,527L249.9,527l0,0.2 M250,527.2l-0.2,0.1l-0.1,0.1 M249.6,527.3v0.4 M249.6,527.7h0.3 M249.9,527.7v0.2
	 M249.9,527.9h-0.3 M249.6,527.9v0.4 M249.6,528.3h-0.2 M249.5,528.3v-0.4 M249.5,527.9h-0.2 M249.3,527.9v-0.2 M249.3,527.7h0.2
	 M249.5,527.7v-0.3 M250.6,527.1v0.9 M250.6,528.1v0.2 M250.6,528.3h-0.2 M250.4,528.3v-0.2 M250.4,528.1v-0.9 M250.4,527.2h-0.1
	h-0.1 M250.2,527.2V527 M250.2,527h0.2h0.1 M250.5,527v-0.3 M250.5,526.7v-0.3 M250.5,526.4h0.2 M250.6,526.4v0.3 M250.6,526.7v0.3
	 M250.6,527l0.4-0.1l0.3-0.1 M251.3,526.8l0.1,0.2 M251.3,527l-0.4,0.1l-0.3,0.1 M251.1,528L251.1,528L251.1,528 M251,528.1
	l-0.1-0.1l-0.1-0.1l-0.1-0.1l-0.1-0.1 M250.7,527.7L250.7,527.7l0.1-0.1 M250.9,527.7l0.1,0.1l0.1,0.1l0.1,0.1l0.1,0.1 M253.5,528.3
	L253.5,528.3h-0.1 M253.4,528.3l-0.1-0.1l-0.1-0.1 M253.2,528L253.2,528h0.1 M253.3,528H253 M253,528l-0.1,0.2l-0.1,0.1
	 M252.8,528.3l-0.1,0h-0.1 M252.7,528.3l0.1-0.1l0.1-0.1 M252.8,528.1h-0.1 M252.7,528.1h-0.3 M252.5,528.1v-0.2 M252.5,527.9h0.3
	 M252.7,527.9h0.3 M253,527.9v-0.1 M253,527.8h-0.2 M252.8,527.8h-0.3 M252.6,527.8v-0.1 M252.6,527.7h0.3 M252.8,527.7h0.2
	 M253,527.7v-0.1 M253,527.5h-0.3 M252.7,527.5h-0.3 M252.4,527.5v-0.1 M252.4,527.4h0.3 M252.7,527.4h0.5 M253.1,527.4L253.1,527.4
	 M253,527.4L253,527.4h-0.1 M252.9,527.4L252.9,527.4L252.9,527.4 M253,527.4l0.1,0.1l0.1,0.1 M253.2,527.5L253.2,527.5L253.2,527.5
	 M253.2,527.5h0.3 M253.5,527.5h0.3 M253.8,527.5v0.1 M253.8,527.7h-0.3 M253.5,527.7h-0.3 M253.2,527.7v0.1 M253.2,527.8h0.2
	 M253.4,527.8h0.2 M253.6,527.8v0.1 M253.6,527.9h-0.2 M253.4,527.9h-0.2 M253.2,527.9v0.1 M253.2,528.1h0.3 M253.5,528.1h0.3
	 M253.7,528.1v0.2 M253.7,528.2h-0.3 M253.5,528.2L253.5,528.2 M253.4,528.2l0.1,0.1l0.1,0.1 M253.5,527.1h-0.3 M253.3,527.1
	l0.1-0.2l0.1-0.2l0.3-0.2 M253.8,526.6L253.8,526.6l0.1,0.1 M253.9,526.6l-0.3,0.1l-0.1,0.1l-0.1,0.1 M253.5,526.9L253.5,526.9
	 M253.5,526.9h0.2 M253.8,526.9v0.2 M253.8,527.1h-0.2 M254.2,528.2L254.2,528.2l-0.1,0.1 M254.1,528.3l-0.2-0.1l-0.1-0.1
	 M253.8,528.1L253.8,528.1l0.1-0.1 M253.9,528l0.1,0.1l0.1,0.1 M256.3,528.3h-1.7 M254.5,528.3v-0.5 M254.5,527.9V527 M254.5,527
	v-0.5 M254.5,526.5h0.2 M254.7,526.5L254.7,526.5 M254.7,526.4h1.4 M256.1,526.4v-0.1 M256.1,526.3h0.2 M256.3,526.3v0.5
	 M256.3,526.8v0.9 M256.3,527.7v0.5 M259.2,527.1L259.2,527.1l-0.1-0.1 M259.1,527.1l0.1-0.2l0.1-0.2l0.1-0.1l0.1-0.2 M259.4,526.4
	L259.4,526.4l0.2,0.1 M259.5,526.5l-0.2,0.4l-0.1,0.3 M259.5,528.1L259.5,528.1L259.5,528.1 M259.4,528.2l-0.2-0.1l-0.2-0.1
	 M259,527.9L259,527.9l0.1-0.1 M259.1,527.8l0.2,0.2l0.2,0.1 M250.6,531.3l-0.2-0.1l0,0v0v-0.1 M250.4,531.1L250.4,531.1v-0.2l0.1,0
	h0.2 M250.7,530.9l0.3,0.1h0.1v0.1v0.1 M251,531.1h-0.2 M250.8,531.1L250.8,531.1L250.8,531.1L250.8,531.1l-0.2-0.1 M250.7,531h-0.1
	h0v0.1 M250.5,531.1L250.5,531.1L250.5,531.1L250.5,531.1h0.2 M250.7,531.1h0.1l0.1,0.1l0.1,0.1v0.1 M251,531.4L251,531.4l-0.1,0.2
	h-0.1h-0.2 M250.7,531.5h-0.1l-0.1-0.1l-0.1-0.1v-0.1 M250.3,531.3h0.2 M250.5,531.3L250.5,531.3L250.5,531.3L250.5,531.3l0.1,0.1
	 M250.6,531.3h0.1l0,0v-0.1 M250.8,531.3v0.1l0,0l0,0h-0.1 M252.7,532.3v-0.2 M252.7,532.1h0.2 M252.9,532.1v0.2 M252.9,532.3h-0.2
	 M253.5,531.8v-0.2 M253.5,531.6h0.2l0.1-0.1l0.1-0.2 M254,531.3v-0.5 M254,530.9h0.2 M254.2,530.9v0.9 M254.2,531.8H254 M254,531.8
	v-0.2 M254,531.6l-0.1,0.1l-0.1,0.1h-0.2 M256,531.6l-0.3-0.2l-0.1-0.1v-0.1 M255.6,531.2V531l0.1-0.2l0.1-0.1h0.2 M256,530.8h0.2
	l0.1,0.1l0.1,0.1v0.2 M256.4,531.2L256.4,531.2 M256.4,531.3h-0.2 M256.2,531.3L256.2,531.3 M256.2,531.2v-0.1l-0.1-0.1l-0.1,0H256
	 M256,531h-0.1l-0.1,0.1v0.1v0.1 M255.8,531.2v0.1l0.1,0.1l0.2,0.1 M256,531.5l0.3,0.2l0.1,0.1v0.1 M256.4,531.8v0.2l-0.1,0.1
	l-0.1,0.1H256 M256,532.2h-0.2l-0.1-0.1l-0.1-0.1v-0.1 M255.6,531.8h0.2 M255.8,531.8L255.8,531.8l0,0.2h0.1h0.1 M256,532L256,532
	h0.2V532v-0.1 M256.2,531.9v-0.1l-0.1-0.1l-0.2-0.1 M257.7,532.2v-0.2 M257.7,532.1h0.7 M258.4,532.1v-0.5 M258.4,531.6h-0.5
	 M257.8,531.6v-0.2 M257.8,531.4h0.5 M258.4,531.4v-0.6 M258.4,530.8h0.2 M258.6,530.8v1.4 M258.6,532.2h-0.9 M169.4,555.1h170.1
	 M166.6,552.3l0.1,0.5l0.2,0.5l0.3,0.5l0.4,0.4l0.4,0.3l0.5,0.3l0.5,0.2l0.6,0.1 M166.6,558h175.8 M339.5,555.1l0.5-0.1l0.5-0.2
	l0.5-0.3l0.4-0.3l0.4-0.4l0.3-0.5l0.2-0.5l0-0.5 M346.6,558h-4.2 M346.6,521.3V558 M342.3,521.3h4.3 M342.3,552.3v-26 M169.4,523.4
	h-0.6l-0.5,0.2l-0.5,0.3l-0.4,0.3l-0.4,0.4l-0.3,0.5l-0.2,0.5l-0.1,0.5 M339.5,523.4H169.4 M342.3,526.2l0-0.5l-0.2-0.5l-0.3-0.5
	l-0.4-0.4l-0.4-0.3l-0.5-0.3l-0.5-0.2h-0.5 M342.3,521.3H166.6 M162.3,521.3h4.3 M162.3,558v-36.8 M166.6,558h-4.3 M166.6,526.2
	v26.1"/>
</svg>
