<svg id="图层_1" data-name="图层 1" xmlns="http://www.w3.org/2000/svg" viewBox="0 0 1204.87 304.02">
  <defs>
    <style>
      .cls-1 {
        fill: #fff;
      }
    </style>
  </defs>
  <rect class="cls-1" x="942.39" y="111.06" width="13.52" height="13.52"/>
  <path class="cls-1" d="M641.22,94.5V88.86c0-11.18-3-14.06-14.12-14.06H591.6c-11.16,0-14.74,2.88-14.74,14.06v31.32c0,11.18,3.58,14,14.74,14h35.5c11.15,0,14-2.87,14-14v-5l-13.36-6.48v14.39H590.5V85.4h37.23v15.42Z" transform="translate(-10.13 -9.67)"/>
  <polygon class="cls-1" points="411.61 113.38 411.61 75.26 462.06 75.26 462.06 65.13 397.79 65.13 397.79 124.56 462.06 124.56 462.06 113.38 411.61 113.38"/>
  <rect class="cls-1" x="415.77" y="87.01" width="32.88" height="10.14"/>
  <rect class="cls-1" x="665.59" y="65.13" width="13.82" height="59.43"/>
  <rect class="cls-1" x="804.5" y="65.13" width="13.83" height="59.43"/>
  <path class="cls-1" d="M869.89,74.8h43.77c11.17,0,14.74,2.88,14.74,14.06v31.32c0,11.18-3.57,14-14.74,14H869.89c-11.17,0-14.75-2.87-14.75-14V88.86c0-11.18,3.58-14.06,14.75-14.06m44.7,10.59H869v37.67h45.63Z" transform="translate(-10.13 -9.67)"/>
  <path class="cls-1" d="M374.08,74.8h-50.9v59.43h13.59V85.05h31.1c4.27,0,6.21.81,6.21,4.72v6.34c0,3.91-1.94,4.71-6.21,4.71H341.35v10.26h32.73c9.11,0,13.38-3.23,13.38-11.52V86.32c0-8.29-4.27-11.52-13.38-11.52" transform="translate(-10.13 -9.67)"/>
  <path class="cls-1" d="M535.45,111.77h7.82c9.11,0,13.36-3.22,13.36-11.52V86.32c0-8.29-4.25-11.52-13.36-11.52h-50.9v59.43H506V85.05h31.08c4.26,0,6.22.81,6.22,4.72v7.14c0,3.92-2,4.72-6.22,4.72H510.54v10.14h8.56L543,134.23h19.82Z" transform="translate(-10.13 -9.67)"/>
  <path class="cls-1" d="M774.22,74.8H723.31v59.43H736.9V85.05H768c4.29,0,6.24.81,6.24,4.72v6.34c0,3.91-2,4.71-6.24,4.71H741.49v10.26h32.73c9.1,0,13.35-3.23,13.35-11.52V86.32c0-8.29-4.25-11.52-13.35-11.52" transform="translate(-10.13 -9.67)"/>
  <polygon class="cls-1" points="1158.19 124.56 1204.87 124.56 1204.87 113.38 1169.25 113.38 1158.19 124.56"/>
  <polygon class="cls-1" points="1145.18 65.12 1145.18 75.72 1182.62 75.72 1141.05 118.11 1141.05 124.56 1151.73 124.56 1204.87 71 1204.87 65.12 1145.18 65.12"/>
  <polygon class="cls-1" points="1105.98 93.79 1133.09 65.12 1116.86 65.12 1098.91 85.15 1105.98 93.79"/>
  <polygon class="cls-1" points="1076.03 65.25 1076.05 65.22 1075.95 65.12 1057.53 65.12 1088.41 97.95 1088.41 124.56 1102.35 124.56 1102.35 97.6 1102.46 97.46 1076.03 65.25"/>
  <polygon class="cls-1" points="1050.86 65.12 1034.96 65.12 1020.51 81.25 1028.16 89.03 1050.86 65.12"/>
  <polygon class="cls-1" points="980.03 124.56 996.38 124.56 1012.94 105.54 1004.99 97.55 980.03 124.56"/>
  <polygon class="cls-1" points="997.87 65.12 997.85 65.12 979.56 65.12 1038.2 124.56 1056.95 124.56 997.87 65.12"/>
  <path class="cls-1" d="M230.93,9.74a7.07,7.07,0,0,0-6,6.22l-1.48,11.42L188.06,302.54a3.28,3.28,0,0,0,2.56,4.07,3.16,3.16,0,0,0,3.73-2.85l46-224.82a3.67,3.67,0,0,1,1.6-2.29,3.46,3.46,0,0,1,1.34-.52L231.13,9.73h-.2" transform="translate(-10.13 -9.67)"/>
  <path class="cls-1" d="M302.12,148.13,240.22,16.9c-1.4-3-5.39-7.76-9.09-7.18l12.15,66.4c1.41-.22,3.38,1,4.19,2.3l46.81,74.3c1.38,2.13,4.26,2.47,6.51,1.26,3.06-1.66,1.33-5.85,1.33-5.85" transform="translate(-10.13 -9.67)"/>
  <polygon class="cls-1" points="219.76 156.74 278.45 146.84 274.02 140.22 222.27 145.32 219.76 156.74"/>
  <path class="cls-1" d="M21.32,175.56c-4.56.39-9.31.41-10.9,4.57a5.5,5.5,0,0,0,1.85,6L181.18,300l1.27-12.51-79.26-92.89a5.4,5.4,0,0,1-.83-2.6c0-4.29,4.91-4.62,9.26-5.63l86.08-14.55,1.75-13.68Z" transform="translate(-10.13 -9.67)"/>
  <rect class="cls-1" x="349.67" y="259.32" width="29.24" height="8.66"/>
  <rect class="cls-1" x="349.67" y="275.19" width="29.24" height="8.66"/>
  <path class="cls-1" d="M612.38,313.22V300.93l14.68-12h-15.4v-8.35h23.29a4,4,0,0,1,2.92,1,3.74,3.74,0,0,1,1,2.63v4.92Z" transform="translate(-10.13 -9.67)"/>
  <path class="cls-1" d="M1108.5,313.25l.06-11.06,7.22,0c4,0,4.61-1.06,4.61-6.49V279.14H1108V267.55h12.36V240.18H1108V228.59h12.36l0-18.84H1132v18.84h9.19v11.59H1132l0,27.37h9.22v11.59H1132v22.1c0,6.75-4,12-10.07,12-3.69,0-13.45,0-13.45,0" transform="translate(-10.13 -9.67)"/>
  <path class="cls-1" d="M1156.84,313.22h-18l28.05-26.93-19.9-20h16.37l12.29,11.61L1193,261.3h-47.3V250.17H1170l0-14.6h-24.35V224.89H1170l0-15.16h13v15.16h24v10.68h-24v14.6H1201a5.5,5.5,0,0,1,5.93,5.93c0,.23,0,8.12,0,8.12l-22.73,21.69,29.24,27.33h-19.59l-18.38-18.38Z" transform="translate(-10.13 -9.67)"/>
  <path class="cls-1" d="M880.65,249.41H894.9V238.82H880.66V224.21h9.54V214h-32v10.18H869l0,14.61H853.45v10.59h15.33c-4.62,15.75-14.07,30.17-14.07,30.17v28.08l14.36-34.33v40.36h11.59Z" transform="translate(-10.13 -9.67)"/>
  <polygon class="cls-1" points="873.94 243.08 873.97 257.38 884.77 270.25 884.77 253.84 873.94 243.08"/>
  <polygon class="cls-1" points="890.63 233.33 890.68 246.53 910.28 258.41 910.28 243.26 890.63 233.33"/>
  <polygon class="cls-1" points="890.63 204.25 890.68 217.44 910.28 229.33 910.28 214.18 890.63 204.25"/>
  <polygon class="cls-1" points="579.47 224.99 579.51 236.58 595.75 247.01 595.75 233.71 579.47 224.99"/>
  <polygon class="cls-1" points="579.47 199.47 579.51 211.05 595.75 221.48 595.75 208.18 579.47 199.47"/>
  <polygon class="cls-1" points="596.11 260.26 596.06 271.86 578.7 303.55 578.7 280.99 596.11 260.26"/>
  <rect class="cls-1" x="921.32" y="200.06" width="12.97" height="103.96"/>
  <rect class="cls-1" x="891.05" y="270.25" width="53.05" height="10.73"/>
  <path class="cls-1" d="M419.22,209.14H324.07V313.69h13.1v-4.32h74.46l0,4.33h13.1v-99a5.56,5.56,0,0,0-5.55-5.55m-7.59,90H337.15l0-78.83,72.17,0A4.54,4.54,0,0,1,411,221a4.47,4.47,0,0,1,.65,1.53Z" transform="translate(-10.13 -9.67)"/>
  <path class="cls-1" d="M404.08,236.61v-4.48a2.79,2.79,0,0,0-2.78-2.78l-33.27,0c2-2.37,3.08-3.92,5.38-7.1H361.32a46.46,46.46,0,0,1-16,16l0,10.67a85.15,85.15,0,0,0,8.8-6s2.56,3.09,10.93,9.26c0,0-11.94,4.28-23,5.48,0,3.18,0,6.17,0,9.17,17-1.24,33.06-9.06,33.06-9.06a136,136,0,0,0,31.45,8.7l.06-9.81s-12.92-.86-21.7-4.29a65.64,65.64,0,0,0,19.16-15.7M361,237.74l1.21-1.08,29.1,0s-6.69,7.82-16,11.31c-2.77-1.46-10.59-5.62-14.31-10.25" transform="translate(-10.13 -9.67)"/>
  <path class="cls-1" d="M677,310.94h15.88L673,289.36l9.13-6.92V269.86c-4.37,4-15,13-15,13-2.63-2.64-12.12-13.18-12.12-13.18l7.14,4.26,0-9-14-8.21H688.5v-8.32H656.82V242h26.62v-8.27H656.79v-5.51h30.32v-8.42H669.5s6.73-8.39,8.56-10.58l-13.37,0-8.41,10.61H644.79s-7.57-8.87-9-10.6H623.52l8.93,10.6H616.24v8.42h28.92v5.51h-25.7V242h25.7v6.35H614.4v8.32h29.73v6.85l6,3.55-28.85,0v8.42h24.35v22c0,4.42-2.44,6.85-6.85,6.85h-7.06c.27,1.22,1.46,7.76,1.68,8.82,2.17,0,11.72,0,11.72,0,8.14-.57,12.09-5.1,12.09-12.92v-13Z" transform="translate(-10.13 -9.67)"/>
</svg>
