<svg id="图层_1" data-name="图层 1" xmlns="http://www.w3.org/2000/svg" viewBox="0 0 1270.33 251.94">
  <defs>
    <style>
      .cls-1 {
        fill: #c13a1f;
      }

      .cls-2 {
        fill: #090205;
      }

      .cls-3 {
        fill: #892620;
      }

      .cls-4 {
        fill: #060203;
      }

      .cls-5 {
        fill: #241916;
      }
    </style>
  </defs>
  <rect class="cls-1" x="994.13" y="236.77" width="14.13" height="14.13"/>
  <path class="cls-2" d="M678.67,259.48v-5.89c0-11.68-3.11-14.69-14.76-14.69h-37.1c-11.66,0-15.4,3-15.4,14.69v32.74c0,11.68,3.74,14.68,15.4,14.68h37.1c11.65,0,14.65-3,14.65-14.68v-5.26l-14-6.77v15H625.66V250h38.91v16.11Z" transform="translate(-9.89 -50.13)"/>
  <polygon class="cls-2" points="439.41 239.2 439.41 199.36 492.14 199.36 492.14 188.77 424.96 188.77 424.96 250.88 492.14 250.88 492.14 239.2 439.41 239.2"/>
  <rect class="cls-2" x="443.75" y="211.64" width="34.37" height="10.59"/>
  <rect class="cls-2" x="704.83" y="188.77" width="14.44" height="62.11"/>
  <rect class="cls-2" x="850.01" y="188.77" width="14.45" height="62.11"/>
  <path class="cls-2" d="M917.65,238.9H963.4c11.66,0,15.4,3,15.4,14.69v32.74c0,11.68-3.74,14.68-15.4,14.68H917.65c-11.68,0-15.41-3-15.41-14.68V253.59c0-11.69,3.73-14.69,15.41-14.69M964.36,250H916.68v39.36h47.68Z" transform="translate(-9.89 -50.13)"/>
  <path class="cls-2" d="M399.49,238.89H346.28V301h14.21v-51.4H393c4.46,0,6.5.84,6.5,4.93v6.63c0,4.09-2,4.92-6.5,4.92H365.28v10.72h34.21c9.52,0,14-3.37,14-12V250.93c0-8.66-4.45-12-14-12" transform="translate(-9.89 -50.13)"/>
  <path class="cls-2" d="M568.13,277.54h8.17c9.52,0,14-3.38,14-12V250.94c0-8.67-4.44-12-14-12H523.11V301h14.21v-51.4H569.8c4.45,0,6.5.84,6.5,4.93V262c0,4.09-2,4.93-6.5,4.93H542.09v10.6H551l25,23.47h20.71Z" transform="translate(-9.89 -50.13)"/>
  <path class="cls-2" d="M817.66,238.89H764.45V301h14.22v-51.4h32.47c4.48,0,6.52.84,6.52,4.93v6.63c0,4.09-2,4.92-6.52,4.92H783.46v10.72h34.2c9.52,0,14-3.37,14-12V250.93c0-8.66-4.43-12-14-12" transform="translate(-9.89 -50.13)"/>
  <polygon class="cls-1" points="1219.65 250.88 1268.43 250.88 1268.43 239.2 1231.21 239.2 1219.65 250.88"/>
  <polygon class="cls-1" points="1206.06 188.76 1206.06 199.84 1245.19 199.84 1201.74 244.14 1201.74 250.88 1212.9 250.88 1268.43 194.91 1268.43 188.76 1206.06 188.76"/>
  <polygon class="cls-1" points="1165.09 218.72 1193.42 188.76 1176.45 188.76 1157.69 209.69 1165.09 218.72"/>
  <polygon class="cls-1" points="1133.78 188.89 1133.81 188.87 1133.7 188.76 1114.45 188.76 1146.73 223.08 1146.73 250.88 1161.29 250.88 1161.29 222.71 1161.41 222.56 1133.78 188.89"/>
  <polygon class="cls-1" points="1107.48 188.76 1090.86 188.76 1075.77 205.62 1083.76 213.75 1107.48 188.76"/>
  <polygon class="cls-1" points="1033.46 250.88 1050.55 250.88 1067.85 231 1059.55 222.66 1033.46 250.88"/>
  <polygon class="cls-1" points="1052.1 188.76 1052.08 188.76 1032.97 188.76 1094.25 250.88 1113.85 250.88 1052.1 188.76"/>
  <path class="cls-1" d="M197.19,50.18a6.8,6.8,0,0,0-1.58.46,6.14,6.14,0,0,0-3.52,4.82l-1.26,9.69-30,233.43A2.78,2.78,0,0,0,163,302a2.67,2.67,0,0,0,3.16-2.41l39-190.72a3.09,3.09,0,0,1,1.35-1.94,3,3,0,0,1,1.14-.44L197.36,50.17h-.17" transform="translate(-9.89 -50.13)"/>
  <path class="cls-3" d="M257.59,167.59,205.07,56.26c-1.18-2.52-4.57-6.59-7.71-6.09l10.31,56.33a4.29,4.29,0,0,1,3.56,2l39.7,63a4.18,4.18,0,0,0,5.53,1.07c2.6-1.41,1.13-5,1.13-5" transform="translate(-9.89 -50.13)"/>
  <polygon class="cls-4" points="186.43 132.97 236.22 124.57 232.46 118.95 188.56 123.28 186.43 132.97"/>
  <path class="cls-4" d="M19.37,190.85c-3.87.33-7.89.36-9.24,3.88a4.67,4.67,0,0,0,1.56,5.05L155,296.44l1.08-10.6L88.83,207a4.58,4.58,0,0,1-.71-2.2c0-3.64,4.17-3.92,7.86-4.78l73-12.34,1.49-11.61Z" transform="translate(-9.89 -50.13)"/>
  <rect class="cls-5" x="377.29" y="71.45" width="34.52" height="10.22"/>
  <rect class="cls-5" x="377.29" y="90.19" width="34.52" height="10.23"/>
  <path class="cls-5" d="M646.77,179.49l0-14.51,17.33-14.15H645.9V141h27.5a4.69,4.69,0,0,1,3.44,1.12,4.39,4.39,0,0,1,1.2,3.11V151Z" transform="translate(-9.89 -50.13)"/>
  <path class="cls-5" d="M1156.35,173.83l.07-13.06,8.53,0c4.77,0,5.43-1.25,5.43-7.66l0-19.59h-14.6V119.87h14.58V87.56H1155.8V73.88h14.58l0-22.25h13.69V73.88H1195V87.56h-10.84l-.05,32.31H1195v13.68h-10.85v26.1c0,8-4.77,14.16-11.89,14.16-4.36-.05-15.88,0-15.88,0" transform="translate(-9.89 -50.13)"/>
  <path class="cls-5" d="M1213.42,173.79h-21.25L1225.28,142l-23.49-23.56h19.33l14.51,13.7,20.42-19.64h-55.84V99.35h28.72l0-17.23h-28.75V69.51h28.72l0-17.89h15.3l0,17.89h28.34V82.12h-28.33V99.35h21.33c7.48,0,7,7,7,7,0,.26,0,9.58,0,9.58l-26.84,25.62,34.52,32.25H1257.1l-21.71-21.7Z" transform="translate(-9.89 -50.13)"/>
  <path class="cls-5" d="M914.26,101h16.82V88.49H914.27V71.25h11.26v-12H887.7v12h12.84l0,17.24H882.14V101h18.1c-5.45,18.6-16.61,35.62-16.61,35.62v33.15l17-40.53v47.66h13.69Z" transform="translate(-9.89 -50.13)"/>
  <polygon class="cls-5" points="908.41 54.81 908.45 71.69 921.2 86.89 921.2 67.51 908.41 54.81"/>
  <polygon class="cls-5" points="928.11 43.31 928.17 58.88 951.32 72.92 951.32 55.03 928.11 43.31"/>
  <polygon class="cls-5" points="928.11 8.97 928.17 24.55 951.32 38.58 951.32 20.7 928.11 8.97"/>
  <polygon class="cls-5" points="609.99 36.63 610.04 50.31 629.21 62.63 629.21 46.92 609.99 36.63"/>
  <polygon class="cls-5" points="609.99 6.49 610.04 20.17 629.21 32.48 629.21 16.78 609.99 6.49"/>
  <polygon class="cls-5" points="629.63 78.27 629.58 91.95 609.08 129.37 609.08 102.73 629.63 78.27"/>
  <rect class="cls-5" x="964.35" y="4.03" width="15.31" height="122.73"/>
  <rect class="cls-5" x="928.61" y="86.89" width="62.63" height="12.67"/>
  <path class="cls-5" d="M457.34,50.92H345V174.35h15.47v-5.11h87.9l.05,5.11h15.47V57.47a6.57,6.57,0,0,0-6.55-6.55m-9,106.26H360.44l0-93.07,85.2,0a5.38,5.38,0,0,1,2,.79,5.49,5.49,0,0,1,.76,1.79Z" transform="translate(-9.89 -50.13)"/>
  <path class="cls-5" d="M439.45,83.35V78.06a3.28,3.28,0,0,0-3.28-3.28s-27.41,0-39.28,0c2.36-2.8,3.64-4.63,6.36-8.39H389a54.75,54.75,0,0,1-18.9,18.88l.05,12.59a99.33,99.33,0,0,0,10.38-7.1s3,3.65,12.91,10.93c0,0-14.1,5.06-27.18,6.47,0,3.76,0,7.3,0,10.84,20.07-1.47,39-10.71,39-10.71,17.8,7.69,37.13,10.28,37.13,10.28l.07-11.59s-15.26-1-25.62-5.06c0,0,11.65-5.61,22.61-18.53m-50.9,1.33L390,83.4l34.35,0s-7.89,9.23-18.88,13.35c-3.27-1.72-12.51-6.64-16.9-12.1" transform="translate(-9.89 -50.13)"/>
  <path class="cls-5" d="M723.05,176.8h18.74L718.3,151.32l10.77-8.16,0-14.86c-5.16,4.76-17.76,15.34-17.76,15.34-3.11-3.11-14.31-15.56-14.31-15.56l8.43,5,0-10.64-16.57-9.69h47.8V103H699.23V95.47h31.43V85.7H699.19V79.19H735V69.25H714.2s7.95-9.9,10.1-12.5l-15.78,0-9.93,12.52H685s-8.94-10.47-10.64-12.51H659.92l10.53,12.51H651.32v9.94h34.14V85.7H655.13v9.77h30.33V103h-36.3v9.82h35.09v8.08l7.11,4.19-34.05,0V135H686v26c0,5.22-2.87,8.09-8.08,8.09h-8.33c.31,1.45,1.72,9.16,2,10.41,2.57,0,13.84,0,13.84,0,9.62-.67,14.27-6,14.27-15.25V148.91Z" transform="translate(-9.89 -50.13)"/>
</svg>
