<?xml version="1.0" encoding="utf-8"?>
<!-- Generator: Adobe Illustrator 24.2.1, SVG Export Plug-In . SVG Version: 6.00 Build 0)  -->
<svg version="1.1" id="图层_1" xmlns="http://www.w3.org/2000/svg" xmlns:xlink="http://www.w3.org/1999/xlink" x="0px" y="0px"
	 viewBox="0 0 1282 304" style="enable-background:new 0 0 1282 304;" xml:space="preserve">
<style type="text/css">
	.st0{display:none;fill:#FF6666;stroke:#FFFFFF;stroke-miterlimit:10;}
	.st1{display:none;fill:#FFFFFF;}
	.st2{fill:#C13A1F;}
	.st3{fill:#090205;}
	.st4{fill:#892620;}
	.st5{fill:#060203;}
	.st6{fill:#241916;}
</style>
<rect x="0" y="0.1" class="st0" width="1282" height="304"/>
<rect x="1005.2" y="479.7" class="st1" width="14.2" height="14.2"/>
<path class="st1" d="M679.3,452.2v-5.9c0-11.7-3.1-14.7-14.8-14.7h-37.2c-11.7,0-15.4,3-15.4,14.7v32.8c0,11.7,3.7,14.7,15.4,14.7
	h37.2c11.7,0,14.7-3,14.7-14.7v-5.2l-14-6.8v15.1h-39v-39.5h39v16.1L679.3,452.2z"/>
<polygon class="st1" points="449.5,482.1 449.5,442.2 502.3,442.2 502.3,431.6 435,431.6 435,493.8 502.3,493.8 502.3,482.1 "/>
<rect x="453.8" y="454.5" class="st1" width="34.4" height="10.6"/>
<rect x="715.4" y="431.6" class="st1" width="14.5" height="62.2"/>
<rect x="860.8" y="431.6" class="st1" width="14.5" height="62.2"/>
<path class="st1" d="M918.7,431.6h45.8c11.7,0,15.4,3,15.4,14.7v32.8c0,11.7-3.7,14.7-15.4,14.7h-45.8c-11.7,0-15.4-3-15.4-14.7
	v-32.8C903.2,434.6,907,431.6,918.7,431.6 M965.5,442.7h-47.7v39.4h47.8L965.5,442.7z"/>
<path class="st1" d="M399.6,431.6h-53.3v62.2h14.2v-51.5h32.6c4.5,0,6.5,0.8,6.5,4.9v6.6c0,4.1-2,4.9-6.5,4.9h-27.8v10.7h34.3
	c9.5,0,14-3.4,14-12.1v-13.9C413.6,435,409.1,431.6,399.6,431.6"/>
<path class="st1" d="M568.5,470.3h8.2c9.5,0,14-3.4,14-12.1v-14.6c0-8.7-4.4-12.1-14-12.1h-53.3v62.2h14.3v-51.5h32.5
	c4.5,0,6.5,0.8,6.5,4.9v7.5c0,4.1-2.1,4.9-6.5,4.9h-27.8v10.6h9l25,23.5h20.8L568.5,470.3z"/>
<path class="st1" d="M818.5,431.6h-53.3v62.2h14.2v-51.5H812c4.5,0,6.5,0.8,6.5,4.9v6.6c0,4.1-2.1,4.9-6.5,4.9h-27.8v10.7h34.3
	c9.5,0,14-3.4,14-12.1v-13.9C832.5,435,828,431.6,818.5,431.6"/>
<polygon class="st1" points="1231.1,493.8 1280,493.8 1280,482.1 1242.7,482.1 "/>
<polygon class="st1" points="1217.5,431.6 1217.5,442.7 1256.7,442.7 1213.2,487.1 1213.2,493.8 1224.4,493.8 1280,437.7 
	1280,431.6 "/>
<polygon class="st1" points="1176.5,461.6 1204.8,431.6 1187.9,431.6 1169.1,452.6 "/>
<polygon class="st1" points="1145.1,431.7 1145.1,431.7 1145,431.6 1125.7,431.6 1158.1,466 1158.1,493.8 1172.7,493.8 
	1172.7,465.6 1172.8,465.4 "/>
<polygon class="st1" points="1118.8,431.6 1102.1,431.6 1087,448.5 1095,456.6 "/>
<polygon class="st1" points="1044.6,493.8 1061.7,493.8 1079.1,473.9 1070.7,465.5 "/>
<polygon class="st1" points="1063.3,431.6 1063.3,431.6 1044.1,431.6 1105.5,493.8 1125.1,493.8 "/>
<path class="st1" d="M-265.7,319.3c-2.7,0.4-4.8,2.6-5.1,5.3l-1.3,9.8l-30.3,235.9c-0.4,1.5,0.5,3,2,3.4c0.1,0,0.1,0,0.2,0
	c1.5,0.3,2.9-0.7,3.2-2.2c0-0.1,0-0.2,0-0.3l39.4-192.8c0.2-0.8,0.7-1.5,1.4-2c0.3-0.2,0.7-0.4,1.1-0.4l-10.4-56.9L-265.7,319.3"/>
<path class="st1" d="M-204.6,438l-53.1-112.5c-1.2-2.6-4.6-6.7-7.8-6.2l10.4,56.9c1.2-0.2,2.9,0.9,3.6,2l40.1,63.7
	c1.2,1.8,3.7,2.1,5.6,1.1C-203.2,441.6-204.6,438-204.6,438"/>
<polygon class="st1" points="-266.6,453.7 -216.2,445.2 -220,439.5 -264.4,443.9 "/>
<path class="st1" d="M-445.4,461.5c-3.9,0.3-8,0.4-9.3,3.9c-0.6,1.9,0,3.9,1.6,5.1l144.8,97.6l1.1-10.7l-68-79.6
	c-0.4-0.7-0.7-1.4-0.7-2.2c0-3.7,4.2-4,7.9-4.8l73.8-12.5l1.5-11.7L-445.4,461.5z"/>
<rect x="386.1" y="597" class="st1" width="33.8" height="10"/>
<rect x="386.1" y="615.4" class="st1" width="33.8" height="10"/>
<path class="st1" d="M640,648.2V634l17-13.9h-17.8v-9.7h26.9c1.2-0.1,2.5,0.3,3.4,1.2c0.8,0.8,1.2,1.9,1.2,3v5.7L640,648.2z"/>
<path class="st1" d="M1154.7,648.2l0.1-12.8h8.3c4.6,0,5.3-1.2,5.3-7.5v-19.1h-14.3v-13.4h14.3v-31.6h-14.3v-13.4h14.3v-21.8h13.5
	v21.8h10.6v13.4h-10.6v31.6h10.7v13.4h-10.7v25.6c0,7.8-4.6,13.9-11.6,13.9C1165.9,648.2,1154.6,648.2,1154.7,648.2"/>
<path class="st1" d="M1210.6,648.2h-20.8l32.4-31.1l-23-23.1h18.9l14.2,13.4l20.1-19.2h-54.7v-12.9h28.1v-16.9h-28.2V546h28.2v-17.5
	h15V546h27.8v12.3h-27.8v16.9h20.8c3.5-0.3,6.6,2.3,6.9,5.8c0,0.3,0,0.7,0,1c0,0.3,0,9.4,0,9.4l-26.3,25.1l33.8,31.6h-22.7
	l-21.3-21.3L1210.6,648.2z"/>
<path class="st1" d="M920.1,574.4h16.5v-12.2h-16.5v-16.9h11v-11.8h-37v11.8h12.5v16.9h-18v12.2h17.7c-5.3,18.2-16.3,34.9-16.3,34.9
	v32.5l16.6-39.7v46.7h13.4L920.1,574.4z"/>
<polygon class="st1" points="924.1,578.2 924.1,594.8 936.6,609.7 936.6,590.7 "/>
<polygon class="st1" points="943.4,567 943.4,582.2 966.1,596 966.1,578.5 "/>
<polygon class="st1" points="943.4,533.4 943.4,548.6 966.1,562.4 966.1,544.8 "/>
<polygon class="st1" points="613.6,557.3 613.7,570.7 632.5,582.8 632.5,567.4 "/>
<polygon class="st1" points="613.6,527.8 613.7,541.2 632.5,553.3 632.5,537.9 "/>
<polygon class="st1" points="632.9,598.1 632.8,611.5 612.8,648.2 612.8,622.1 "/>
<rect x="978.9" y="528.5" class="st1" width="15" height="120.2"/>
<rect x="943.9" y="609.7" class="st1" width="61.3" height="12.4"/>
<path class="st1" d="M454.8,527.8h-110v120.9h15.1v-5H446v5h15.1V534.3C461.2,530.7,458.3,527.8,454.8,527.8 M446,631.9h-86.1v-91.1
	h83.4c0.7,0.1,1.4,0.4,1.9,0.8c0.4,0.5,0.6,1.1,0.8,1.8L446,631.9z"/>
<path class="st1" d="M437.3,559.6v-5.2c0-1.8-1.4-3.2-3.2-3.2h-38.5c2.3-2.7,3.6-4.5,6.2-8.2h-14c-4.5,7.6-10.9,14-18.5,18.5v12.3
	c3.5-2.1,6.9-4.4,10.2-6.9c0,0,3,3.6,12.6,10.7c0,0-13.8,4.9-26.6,6.3c0,3.7,0,7.1,0,10.6c19.7-1.4,38.2-10.5,38.2-10.5
	c11.7,4.8,23.9,8.2,36.4,10.1l0.1-11.3c0,0-14.9-1-25.1-5C423.6,573.2,431.1,567.1,437.3,559.6 M387.5,560.9l1.4-1.2h33.6
	c0,0-7.7,9-18.5,13.1C400.8,571,391.8,566.2,387.5,560.9"/>
<path class="st1" d="M714.7,645.5h18.4l-23-25l10.6-8V598c-5.1,4.6-17.3,15-17.3,15c-3-3.1-14-15.2-14-15.2l8.3,4.9v-10.4l-16.2-9.5
	H728v-9.6h-36.6v-7.4h30.8v-9.6h-30.8v-6.4h35.1v-9.7H706c0,0,7.8-9.7,9.9-12.2h-15.5l-9.7,12.3h-13.3c0,0-8.8-10.3-10.4-12.3h-14.2
	l10.3,12.3h-18.7v9.7h33.4v6.4h-29.7v9.5h29.7v7.3h-35.6v9.6h34.4v7.9l6.9,4.1h-33.4v9.7h28.2V630c0,5.1-2.8,7.9-7.9,7.9h-8.2
	c0.3,1.4,1.7,9,1.9,10.2c2.5,0,13.6,0,13.6,0c9.4-0.7,14-5.9,14-14.9v-15L714.7,645.5z"/>
<rect x="1004" y="286.9" class="st2" width="14.1" height="14.1"/>
<path class="st3" d="M678.7,259.5v-5.9c0-11.7-3.1-14.7-14.8-14.7h-37.1c-11.7,0-15.4,3-15.4,14.7v32.7c0,11.7,3.7,14.7,15.4,14.7
	h37.1c11.7,0,14.7-3,14.7-14.7v-5.3l-14-6.8v15h-38.9V250h38.9v16.1L678.7,259.5z"/>
<polygon class="st3" points="449.3,289.3 449.3,249.5 502,249.5 502,238.9 434.8,238.9 434.8,301 502,301 502,289.3 "/>
<rect x="453.6" y="261.8" class="st3" width="34.4" height="10.6"/>
<rect x="714.7" y="238.9" class="st3" width="14.4" height="62.1"/>
<rect x="859.9" y="238.9" class="st3" width="14.5" height="62.1"/>
<path class="st3" d="M917.6,238.9h45.7c11.7,0,15.4,3,15.4,14.7v32.7c0,11.7-3.7,14.7-15.4,14.7h-45.7c-11.7,0-15.4-3-15.4-14.7
	v-32.7C902.2,241.9,906,238.9,917.6,238.9 M964.4,250h-47.7v39.4h47.7V250z"/>
<path class="st3" d="M399.5,238.9h-53.2V301h14.2v-51.4H393c4.5,0,6.5,0.8,6.5,4.9v6.6c0,4.1-2,4.9-6.5,4.9h-27.7v10.7h34.2
	c9.5,0,14-3.4,14-12v-13.8C413.5,242.3,409,238.9,399.5,238.9"/>
<path class="st3" d="M568.1,277.5h8.2c9.5,0,14-3.4,14-12v-14.6c0-8.7-4.4-12-14-12h-53.2V301h14.2v-51.4h32.5
	c4.5,0,6.5,0.8,6.5,4.9v7.5c0,4.1-2,4.9-6.5,4.9h-27.7v10.6h8.9l25,23.5h20.7L568.1,277.5z"/>
<path class="st3" d="M817.7,238.9h-53.2V301h14.2v-51.4h32.5c4.5,0,6.5,0.8,6.5,4.9v6.6c0,4.1-2,4.9-6.5,4.9h-27.7v10.7h34.2
	c9.5,0,14-3.4,14-12v-13.8C831.6,242.3,827.2,238.9,817.7,238.9"/>
<polygon class="st2" points="1229.5,301 1278.3,301 1278.3,289.3 1241.1,289.3 "/>
<polygon class="st2" points="1215.9,238.9 1215.9,250 1255.1,250 1211.6,294.3 1211.6,301 1222.8,301 1278.3,245 1278.3,238.9 "/>
<polygon class="st2" points="1175,268.8 1203.3,238.9 1186.3,238.9 1167.6,259.8 "/>
<polygon class="st2" points="1143.7,239 1143.7,239 1143.6,238.9 1124.3,238.9 1156.6,273.2 1156.6,301 1171.2,301 1171.2,272.8 
	1171.3,272.7 "/>
<polygon class="st2" points="1117.4,238.9 1100.7,238.9 1085.6,255.8 1093.6,263.9 "/>
<polygon class="st2" points="1043.3,301 1060.4,301 1077.7,281.1 1069.4,272.8 "/>
<polygon class="st2" points="1062,238.9 1062,238.9 1042.9,238.9 1104.1,301 1123.7,301 "/>
<path class="st2" d="M197.2,50.2c-0.5,0.1-1.1,0.2-1.6,0.5c-1.9,0.9-3.3,2.7-3.5,4.8l-1.3,9.7l-30,233.4c-0.3,1.7,0.5,3.2,2.2,3.4
	c1.7,0.3,2.9-0.8,3.2-2.4l39-190.7c0.2-0.8,0.7-1.5,1.4-1.9c0.4-0.2,0.7-0.4,1.1-0.4l-10.3-56.3C197.3,50.2,197.2,50.2,197.2,50.2"
	/>
<path class="st4" d="M257.6,167.6L205.1,56.3c-1.2-2.5-4.6-6.6-7.7-6.1l10.3,56.3c1.2-0.2,2.9,0.9,3.6,2l39.7,63
	c1.2,1.8,3.6,2.1,5.5,1.1C259.1,171.1,257.6,167.6,257.6,167.6"/>
<polygon class="st5" points="196.3,183.1 246.1,174.7 242.3,169.1 198.4,173.4 "/>
<path class="st5" d="M19.4,190.9c-3.9,0.3-7.9,0.4-9.2,3.9c-0.8,2,0.5,4.3,1.6,5.1L155,296.4l1.1-10.6L88.8,207
	c-0.4-0.5-0.7-1.6-0.7-2.2c0-3.6,4.2-3.9,7.9-4.8l73-12.3l1.5-11.6L19.4,190.9z"/>
<rect x="387.2" y="121.6" class="st6" width="34.5" height="10.2"/>
<rect x="387.2" y="140.3" class="st6" width="34.5" height="10.2"/>
<path class="st6" d="M646.8,179.5l0-14.5l17.3-14.2h-18.2V141h27.5c0,0,2.1-0.2,3.4,1.1c1.3,1.3,1.2,3.1,1.2,3.1v5.8L646.8,179.5z"
	/>
<path class="st6" d="M1156.4,173.8l0.1-13.1l8.5,0c4.8,0,5.4-1.2,5.4-7.7l0-19.6h-14.6v-13.7h14.6V87.6h-14.6V73.9h14.6l0-22.2h13.7
	l0,22.2h10.8v13.7h-10.8l0,32.3h10.9v13.7h-10.8l0,26.1c0,8-4.8,14.2-11.9,14.2C1167.9,173.8,1156.4,173.8,1156.4,173.8"/>
<path class="st6" d="M1213.4,173.8h-21.2l33.1-31.8l-23.5-23.6h19.3l14.5,13.7l20.4-19.6h-55.8V99.4h28.7l0-17.2h-28.7V69.5h28.7
	l0-17.9h15.3l0,17.9h28.3v12.6h-28.3l0,17.2h21.3c7.5,0,7,7,7,7c0,0.3,0,9.6,0,9.6l-26.8,25.6l34.5,32.3h-23.1l-21.7-21.7
	L1213.4,173.8z"/>
<path class="st6" d="M914.3,101h16.8V88.5h-16.8l0-17.2h11.3v-12h-37.8v12h12.8l0,17.2h-18.4V101h18.1
	c-5.5,18.6-16.6,35.6-16.6,35.6v33.2l16.9-40.5v47.7h13.7L914.3,101z"/>
<polygon class="st6" points="918.3,104.9 918.3,121.8 931.1,137 931.1,117.6 "/>
<polygon class="st6" points="938,93.4 938.1,109 961.2,123 961.2,105.2 "/>
<polygon class="st6" points="938,59.1 938.1,74.7 961.2,88.7 961.2,70.8 "/>
<polygon class="st6" points="619.9,86.8 619.9,100.4 639.1,112.8 639.1,97 "/>
<polygon class="st6" points="619.9,56.6 619.9,70.3 639.1,82.6 639.1,66.9 "/>
<polygon class="st6" points="639.5,128.4 639.5,142.1 619,179.5 619,152.9 "/>
<rect x="974.2" y="54.2" class="st6" width="15.3" height="122.7"/>
<rect x="938.5" y="137" class="st6" width="62.6" height="12.7"/>
<path class="st6" d="M457.3,50.9H345v123.4h15.5v-5.1l87.9,0l0.1,5.1h15.5V57.5C463.9,53.9,460.9,50.9,457.3,50.9 M448.4,157.2
	h-87.9l0-93.1l85.2,0c0,0,1.5,0.3,2,0.8c0.4,0.5,0.8,1.8,0.8,1.8L448.4,157.2z"/>
<path class="st6" d="M439.5,83.3v-5.3c0-1.8-1.5-3.3-3.3-3.3c0,0-27.4,0-39.3,0c2.4-2.8,3.6-4.6,6.4-8.4H389
	c-2.2,3.7-7.7,12.1-18.9,18.9l0,12.6c5.3-3.2,9.9-6.6,10.4-7.1c0,0,3,3.6,12.9,10.9c0,0-14.1,5.1-27.2,6.5c0,3.8,0,7.3,0,10.8
	c20.1-1.5,39-10.7,39-10.7c17.8,7.7,37.1,10.3,37.1,10.3l0.1-11.6c0,0-15.3-1-25.6-5.1C416.8,101.9,428.5,96.3,439.5,83.3
	 M388.5,84.7l1.4-1.3l34.4,0c0,0-7.9,9.2-18.9,13.4C402.2,95.1,392.9,90.1,388.5,84.7"/>
<path class="st6" d="M723,176.8h18.7l-23.5-25.5l10.8-8.2l0-14.9c-5.2,4.8-17.8,15.3-17.8,15.3c-3.1-3.1-14.3-15.6-14.3-15.6l8.4,5
	l0-10.6l-16.6-9.7h47.8V103h-37.4l0-7.5h31.4v-9.8h-31.5v-6.5H735v-9.9h-20.8c0,0,7.9-9.9,10.1-12.5l-15.8,0l-9.9,12.5H685
	c0,0-8.9-10.5-10.6-12.5h-14.5l10.5,12.5h-19.1v9.9h34.1v6.5h-30.3v9.8h30.3v7.5h-36.3v9.8h35.1l0,8.1l7.1,4.2l-34.1,0v9.9H686l0,26
	c0,5.2-2.9,8.1-8.1,8.1h-8.3c0.3,1.4,1.7,9.2,2,10.4c2.6,0,13.8,0,13.8,0c9.6-0.7,14.3-6,14.3-15.2v-15.3L723,176.8z"/>
</svg>
