<svg id="图层_1" data-name="图层 1" xmlns="http://www.w3.org/2000/svg" viewBox="0 0 1275.97 254.65">
  <defs>
    <style>
      .cls-1 {
        fill: #fff;
      }
    </style>
  </defs>
  <rect class="cls-1" x="1001.16" y="240.3" width="14.16" height="14.16"/>
  <path class="cls-1" d="M675.27,260.73v-5.91c0-11.7-3.15-14.72-14.79-14.72H623.31c-11.68,0-15.43,3-15.43,14.72v32.79c0,11.71,3.75,14.66,15.43,14.66h37.17c11.68,0,14.66-3,14.66-14.66v-5.23l-14-6.79v15.07h-39V251.2h39v16.14Z" transform="translate(-0.03 -47.89)"/>
  <polygon class="cls-1" points="445.44 242.73 445.44 202.82 498.26 202.82 498.26 192.21 430.98 192.21 430.98 254.43 498.26 254.43 498.26 242.73 445.44 242.73"/>
  <rect class="cls-1" x="449.8" y="215.12" width="34.42" height="10.62"/>
  <rect class="cls-1" x="711.36" y="192.21" width="14.47" height="62.22"/>
  <rect class="cls-1" x="856.79" y="192.21" width="14.48" height="62.22"/>
  <path class="cls-1" d="M914.68,240.1H960.5c11.7,0,15.44,3,15.44,14.72v32.79c0,11.71-3.74,14.66-15.44,14.66H914.68c-11.7,0-15.45-3-15.45-14.66V254.82c0-11.7,3.75-14.72,15.45-14.72m46.8,11.09H913.75v39.44h47.77Z" transform="translate(-0.03 -47.89)"/>
  <path class="cls-1" d="M395.58,240.1h-53.3v62.22h14.23V250.83h32.56c4.47,0,6.51.85,6.51,4.95v6.63c0,4.1-2,4.93-6.51,4.93H361.31v10.75h34.27c9.53,0,14-3.39,14-12.06V252.16c0-8.68-4.47-12.06-14-12.06" transform="translate(-0.03 -47.89)"/>
  <path class="cls-1" d="M564.53,278.81h8.18c9.54,0,14-3.37,14-12.06V252.16c0-8.68-4.45-12.06-14-12.06H519.42v62.22h14.27V250.83h32.54c4.46,0,6.52.85,6.52,4.95v7.47c0,4.11-2.1,4.94-6.52,4.94H538.45v10.62h9l25,23.51h20.75Z" transform="translate(-0.03 -47.89)"/>
  <path class="cls-1" d="M814.51,240.1h-53.3v62.22h14.23V250.83H808c4.49,0,6.53.85,6.53,4.95v6.63c0,4.1-2.09,4.93-6.53,4.93H780.25v10.75h34.26c9.53,0,14-3.39,14-12.06V252.16c0-8.68-4.45-12.06-14-12.06" transform="translate(-0.03 -47.89)"/>
  <polygon class="cls-1" points="1227.1 254.43 1275.97 254.43 1275.97 242.73 1238.68 242.73 1227.1 254.43"/>
  <polygon class="cls-1" points="1213.48 192.2 1213.48 203.3 1252.67 203.3 1209.15 247.68 1209.15 254.43 1220.33 254.43 1275.97 198.36 1275.97 192.2 1213.48 192.2"/>
  <polygon class="cls-1" points="1172.43 222.22 1200.82 192.2 1183.83 192.2 1165.03 213.17 1172.43 222.22"/>
  <polygon class="cls-1" points="1141.08 192.34 1141.1 192.31 1140.99 192.2 1121.71 192.2 1154.04 226.57 1154.04 254.43 1168.63 254.43 1168.63 226.21 1168.75 226.06 1141.08 192.34"/>
  <polygon class="cls-1" points="1114.72 192.2 1098.08 192.2 1082.95 209.09 1090.96 217.24 1114.72 192.2"/>
  <polygon class="cls-1" points="1040.57 254.43 1057.69 254.43 1075.02 234.52 1066.7 226.16 1040.57 254.43"/>
  <polygon class="cls-1" points="1059.25 192.2 1059.22 192.2 1040.08 192.2 1101.47 254.43 1121.1 254.43 1059.25 192.2"/>
  <path class="cls-1" d="M189.33,48a6.06,6.06,0,0,0-5.15,5.33l-1.27,9.79L152.57,299a2.82,2.82,0,0,0,2,3.45l.2,0a2.73,2.73,0,0,0,3.2-2.44L197.4,107.28a3.17,3.17,0,0,1,1.37-2,3,3,0,0,1,1.15-.45L189.5,47.94h-.17" transform="translate(-0.03 -47.89)"/>
  <path class="cls-1" d="M250.37,166.61,197.29,54.09c-1.2-2.57-4.62-6.66-7.79-6.16l10.41,56.93a4.32,4.32,0,0,1,3.6,2l40.13,63.7a4.21,4.21,0,0,0,5.59,1.08c2.62-1.42,1.14-5,1.14-5" transform="translate(-0.03 -47.89)"/>
  <polygon class="cls-1" points="188.4 134.39 238.73 125.9 234.93 120.23 190.56 124.6 188.4 134.39"/>
  <path class="cls-1" d="M9.6,190.13c-3.91.33-8,.35-9.35,3.92a4.71,4.71,0,0,0,1.59,5.14l144.83,97.64,1.09-10.73-68-79.65a4.52,4.52,0,0,1-.71-2.23c0-3.67,4.21-4,7.94-4.82l73.8-12.48,1.5-11.73Z" transform="translate(-0.03 -47.89)"/>
  <rect class="cls-1" x="386.07" y="77.14" width="33.81" height="10.01"/>
  <rect class="cls-1" x="386.07" y="95.49" width="33.81" height="10.01"/>
  <path class="cls-1" d="M640,176.17V162l17-13.88h-17.8v-9.65h26.93a4.62,4.62,0,0,1,3.37,1.15,4.36,4.36,0,0,1,1.16,3v5.68Z" transform="translate(-0.03 -47.89)"/>
  <path class="cls-1" d="M1154.66,176.2l.07-12.79h8.35c4.62,0,5.33-1.22,5.33-7.5V136.76h-14.33v-13.4h14.3V91.72h-14.3V78.31h14.3V56.53h13.45V78.31h10.63V91.72h-10.63v31.64h10.66v13.4h-10.66v25.56c0,7.8-4.62,13.87-11.64,13.87h-15.55" transform="translate(-0.03 -47.89)"/>
  <path class="cls-1" d="M1210.56,176.17h-20.82L1222.18,145l-23-23.12h18.92l14.21,13.42,20.07-19.19h-54.7V103.27h28.1V86.38h-28.15V74h28.15V56.51h15V74h27.75V86.38H1240.8v16.89h20.82a6.35,6.35,0,0,1,6.85,5.82,5.91,5.91,0,0,1,0,1v9.39l-26.28,25.08,33.81,31.6h-22.65l-21.25-21.25Z" transform="translate(-0.03 -47.89)"/>
  <path class="cls-1" d="M920.12,102.39h16.47V90.14H920.13V73.25h11V61.44h-37V73.22h12.49V90.11h-18v12.24h17.72c-5.34,18.21-16.27,34.89-16.27,34.89V169.7L906.73,130v46.67h13.4Z" transform="translate(-0.03 -47.89)"/>
  <polygon class="cls-1" points="924.04 58.36 924.07 74.89 936.56 89.78 936.56 70.8 924.04 58.36"/>
  <polygon class="cls-1" points="943.34 47.09 943.39 62.35 966.06 76.08 966.06 58.57 943.34 47.09"/>
  <polygon class="cls-1" points="943.34 13.46 943.39 28.71 966.06 42.46 966.06 24.94 943.34 13.46"/>
  <polygon class="cls-1" points="613.62 37.44 613.66 50.84 632.44 62.9 632.44 47.52 613.62 37.44"/>
  <polygon class="cls-1" points="613.62 7.93 613.66 21.32 632.44 33.38 632.44 18.01 613.62 7.93"/>
  <polygon class="cls-1" points="632.86 78.22 632.8 91.64 612.73 128.28 612.73 102.19 632.86 78.22"/>
  <rect class="cls-1" x="978.82" y="8.62" width="15" height="120.2"/>
  <rect class="cls-1" x="943.82" y="89.78" width="61.34" height="12.41"/>
  <path class="cls-1" d="M454.8,55.82h-110V176.71h15.15v-5H446v5h15.14V62.25a6.41,6.41,0,0,0-6.41-6.41M446,159.9H359.91V68.75h83.45a5.3,5.3,0,0,1,1.94.79,5.23,5.23,0,0,1,.75,1.77Z" transform="translate(-0.03 -47.89)"/>
  <path class="cls-1" d="M437.3,87.59V82.41a3.23,3.23,0,0,0-3.22-3.22H395.61c2.32-2.74,3.57-4.53,6.22-8.21h-14a53.71,53.71,0,0,1-18.5,18.5v12.34a97.53,97.53,0,0,0,10.17-6.94s3,3.58,12.64,10.71c0,0-13.81,5-26.6,6.34v10.6c19.66-1.43,38.23-10.48,38.23-10.48a157.13,157.13,0,0,0,36.36,10.06l.07-11.34s-14.93-1-25.09-5A76,76,0,0,0,437.3,87.66m-49.81,1.23,1.39-1.24h33.65s-7.73,9-18.5,13.07c-3.2-1.69-12.24-6.5-16.54-11.85" transform="translate(-0.03 -47.89)"/>
  <path class="cls-1" d="M714.71,173.53h18.36l-23-24.95,10.56-8V126c-5,4.63-17.35,15-17.35,15-3-3.05-14-15.24-14-15.24l8.26,4.93V120.34l-16.19-9.49H728v-9.62H691.37V93.82h30.78V84.26H691.34V77.89H726.4V68.15H706s7.79-9.7,9.9-12.23H700.47l-9.72,12.27H677.46s-8.75-10.26-10.4-12.26H652.87L663.2,68.19H644.45v9.73h33.44v6.37H648.18v9.53h29.71v7.34H642.32v9.62H676.7v7.92l6.94,4.11H650.28v9.73h28.15V158c0,5.11-2.82,7.92-7.92,7.92h-8.16c.31,1.41,1.69,9,1.94,10.2h13.55c9.42-.66,14-5.9,14-14.94v-15Z" transform="translate(-0.03 -47.89)"/>
</svg>
