<?xml version="1.0" encoding="utf-8"?>
<!-- Generator: Adobe Illustrator 24.2.1, SVG Export Plug-In . SVG Version: 6.00 Build 0)  -->
<svg version="1.1" id="图层_1" xmlns="http://www.w3.org/2000/svg" xmlns:xlink="http://www.w3.org/1999/xlink" x="0px" y="0px"
	 viewBox="0 0 150.6 134.9" style="enable-background:new 0 0 150.6 134.9;" xml:space="preserve">
<style type="text/css">
	.st0{fill:#33CCFF;}
	.st1{fill:none;stroke:#AAABAB;stroke-width:0.36;stroke-linejoin:bevel;}
	.st2{fill:none;stroke:#040000;stroke-width:0.36;stroke-linejoin:bevel;}
	.st3{fill:none;stroke:#A4A4A5;stroke-width:0.36;stroke-linejoin:bevel;}
	.st4{fill:#FFFFFF;}
</style>
<polygon class="st0" points="71.1,54.3 71.1,55.6 70.2,55.6 70.2,57.3 68.5,57.3 68.5,55.6 65.2,55.6 65.2,54 68.4,49.1 70.2,49.1 
	70.2,54.3 "/>
<line class="st1" x1="33.7" y1="16.9" x2="11.6" y2="55.2"/>
<line class="st1" x1="54.3" y1="129.1" x2="98.5" y2="129"/>
<line class="st1" x1="11.6" y1="79" x2="33.7" y2="117.3"/>
<line class="st2" x1="51.3" y1="76.3" x2="51.3" y2="76.6"/>
<line class="st2" x1="51.3" y1="81.5" x2="51.3" y2="81.7"/>
<line class="st2" x1="85.6" y1="92.2" x2="85.8" y2="92.2"/>
<line class="st2" x1="90.7" y1="92.2" x2="91" y2="92.2"/>
<line class="st2" x1="53.8" y1="81.7" x2="53.8" y2="81.5"/>
<line class="st2" x1="53.8" y1="76.6" x2="53.8" y2="76.3"/>
<line class="st1" x1="56.8" y1="70.5" x2="56.8" y2="71.3"/>
<line class="st3" x1="56.8" y1="66.3" x2="56.8" y2="62.9"/>
<line class="st2" x1="91" y1="89.7" x2="90.7" y2="89.7"/>
<line class="st2" x1="85.8" y1="89.7" x2="85.6" y2="89.7"/>
<line class="st1" x1="72.1" y1="86.7" x2="75.6" y2="86.7"/>
<line class="st2" x1="79.8" y1="86.7" x2="80.6" y2="86.7"/>
<line class="st2" x1="63.2" y1="88.2" x2="63.2" y2="88.5"/>
<line class="st2" x1="63.2" y1="93.4" x2="63.2" y2="93.6"/>
<line class="st2" x1="63.7" y1="78.1" x2="63.7" y2="71.8"/>
<line class="st1" x1="64.5" y1="71.3" x2="64.5" y2="79.1"/>
<line class="st2" x1="97.5" y1="80.3" x2="97.8" y2="80.3"/>
<line class="st2" x1="102.7" y1="80.3" x2="102.9" y2="80.3"/>
<line class="st2" x1="71.7" y1="79.8" x2="65.2" y2="79.8"/>
<line class="st1" x1="64.5" y1="79.1" x2="74.6" y2="79"/>
<line class="st2" x1="65.7" y1="93.6" x2="65.7" y2="93.4"/>
<line class="st2" x1="65.7" y1="88.5" x2="65.7" y2="88.2"/>
<line class="st1" x1="66.2" y1="71.3" x2="66.2" y2="79.1"/>
<line class="st2" x1="102.9" y1="77.8" x2="102.7" y2="77.8"/>
<line class="st2" x1="97.8" y1="77.8" x2="97.5" y2="77.8"/>
<line class="st2" x1="71.7" y1="36.9" x2="71.7" y2="39.5"/>
<line class="st2" x1="71.7" y1="47.1" x2="71.7" y2="59.1"/>
<line class="st2" x1="71.7" y1="79.8" x2="71.7" y2="87.1"/>
<line class="st2" x1="71.7" y1="97.3" x2="71.7" y2="94.7"/>
<line class="st2" x1="72.1" y1="96.5" x2="72.1" y2="93.7"/>
<line class="st1" x1="72.1" y1="88.1" x2="72.1" y2="79"/>
<line class="st3" x1="72.1" y1="68.4" x2="72.1" y2="46.1"/>
<line class="st1" x1="72.1" y1="40.6" x2="72.1" y2="37.7"/>
<line class="st1" x1="73" y1="86.7" x2="73" y2="96.6"/>
<line class="st1" x1="73" y1="47.5" x2="72.9" y2="37.6"/>
<line class="st1" x1="74.6" y1="79" x2="74.6" y2="86.7"/>
<line class="st1" x1="75.1" y1="39.1" x2="75.1" y2="62.9"/>
<line class="st1" x1="75.6" y1="86.7" x2="75.6" y2="96.9"/>
<line class="st1" x1="76.4" y1="37.3" x2="76.4" y2="62.9"/>
<line class="st1" x1="76.4" y1="96.9" x2="76.4" y2="71.3"/>
<line class="st2" x1="106.6" y1="71.8" x2="104" y2="71.8"/>
<line class="st2" x1="46" y1="71.8" x2="48.8" y2="71.8"/>
<line class="st2" x1="56.4" y1="71.8" x2="63.7" y2="71.8"/>
<line class="st2" x1="84.4" y1="71.8" x2="96.4" y2="71.8"/>
<line class="st1" x1="105.8" y1="71.3" x2="102.9" y2="71.3"/>
<line class="st1" x1="49.8" y1="71.3" x2="46.9" y2="71.3"/>
<line class="st1" x1="55.4" y1="71.3" x2="77.6" y2="71.3"/>
<line class="st1" x1="80.6" y1="71.3" x2="97.4" y2="71.3"/>
<line class="st1" x1="46.8" y1="70.6" x2="56.8" y2="70.5"/>
<line class="st1" x1="96" y1="70.5" x2="105.9" y2="70.5"/>
<line class="st3" x1="80.6" y1="68.8" x2="96" y2="68.8"/>
<line class="st3" x1="48.3" y1="68.4" x2="72.1" y2="68.4"/>
<line class="st3" x1="96" y1="67.9" x2="106.2" y2="67.9"/>
<line class="st3" x1="106.2" y1="67.1" x2="80.6" y2="67.1"/>
<line class="st3" x1="46.6" y1="67.1" x2="72.1" y2="67.1"/>
<line class="st1" x1="77.2" y1="47.5" x2="77.1" y2="37.3"/>
<line class="st1" x1="77.7" y1="95.1" x2="77.6" y2="71.3"/>
<line class="st1" x1="78.1" y1="62.9" x2="78.1" y2="47.5"/>
<line class="st1" x1="79.8" y1="96.6" x2="79.8" y2="86.7"/>
<line class="st1" x1="79.8" y1="47.5" x2="79.8" y2="37.6"/>
<line class="st1" x1="80.6" y1="37.7" x2="80.6" y2="40.6"/>
<line class="st1" x1="80.6" y1="93.7" x2="80.6" y2="96.5"/>
<line class="st3" x1="80.6" y1="88.1" x2="80.6" y2="65.9"/>
<line class="st1" x1="80.6" y1="62.9" x2="80.6" y2="46.1"/>
<line class="st2" x1="81.1" y1="36.9" x2="81.1" y2="39.5"/>
<line class="st2" x1="81.1" y1="97.3" x2="81.1" y2="94.7"/>
<line class="st2" x1="81.1" y1="87.1" x2="81.1" y2="75.1"/>
<line class="st2" x1="81.1" y1="59.1" x2="81.1" y2="47.1"/>
<line class="st3" x1="56.8" y1="66.3" x2="46.6" y2="66.3"/>
<line class="st3" x1="104.4" y1="65.8" x2="80.6" y2="65.9"/>
<line class="st3" x1="72.1" y1="65.4" x2="56.8" y2="65.4"/>
<line class="st1" x1="56.8" y1="63.7" x2="46.8" y2="63.7"/>
<line class="st1" x1="96" y1="63.7" x2="105.9" y2="63.7"/>
<line class="st2" x1="46.9" y1="62.9" x2="49.8" y2="62.9"/>
<line class="st1" x1="55.4" y1="62.9" x2="72.1" y2="62.9"/>
<line class="st1" x1="75.1" y1="62.9" x2="97.4" y2="62.9"/>
<line class="st1" x1="102.9" y1="62.9" x2="105.8" y2="62.9"/>
<line class="st2" x1="106.6" y1="62.4" x2="104" y2="62.4"/>
<line class="st2" x1="96.4" y1="62.4" x2="84.4" y2="62.4"/>
<line class="st2" x1="68.4" y1="62.4" x2="56.4" y2="62.4"/>
<line class="st2" x1="46" y1="62.4" x2="48.7" y2="62.4"/>
<line class="st2" x1="87" y1="40.6" x2="87" y2="40.8"/>
<line class="st2" x1="87" y1="45.7" x2="87" y2="46"/>
<line class="st2" x1="89.6" y1="46" x2="89.6" y2="45.7"/>
<line class="st2" x1="89.6" y1="40.8" x2="89.6" y2="40.6"/>
<line class="st2" x1="49.9" y1="56.5" x2="50.1" y2="56.5"/>
<line class="st2" x1="55" y1="56.5" x2="55.2" y2="56.5"/>
<polygon class="st4" points="68.5,50.8 66.6,54.3 68.5,54.3 "/>
<line class="st2" x1="55.2" y1="53.9" x2="55" y2="53.9"/>
<line class="st2" x1="50.1" y1="53.9" x2="49.9" y2="53.9"/>
<line class="st3" x1="96" y1="71.3" x2="96" y2="67.9"/>
<line class="st1" x1="96" y1="63.7" x2="96" y2="62.9"/>
<line class="st1" x1="73" y1="47.5" x2="72.1" y2="47.5"/>
<line class="st1" x1="77.2" y1="47.5" x2="80.6" y2="47.5"/>
<line class="st2" x1="99" y1="52.5" x2="99" y2="52.8"/>
<line class="st2" x1="99" y1="57.6" x2="99" y2="57.9"/>
<line class="st2" x1="101.5" y1="57.9" x2="101.5" y2="57.6"/>
<line class="st2" x1="101.5" y1="52.8" x2="101.5" y2="52.5"/>
<line class="st2" x1="61.8" y1="44.5" x2="62" y2="44.5"/>
<line class="st2" x1="66.9" y1="44.5" x2="67.2" y2="44.5"/>
<line class="st2" x1="67.2" y1="42" x2="66.9" y2="42"/>
<line class="st2" x1="62" y1="42" x2="61.8" y2="42"/>
<line class="st1" x1="119.1" y1="117.3" x2="141.1" y2="78.9"/>
<line class="st1" x1="120.6" y1="118.1" x2="142.5" y2="79.8"/>
<line class="st1" x1="98.5" y1="5.1" x2="54.3" y2="5.1"/>
<line class="st1" x1="141.1" y1="55.3" x2="119" y2="17.1"/>
<path class="st1" d="M33.7,117.3c4.3,7.2,12.1,11.7,20.5,11.8h0.1"/>
<path class="st2" d="M71.5,94.7c0.7-1.2,1-2.5,1-3.8s-0.3-2.6-0.8-3.7"/>
<path class="st2" d="M56.4,71.8c-1.2-0.6-2.5-1-3.8-1s-2.6,0.4-3.7,1"/>
<path class="st2" d="M57.8,79.1L57.8,79.1c0,2.9-2.4,5.3-5.3,5.3s-5.3-2.4-5.3-5.3s2.4-5.3,5.3-5.3l0,0c2.9,0,5.2,2.3,5.3,5.2
	C57.8,79,57.8,79.1,57.8,79.1"/>
<path class="st2" d="M69.8,90.9L69.8,90.9c0,3-2.4,5.4-5.3,5.4s-5.3-2.4-5.3-5.3s2.4-5.3,5.3-5.3l0,0C67.4,85.7,69.8,88,69.8,90.9
	L69.8,90.9"/>
<path class="st2" d="M67.5,100.6h0.7c1.8,0,3.3-1.4,3.4-3.2"/>
<path class="st2" d="M46,71.8L46,71.8c-1.8,0-3.3,1.4-3.4,3.2c0,0.1,0,0.1,0,0.2c0,0.3,0,0.7,0.1,1"/>
<path class="st2" d="M55.5,79.1L55.5,79.1c0,1.6-1.4,2.9-3,2.9s-2.9-1.4-2.9-3s1.3-2.8,2.9-2.9C54.2,76.1,55.5,77.4,55.5,79.1
	C55.5,79,55.5,79.1,55.5,79.1"/>
<path class="st2" d="M67.4,90.9L67.4,90.9c0,1.7-1.3,3-2.9,3s-3-1.3-3-2.9s1.3-3,2.9-3C66,87.9,67.4,89.2,67.4,90.9L67.4,90.9"/>
<path class="st2" d="M55.4,79.1L55.4,79.1c-0.1,1.5-1.3,2.7-2.8,2.6l0,0c-1.5,0-2.7-1.2-2.7-2.7s1.2-2.7,2.7-2.7l0,0
	C54.1,76.3,55.3,77.5,55.4,79.1L55.4,79.1"/>
<path class="st2" d="M67.3,90.9L67.3,90.9c-0.1,1.6-1.3,2.7-2.8,2.7s-2.7-1.2-2.7-2.7s1.2-2.7,2.7-2.7l0,0c1.5,0,2.7,1.2,2.8,2.8"/>
<path class="st2" d="M63.7,78.1c0,0.8,0.7,1.5,1.6,1.6"/>
<path class="st1" d="M11.6,55.2C9.5,58.8,8.3,62.8,8.4,67c0,4.2,1.1,8.3,3.2,12"/>
<path class="st1" d="M54.3,5.1L54.3,5.1c-8.6,0-16.4,4.5-20.6,11.9"/>
<path class="st2" d="M48.8,62.3c2.3,1.3,5.1,1.3,7.4,0"/>
<path class="st2" d="M71.6,47.1c0.6-1.2,0.9-2.5,0.8-3.8c0-1.2-0.3-2.5-0.8-3.6"/>
<path class="st2" d="M69.8,43.3L69.8,43.3c-0.1,2.9-2.5,5.3-5.4,5.3s-5.3-2.4-5.3-5.3s2.4-5.3,5.3-5.3l0,0
	C67.3,38,69.6,40.3,69.8,43.3L69.8,43.3"/>
<path class="st2" d="M57.8,55.2L57.8,55.2c0,2.9-2.4,5.3-5.3,5.3s-5.3-2.4-5.3-5.3c0-2.9,2.4-5.3,5.3-5.3l0,0
	C55.4,50,57.8,52.3,57.8,55.2"/>
<path class="st2" d="M68.4,62.3c1.7-0.1,3.1-1.5,3.2-3.2"/>
<path class="st2" d="M42.8,58.2c-0.1,0.2-0.1,0.5-0.1,0.7c0,1.8,1.5,3.3,3.3,3.4l0,0"/>
<path class="st2" d="M71.6,36.9L71.6,36.9c0-1.9-1.5-3.4-3.4-3.5c-0.4,0-0.6,0.1-0.8,0.1"/>
<path class="st2" d="M55.5,55.2L55.5,55.2c0,1.6-1.4,2.9-3,2.9s-2.9-1.4-2.9-3s1.3-2.8,2.9-2.9C54.2,52.2,55.5,53.6,55.5,55.2"/>
<path class="st2" d="M67.4,43.3L67.4,43.3c0,1.6-1.4,2.9-3,2.9s-2.9-1.4-2.9-3s1.3-2.8,2.9-2.9C66,40.3,67.4,41.6,67.4,43.3
	L67.4,43.3"/>
<path class="st2" d="M67.3,43.3L67.3,43.3c-0.1,1.5-1.3,2.7-2.8,2.6l0,0c-1.5,0-2.7-1.2-2.7-2.7s1.2-2.7,2.7-2.7l0,0
	c1.5,0,2.7,1.2,2.8,2.7C67.3,43.2,67.3,43.2,67.3,43.3"/>
<path class="st2" d="M55.3,55.2L55.3,55.2c0,1.5-1.2,2.7-2.7,2.8c0,0,0,0-0.1,0c-1.5,0-2.8-1.2-2.8-2.8c0-1.5,1.2-2.8,2.8-2.8l0,0
	C54,52.4,55.2,53.6,55.3,55.2L55.3,55.2"/>
<path class="st1" d="M98.5,129c8.5-0.1,16.4-4.5,20.6-11.8"/>
<path class="st2" d="M103.9,71.8c-1.2-0.7-2.5-1-3.8-1c-1.3,0.1-2.6,0.4-3.7,1"/>
<path class="st2" d="M81.1,87.1c-0.6,1.1-1,2.4-1,3.7c0,1.3,0.4,2.7,1,3.8"/>
<path class="st2" d="M93.6,90.9L93.6,90.9c0,3-2.4,5.4-5.3,5.4S83,93.9,83,91s2.4-5.3,5.3-5.3l0,0C91.2,85.7,93.5,88,93.6,90.9
	L93.6,90.9"/>
<path class="st2" d="M105.4,79L105.4,79c0,2.9-2.4,5.2-5.3,5.2s-5.2-2.4-5.2-5.3c0-2.8,2.3-5.1,5.2-5.2
	C103.1,73.7,105.4,76,105.4,79C105.4,78.9,105.4,79,105.4,79"/>
<path class="st2" d="M84.4,71.8L84.4,71.8c-1.9,0-3.3,1.5-3.3,3.3v0.1"/>
<path class="st2" d="M109.8,76c0.1-0.3,0.1-0.6,0.1-0.8c0.1-1.8-1.3-3.3-3.1-3.4h-0.1"/>
<path class="st2" d="M81.1,97.3c0,1.8,1.5,3.2,3.3,3.2h0.1c0.3,0,0.7,0,1-0.1"/>
<path class="st2" d="M91.3,90.9L91.3,90.9c-0.1,1.7-1.4,3-3,3s-3-1.3-3-2.9s1.3-3,2.9-3S91.2,89.3,91.3,90.9L91.3,90.9"/>
<path class="st2" d="M103.2,79L103.2,79c0,1.6-1.4,2.9-3,2.9s-2.9-1.4-2.9-3s1.3-2.8,2.9-2.9C101.8,76,103.2,77.3,103.2,79"/>
<path class="st2" d="M91,90.9L91,90.9c-0.1,1.6-1.3,2.7-2.8,2.7s-2.7-1.2-2.7-2.7s1.2-2.7,2.7-2.7l0,0c1.5,0,2.7,1.2,2.8,2.8"/>
<path class="st2" d="M102.9,79L102.9,79c0,1.5-1.3,2.7-2.8,2.6c-1.5,0-2.7-1.3-2.6-2.8c0-1.4,1.2-2.6,2.6-2.6
	C101.6,76.2,102.9,77.4,102.9,79C102.9,78.9,102.9,78.9,102.9,79"/>
<path class="st1" d="M135.1,67.1L135.1,67.1c0,32.4-26.3,58.7-58.7,58.7S17.7,99.5,17.7,67.1S44,8.4,76.4,8.4l0,0
	C108.8,8.4,135.1,34.7,135.1,67.1"/>
<path class="st1" d="M133.3,67.1L133.3,67.1c0,31.5-25.4,57-56.9,57s-57-25.4-57-56.9s25.4-57,56.9-57h0.1
	C107.8,10.2,133.3,35.6,133.3,67.1L133.3,67.1"/>
<path class="st1" d="M118.8,67L118.8,67c0,23.5-19,42.6-42.5,42.6s-42.5-19-42.6-42.4c0-23.5,19-42.6,42.5-42.6h0.1
	C99.7,24.6,118.7,43.5,118.8,67L118.8,67"/>
<path class="st2" d="M42.8,76.1c3.2,12,12.7,21.4,24.7,24.5"/>
<path class="st2" d="M67.4,33.6c-12.1,3.1-21.5,12.6-24.6,24.6"/>
<path class="st2" d="M109.8,58.1c-3.2-12-12.5-21.3-24.5-24.5"/>
<path class="st2" d="M85.3,100.5c12-3.2,21.3-12.5,24.5-24.5"/>
<path class="st1" d="M81.1,37.3c-1.6-0.2-3.2-0.4-4.8-0.4c-1.5,0-3.1,0.1-4.6,0.4"/>
<path class="st1" d="M106,71.8c0.2-1.6,0.4-3.2,0.4-4.8c0-1.5-0.1-3-0.4-4.6"/>
<path class="st1" d="M71.7,96.7c1.5,0.2,3,0.4,4.6,0.4s3.2-0.1,4.8-0.4"/>
<path class="st1" d="M46.5,62.4c-0.2,1.5-0.4,3-0.4,4.6s0.1,3.2,0.5,4.8"/>
<path class="st1" d="M105.6,71.8c0.2-1.6,0.4-3.2,0.4-4.8c0-1.5-0.1-3-0.4-4.6"/>
<path class="st1" d="M81.1,37.8c-1.6-0.3-3.2-0.5-4.8-0.5c-1.5,0-3.1,0.1-4.6,0.4"/>
<path class="st1" d="M47,62.4c-0.2,1.5-0.4,3-0.4,4.6s0.1,3.2,0.4,4.8"/>
<path class="st1" d="M71.7,96.3c1.5,0.2,3,0.4,4.6,0.4s3.2-0.1,4.8-0.4"/>
<line class="st1" x1="104.4" y1="65.8" x2="104.2" y2="63.7"/>
<line class="st1" x1="79.8" y1="94.9" x2="77.7" y2="95.1"/>
<line class="st1" x1="48.6" y1="70.6" x2="48.3" y2="68.4"/>
<line class="st1" x1="72.9" y1="39.3" x2="75.1" y2="39.1"/>
<path class="st2" d="M81.1,59.1c0,1.8,1.4,3.2,3.2,3.2l0,0h0.1"/>
<path class="st2" d="M81.1,39.5c-0.6,1.1-1,2.4-1,3.7s0.4,2.7,1,3.8"/>
<path class="st2" d="M93.6,43.3L93.6,43.3c0,2.9-2.4,5.3-5.3,5.3S83,46.2,83,43.3s2.4-5.3,5.3-5.3l0,0C91.2,38,93.5,40.3,93.6,43.3
	C93.6,43.3,93.6,43.3,93.6,43.3"/>
<path class="st2" d="M85.3,33.6c-0.3-0.2-0.7-0.2-1-0.2c-1.8,0-3.3,1.5-3.2,3.4v0.1"/>
<path class="st2" d="M91.2,43.3L91.2,43.3c0,1.6-1.3,2.9-2.9,2.9s-3-1.3-3-2.9c0-1.6,1.3-3,2.9-3S91.2,41.6,91.2,43.3
	C91.2,43.3,91.2,43.3,91.2,43.3"/>
<path class="st2" d="M91,43.3L91,43.3c-0.1,1.5-1.3,2.6-2.8,2.6s-2.7-1.2-2.7-2.7s1.2-2.7,2.7-2.7l0,0C89.8,40.6,91,41.8,91,43.3"/>
<path class="st1" d="M142.5,79.8c2.2-3.9,3.5-8.3,3.5-12.8c0-4.4-1.1-8.8-3.5-12.6l0.1,0.1l-22.1-38.3"/>
<path class="st1" d="M141.1,78.9c2.1-3.6,3.1-7.7,3.1-11.9c0-4.1-1.1-8.1-3.1-11.7"/>
<path class="st2" d="M96.4,62.3c1.1,0.6,2.3,1,3.6,1c1.3,0,2.7-0.4,3.8-1"/>
<path class="st2" d="M105.4,55.2L105.4,55.2c0,2.9-2.4,5.2-5.3,5.2s-5.2-2.4-5.2-5.3c0-2.8,2.3-5.1,5.2-5.2
	C103.1,49.9,105.4,52.3,105.4,55.2L105.4,55.2"/>
<path class="st2" d="M106.6,62.3c1.8,0,3.3-1.5,3.2-3.4v-0.8"/>
<path class="st2" d="M103.2,55.2L103.2,55.2c0,1.6-1.4,2.9-3,2.9s-2.9-1.4-2.9-3s1.3-2.8,2.9-2.9C101.8,52.2,103.2,53.6,103.2,55.2"
	/>
<path class="st2" d="M102.9,55.2L102.9,55.2c0,1.5-1.3,2.7-2.8,2.6c-1.5,0-2.7-1.3-2.6-2.8c0-1.4,1.2-2.6,2.6-2.6
	C101.6,52.4,102.9,53.6,102.9,55.2L102.9,55.2"/>
<path class="st1" d="M120.5,16.3c-4.5-7.9-12.9-12.9-22-12.8l0,0H54.4h-0.1c-9.1,0-17.5,4.8-22.1,12.7L10.1,54.5
	C8,58.3,6.8,62.7,6.8,67.1c0,4.5,1.2,8.9,3.5,12.8h-0.1l22.2,38.3c4.6,7.8,12.9,12.6,22,12.6h0.1l0,0h44.1l0,0
	c9.1,0,17.4-4.9,22-12.7"/>
<path class="st1" d="M119,17.1c-4.2-7.4-12-12-20.5-12"/>
<polygon class="st0" points="69.4,81.4 69.6,81.3 69.6,81 69.7,80.9 70.4,80.9 70.4,85.8 69.4,85.8 69.4,82.5 68.4,82.5 68.4,81.7 
	69,81.7 69.1,81.6 69.1,81.6 69.2,81.6 69.3,81.5 "/>
<path class="st0" d="M58.3,80.5v0.2h-0.1v0.2L58,81v0.3v0.1v0.2h4.6v-1.2h-2.9v-0.1h0.1v-0.1H60l0.1-0.1v-0.2h0.1v-0.1h0.2l0.5-0.3
	l0.3-0.3l0.1-0.1l0.2-0.1l0.1-0.1l0.2-0.2l0.1-0.1l0.1-0.1v-0.1h0.2v-0.3h0.2v-0.3h0.1v-0.1l0.1-0.3v-0.5v-0.6l-0.1-0.1l-0.1-0.1V76
	l-0.2-0.1v-0.3L62,75.5v-0.1l-0.1-0.1h-0.3l-0.1-0.2L61.4,75h-0.1l-0.1-0.1h-0.9h-0.7L59.4,75l-0.2,0.1h-0.1L59,75.3l-0.1,0.1
	l-0.1,0.1l-0.2,0.1l-0.1,0.1l-0.1,0.2V76l-0.1,0.2v0.4l-0.1,0.1v0.4v0.1v0.1h1.3v-0.4v-0.2h0.1v-0.2l0.1-0.2v-0.1h0.1v-0.1L60,76
	h0.4h0.4v0.1h0.1v0.1H61l0,0l0.2,0.1v0.3v0.1h0.1v0.2v0.2l-0.1,0.1v0.1v0.1v0.1L61,77.7l-0.1,0.1l-0.1,0.1V78h-0.1l-0.1,0.1
	l-0.2,0.2v0.1l-0.2,0.1h-0.1l-0.3,0.2l-0.1,0.2h-0.1l-0.1,0.2h-0.1l-0.3,0.1v0.1L59,79.5h-0.1l-0.1,0.1c-0.2,0.2-0.4,0.5-0.5,0.8"/>
<polygon class="st0" points="61.6,59.7 61.8,59.5 61.9,59.4 61.9,59.3 62,59.3 62,58.9 62,58.7 62,58.3 61.9,58.2 61.9,58 61.8,58 
	61.6,57.9 61.6,57.7 61.5,57.6 61.3,57.6 61.2,57.6 61,57.5 60.4,57.5 60.2,57.5 60.2,56.3 60.6,56.3 60.9,56.3 61,56.2 61.2,56.2 
	61.3,56.2 61.4,56.1 61.5,56.1 61.5,55.9 61.6,55.8 61.6,55.7 61.8,55.6 61.8,55.5 61.8,55.3 61.9,55.2 61.9,55.1 61.8,55 
	61.8,54.7 61.6,54.6 61.6,54.5 61.5,54.4 61.5,54.4 61.4,54.3 61.2,54.3 61,54.1 60.8,54.1 60.6,54.1 60.4,54.3 60.2,54.3 
	60.1,54.4 60,54.6 59.8,54.7 59.8,54.9 59.7,55.1 59.7,55.5 58.2,55.5 58.3,55.2 58.3,54.5 58.4,54.4 58.4,54.1 58.5,53.9 
	58.6,53.8 58.8,53.7 58.9,53.5 59,53.3 59.2,53.2 59.4,53.2 59.5,52.9 59.7,52.9 60,52.8 60.9,52.8 61.8,52.8 62,52.9 62.1,52.9 
	62.4,53.1 62.5,53.2 62.6,53.3 62.7,53.4 63,53.5 63.1,53.7 63.1,53.8 63.2,53.9 63.3,54.1 63.3,54.3 63.4,54.4 63.4,55 63.4,55.7 
	63.3,55.8 63.3,56.1 63.1,56.2 63,56.3 62.8,56.4 62.7,56.5 62.6,56.8 62.7,56.8 62.7,56.9 63,56.9 63,57 63.1,57.1 63.2,57.1 
	63.3,57.3 63.3,57.4 63.4,57.5 63.4,57.6 63.6,57.7 63.6,57.9 63.7,58 63.7,58.3 63.7,58.7 63.7,59.5 63.6,59.8 63.4,59.9 
	63.3,60.1 63.2,60.3 63.1,60.4 63,60.6 62.7,60.7 62.6,60.9 62.4,61 62.2,61.1 62,61.1 61.9,61.2 61.6,61.2 61.3,61.3 60.9,61.3 
	60.4,61.3 60.2,61.2 59.8,61.2 59.7,61.1 59.5,61.1 59.4,61 59.2,60.9 59.1,60.9 59,60.7 58.9,60.7 58.8,60.6 58.6,60.5 58.6,60.4 
	58.5,60.4 58.4,60.1 58.3,60 58.3,59.7 58.2,59.5 58.2,59.3 58,59.2 58,58.6 59.7,58.6 59.8,58.8 59.8,59.2 60,59.4 60.1,59.5 
	60.2,59.7 60.2,59.8 60.4,59.8 60.6,59.9 60.8,60 60.9,60 61.2,60 61.3,59.9 61.5,59.8 61.6,59.8 "/>
<polygon class="st0" points="84.3,56.2 84.6,56.1 84.9,56.1 84.9,55.9 85,55.8 85.2,55.7 85.3,55.7 85.3,55.6 85.4,55.5 85.4,55.1 
	85.5,55.1 85.5,54.6 85.5,54.4 85.4,54.1 85.4,53.7 85.3,53.7 85.2,53.5 85,53.4 85,53.3 84.7,53.3 84.6,53.2 84.3,53.2 84.1,53.2 
	84,53.3 83.7,53.3 83.6,53.4 83.5,53.5 83.4,53.5 83.2,53.7 83.1,53.8 81.7,53.7 82.4,49.1 86.8,49.1 86.8,50.5 83.5,50.5 
	83.2,52.2 83.4,52.2 83.5,52.1 83.6,52.1 83.8,52 84,52 84.1,51.9 84.7,51.9 85.5,51.9 85.6,52 85.9,52.1 86,52.2 86.1,52.2 
	86.4,52.5 86.5,52.6 86.6,52.7 86.7,52.8 86.8,53.1 87,53.2 87.1,53.4 87.1,53.8 87.2,54 87.2,54.5 87.2,55 87.1,55.2 87.1,55.7 
	86.8,55.9 86.8,56.1 86.7,56.3 86.5,56.5 86.4,56.7 86.2,56.8 86.1,56.9 85.9,57.1 85.6,57.3 85.4,57.3 85.3,57.4 85,57.5 
	84.2,57.5 83.5,57.5 83.2,57.4 83.1,57.3 82.9,57.3 82.8,57.1 82.5,57.1 82.4,56.9 82.3,56.8 82.2,56.8 82,56.5 81.9,56.4 
	81.8,56.2 81.7,56.1 81.7,55.8 81.6,55.6 81.4,55.3 81.4,55.1 83.1,55.1 83.1,55.2 83.2,55.3 83.2,55.5 83.4,55.6 83.5,55.7 
	83.5,55.8 83.6,55.9 83.7,56.1 84,56.1 84.2,56.2 "/>
<g>
	<g>
		<polygon class="st0" points="90.8,54.6 90.7,54.7 90.6,55 90.4,55.1 90.4,55.5 90.3,55.7 90.3,56.4 90.4,56.3 90.7,56.2 
			90.8,56.1 90.9,56.1 91.2,55.8 91.4,55.8 91.6,55.7 92,55.7 92.4,55.7 92.6,55.8 93,55.8 93.1,55.9 93.2,56.1 93.3,56.2 
			93.6,56.3 93.7,56.4 93.8,56.5 93.9,56.8 94,56.9 94.2,57.1 94.3,57.3 94.3,57.6 94.4,57.9 94.4,58.3 94.4,58.9 94.3,59.1 
			94.3,59.5 94.2,59.8 94,60 93.9,60.1 93.8,60.4 93.7,60.5 93.6,60.7 93.3,60.9 93.2,60.9 93,61.1 92.8,61.1 92.6,61.2 92.1,61.2 
			91.9,61.3 91.6,61.3 91.4,61.3 91.2,61.2 90.7,61.2 90.4,61.1 90.2,61 90,60.9 89.8,60.7 89.6,60.5 89.5,60.4 89.4,60.1 
			89.2,59.9 89,59.7 89,59.4 88.9,59.1 88.9,58.7 88.8,58.5 88.8,58.1 88.6,57.7 88.6,57.3 88.6,56.5 88.8,56.1 88.9,55.6 
			88.9,55.1 89,54.7 89.1,54.5 89.2,54.3 89.4,53.9 89.6,53.7 89.7,53.5 90,53.3 90.1,53.2 90.3,53.1 90.6,52.9 90.8,52.8 
			91.8,52.8 92.6,52.8 92.8,52.9 93.1,53.1 93.3,53.2 93.4,53.3 93.7,53.4 93.8,53.7 93.9,53.9 94,54 94,54.3 94.2,54.6 94.3,55 
			92.6,55 92.5,54.7 92.5,54.6 92.4,54.5 92.2,54.4 92.1,54.3 92,54.3 91.9,54.1 91.6,54.1 91.4,54.1 91.2,54.3 91,54.3 91,54.4 
			90.9,54.4 90.8,54.5 		"/>
	</g>
	<g>
		<polygon class="st4" points="91.5,60 91.8,60 91.9,59.9 92,59.9 92.1,59.8 92.2,59.8 92.2,59.7 92.4,59.7 92.5,59.5 92.5,59.4 
			92.6,59.4 92.6,58.9 92.7,58.9 92.7,58.6 92.7,58.2 92.6,58 92.6,57.7 92.5,57.6 92.5,57.5 92.4,57.4 92.2,57.3 92.1,57.3 
			92.1,57.1 91.5,57.1 91,57.1 91,57.3 90.8,57.3 90.8,57.4 90.7,57.5 90.6,57.6 90.4,57.7 90.4,58.2 90.3,58.3 90.3,58.5 
			90.3,58.6 90.4,58.7 90.4,58.9 90.4,59.2 90.6,59.3 90.6,59.4 90.7,59.4 90.7,59.5 90.8,59.7 90.9,59.8 91,59.8 91.2,59.9 
			91.3,59.9 91.4,60 		"/>
	</g>
</g>
<polygon class="st0" points="91.5,81.6 89.8,81.6 90,81.3 90,80.4 90.1,80.2 90.1,79.7 90.2,79.5 90.3,79.2 90.3,79.1 90.3,78.9 
	90.4,78.7 90.4,78.5 90.7,78.3 90.7,78.1 90.8,77.9 90.8,77.7 91,77.4 91,77.3 91.2,77.1 91.3,76.9 91.4,76.7 91.5,76.5 91.8,76.2 
	91.9,76 92,75.9 92.2,75.6 92.5,75.3 92.6,75 92.8,74.8 88.6,74.8 88.6,73.3 94.6,73.3 94.6,74.7 94.4,74.9 94,75.3 93.9,75.5 
	93.7,75.9 93.4,76.2 93.2,76.5 93,76.7 92.8,77.1 92.6,77.4 92.5,77.7 92.4,78 92.2,78.4 92.1,78.7 92,79 91.9,79.3 91.9,79.7 
	91.8,80.1 91.8,80.4 91.6,80.8 91.5,81.1 "/>
<polygon class="st0" points="82.4,78.1 82.5,78 82.8,77.8 82.9,77.8 83.1,77.7 83.2,77.7 83.5,77.5 83.6,77.4 84.3,77.4 85,77.4 
	85.3,77.5 85.4,77.5 85.6,77.7 85.8,77.8 86,77.8 86.1,77.9 86.2,78 86.4,78.1 86.5,78.4 86.6,78.5 86.7,78.6 86.7,78.7 86.8,78.9 
	86.8,79.7 86.8,80.3 86.7,80.5 86.6,80.7 86.5,80.9 86.4,81 86.1,81.1 86,81.3 85.8,81.4 86,81.5 86.1,81.6 86.2,81.6 86.4,81.7 
	86.5,81.7 86.6,81.9 86.7,82 86.7,82.1 86.8,82.1 86.8,82.3 87,82.3 87.1,82.5 87.1,82.9 87.2,83.1 87.2,83.4 87.2,83.9 87.1,84.1 
	87.1,84.3 87,84.5 86.8,84.6 86.8,84.9 86.7,85 86.5,85.1 86.4,85.2 86.2,85.3 86,85.6 85.9,85.6 85.6,85.7 85.4,85.8 85.3,85.9 
	84.3,85.9 83.4,85.9 83.1,85.8 82.9,85.7 82.8,85.7 82.5,85.6 82.4,85.3 82.2,85.3 82,85.2 82,85 81.8,84.9 81.8,84.6 81.7,84.5 
	81.7,84.3 81.6,84.1 81.4,83.9 81.4,83.4 81.4,83.1 81.6,82.8 81.6,82.7 81.7,82.7 81.7,82.5 81.8,82.3 81.8,82.2 81.9,82.1 
	82,82.1 82,82 82.2,81.9 82.3,81.7 82.4,81.7 82.5,81.6 82.8,81.5 82.9,81.4 82.6,81.4 82.5,81.3 82.3,81 82.2,81 82,80.8 
	81.9,80.7 81.8,80.4 81.8,80.3 81.7,80.1 81.7,79.8 81.7,79.6 81.8,79.3 81.8,79 81.9,78.9 82,78.7 82,78.5 82.2,78.4 82.3,78.1 "/>
<polygon class="st4" points="84.3,84.6 84.7,84.6 84.8,84.5 84.9,84.5 85,84.4 85.2,84.3 85.3,84.3 85.3,84.1 85.4,84.1 85.4,83.9 
	85.4,83.8 85.5,83.5 85.5,83.4 85.5,83.2 85.4,83.1 85.4,82.8 85.4,82.7 85.3,82.7 85.3,82.6 85.2,82.5 85,82.5 84.9,82.3 
	84.7,82.3 84.7,82.2 84.3,82.2 84,82.2 84,82.3 83.6,82.3 83.6,82.5 83.5,82.5 83.5,82.6 83.4,82.7 83.2,82.7 83.2,82.8 83.2,83.1 
	83.1,83.2 83.1,83.4 83.1,83.5 83.2,83.8 83.2,84.1 83.4,84.1 83.5,84.3 83.5,84.3 83.6,84.4 83.6,84.5 83.8,84.5 84,84.6 "/>
<polygon class="st4" points="84.3,80.9 84.6,80.9 84.7,80.8 84.8,80.7 84.9,80.7 85,80.5 85,80.3 85.2,80.3 85.2,80.2 85.3,80.2 
	85.3,79.9 85.3,79.8 85.3,79.6 85.2,79.5 85.2,79.2 85,79.2 85,79.1 84.9,79.1 84.9,79 84.8,78.9 84.6,78.9 84.6,78.7 84.3,78.7 
	84.2,78.7 84.1,78.9 83.8,78.9 83.7,79 83.7,79.1 83.6,79.1 83.6,79.2 83.5,79.2 83.5,79.5 83.5,79.8 83.4,79.8 83.5,79.9 
	83.5,80.2 83.5,80.3 83.6,80.4 83.6,80.5 83.7,80.7 83.8,80.7 84,80.8 84.1,80.9 "/>
<polyline class="st1" points="75.2,37.3 75.2,37.6 75.2,37.7 75.2,37.9 75.1,38.2 75.1,39.1 "/>
<polyline class="st1" points="46.6,68.3 47.2,68.3 47.4,68.4 48.3,68.4 "/>
<polyline class="st1" points="77.5,96.9 77.5,96.6 77.6,96.6 77.6,96.5 77.6,96.3 77.6,95.8 77.7,95.5 77.7,95.1 "/>
<polyline class="st1" points="106.2,65.9 105.2,65.9 105.1,65.8 104.4,65.8 "/>
</svg>
