<?xml version="1.0" encoding="utf-8"?>
<!-- Generator: Adobe Illustrator 24.2.1, SVG Export Plug-In . SVG Version: 6.00 Build 0)  -->
<svg version="1.1" id="图层_1" xmlns="http://www.w3.org/2000/svg" xmlns:xlink="http://www.w3.org/1999/xlink" x="0px" y="0px"
	 viewBox="0 0 149.7 162.4" style="enable-background:new 0 0 149.7 162.4;" xml:space="preserve">
<style type="text/css">
	.st0{fill:none;stroke:#040000;stroke-width:0.75;stroke-miterlimit:2;}
	.st1{fill:none;stroke:#040000;stroke-width:0.43;stroke-miterlimit:2;}
	.st2{fill:#FFFFFF;}
	.st3{fill:none;stroke:#AAABAB;stroke-width:0.4252;stroke-miterlimit:2;}
	.st4{fill:#33CCFF;}
	.st5{font-family:'Arial-BoldMT';}
	.st6{font-size:12.0006px;}
	.st7{fill:none;stroke:#33CCFF;stroke-width:0.25;stroke-miterlimit:10.0005;}
</style>
<line class="st0" x1="68.4" y1="50.1" x2="68.4" y2="42.7"/>
<line class="st0" x1="80.5" y1="42.3" x2="80.5" y2="49.6"/>
<line class="st0" x1="75.7" y1="55.5" x2="74" y2="55.5"/>
<path class="st0" d="M36.8,86.8"/>
<path class="st1" d="M53.9,83.3c2.6-2.6,2.4-6.8,0-9.3c-2.6-2.4-6.7-2.3-9.3,0.5c-2.6,2.6-2.4,6.8,0,9.3
	C47.3,86.2,51.5,86,53.9,83.3"/>
<path class="st1" d="M93.1,63.5c2.6-2.6,2.4-6.8,0-9.3s-6.7-2.3-9.3,0.5s-2.4,6.8,0,9.3C86.3,66.4,90.5,66.3,93.1,63.5"/>
<path class="st1" d="M65.2,64.8c2.6-2.6,2.4-6.8,0-9.3c-2.4-2.4-6.7-2.3-9.3,0.5s-2.4,6.8,0,9.3S62.8,67.4,65.2,64.8"/>
<path class="st1" d="M98.8,101.7c2.6-2.6,2.4-6.8,0-9.3c-2.6-2.4-6.7-2.3-9.3,0.5s-2.4,6.8,0,9.3C92.1,104.5,96.4,104.3,98.8,101.7"
	/>
<path class="st1" d="M79.6,111.3c2.6-2.6,2.4-6.8,0-9.3c-2.6-2.4-6.7-2.3-9.3,0.5s-2.4,6.8,0,9.3C72.9,114.3,77.1,114.1,79.6,111.3"
	/>
<path class="st1" d="M60.1,103.3c2.6-2.6,2.4-6.8,0-9.3c-2.6-2.4-6.7-2.3-9.3,0.5c-2.6,2.6-2.4,6.8,0,9.3
	C53.5,106.3,57.7,106.1,60.1,103.3"/>
<path class="st1" d="M79.4,85.7c2.6-2.6,2.4-6.8,0-9.3c-2.6-2.4-6.7-2.3-9.3,0.5s-2.4,6.8,0,9.3C72.7,88.6,76.8,88.3,79.4,85.7"/>
<path class="st1" d="M104.7,81c2.6-2.6,2.4-6.8,0-9.3c-2.4-2.4-6.7-2.3-9.3,0.5s-2.4,6.8,0,9.3C98,83.9,102.1,83.7,104.7,81"/>
<path class="st0" d="M80.5,49.6c0,1.5-0.5,2.9-1.6,4.1 M78.9,53.7c-1,1.2-2.3,1.8-3.8,1.8"/>
<path class="st0" d="M68.4,50.1c0,3.1,2.6,5.4,5.7,5.4"/>
<polygon class="st2" points="74.7,69.5 74.7,69.5 74.5,69.5 74.5,69.5 74.5,69.7 74.5,69.7 74.3,69.7 74.3,69.7 74.3,69.7 
	74.3,69.7 74.3,69.7 74.2,69.7 74.2,69.7 74.2,69.7 74.2,69.7 74.2,69.7 74,69.7 74,69.9 74,69.9 74,69.9 74,69.9 73.8,69.9 
	73.8,69.9 73.8,69.9 73.8,70 73.8,70 73.8,70 73.8,70 73.7,70 73.7,70 73.7,70.2 73.7,70.2 73.7,70.2 73.7,70.2 73.7,70.2 
	73.7,70.4 73.7,70.4 73.7,70.4 73.7,70.4 73.5,70.4 73.5,70.5 73.5,70.5 73.5,70.5 73.5,70.5 73.5,70.7 73.5,70.7 73.5,70.7 
	73.5,70.7 73.5,70.8 73.5,70.8 73.5,70.8 73.5,70.8 73.5,71 73.5,71 73.5,71 73.5,71 73.5,71.2 73.7,71.2 73.7,71.2 73.7,71.3 
	73.7,71.3 73.7,71.3 73.7,71.3 73.7,71.3 73.7,71.5 73.7,71.5 73.7,71.5 73.7,71.5 73.8,71.5 73.8,71.7 73.8,71.7 73.8,71.7 
	73.8,71.7 73.8,71.7 73.8,71.7 74,71.7 74,71.7 74,71.8 74,71.8 74,71.8 74.2,71.8 74.2,71.8 74.2,71.8 74.2,71.8 74.2,71.8 
	74.2,71.8 74.3,71.8 74.3,72 74.3,72 74.3,72 74.5,72 74.5,72 74.5,72 74.5,72 74.7,72 74.7,72 74.7,72 74.7,72 74.8,72 74.8,71.8 
	74.8,72 74.8,71.8 74.8,71.8 75,71.8 75,71.8 75,71.8 75,71.8 75.1,71.8 75.1,71.8 75.1,71.8 75.1,71.8 75.1,71.8 75.1,71.7 
	75.3,71.7 75.3,71.7 75.3,71.7 75.3,71.7 75.3,71.7 75.3,71.7 75.5,71.5 75.5,71.5 75.5,71.5 75.5,71.5 75.5,71.5 75.5,71.5 
	75.5,71.3 75.5,71.3 75.5,71.3 75.6,71.3 75.6,71.2 75.6,71.2 75.6,71.2 75.6,71.2 75.6,71 75.6,71 75.6,71 75.6,71 75.6,70.8 
	75.6,70.8 75.6,70.8 75.6,70.8 75.6,70.7 75.6,70.7 75.6,70.7 75.6,70.7 75.6,70.7 75.6,70.5 75.6,70.5 75.6,70.5 75.6,70.5 
	75.6,70.4 75.6,70.4 75.6,70.4 75.6,70.2 75.6,70.2 75.6,70.2 75.6,70.2 75.5,70.2 75.5,70 75.5,70 75.5,70 75.5,70 75.5,70 
	75.5,70 75.5,69.9 75.3,69.9 75.3,69.9 75.3,69.9 75.3,69.9 75.3,69.9 75.3,69.9 75.1,69.7 75.1,69.7 75.1,69.7 75.1,69.7 
	75.1,69.7 75.1,69.7 75,69.7 75,69.7 75,69.7 75,69.7 75,69.7 74.8,69.7 74.8,69.7 74.8,69.7 74.8,69.5 "/>
<polygon class="st2" points="75.5,67.6 75.5,67.6 75.5,67.4 75.5,67.4 75.5,67.4 75.5,67.4 75.5,67.4 75.5,67.3 75.5,67.3 
	75.5,67.3 75.5,67.3 75.5,67.3 75.5,67.1 75.5,67.1 75.5,67.1 75.3,67.1 75.3,67.1 75.3,67.1 75.3,66.9 75.3,66.9 75.3,66.9 
	75.3,66.9 75.3,66.9 75.1,66.9 75.1,66.9 75.1,66.9 75.1,66.8 75.1,66.8 75.1,66.8 75.1,66.8 75.1,66.8 75,66.8 75,66.8 75,66.8 
	75,66.8 75,66.8 75,66.8 74.8,66.8 74.8,66.8 74.8,66.8 74.8,66.8 74.8,66.8 74.7,66.6 74.7,66.6 74.7,66.6 74.7,66.8 74.7,66.8 
	74.5,66.8 74.5,66.8 74.5,66.8 74.5,66.8 74.3,66.8 74.3,66.8 74.3,66.8 74.3,66.8 74.3,66.8 74.2,66.8 74.2,66.8 74.2,66.8 
	74.2,66.8 74.2,66.8 74,66.8 74,66.8 74,66.9 74,66.9 74,66.9 74,66.9 74,66.9 73.8,66.9 73.8,66.9 73.8,67.1 73.8,67.1 73.8,67.1 
	73.8,67.1 73.8,67.1 73.8,67.1 73.8,67.1 73.7,67.3 73.7,67.3 73.7,67.3 73.7,67.3 73.7,67.3 73.7,67.3 73.7,67.4 73.7,67.4 
	73.7,67.4 73.7,67.4 73.7,67.4 73.7,67.6 73.7,67.6 73.7,67.6 73.7,67.6 73.7,67.6 73.7,67.8 73.7,67.8 73.7,67.8 73.7,67.8 
	73.7,67.8 73.7,67.8 73.7,67.9 73.7,67.9 73.7,67.9 73.7,67.9 73.7,67.9 73.7,68.1 73.7,68.1 73.8,68.1 73.8,68.1 73.8,68.1 
	73.8,68.1 73.8,68.2 73.8,68.2 73.8,68.2 73.8,68.2 73.8,68.2 74,68.2 74,68.2 74,68.2 74,68.4 74,68.4 74,68.4 74,68.4 74.2,68.4 
	74.2,68.4 74.2,68.4 74.2,68.4 74.2,68.4 74.2,68.4 74.3,68.6 74.3,68.6 74.3,68.6 74.3,68.6 74.3,68.6 74.5,68.6 74.5,68.6 
	74.5,68.6 74.5,68.6 74.7,68.6 74.7,68.6 74.7,68.6 74.7,68.6 74.7,68.6 74.8,68.6 74.8,68.6 74.8,68.6 74.8,68.4 74.8,68.4 
	75,68.4 75,68.4 75,68.4 75,68.4 75,68.4 75,68.4 75,68.4 75.1,68.4 75.1,68.4 75.1,68.4 75.1,68.4 75.1,68.2 75.1,68.2 75.1,68.2 
	75.3,68.2 75.3,68.2 75.3,68.2 75.3,68.2 75.3,68.2 75.3,68.1 75.3,68.1 75.3,68.1 75.3,68.1 75.5,68.1 75.5,68.1 75.5,67.9 
	75.5,67.9 75.5,67.9 75.5,67.9 75.5,67.9 75.5,67.8 75.5,67.8 75.5,67.8 75.5,67.8 75.5,67.8 "/>
<polygon class="st2" points="60.9,110 60.9,110 60.9,110 60.9,110 60.8,110 60.8,110 60.8,110 60.8,110 60.6,110 60.6,110 60.6,110 
	60.6,110.2 60.5,110.2 60.5,110.2 60.5,110.2 60.5,110.2 60.5,110.2 60.3,110.2 60.3,110.2 60.3,110.2 60.3,110.3 60.3,110.3 
	60.3,110.3 60.1,110.3 60.1,110.3 60.1,110.5 60.1,110.5 60.1,110.5 60.1,110.5 60.1,110.5 60,110.5 60,110.7 60,110.7 60,110.7 
	60,110.7 60,110.8 60,110.8 60,110.8 60,110.8 60,111 60,111 60,111 60,111.2 60,111.2 59.8,111.2 59.8,111.2 59.8,111.3 
	59.8,111.3 59.8,111.3 59.8,111.5 59.8,111.5 59.8,111.5 60,111.7 60,111.7 60,111.7 60,111.8 60,111.8 60,111.8 60,111.8 60,112 
	60,112 60,112 60,112.1 60.1,112.1 60.1,112.1 60.1,112.1 60.1,112.1 60.1,112.3 60.1,112.3 60.1,112.3 60.3,112.3 60.3,112.3 
	60.3,112.4 60.3,112.4 60.3,112.4 60.3,112.4 60.5,112.4 60.5,112.4 60.5,112.4 60.5,112.6 60.5,112.6 60.6,112.6 60.6,112.6 
	60.6,112.6 60.6,112.6 60.8,112.6 60.8,112.6 60.8,112.6 60.8,112.6 60.9,112.6 60.9,112.6 60.9,112.6 60.9,112.6 61.1,112.6 
	61.1,112.6 61.1,112.6 61.1,112.6 61.1,112.6 61.3,112.6 61.3,112.6 61.3,112.6 61.3,112.6 61.3,112.6 61.4,112.6 61.4,112.6 
	61.4,112.6 61.4,112.4 61.4,112.4 61.6,112.4 61.6,112.4 61.6,112.4 61.6,112.4 61.6,112.4 61.8,112.3 61.8,112.3 61.8,112.3 
	61.8,112.3 61.8,112.3 61.8,112.3 61.8,112.1 61.8,112.1 61.9,112.1 61.9,112.1 61.9,112 61.9,112 61.9,112 61.9,112 61.9,111.8 
	61.9,111.8 61.9,111.8 61.9,111.8 62.1,111.7 62.1,111.7 62.1,111.7 62.1,111.5 62.1,111.5 62.1,111.3 62.1,111.3 62.1,111.3 
	62.1,111.2 62.1,111.2 62.1,111.2 62.1,111 62.1,111 62.1,111 62.1,111 62.1,110.8 61.9,110.8 61.9,110.8 61.9,110.8 61.9,110.7 
	61.9,110.7 61.9,110.7 61.9,110.7 61.9,110.7 61.9,110.5 61.9,110.5 61.9,110.5 61.9,110.5 61.8,110.5 61.8,110.3 61.8,110.3 
	61.8,110.3 61.8,110.3 61.8,110.3 61.8,110.3 61.6,110.2 61.6,110.2 61.6,110.2 61.6,110.2 61.6,110.2 61.4,110.2 61.4,110.2 
	61.4,110.2 61.4,110.2 61.4,110 61.4,110 61.3,110 61.3,110 61.3,110 61.3,110 61.1,110 61.1,110 61.1,110 61.1,110 "/>
<polyline class="st2" points="87.4,109.7 89.2,109.5 89.2,109 89.2,108.6 89.2,108.2 89.2,107.7 89.2,107.4 89.2,107.1 89.2,106.9 
	89.2,106.8 89.2,106.6 89.2,106.4 87.4,109.7 89.2,106.4 89.2,106.4 "/>
<path class="st0" d="M91.9,62.4c1.9-2,1.9-5,0-7c-1.9-1.8-5.1-1.6-7,0.3c-1.9,2-1.9,5,0,7C86.9,64.7,90,64.5,91.9,62.4"/>
<path class="st0" d="M103.6,79.8c1.9-1.9,1.9-5.1,0-7s-5.1-1.6-7,0.3s-1.9,5.1,0,7S101.6,81.9,103.6,79.8"/>
<path class="st0" d="M97.7,100.6c1.9-1.9,1.9-5.1,0-7s-5.1-1.6-7,0.3s-1.9,5.1,0,7C92.6,102.7,95.7,102.5,97.7,100.6"/>
<path class="st0" d="M78.2,84.6c1.9-1.9,1.9-5.1,0-7s-5.1-1.6-7,0.3s-1.9,5.1,0,7C73.2,86.8,76.3,86.7,78.2,84.6"/>
<path class="st0" d="M64,63.7c1.9-2,1.9-5,0-7c-2-1.8-5-1.6-7,0.3s-2,5,0,7C59,65.8,62.1,65.8,64,63.7"/>
<path class="st0" d="M52.8,82.1c2-1.9,2-5.1,0-7s-5-1.6-7,0.3s-2,5.1,0,7C47.7,84.4,50.8,84.2,52.8,82.1"/>
<path class="st0" d="M78.4,110.2c1.9-1.9,1.9-5.1,0-7s-5.1-1.6-7,0.3s-1.9,5.1,0,7S76.4,112.3,78.4,110.2"/>
<path class="st0" d="M59,102.3c2-1.9,2-5.1,0-7c-2-2-5-1.6-7,0.3s-2,5.1,0,7S57,104.3,59,102.3"/>
<line class="st3" x1="24.2" y1="106.2" x2="24.2" y2="56.9"/>
<line class="st3" x1="126.4" y1="106.2" x2="126.4" y2="56.9"/>
<path class="st3" d="M75.2,24.8c-21.8,0-41.6,12.4-51,32.1 M126.3,56.9c-9.4-19.6-29.3-32.1-51-32.1"/>
<path class="st3" d="M140.3,81.5c0-36.2-29.2-65.4-65.1-65.4c-36,0-65.2,29.2-65.2,65.4s29.2,65.4,65.1,65.4
	C111.1,146.9,140.3,117.5,140.3,81.5"/>
<path class="st3" d="M141.8,81.3c0-37.1-30-67.1-66.7-67.1c-36.9,0-66.9,30-66.9,67.1s30,67.1,66.7,67.1
	C111.9,148.4,141.8,118.3,141.8,81.3"/>
<path class="st3" d="M126,81.6c0-28-22.7-50.6-50.6-50.6S24.6,53.6,24.6,81.6s22.7,50.6,50.6,50.6S126,109.5,126,81.6"/>
<path class="st3" d="M124.4,81.6c0-27.2-22-49.2-49.2-49.2S26,54.3,26,81.6s22,49.2,49.2,49.2S124.4,108.6,124.4,81.6"/>
<path class="st3" d="M117.1,81.6c0-22.5-18.5-40.8-41.3-40.8S34.4,59,34.4,81.6s18.5,40.8,41.3,40.8S117.1,104.1,117.1,81.6"/>
<path class="st3" d="M7.2,46c0-2.2,1.2-4.2,3.1-5.2l62-35.1c1.8-1,4.1-1,6,0l61.9,35.1c1.9,1.2,3.1,3.3,3.1,5.6V117
	c0,2.2-1.2,4.3-3.1,5.3l-61.9,35c-1.8,1-4.1,1-6,0l-62-35c-1.9-1-3.1-2.8-3.1-4.7v0.3V45.4"/>
<path class="st3" d="M126.4,106.2V106l0,0l0,0l0,0l0,0l0,0l0,0l0,0l0,0l0,0c-9.8,19.7-30.4,32.3-53,32.1h0.1
	c-21.1-0.6-40.2-12.9-49.3-32"/>
<path class="st0" d="M80.5,42.7c19.3,2.4,34.3,18.9,34.3,38.9c0,21.7-17.6,39.2-39.2,39.2s-39.2-17.6-39.2-39.2
	c0-19.2,13.8-35.2,32-38.5"/>
<g>
	<text transform="matrix(1 9.605193e-03 -9.605193e-03 1 47.6002 64.0928)" class="st4 st5 st6">1</text>
	<text transform="matrix(1 9.605193e-03 -9.605193e-03 1 47.6002 64.0928)" class="st7 st5 st6">1</text>
</g>
<g>
	<text transform="matrix(1 9.605193e-03 -9.605193e-03 1 96.7402 64.0932)" class="st4 st5 st6">2</text>
	<text transform="matrix(1 9.605193e-03 -9.605193e-03 1 96.7402 64.0932)" class="st7 st5 st6">2</text>
</g>
<g>
	<text transform="matrix(1 9.605193e-03 -9.605193e-03 1 103.13 90.6934)" class="st4 st5 st6">3</text>
	<text transform="matrix(1 9.605193e-03 -9.605193e-03 1 103.13 90.6934)" class="st7 st5 st6">3</text>
</g>
<g>
	<text transform="matrix(1 9.605193e-03 -9.605193e-03 1 88.2999 113.5461)" class="st4 st5 st6">4</text>
	<text transform="matrix(1 9.605193e-03 -9.605193e-03 1 88.2999 113.5461)" class="st7 st5 st6">4</text>
</g>
<g>
	<text transform="matrix(1 9.605193e-03 -9.605193e-03 1 71.2501 73.8161)" class="st4 st5 st6">8</text>
	<text transform="matrix(1 9.605193e-03 -9.605193e-03 1 71.2501 73.8161)" class="st7 st5 st6">8</text>
</g>
<g>
	<text transform="matrix(1 9.605193e-03 -9.605193e-03 1 71.8348 99.4693)" class="st4 st5 st6">5</text>
	<text transform="matrix(1 9.605193e-03 -9.605193e-03 1 71.8348 99.4693)" class="st7 st5 st6">5</text>
</g>
<g>
	<text transform="matrix(1 9.605193e-03 -9.605193e-03 1 56.6911 114.0462)" class="st4 st5 st6">6</text>
	<text transform="matrix(1 9.605193e-03 -9.605193e-03 1 56.6911 114.0462)" class="st7 st5 st6">6</text>
</g>
<g>
	<text transform="matrix(1 9.605193e-03 -9.605193e-03 1 37.9088 92.316)" class="st4 st5 st6">7</text>
	<text transform="matrix(1 9.605193e-03 -9.605193e-03 1 37.9088 92.316)" class="st7 st5 st6">7</text>
</g>
</svg>
