<?xml version="1.0" encoding="utf-8"?>
<!-- Generator: Adobe Illustrator 24.2.1, SVG Export Plug-In . SVG Version: 6.00 Build 0)  -->
<svg version="1.1" id="图层_1" xmlns="http://www.w3.org/2000/svg" xmlns:xlink="http://www.w3.org/1999/xlink" x="0px" y="0px"
	 viewBox="0 0 148.7 163.6" style="enable-background:new 0 0 148.7 163.6;" xml:space="preserve">
<style type="text/css">
	.st0{fill:none;stroke:#040000;stroke-width:0.5;stroke-linecap:round;stroke-linejoin:round;}
	.st1{fill:none;stroke:#AAABAB;stroke-width:0.5;stroke-linecap:round;stroke-linejoin:round;}
	.st2{fill:#33CCFF;}
	.st3{font-family:'Arial-BoldMT';}
	.st4{font-size:12px;}
	.st5{fill:none;stroke:#33CCFF;stroke-width:0.25;stroke-miterlimit:10;}
	.st6{fill:none;stroke:#33CCFF;stroke-width:0.25;stroke-miterlimit:10.0003;}
	.st7{font-size:12.0006px;}
	.st8{fill:none;stroke:#33CCFF;stroke-width:0.25;stroke-miterlimit:10.0005;}
	.st9{fill:none;stroke:#33CCFF;stroke-width:0.25;stroke-miterlimit:10.0002;}
	.st10{fill:none;stroke:#040000;stroke-width:0.75;stroke-linecap:round;stroke-linejoin:round;}
	.st11{fill:none;stroke:#040000;stroke-width:0.6;stroke-linecap:round;stroke-linejoin:round;}
	.st12{fill:#040000;}
</style>
<polyline class="st0" points="67.1,43.3 67,51.4 67.2,52 67.4,52.4 67.6,52.9 68.5,53.9 69,54.1 69.5,54.2 69.9,54.2 75.5,54.2 
	76.2,54.2 76.7,54 77.2,53.8 78.1,52.8 78.3,52.3 78.4,51.8 78.5,51.5 78.5,51.5 78.6,43.3 "/>
<polygon class="st1" points="144.2,116.1 143.4,46.2 139,38.4 78.1,4.2 69.1,4.4 9,40.1 4.7,47.7 5.5,117.7 9.9,125.5 70.8,159.7 
	79.7,159.4 139.9,123.7 "/>
<g>
	<text transform="matrix(1 -4.811484e-04 4.811484e-04 1 85.0666 112.7674)" class="st2 st3 st4">6</text>
	<text transform="matrix(1 -4.811484e-04 4.811484e-04 1 85.0666 112.7674)" class="st5 st3 st4">6</text>
</g>
<g>
	<text transform="matrix(1 -4.811484e-04 4.811484e-04 1 99.828 91.7758)" class="st2 st3 st4">7</text>
	<text transform="matrix(1 -4.811484e-04 4.811484e-04 1 99.828 91.7758)" class="st5 st3 st4">7</text>
</g>
<g>
	<text transform="matrix(1 -7.403768e-03 7.403768e-03 1 45.1299 66.58)" class="st2 st3 st4">2</text>
	<text transform="matrix(1 -7.403768e-03 7.403768e-03 1 45.1299 66.58)" class="st6 st3 st4">2</text>
</g>
<g>
	<text transform="matrix(0.9998 -2.220493e-02 2.220493e-02 0.9998 37.8897 90.9533)" class="st2 st3 st7">3</text>
	<text transform="matrix(0.9998 -2.220493e-02 2.220493e-02 0.9998 37.8897 90.9533)" class="st8 st3 st7">3</text>
</g>
<g>
	<text transform="matrix(1 -4.811484e-04 4.811484e-04 1 53.3656 112.7679)" class="st2 st3 st4">4</text>
	<text transform="matrix(1 -4.811484e-04 4.811484e-04 1 53.3656 112.7679)" class="st5 st3 st4">4</text>
</g>
<g>
	<text transform="matrix(1 -6.028580e-03 6.028580e-03 1 69.7633 100.9284)" class="st2 st3 st4">5</text>
	<text transform="matrix(1 -6.028580e-03 6.028580e-03 1 69.7633 100.9284)" class="st9 st3 st4">5</text>
</g>
<g>
	<text transform="matrix(1 -4.811484e-04 4.811484e-04 1 69.763 74.8828)" class="st2 st3 st4">8</text>
	<text transform="matrix(1 -4.811484e-04 4.811484e-04 1 69.763 74.8828)" class="st5 st3 st4">8</text>
</g>
<g>
	<text transform="matrix(1 9.605193e-03 -9.605193e-03 1 94.4481 66.58)" class="st2 st3 st7">1</text>
	<text transform="matrix(1 9.605193e-03 -9.605193e-03 1 94.4481 66.58)" class="st8 st3 st7">1</text>
</g>
<circle class="st1" cx="74.4" cy="81.9" r="67.3"/>
<circle class="st1" cx="74.6" cy="81.9" r="64.4"/>
<circle class="st10" cx="73" cy="81.7" r="39.1"/>
<circle class="st1" cx="73.1" cy="81.6" r="41.3"/>
<circle class="st1" cx="73.1" cy="81.6" r="50.3"/>
<circle class="st1" cx="73.5" cy="81.7" r="48.1"/>
<path class="st11" d="M48.4,125.6"/>
<path class="st11" d="M98.3,37"/>
<path class="st11" d="M92.4,36.7"/>
<path class="st1" d="M123.1,105.4c-9.3,18.6-28.3,31.5-50.5,31.3s-40.9-13.4-49.9-32.2l0.4-46.7C29,43,51.1,27.1,73.6,27
	c23.1-0.1,42.6,13.4,49.9,31.7L123.1,105.4L123.1,105.4z"/>
<path class="st11" d="M45.1,120.8"/>
<circle class="st11" cx="87" cy="59.7" r="5"/>
<circle class="st12" cx="87" cy="59.7" r="3.4"/>
<circle class="st12" cx="97.8" cy="78.2" r="3.4"/>
<circle class="st12" cx="73" cy="81.8" r="3.4"/>
<circle class="st12" cx="58.6" cy="59.9" r="3.4"/>
<circle class="st12" cx="47.1" cy="78.3" r="3.4"/>
<circle class="st12" cx="53.4" cy="99" r="3.4"/>
<circle class="st12" cx="73.2" cy="107.8" r="3.4"/>
<circle class="st12" cx="91.8" cy="98.7" r="3.4"/>
<circle class="st11" cx="97.8" cy="78.1" r="5"/>
<circle class="st11" cx="91.8" cy="98.7" r="5"/>
<circle class="st11" cx="73.2" cy="107.8" r="5"/>
<circle class="st11" cx="53.4" cy="99" r="5"/>
<circle class="st11" cx="47.1" cy="78.3" r="5"/>
<circle class="st11" cx="58.6" cy="59.9" r="5"/>
<circle class="st11" cx="73" cy="81.8" r="5"/>
</svg>
