<?xml version="1.0" encoding="utf-8"?>
<!-- Generator: Adobe Illustrator 24.2.1, SVG Export Plug-In . SVG Version: 6.00 Build 0)  -->
<svg version="1.1" id="图层_1" xmlns="http://www.w3.org/2000/svg" xmlns:xlink="http://www.w3.org/1999/xlink" x="0px" y="0px"
	 viewBox="0 0 149 166.7" style="enable-background:new 0 0 149 166.7;" xml:space="preserve">
<style type="text/css">
	.st0{fill:none;stroke:#040000;stroke-width:0.42;stroke-miterlimit:2;}
	.st1{fill:none;stroke:#AAABAB;stroke-width:0.42;stroke-miterlimit:2;}
	.st2{fill:none;stroke:#040000;stroke-width:0.75;stroke-miterlimit:2;}
	.st3{fill:#040000;}
	.st4{fill:#33CCFF;}
	.st5{font-family:'Arial-BoldMT';}
	.st6{font-size:12px;}
	.st7{fill:none;stroke:#33CCFF;stroke-width:0.25;stroke-miterlimit:10;}
</style>
<path class="st0" d="M138.6,25.4"/>
<path class="st0" d="M82.4-1.8"/>
<path class="st0" d="M87.4,47.2"/>
<path class="st0" d="M37.9-1.8"/>
<path class="st0" d="M79.1,141.7"/>
<path class="st1" d="M25,59L25,59z"/>
<path class="st2" d="M56.3,48.2L69,60.9c2.4,2.6,6.4,2.8,9,0.3c0.1-0.1,0.2-0.2,0.3-0.3l13-12.7"/>
<path class="st0" d="M80.5,137.8"/>
<path class="st0" d="M138.6,143.1"/>
<path class="st1" d="M73.9,139.3c20.5-0.1,39.2-11.5,48.6-29.7 M25,109.6c9.4,18.3,28.3,29.7,48.9,29.7"/>
<path class="st1" d="M73.9,29.5C53.4,29.4,34.5,40.7,25,59 M122.4,109.6V59C113,40.9,94.3,29.5,73.9,29.6"/>
<path class="st1" d="M25.6,84.3c-0.1,26.6,21.4,48.2,48,48.3s48.2-21.4,48.3-48s-21.4-48.2-48-48.3l0,0
	C47.4,36.3,25.8,57.7,25.6,84.3"/>
<path class="st1" d="M32.1,84.3c0.1,23,18.8,41.6,41.8,41.5S115.5,107,115.4,84c-0.1-22.9-18.6-41.4-41.5-41.5
	C50.8,42.4,32.1,61.1,32.1,84.3C32.1,84.2,32.1,84.2,32.1,84.3"/>
<path class="st2" d="M33.6,84.3c0,22.3,18.1,40.3,40.3,40.3s40.3-18.1,40.3-40.3s-18-40.4-40.3-40.4c-22.2,0-40.3,17.9-40.3,40.1
	C33.6,84.1,33.6,84.2,33.6,84.3"/>
<polygon class="st1" points="4.4,43.9 4.4,124.3 74.2,164.3 143.1,124.6 143.1,44.2 73.6,4.2 "/>
<path class="st0" d="M94.2,71.9c0,0.6,0.6,1.5,1.2,1.5c0.8-0.1,1.4-0.7,1.5-1.5s-0.5-1.4-1.3-1.5c-0.1,0-0.1,0-0.2,0
	C94.7,70.5,94.1,71.2,94.2,71.9"/>
<path class="st0" d="M94.2,96.9c0,0.6,0.6,1.5,1.2,1.5c0.8-0.1,1.4-0.7,1.5-1.5s-0.5-1.4-1.3-1.5c-0.1,0-0.1,0-0.2,0
	C94.7,95.5,94.1,96.2,94.2,96.9L94.2,96.9"/>
<path class="st3" d="M48.2,71.9c0.1,2.1,2,3.8,4.1,3.7c2-0.1,3.5-1.7,3.7-3.7c-0.1-2.1-2-3.8-4.1-3.7C49.9,68.4,48.3,69.9,48.2,71.9
	"/>
<path class="st3" d="M48.2,96.9c0.1,2.1,2,3.8,4.1,3.7c2-0.1,3.5-1.7,3.7-3.7c-0.1-2.1-2-3.8-4.1-3.7C49.9,93.3,48.3,94.9,48.2,96.9
	"/>
<path class="st3" d="M70.2,109.6c0,2.1,1.7,3.9,3.9,3.9s3.9-1.7,3.9-3.9l0,0c0-2.1-1.7-3.9-3.9-3.9C72,105.7,70.2,107.4,70.2,109.6
	L70.2,109.6"/>
<path class="st3" d="M91.7,96.9c0,2.1,1.7,3.9,3.9,3.9s3.9-1.7,3.9-3.9s-1.8-3.9-4-3.9C93.4,93,91.7,94.8,91.7,96.9"/>
<path class="st3" d="M91.7,71.9c0,2.1,1.7,3.9,3.9,3.9s3.9-1.7,3.9-3.9s-1.8-3.9-4-3.9S91.7,69.8,91.7,71.9L91.7,71.9"/>
<path class="st1" d="M9.9,84.3c0,35.7,28.9,64.6,64.6,64.6s64.5-29,64.5-64.6s-28.9-64.6-64.6-64.6C38.9,19.7,10,48.5,9.9,84.1
	C9.9,84.1,9.9,84.2,9.9,84.3"/>
<path class="st1" d="M6.2,84.1c0,37.4,30.3,67.7,67.7,67.7s67.7-30.3,67.7-67.7s-30.3-67.7-67.7-67.7C36.6,16.3,6.3,46.6,6.2,83.9
	C6.2,84,6.2,84.1,6.2,84.1"/>
<path class="st1" d="M28.3,84.3c-0.1,25.1,20.2,45.5,45.3,45.6s45.5-20.2,45.6-45.3C119.3,59.4,99,39,73.9,38.9
	C48.8,38.9,28.4,59.2,28.3,84.3"/>
<path class="st0" d="M72.4,109.3c-0.1,0.8,0.5,1.4,1.3,1.5c0.1,0,0.1,0,0.2,0c0.8-0.1,1.4-0.7,1.5-1.5c-0.2-0.7-0.7-1.3-1.5-1.5
	C73.1,107.9,72.5,108.5,72.4,109.3"/>
<path class="st0" d="M50.6,96.9c0.1,0.8,0.8,1.4,1.6,1.3c0.7-0.1,1.3-0.6,1.3-1.3c-0.1-0.8-0.8-1.4-1.6-1.3
	C51.3,95.6,50.7,96.2,50.6,96.9"/>
<g>
	<text transform="matrix(1 0 0 1 49.4645 64.5377)" class="st4 st5 st6">5</text>
	<text transform="matrix(1 0 0 1 49.4645 64.5377)" class="st7 st5 st6">5</text>
</g>
<g>
	<text transform="matrix(1 0 0 1 40.4327 93.0381)" class="st4 st5 st6">4</text>
	<text transform="matrix(1 0 0 1 40.4327 93.0381)" class="st7 st5 st6">4</text>
</g>
<g>
	<text transform="matrix(1 0 0 1 70.2291 102.5108)" class="st4 st5 st6">3</text>
	<text transform="matrix(1 0 0 1 70.2291 102.5108)" class="st7 st5 st6">3</text>
</g>
<g>
	<text transform="matrix(1 0 0 1 90.9693 62.9976)" class="st4 st5 st6">1</text>
	<text transform="matrix(1 0 0 1 90.9693 62.9976)" class="st7 st5 st6">1</text>
</g>
<g>
	<text transform="matrix(1 0 0 1 100.9791 93.0381)" class="st4 st5 st6">2</text>
	<text transform="matrix(1 0 0 1 100.9791 93.0381)" class="st7 st5 st6">2</text>
</g>
<line class="st1" x1="25" y1="59" x2="25" y2="109.6"/>
<circle class="st2" cx="95.6" cy="96.9" r="5.7"/>
<circle class="st2" cx="73.9" cy="109.6" r="5.7"/>
<circle class="st2" cx="52.1" cy="96.9" r="5.7"/>
<circle class="st2" cx="52" cy="71.9" r="5.7"/>
<circle class="st2" cx="95.5" cy="71.9" r="5.7"/>
</svg>
