<?xml version="1.0" encoding="utf-8"?>
<!-- Generator: Adobe Illustrator 24.2.1, SVG Export Plug-In . SVG Version: 6.00 Build 0)  -->
<svg version="1.1" id="图层_1" xmlns="http://www.w3.org/2000/svg" xmlns:xlink="http://www.w3.org/1999/xlink" x="0px" y="0px"
	 viewBox="0 0 147.8 147.3" style="enable-background:new 0 0 147.8 147.3;" xml:space="preserve">
<style type="text/css">
	.st0{fill:none;stroke:#8C8C8C;stroke-width:0.5;stroke-linecap:round;stroke-linejoin:round;}
	.st1{fill:none;stroke:#8C8C8C;stroke-linecap:round;stroke-linejoin:round;}
	.st2{fill:none;stroke:#000000;stroke-width:0.5;stroke-linecap:round;stroke-linejoin:round;}
	.st3{fill:#221714;}
	.st4{fill:#33CCFF;}
	.st5{font-family:'Arial-BoldMT';}
	.st6{font-size:12px;}
	.st7{fill:none;stroke:#33CCFF;stroke-width:0.25;stroke-miterlimit:10;}
	.st8{fill:none;stroke:#000000;stroke-width:0.5;stroke-miterlimit:10;}
</style>
<line class="st0" x1="40.2" y1="103" x2="43.1" y2="99.6"/>
<line class="st0" x1="54" y1="108.9" x2="51.2" y2="112.2"/>
<path class="st0" d="M66.4,122.5"/>
<line class="st0" x1="66.4" y1="113.4" x2="66.4" y2="109.6"/>
<line class="st0" x1="66.4" y1="39.2" x2="66.4" y2="35.4"/>
<line class="st0" x1="80.7" y1="39.2" x2="66.4" y2="39.2"/>
<path class="st0" d="M80.7,26.4"/>
<path class="st0" d="M80.7,25.9"/>
<line class="st0" x1="80.7" y1="35.4" x2="80.7" y2="39.2"/>
<line class="st0" x1="80.7" y1="109.6" x2="80.7" y2="113.4"/>
<path class="st0" d="M80.7,122.5"/>
<line class="st0" x1="34" y1="57.8" x2="36.4" y2="57.8"/>
<line class="st0" x1="115.6" y1="61.8" x2="111.1" y2="61.8"/>
<line class="st0" x1="111.1" y1="87" x2="115.6" y2="87"/>
<line class="st0" x1="66.4" y1="109.6" x2="80.7" y2="109.6"/>
<line class="st0" x1="33.6" y1="56.4" x2="37.9" y2="57.3"/>
<line class="st0" x1="34" y1="71.3" x2="29.8" y2="70.2"/>
<line class="st0" x1="51.2" y1="36.6" x2="54" y2="40"/>
<line class="st0" x1="104" y1="99.6" x2="106.8" y2="103"/>
<line class="st0" x1="95.9" y1="112.2" x2="93" y2="108.9"/>
<line class="st0" x1="43.1" y1="49.2" x2="40.2" y2="45.7"/>
<path class="st0" d="M73.6,143.2l7.6-0.5l7.6-1.2C164,121.9,158.1,16.9,81.2,6.2l-7.6-0.5L66,6.2C-11,17-17,121.8,58.3,141.5
	l7.6,1.2L73.6,143.2z"/>
<path class="st0" d="M73.6,137.7l7.6-0.5l7.6-1.4c67.9-19,62.1-113.7-7.6-124.1l-7.6-0.5L66,11.7C-3.7,22.1-9.6,116.8,58.3,135.8
	l7.6,1.4L73.6,137.7z"/>
<path class="st0" d="M73.6,134.8l7.4-0.5l7.1-1.2c64.8-18.4,59.7-108.2-7.1-118.9L73.6,14l-7.4,0.2c-66.7,10.7-72,100.6-7.2,119
	l7.1,1.2L73.6,134.8z"/>
<path class="st0" d="M73.6,122.9l6.3-0.5l6.9-1.4c50.5-16.3,45.5-85.8-6.3-94.9l-6.9-0.5l-6.9,0.5c-51.8,9-56.6,78.8-6.9,94.9
	l6.9,1.4L73.6,122.9z"/>
<polyline class="st0" points="95.9,112.3 101.8,108.2 106.8,103 "/>
<polyline class="st0" points="115.6,87 117,80.9 117.5,74.4 117,68 115.6,61.8 "/>
<polyline class="st0" points="51.2,36.6 45.2,40.7 40.2,45.7 "/>
<polyline class="st0" points="33.6,56.4 31,63 29.8,70.2 "/>
<polyline class="st0" points="40.2,103 45.2,108.2 51.2,112.3 "/>
<polyline class="st0" points="114.4,87 115.8,80.9 116.3,74.4 115.8,68 114.4,61.8 "/>
<polyline class="st0" points="95.2,111.3 101.1,107.3 106.1,102.3 "/>
<line class="st0" x1="34.5" y1="56.6" x2="34" y2="57.8"/>
<polyline class="st0" points="51.9,37.3 45.9,41.6 41,46.6 "/>
<polyline class="st0" points="41,102.3 45.9,107.3 51.9,111.3 "/>
<polyline class="st0" points="105.4,101.3 108.7,97 111.3,92 113.5,87 "/>
<path class="st0" d="M113.5,61.8l-2.1-5.5c-9.9-20-32.7-29-53.5-20.7l-5.3,2.6"/>
<polyline class="st0" points="41.7,47.6 38.3,51.8 35.7,56.8 "/>
<polyline class="st0" points="31.9,70.6 31.9,76.1 32.4,81.6 33.8,87 35.7,92 38.3,97 41.7,101.3 "/>
<path class="st0" d="M52.5,110.6l5.7,2.6c9.8,4,20.8,4,30.7,0l5.5-2.6"/>
<polyline class="st0" points="112.3,87 113.7,80.9 114.2,74.4 113.7,68 112.3,61.8 "/>
<polyline class="st0" points="93.7,109.6 99.7,105.6 104.7,100.6 "/>
<line class="st0" x1="36.7" y1="57.1" x2="36.4" y2="57.8"/>
<polyline class="st0" points="53.3,39.3 47.4,43.3 42.4,48.3 "/>
<polyline class="st0" points="42.4,100.6 47.4,105.6 53.3,109.6 "/>
<path class="st0" d="M111.1,61.8l-2.6-6C98.7,38,78.9,30.7,59.7,37.3L54,40"/>
<path class="st0" d="M54,108.9l5.2,2.4c10.2,3.6,18.3,3.7,28.5,0l5.2-2.4"/>
<polyline class="st0" points="34,71.3 34,77.3 35,83.5 36.9,89.2 39.5,94.6 43.1,99.6 "/>
<polyline class="st0" points="43.1,49.2 40.2,53 37.9,57.3 "/>
<polyline class="st0" points="104,99.6 108.2,93.7 111.1,87 "/>
<path class="st1" d="M73.6,105.1l5.5-0.5l5-1.2C113.7,91.3,110,51,79,44l-5.5-0.5L68.3,44c-31.1,6.4-34.8,47.7-5.2,59.4l5.2,1.2
	L73.6,105.1z"/>
<path class="st2" d="M73.6,103l5-0.5l4.8-1.2c27.5-11.2,24.1-48.6-4.8-55.2l-5-0.2l-5,0.2c-28.9,6.4-32,44.3-4.8,55.2l4.8,1.2
	L73.6,103z"/>
<path class="st3" d="M59.4,84.3c0.1-1.7-1.2-3.1-2.9-3.2s-3.1,1.2-3.2,2.9s1.2,3.1,2.9,3.2h0.1C57.9,87.3,59.3,86,59.4,84.3
	L59.4,84.3z"/>
<path class="st3" d="M76.6,94.3c0.1-1.7-1.2-3.1-2.9-3.2C72,91,70.6,92.3,70.5,94s1.2,3.1,2.9,3.2h0.1C75.1,97.3,76.5,96,76.6,94.3
	L76.6,94.3z"/>
<path class="st3" d="M93.8,84.3c0.1-1.7-1.2-3.1-2.9-3.2c-1.7-0.1-3.1,1.2-3.2,2.9s1.2,3.1,2.9,3.2h0.1C92.4,87.3,93.8,86,93.8,84.3
	L93.8,84.3z"/>
<path class="st3" d="M93.8,64.6c0.1-1.7-1.2-3.1-2.9-3.2c-1.7-0.1-3.1,1.2-3.2,2.9s1.2,3.1,2.9,3.2h0.1
	C92.4,67.5,93.8,66.2,93.8,64.6L93.8,64.6z"/>
<path class="st3" d="M76.6,54.6c0.1-1.7-1.2-3.1-2.9-3.2c-1.7-0.1-3.1,1.2-3.2,2.9s1.2,3.1,2.9,3.2h0.1
	C75.1,57.6,76.5,56.3,76.6,54.6L76.6,54.6z"/>
<path class="st3" d="M59.4,64.6c0.1-1.7-1.2-3.1-2.9-3.2c-1.7-0.1-3.1,1.2-3.2,2.9s1.2,3.1,2.9,3.2h0.1
	C57.9,67.6,59.3,66.3,59.4,64.6L59.4,64.6z"/>
<path class="st3" d="M57.5,64.6c0-0.6-0.5-1.2-1.2-1.2c-0.6,0-1.2,0.5-1.2,1.2l0,0c0,0.6,0.5,1.2,1.2,1.2
	C57,65.7,57.5,65.2,57.5,64.6z"/>
<path class="st3" d="M74.7,54.6c0-0.6-0.5-1.2-1.2-1.2s-1.2,0.5-1.2,1.2c0,0.6,0.5,1.2,1.2,1.2l0,0C74.1,55.7,74.7,55.2,74.7,54.6
	L74.7,54.6z"/>
<path class="st3" d="M91.9,64.6c0-0.6-0.5-1.2-1.1-1.2s-1.2,0.5-1.2,1.1c0,0.6,0.5,1.2,1.1,1.2l0,0C91.4,65.7,91.9,65.2,91.9,64.6z"
	/>
<path class="st3" d="M91.9,84.3c0-0.6-0.5-1.2-1.2-1.2s-1.2,0.5-1.2,1.2s0.5,1.2,1.2,1.2S91.9,84.9,91.9,84.3L91.9,84.3z"/>
<path class="st3" d="M74.7,94.3c0-0.6-0.5-1.2-1.2-1.2s-1.2,0.5-1.2,1.2s0.5,1.2,1.2,1.2l0,0C74.2,95.5,74.7,94.9,74.7,94.3
	L74.7,94.3z"/>
<g>
	<text transform="matrix(1 0 0 1 46.4151 82.2659)" class="st4 st5 st6">1</text>
	<text transform="matrix(1 0 0 1 46.4151 82.2659)" class="st7 st5 st6">1</text>
</g>
<g>
	<text transform="matrix(1 0 0 1 62.3853 98.6896)" class="st4 st5 st6">2</text>
	<text transform="matrix(1 0 0 1 62.3853 98.6896)" class="st7 st5 st6">2</text>
</g>
<g>
	<text transform="matrix(1 0 0 1 83.0101 97.2312)" class="st4 st5 st6">3</text>
	<text transform="matrix(1 0 0 1 83.0101 97.2312)" class="st7 st5 st6">3</text>
</g>
<g>
	<text transform="matrix(1 0 0 1 93.0203 74.4648)" class="st4 st5 st6">4</text>
	<text transform="matrix(1 0 0 1 93.0203 74.4648)" class="st7 st5 st6">4</text>
</g>
<text transform="matrix(1 0 0 1 78.8022 57.4402)" class="st4 st5 st6">5</text>
<text transform="matrix(1 0 0 1 78.8022 57.4402)" class="st7 st5 st6">5</text>
<g>
	<text transform="matrix(1 0 0 1 56.8968 60.1299)" class="st4 st5 st6">6</text>
	<text transform="matrix(1 0 0 1 56.8968 60.1299)" class="st7 st5 st6">6</text>
</g>
<circle class="st8" cx="56.3" cy="84.2" r="4.6"/>
<circle class="st8" cx="73.5" cy="94.2" r="4.6"/>
<circle class="st8" cx="90.8" cy="84.2" r="4.6"/>
<circle class="st8" cx="90.8" cy="64.4" r="4.6"/>
<circle class="st8" cx="73.4" cy="54.5" r="4.6"/>
<circle class="st8" cx="56.3" cy="64.4" r="4.6"/>
</svg>
